G04 #@! TF.GenerationSoftware,KiCad,Pcbnew,7.0.10*
G04 #@! TF.CreationDate,2024-03-17T21:58:49+02:00*
G04 #@! TF.ProjectId,MasterShield,4d617374-6572-4536-9869-656c642e6b69,rev?*
G04 #@! TF.SameCoordinates,Original*
G04 #@! TF.FileFunction,Copper,L2,Inr*
G04 #@! TF.FilePolarity,Positive*
%FSLAX46Y46*%
G04 Gerber Fmt 4.6, Leading zero omitted, Abs format (unit mm)*
G04 Created by KiCad (PCBNEW 7.0.10) date 2024-03-17 21:58:49*
%MOMM*%
%LPD*%
G01*
G04 APERTURE LIST*
G04 #@! TA.AperFunction,ComponentPad*
%ADD10R,2.400000X2.400000*%
G04 #@! TD*
G04 #@! TA.AperFunction,ComponentPad*
%ADD11C,2.400000*%
G04 #@! TD*
G04 #@! TA.AperFunction,ComponentPad*
%ADD12R,1.700000X1.700000*%
G04 #@! TD*
G04 #@! TA.AperFunction,ComponentPad*
%ADD13O,1.700000X1.700000*%
G04 #@! TD*
G04 #@! TA.AperFunction,ViaPad*
%ADD14C,0.800000*%
G04 #@! TD*
G04 #@! TA.AperFunction,Conductor*
%ADD15C,0.250000*%
G04 #@! TD*
G04 #@! TA.AperFunction,Conductor*
%ADD16C,0.300000*%
G04 #@! TD*
G04 APERTURE END LIST*
D10*
X245308000Y-59182000D03*
D11*
X241808000Y-59182000D03*
X238308000Y-59182000D03*
X234808000Y-59182000D03*
D10*
X219090000Y-59182000D03*
D11*
X215590000Y-59182000D03*
X212090000Y-59182000D03*
X208590000Y-59182000D03*
D10*
X205232000Y-108077000D03*
D11*
X205232000Y-111577000D03*
X205232000Y-115077000D03*
X205232000Y-118577000D03*
D10*
X249478800Y-118577000D03*
D11*
X249478800Y-115077000D03*
X249478800Y-111577000D03*
X249478800Y-108077000D03*
D12*
X251460000Y-101600000D03*
D13*
X251460000Y-99060000D03*
X251460000Y-96520000D03*
X251460000Y-93980000D03*
X251460000Y-91440000D03*
X251460000Y-88900000D03*
X251460000Y-86360000D03*
X251460000Y-83820000D03*
D12*
X251460000Y-80010000D03*
D13*
X251460000Y-77470000D03*
X251460000Y-74930000D03*
X251460000Y-72390000D03*
X251460000Y-69850000D03*
X251460000Y-67310000D03*
X251460000Y-64770000D03*
X251460000Y-62230000D03*
X251460000Y-59690000D03*
X251460000Y-57150000D03*
D12*
X203200000Y-88900000D03*
D13*
X203200000Y-91440000D03*
X203200000Y-93980000D03*
X203200000Y-96520000D03*
X203200000Y-99060000D03*
X203200000Y-101600000D03*
D12*
X203200000Y-66040000D03*
D13*
X203200000Y-68580000D03*
X203200000Y-71120000D03*
X203200000Y-73660000D03*
X203200000Y-76200000D03*
X203200000Y-78740000D03*
X203200000Y-81280000D03*
X203200000Y-83820000D03*
D14*
X232791000Y-116459000D03*
X221615000Y-113284000D03*
X226695000Y-58039000D03*
X220682412Y-102016855D03*
X221615000Y-110744000D03*
X212852000Y-67437000D03*
X234061000Y-116459000D03*
X243332000Y-72390000D03*
X245872000Y-63119000D03*
X220726000Y-103124000D03*
X227203000Y-68580000D03*
X224536000Y-122174000D03*
X221996000Y-120269000D03*
X206629000Y-66040000D03*
X221996000Y-118364000D03*
X225171000Y-64643000D03*
X245491000Y-90551000D03*
X245491000Y-95631000D03*
X221996000Y-124079000D03*
X219456000Y-124079000D03*
X227076000Y-101854000D03*
X220472000Y-89789000D03*
X224536000Y-118364000D03*
X221996000Y-122174000D03*
X219837000Y-110744000D03*
X227076000Y-122174000D03*
X237109000Y-69723000D03*
X227076000Y-118364000D03*
X225552000Y-88392000D03*
X224536000Y-124079000D03*
X234696000Y-103759000D03*
X227076000Y-124079000D03*
X227076000Y-103124000D03*
X211963000Y-77216000D03*
X209423000Y-69977000D03*
X224536000Y-120269000D03*
X227076000Y-120269000D03*
X219456000Y-122174000D03*
X217424000Y-88138000D03*
X227711000Y-108204000D03*
X245872000Y-68072000D03*
X228981000Y-72009000D03*
X219456000Y-118364000D03*
X223266000Y-113284000D03*
X233807000Y-77724000D03*
X219456000Y-120269000D03*
X223266000Y-110744000D03*
X234696000Y-101854000D03*
X219837000Y-113284000D03*
X219710000Y-74930000D03*
X220218000Y-71374000D03*
X230124000Y-74738000D03*
X218567000Y-68580000D03*
X214884000Y-79629000D03*
X232664000Y-77597000D03*
X247650000Y-82296000D03*
X219456000Y-88392000D03*
X245110000Y-82902472D03*
X236118400Y-89255600D03*
X225298000Y-77851000D03*
X240030000Y-86741000D03*
X240030000Y-85471000D03*
X245110000Y-85471000D03*
X240030000Y-91821000D03*
X240030000Y-90678000D03*
X234696000Y-110236000D03*
X234696000Y-112522000D03*
X240030000Y-96901000D03*
X240030000Y-95631000D03*
X245110000Y-96901000D03*
X227076000Y-80772000D03*
X211455000Y-82296000D03*
X227457000Y-75819000D03*
X220472000Y-79756000D03*
X226949000Y-73279000D03*
X223835978Y-85409022D03*
X226504500Y-84518500D03*
X222137396Y-82225000D03*
X222631000Y-89535000D03*
X246380000Y-83058000D03*
X236194600Y-88036400D03*
D15*
X225933000Y-68580000D02*
X225425000Y-68580000D01*
D16*
X245872000Y-63119000D02*
X245364000Y-63119000D01*
D15*
X220682412Y-102016855D02*
X220726000Y-101973267D01*
D16*
X243332000Y-65151000D02*
X243332000Y-68580000D01*
X229489000Y-64135000D02*
X229489000Y-68580000D01*
D15*
X224282000Y-67437000D02*
X212852000Y-67437000D01*
X229489000Y-68580000D02*
X243332000Y-68580000D01*
X227203000Y-68580000D02*
X229489000Y-68580000D01*
X220726000Y-90713040D02*
X221305000Y-90134040D01*
X220726000Y-101973267D02*
X220726000Y-90713040D01*
D16*
X243332000Y-68580000D02*
X243332000Y-72390000D01*
X245364000Y-63119000D02*
X243332000Y-65151000D01*
D15*
X225425000Y-68580000D02*
X224282000Y-67437000D01*
D16*
X226695000Y-58293000D02*
X226695000Y-61341000D01*
D15*
X227203000Y-68580000D02*
X225806000Y-68580000D01*
X221305000Y-90134040D02*
X221305000Y-67508000D01*
D16*
X226695000Y-61341000D02*
X229489000Y-64135000D01*
G04 #@! TA.AperFunction,Conductor*
G36*
X256543471Y-45720694D02*
G01*
X256655527Y-45726987D01*
X256824353Y-45737199D01*
X256837591Y-45738720D01*
X256969665Y-45761160D01*
X256971007Y-45761397D01*
X257116210Y-45788007D01*
X257128153Y-45790814D01*
X257260788Y-45829025D01*
X257263279Y-45829773D01*
X257400146Y-45872423D01*
X257410682Y-45876237D01*
X257539736Y-45929693D01*
X257543063Y-45931130D01*
X257672306Y-45989298D01*
X257681372Y-45993834D01*
X257804331Y-46061791D01*
X257808500Y-46064202D01*
X257928988Y-46137040D01*
X257936592Y-46142027D01*
X258051525Y-46223575D01*
X258056223Y-46227078D01*
X258166752Y-46313672D01*
X258172906Y-46318823D01*
X258278133Y-46412859D01*
X258283187Y-46417638D01*
X258382360Y-46516811D01*
X258387139Y-46521865D01*
X258481175Y-46627092D01*
X258486326Y-46633246D01*
X258572904Y-46743754D01*
X258576423Y-46748473D01*
X258657971Y-46863406D01*
X258662958Y-46871010D01*
X258735796Y-46991498D01*
X258738207Y-46995667D01*
X258806164Y-47118626D01*
X258810712Y-47127716D01*
X258868832Y-47256853D01*
X258870317Y-47260291D01*
X258923756Y-47389303D01*
X258927580Y-47399866D01*
X258970214Y-47536684D01*
X258970983Y-47539246D01*
X259009180Y-47671831D01*
X259011995Y-47683807D01*
X259038578Y-47828865D01*
X259038857Y-47830446D01*
X259061275Y-47962385D01*
X259062801Y-47975670D01*
X259072997Y-48144242D01*
X259073028Y-48144774D01*
X259079305Y-48256526D01*
X259079500Y-48263480D01*
X259079500Y-134616519D01*
X259079305Y-134623473D01*
X259073028Y-134735224D01*
X259072997Y-134735756D01*
X259062801Y-134904328D01*
X259061275Y-134917613D01*
X259038857Y-135049552D01*
X259038578Y-135051133D01*
X259011995Y-135196191D01*
X259009180Y-135208167D01*
X258970983Y-135340752D01*
X258970214Y-135343314D01*
X258927580Y-135480132D01*
X258923756Y-135490695D01*
X258870317Y-135619707D01*
X258868832Y-135623145D01*
X258810712Y-135752282D01*
X258806164Y-135761372D01*
X258738207Y-135884331D01*
X258735796Y-135888500D01*
X258662958Y-136008988D01*
X258657971Y-136016592D01*
X258576423Y-136131525D01*
X258572904Y-136136244D01*
X258486326Y-136246752D01*
X258481175Y-136252906D01*
X258387139Y-136358133D01*
X258382360Y-136363187D01*
X258283187Y-136462360D01*
X258278133Y-136467139D01*
X258172906Y-136561175D01*
X258166752Y-136566326D01*
X258056244Y-136652904D01*
X258051525Y-136656423D01*
X257936592Y-136737971D01*
X257928988Y-136742958D01*
X257808500Y-136815796D01*
X257804331Y-136818207D01*
X257681372Y-136886164D01*
X257672282Y-136890712D01*
X257543145Y-136948832D01*
X257539707Y-136950317D01*
X257410695Y-137003756D01*
X257400132Y-137007580D01*
X257263302Y-137050218D01*
X257260739Y-137050987D01*
X257128171Y-137089178D01*
X257116196Y-137091993D01*
X256971086Y-137118586D01*
X256969505Y-137118865D01*
X256865943Y-137136461D01*
X256845370Y-137138213D01*
X243536667Y-137159500D01*
X198123481Y-137159500D01*
X198116528Y-137159305D01*
X198112045Y-137159053D01*
X198004774Y-137153028D01*
X198004242Y-137152997D01*
X197835670Y-137142801D01*
X197822385Y-137141275D01*
X197690446Y-137118857D01*
X197688865Y-137118578D01*
X197543807Y-137091995D01*
X197531831Y-137089180D01*
X197399246Y-137050983D01*
X197396684Y-137050214D01*
X197259866Y-137007580D01*
X197249303Y-137003756D01*
X197120291Y-136950317D01*
X197116873Y-136948841D01*
X196987713Y-136890710D01*
X196978626Y-136886164D01*
X196855667Y-136818207D01*
X196851498Y-136815796D01*
X196731010Y-136742958D01*
X196723406Y-136737971D01*
X196608473Y-136656423D01*
X196603754Y-136652904D01*
X196493246Y-136566326D01*
X196487092Y-136561175D01*
X196381865Y-136467139D01*
X196376811Y-136462360D01*
X196277638Y-136363187D01*
X196272859Y-136358133D01*
X196178823Y-136252906D01*
X196173672Y-136246752D01*
X196087078Y-136136223D01*
X196083575Y-136131525D01*
X196002027Y-136016592D01*
X195997040Y-136008988D01*
X195924202Y-135888500D01*
X195921791Y-135884331D01*
X195903272Y-135850824D01*
X195853832Y-135761369D01*
X195849298Y-135752306D01*
X195791130Y-135623063D01*
X195789693Y-135619736D01*
X195736237Y-135490682D01*
X195732423Y-135480146D01*
X195689773Y-135343279D01*
X195689015Y-135340752D01*
X195684307Y-135324409D01*
X195650814Y-135208153D01*
X195648007Y-135196210D01*
X195621393Y-135050981D01*
X195621163Y-135049683D01*
X195598720Y-134917593D01*
X195597199Y-134904347D01*
X195587001Y-134735756D01*
X195586993Y-134735617D01*
X195580918Y-134627457D01*
X195580726Y-134620554D01*
X195583655Y-124079000D01*
X218550540Y-124079000D01*
X218570326Y-124267256D01*
X218570327Y-124267259D01*
X218628818Y-124447277D01*
X218628821Y-124447284D01*
X218723467Y-124611216D01*
X218850129Y-124751888D01*
X219003265Y-124863148D01*
X219003270Y-124863151D01*
X219176192Y-124940142D01*
X219176197Y-124940144D01*
X219361354Y-124979500D01*
X219361355Y-124979500D01*
X219550644Y-124979500D01*
X219550646Y-124979500D01*
X219735803Y-124940144D01*
X219908730Y-124863151D01*
X220061871Y-124751888D01*
X220188533Y-124611216D01*
X220283179Y-124447284D01*
X220341674Y-124267256D01*
X220361460Y-124079000D01*
X221090540Y-124079000D01*
X221110326Y-124267256D01*
X221110327Y-124267259D01*
X221168818Y-124447277D01*
X221168821Y-124447284D01*
X221263467Y-124611216D01*
X221390129Y-124751888D01*
X221543265Y-124863148D01*
X221543270Y-124863151D01*
X221716192Y-124940142D01*
X221716197Y-124940144D01*
X221901354Y-124979500D01*
X221901355Y-124979500D01*
X222090644Y-124979500D01*
X222090646Y-124979500D01*
X222275803Y-124940144D01*
X222448730Y-124863151D01*
X222601871Y-124751888D01*
X222728533Y-124611216D01*
X222823179Y-124447284D01*
X222881674Y-124267256D01*
X222901460Y-124079000D01*
X223630540Y-124079000D01*
X223650326Y-124267256D01*
X223650327Y-124267259D01*
X223708818Y-124447277D01*
X223708821Y-124447284D01*
X223803467Y-124611216D01*
X223930129Y-124751888D01*
X224083265Y-124863148D01*
X224083270Y-124863151D01*
X224256192Y-124940142D01*
X224256197Y-124940144D01*
X224441354Y-124979500D01*
X224441355Y-124979500D01*
X224630644Y-124979500D01*
X224630646Y-124979500D01*
X224815803Y-124940144D01*
X224988730Y-124863151D01*
X225141871Y-124751888D01*
X225268533Y-124611216D01*
X225363179Y-124447284D01*
X225421674Y-124267256D01*
X225441460Y-124079000D01*
X226170540Y-124079000D01*
X226190326Y-124267256D01*
X226190327Y-124267259D01*
X226248818Y-124447277D01*
X226248821Y-124447284D01*
X226343467Y-124611216D01*
X226470129Y-124751888D01*
X226623265Y-124863148D01*
X226623270Y-124863151D01*
X226796192Y-124940142D01*
X226796197Y-124940144D01*
X226981354Y-124979500D01*
X226981355Y-124979500D01*
X227170644Y-124979500D01*
X227170646Y-124979500D01*
X227355803Y-124940144D01*
X227528730Y-124863151D01*
X227681871Y-124751888D01*
X227808533Y-124611216D01*
X227903179Y-124447284D01*
X227961674Y-124267256D01*
X227981460Y-124079000D01*
X227961674Y-123890744D01*
X227903179Y-123710716D01*
X227808533Y-123546784D01*
X227681871Y-123406112D01*
X227681870Y-123406111D01*
X227528734Y-123294851D01*
X227528729Y-123294848D01*
X227405043Y-123239779D01*
X227351806Y-123194529D01*
X227331485Y-123127680D01*
X227350531Y-123060456D01*
X227402897Y-123014201D01*
X227405043Y-123013221D01*
X227457498Y-122989865D01*
X227528730Y-122958151D01*
X227681871Y-122846888D01*
X227808533Y-122706216D01*
X227903179Y-122542284D01*
X227961674Y-122362256D01*
X227981460Y-122174000D01*
X227961674Y-121985744D01*
X227903179Y-121805716D01*
X227808533Y-121641784D01*
X227681871Y-121501112D01*
X227681870Y-121501111D01*
X227528734Y-121389851D01*
X227528729Y-121389848D01*
X227405043Y-121334779D01*
X227351806Y-121289529D01*
X227331485Y-121222680D01*
X227350531Y-121155456D01*
X227402897Y-121109201D01*
X227405043Y-121108221D01*
X227457498Y-121084865D01*
X227528730Y-121053151D01*
X227681871Y-120941888D01*
X227808533Y-120801216D01*
X227903179Y-120637284D01*
X227961674Y-120457256D01*
X227981460Y-120269000D01*
X227961674Y-120080744D01*
X227903179Y-119900716D01*
X227808533Y-119736784D01*
X227681871Y-119596112D01*
X227681870Y-119596111D01*
X227528734Y-119484851D01*
X227528729Y-119484848D01*
X227405043Y-119429779D01*
X227351806Y-119384529D01*
X227331485Y-119317680D01*
X227350531Y-119250456D01*
X227402897Y-119204201D01*
X227405043Y-119203221D01*
X227457498Y-119179865D01*
X227528730Y-119148151D01*
X227681871Y-119036888D01*
X227808533Y-118896216D01*
X227903179Y-118732284D01*
X227961674Y-118552256D01*
X227981460Y-118364000D01*
X227961674Y-118175744D01*
X227903179Y-117995716D01*
X227808533Y-117831784D01*
X227681871Y-117691112D01*
X227681870Y-117691111D01*
X227528734Y-117579851D01*
X227528729Y-117579848D01*
X227355807Y-117502857D01*
X227355802Y-117502855D01*
X227210001Y-117471865D01*
X227170646Y-117463500D01*
X226981354Y-117463500D01*
X226948897Y-117470398D01*
X226796197Y-117502855D01*
X226796192Y-117502857D01*
X226623270Y-117579848D01*
X226623265Y-117579851D01*
X226470129Y-117691111D01*
X226343466Y-117831785D01*
X226248821Y-117995715D01*
X226248818Y-117995722D01*
X226190327Y-118175740D01*
X226190326Y-118175744D01*
X226170540Y-118364000D01*
X226190326Y-118552256D01*
X226190327Y-118552259D01*
X226248818Y-118732277D01*
X226248821Y-118732284D01*
X226343467Y-118896216D01*
X226470129Y-119036888D01*
X226623265Y-119148148D01*
X226623270Y-119148151D01*
X226746956Y-119203221D01*
X226800193Y-119248472D01*
X226820514Y-119315321D01*
X226801468Y-119382544D01*
X226749102Y-119428799D01*
X226746956Y-119429779D01*
X226623270Y-119484848D01*
X226623265Y-119484851D01*
X226470129Y-119596111D01*
X226343466Y-119736785D01*
X226248821Y-119900715D01*
X226248818Y-119900722D01*
X226190327Y-120080740D01*
X226190326Y-120080744D01*
X226170540Y-120269000D01*
X226190326Y-120457256D01*
X226190327Y-120457259D01*
X226248818Y-120637277D01*
X226248821Y-120637284D01*
X226343467Y-120801216D01*
X226470129Y-120941888D01*
X226623265Y-121053148D01*
X226623270Y-121053151D01*
X226746956Y-121108221D01*
X226800193Y-121153472D01*
X226820514Y-121220321D01*
X226801468Y-121287544D01*
X226749102Y-121333799D01*
X226746956Y-121334779D01*
X226623270Y-121389848D01*
X226623265Y-121389851D01*
X226470129Y-121501111D01*
X226343466Y-121641785D01*
X226248821Y-121805715D01*
X226248818Y-121805722D01*
X226190327Y-121985740D01*
X226190326Y-121985744D01*
X226170540Y-122174000D01*
X226190326Y-122362256D01*
X226190327Y-122362259D01*
X226248818Y-122542277D01*
X226248821Y-122542284D01*
X226343467Y-122706216D01*
X226470129Y-122846888D01*
X226623265Y-122958148D01*
X226623270Y-122958151D01*
X226746956Y-123013221D01*
X226800193Y-123058472D01*
X226820514Y-123125321D01*
X226801468Y-123192544D01*
X226749102Y-123238799D01*
X226746956Y-123239779D01*
X226623270Y-123294848D01*
X226623265Y-123294851D01*
X226470129Y-123406111D01*
X226343466Y-123546785D01*
X226248821Y-123710715D01*
X226248818Y-123710722D01*
X226190327Y-123890740D01*
X226190326Y-123890744D01*
X226170540Y-124079000D01*
X225441460Y-124079000D01*
X225421674Y-123890744D01*
X225363179Y-123710716D01*
X225268533Y-123546784D01*
X225141871Y-123406112D01*
X225141870Y-123406111D01*
X224988734Y-123294851D01*
X224988729Y-123294848D01*
X224865043Y-123239779D01*
X224811806Y-123194529D01*
X224791485Y-123127680D01*
X224810531Y-123060456D01*
X224862897Y-123014201D01*
X224865043Y-123013221D01*
X224917498Y-122989865D01*
X224988730Y-122958151D01*
X225141871Y-122846888D01*
X225268533Y-122706216D01*
X225363179Y-122542284D01*
X225421674Y-122362256D01*
X225441460Y-122174000D01*
X225421674Y-121985744D01*
X225363179Y-121805716D01*
X225268533Y-121641784D01*
X225141871Y-121501112D01*
X225141870Y-121501111D01*
X224988734Y-121389851D01*
X224988729Y-121389848D01*
X224865043Y-121334779D01*
X224811806Y-121289529D01*
X224791485Y-121222680D01*
X224810531Y-121155456D01*
X224862897Y-121109201D01*
X224865043Y-121108221D01*
X224917498Y-121084865D01*
X224988730Y-121053151D01*
X225141871Y-120941888D01*
X225268533Y-120801216D01*
X225363179Y-120637284D01*
X225421674Y-120457256D01*
X225441460Y-120269000D01*
X225421674Y-120080744D01*
X225363179Y-119900716D01*
X225268533Y-119736784D01*
X225141871Y-119596112D01*
X225141870Y-119596111D01*
X224988734Y-119484851D01*
X224988729Y-119484848D01*
X224865043Y-119429779D01*
X224811806Y-119384529D01*
X224791485Y-119317680D01*
X224810531Y-119250456D01*
X224862897Y-119204201D01*
X224865043Y-119203221D01*
X224917498Y-119179865D01*
X224988730Y-119148151D01*
X225141871Y-119036888D01*
X225268533Y-118896216D01*
X225363179Y-118732284D01*
X225421674Y-118552256D01*
X225441460Y-118364000D01*
X225421674Y-118175744D01*
X225363179Y-117995716D01*
X225268533Y-117831784D01*
X225141871Y-117691112D01*
X225141870Y-117691111D01*
X224988734Y-117579851D01*
X224988729Y-117579848D01*
X224815807Y-117502857D01*
X224815802Y-117502855D01*
X224670001Y-117471865D01*
X224630646Y-117463500D01*
X224441354Y-117463500D01*
X224408897Y-117470398D01*
X224256197Y-117502855D01*
X224256192Y-117502857D01*
X224083270Y-117579848D01*
X224083265Y-117579851D01*
X223930129Y-117691111D01*
X223803466Y-117831785D01*
X223708821Y-117995715D01*
X223708818Y-117995722D01*
X223650327Y-118175740D01*
X223650326Y-118175744D01*
X223630540Y-118364000D01*
X223650326Y-118552256D01*
X223650327Y-118552259D01*
X223708818Y-118732277D01*
X223708821Y-118732284D01*
X223803467Y-118896216D01*
X223930129Y-119036888D01*
X224083265Y-119148148D01*
X224083270Y-119148151D01*
X224206956Y-119203221D01*
X224260193Y-119248472D01*
X224280514Y-119315321D01*
X224261468Y-119382544D01*
X224209102Y-119428799D01*
X224206956Y-119429779D01*
X224083270Y-119484848D01*
X224083265Y-119484851D01*
X223930129Y-119596111D01*
X223803466Y-119736785D01*
X223708821Y-119900715D01*
X223708818Y-119900722D01*
X223650327Y-120080740D01*
X223650326Y-120080744D01*
X223630540Y-120269000D01*
X223650326Y-120457256D01*
X223650327Y-120457259D01*
X223708818Y-120637277D01*
X223708821Y-120637284D01*
X223803467Y-120801216D01*
X223930129Y-120941888D01*
X224083265Y-121053148D01*
X224083270Y-121053151D01*
X224206956Y-121108221D01*
X224260193Y-121153472D01*
X224280514Y-121220321D01*
X224261468Y-121287544D01*
X224209102Y-121333799D01*
X224206956Y-121334779D01*
X224083270Y-121389848D01*
X224083265Y-121389851D01*
X223930129Y-121501111D01*
X223803466Y-121641785D01*
X223708821Y-121805715D01*
X223708818Y-121805722D01*
X223650327Y-121985740D01*
X223650326Y-121985744D01*
X223630540Y-122174000D01*
X223650326Y-122362256D01*
X223650327Y-122362259D01*
X223708818Y-122542277D01*
X223708821Y-122542284D01*
X223803467Y-122706216D01*
X223930129Y-122846888D01*
X224083265Y-122958148D01*
X224083270Y-122958151D01*
X224206956Y-123013221D01*
X224260193Y-123058472D01*
X224280514Y-123125321D01*
X224261468Y-123192544D01*
X224209102Y-123238799D01*
X224206956Y-123239779D01*
X224083270Y-123294848D01*
X224083265Y-123294851D01*
X223930129Y-123406111D01*
X223803466Y-123546785D01*
X223708821Y-123710715D01*
X223708818Y-123710722D01*
X223650327Y-123890740D01*
X223650326Y-123890744D01*
X223630540Y-124079000D01*
X222901460Y-124079000D01*
X222881674Y-123890744D01*
X222823179Y-123710716D01*
X222728533Y-123546784D01*
X222601871Y-123406112D01*
X222601870Y-123406111D01*
X222448734Y-123294851D01*
X222448729Y-123294848D01*
X222325043Y-123239779D01*
X222271806Y-123194529D01*
X222251485Y-123127680D01*
X222270531Y-123060456D01*
X222322897Y-123014201D01*
X222325043Y-123013221D01*
X222377498Y-122989865D01*
X222448730Y-122958151D01*
X222601871Y-122846888D01*
X222728533Y-122706216D01*
X222823179Y-122542284D01*
X222881674Y-122362256D01*
X222901460Y-122174000D01*
X222881674Y-121985744D01*
X222823179Y-121805716D01*
X222728533Y-121641784D01*
X222601871Y-121501112D01*
X222601870Y-121501111D01*
X222448734Y-121389851D01*
X222448729Y-121389848D01*
X222325043Y-121334779D01*
X222271806Y-121289529D01*
X222251485Y-121222680D01*
X222270531Y-121155456D01*
X222322897Y-121109201D01*
X222325043Y-121108221D01*
X222377498Y-121084865D01*
X222448730Y-121053151D01*
X222601871Y-120941888D01*
X222728533Y-120801216D01*
X222823179Y-120637284D01*
X222881674Y-120457256D01*
X222901460Y-120269000D01*
X222881674Y-120080744D01*
X222823179Y-119900716D01*
X222728533Y-119736784D01*
X222601871Y-119596112D01*
X222601870Y-119596111D01*
X222448734Y-119484851D01*
X222448729Y-119484848D01*
X222325043Y-119429779D01*
X222271806Y-119384529D01*
X222251485Y-119317680D01*
X222270531Y-119250456D01*
X222322897Y-119204201D01*
X222325043Y-119203221D01*
X222377498Y-119179865D01*
X222448730Y-119148151D01*
X222601871Y-119036888D01*
X222728533Y-118896216D01*
X222823179Y-118732284D01*
X222881674Y-118552256D01*
X222901460Y-118364000D01*
X222881674Y-118175744D01*
X222823179Y-117995716D01*
X222728533Y-117831784D01*
X222601871Y-117691112D01*
X222601870Y-117691111D01*
X222448734Y-117579851D01*
X222448729Y-117579848D01*
X222275807Y-117502857D01*
X222275802Y-117502855D01*
X222130001Y-117471865D01*
X222090646Y-117463500D01*
X221901354Y-117463500D01*
X221868897Y-117470398D01*
X221716197Y-117502855D01*
X221716192Y-117502857D01*
X221543270Y-117579848D01*
X221543265Y-117579851D01*
X221390129Y-117691111D01*
X221263466Y-117831785D01*
X221168821Y-117995715D01*
X221168818Y-117995722D01*
X221110327Y-118175740D01*
X221110326Y-118175744D01*
X221090540Y-118364000D01*
X221110326Y-118552256D01*
X221110327Y-118552259D01*
X221168818Y-118732277D01*
X221168821Y-118732284D01*
X221263467Y-118896216D01*
X221390129Y-119036888D01*
X221543265Y-119148148D01*
X221543270Y-119148151D01*
X221666956Y-119203221D01*
X221720193Y-119248472D01*
X221740514Y-119315321D01*
X221721468Y-119382544D01*
X221669102Y-119428799D01*
X221666956Y-119429779D01*
X221543270Y-119484848D01*
X221543265Y-119484851D01*
X221390129Y-119596111D01*
X221263466Y-119736785D01*
X221168821Y-119900715D01*
X221168818Y-119900722D01*
X221110327Y-120080740D01*
X221110326Y-120080744D01*
X221090540Y-120269000D01*
X221110326Y-120457256D01*
X221110327Y-120457259D01*
X221168818Y-120637277D01*
X221168821Y-120637284D01*
X221263467Y-120801216D01*
X221390129Y-120941888D01*
X221543265Y-121053148D01*
X221543270Y-121053151D01*
X221666956Y-121108221D01*
X221720193Y-121153472D01*
X221740514Y-121220321D01*
X221721468Y-121287544D01*
X221669102Y-121333799D01*
X221666956Y-121334779D01*
X221543270Y-121389848D01*
X221543265Y-121389851D01*
X221390129Y-121501111D01*
X221263466Y-121641785D01*
X221168821Y-121805715D01*
X221168818Y-121805722D01*
X221110327Y-121985740D01*
X221110326Y-121985744D01*
X221090540Y-122174000D01*
X221110326Y-122362256D01*
X221110327Y-122362259D01*
X221168818Y-122542277D01*
X221168821Y-122542284D01*
X221263467Y-122706216D01*
X221390129Y-122846888D01*
X221543265Y-122958148D01*
X221543270Y-122958151D01*
X221666956Y-123013221D01*
X221720193Y-123058472D01*
X221740514Y-123125321D01*
X221721468Y-123192544D01*
X221669102Y-123238799D01*
X221666956Y-123239779D01*
X221543270Y-123294848D01*
X221543265Y-123294851D01*
X221390129Y-123406111D01*
X221263466Y-123546785D01*
X221168821Y-123710715D01*
X221168818Y-123710722D01*
X221110327Y-123890740D01*
X221110326Y-123890744D01*
X221090540Y-124079000D01*
X220361460Y-124079000D01*
X220341674Y-123890744D01*
X220283179Y-123710716D01*
X220188533Y-123546784D01*
X220061871Y-123406112D01*
X220061870Y-123406111D01*
X219908734Y-123294851D01*
X219908729Y-123294848D01*
X219785043Y-123239779D01*
X219731806Y-123194529D01*
X219711485Y-123127680D01*
X219730531Y-123060456D01*
X219782897Y-123014201D01*
X219785043Y-123013221D01*
X219837498Y-122989865D01*
X219908730Y-122958151D01*
X220061871Y-122846888D01*
X220188533Y-122706216D01*
X220283179Y-122542284D01*
X220341674Y-122362256D01*
X220361460Y-122174000D01*
X220341674Y-121985744D01*
X220283179Y-121805716D01*
X220188533Y-121641784D01*
X220061871Y-121501112D01*
X220061870Y-121501111D01*
X219908734Y-121389851D01*
X219908729Y-121389848D01*
X219785043Y-121334779D01*
X219731806Y-121289529D01*
X219711485Y-121222680D01*
X219730531Y-121155456D01*
X219782897Y-121109201D01*
X219785043Y-121108221D01*
X219837498Y-121084865D01*
X219908730Y-121053151D01*
X220061871Y-120941888D01*
X220188533Y-120801216D01*
X220283179Y-120637284D01*
X220341674Y-120457256D01*
X220361460Y-120269000D01*
X220341674Y-120080744D01*
X220283179Y-119900716D01*
X220188533Y-119736784D01*
X220061871Y-119596112D01*
X220061870Y-119596111D01*
X219908734Y-119484851D01*
X219908729Y-119484848D01*
X219785043Y-119429779D01*
X219731806Y-119384529D01*
X219711485Y-119317680D01*
X219730531Y-119250456D01*
X219782897Y-119204201D01*
X219785043Y-119203221D01*
X219837498Y-119179865D01*
X219908730Y-119148151D01*
X220061871Y-119036888D01*
X220188533Y-118896216D01*
X220283179Y-118732284D01*
X220341674Y-118552256D01*
X220361460Y-118364000D01*
X220341674Y-118175744D01*
X220283179Y-117995716D01*
X220188533Y-117831784D01*
X220061871Y-117691112D01*
X220061870Y-117691111D01*
X219908734Y-117579851D01*
X219908729Y-117579848D01*
X219735807Y-117502857D01*
X219735802Y-117502855D01*
X219590001Y-117471865D01*
X219550646Y-117463500D01*
X219361354Y-117463500D01*
X219328897Y-117470398D01*
X219176197Y-117502855D01*
X219176192Y-117502857D01*
X219003270Y-117579848D01*
X219003265Y-117579851D01*
X218850129Y-117691111D01*
X218723466Y-117831785D01*
X218628821Y-117995715D01*
X218628818Y-117995722D01*
X218570327Y-118175740D01*
X218570326Y-118175744D01*
X218550540Y-118364000D01*
X218570326Y-118552256D01*
X218570327Y-118552259D01*
X218628818Y-118732277D01*
X218628821Y-118732284D01*
X218723467Y-118896216D01*
X218850129Y-119036888D01*
X219003265Y-119148148D01*
X219003270Y-119148151D01*
X219126956Y-119203221D01*
X219180193Y-119248472D01*
X219200514Y-119315321D01*
X219181468Y-119382544D01*
X219129102Y-119428799D01*
X219126956Y-119429779D01*
X219003270Y-119484848D01*
X219003265Y-119484851D01*
X218850129Y-119596111D01*
X218723466Y-119736785D01*
X218628821Y-119900715D01*
X218628818Y-119900722D01*
X218570327Y-120080740D01*
X218570326Y-120080744D01*
X218550540Y-120269000D01*
X218570326Y-120457256D01*
X218570327Y-120457259D01*
X218628818Y-120637277D01*
X218628821Y-120637284D01*
X218723467Y-120801216D01*
X218850129Y-120941888D01*
X219003265Y-121053148D01*
X219003270Y-121053151D01*
X219126956Y-121108221D01*
X219180193Y-121153472D01*
X219200514Y-121220321D01*
X219181468Y-121287544D01*
X219129102Y-121333799D01*
X219126956Y-121334779D01*
X219003270Y-121389848D01*
X219003265Y-121389851D01*
X218850129Y-121501111D01*
X218723466Y-121641785D01*
X218628821Y-121805715D01*
X218628818Y-121805722D01*
X218570327Y-121985740D01*
X218570326Y-121985744D01*
X218550540Y-122174000D01*
X218570326Y-122362256D01*
X218570327Y-122362259D01*
X218628818Y-122542277D01*
X218628821Y-122542284D01*
X218723467Y-122706216D01*
X218850129Y-122846888D01*
X219003265Y-122958148D01*
X219003270Y-122958151D01*
X219126956Y-123013221D01*
X219180193Y-123058472D01*
X219200514Y-123125321D01*
X219181468Y-123192544D01*
X219129102Y-123238799D01*
X219126956Y-123239779D01*
X219003270Y-123294848D01*
X219003265Y-123294851D01*
X218850129Y-123406111D01*
X218723466Y-123546785D01*
X218628821Y-123710715D01*
X218628818Y-123710722D01*
X218570327Y-123890740D01*
X218570326Y-123890744D01*
X218550540Y-124079000D01*
X195583655Y-124079000D01*
X195585184Y-118577004D01*
X203526732Y-118577004D01*
X203545777Y-118831154D01*
X203592734Y-119036888D01*
X203602492Y-119079637D01*
X203695607Y-119316888D01*
X203823041Y-119537612D01*
X203981950Y-119736877D01*
X204168783Y-119910232D01*
X204379366Y-120053805D01*
X204379371Y-120053807D01*
X204379372Y-120053808D01*
X204379373Y-120053809D01*
X204435305Y-120080744D01*
X204608992Y-120164387D01*
X204608993Y-120164387D01*
X204608996Y-120164389D01*
X204852542Y-120239513D01*
X205104565Y-120277500D01*
X205359435Y-120277500D01*
X205611458Y-120239513D01*
X205855004Y-120164389D01*
X206084634Y-120053805D01*
X206295217Y-119910232D01*
X206482050Y-119736877D01*
X206640959Y-119537612D01*
X206768393Y-119316888D01*
X206861508Y-119079637D01*
X206918222Y-118831157D01*
X206937268Y-118577000D01*
X206918222Y-118322843D01*
X206861508Y-118074363D01*
X206768393Y-117837112D01*
X206640959Y-117616388D01*
X206482050Y-117417123D01*
X206295217Y-117243768D01*
X206084634Y-117100195D01*
X206084630Y-117100193D01*
X206084627Y-117100191D01*
X206084626Y-117100190D01*
X205855006Y-116989612D01*
X205855008Y-116989612D01*
X205711970Y-116945491D01*
X205653711Y-116906921D01*
X205625553Y-116842976D01*
X205636437Y-116773959D01*
X205682906Y-116721782D01*
X205711970Y-116708509D01*
X205855004Y-116664389D01*
X206084634Y-116553805D01*
X206295217Y-116410232D01*
X206482050Y-116236877D01*
X206640959Y-116037612D01*
X206768393Y-115816888D01*
X206861508Y-115579637D01*
X206918222Y-115331157D01*
X206937268Y-115077004D01*
X247773532Y-115077004D01*
X247792577Y-115331154D01*
X247792578Y-115331157D01*
X247849292Y-115579637D01*
X247942407Y-115816888D01*
X248069841Y-116037612D01*
X248228750Y-116236877D01*
X248415583Y-116410232D01*
X248626166Y-116553805D01*
X248626171Y-116553807D01*
X248626172Y-116553808D01*
X248626173Y-116553809D01*
X248750926Y-116613886D01*
X248806772Y-116640780D01*
X248858632Y-116687602D01*
X248876945Y-116755029D01*
X248855897Y-116821653D01*
X248802171Y-116866321D01*
X248752971Y-116876500D01*
X248230929Y-116876500D01*
X248230923Y-116876501D01*
X248171316Y-116882908D01*
X248036471Y-116933202D01*
X248036464Y-116933206D01*
X247921255Y-117019452D01*
X247921252Y-117019455D01*
X247835006Y-117134664D01*
X247835002Y-117134671D01*
X247784708Y-117269517D01*
X247778301Y-117329116D01*
X247778301Y-117329123D01*
X247778300Y-117329135D01*
X247778300Y-119824870D01*
X247778301Y-119824876D01*
X247784708Y-119884483D01*
X247835002Y-120019328D01*
X247835006Y-120019335D01*
X247921252Y-120134544D01*
X247921255Y-120134547D01*
X248036464Y-120220793D01*
X248036471Y-120220797D01*
X248171317Y-120271091D01*
X248171316Y-120271091D01*
X248178244Y-120271835D01*
X248230927Y-120277500D01*
X250726672Y-120277499D01*
X250786283Y-120271091D01*
X250921131Y-120220796D01*
X251036346Y-120134546D01*
X251122596Y-120019331D01*
X251172891Y-119884483D01*
X251179300Y-119824873D01*
X251179299Y-117329128D01*
X251172891Y-117269517D01*
X251163287Y-117243768D01*
X251122597Y-117134671D01*
X251122593Y-117134664D01*
X251036347Y-117019455D01*
X251036344Y-117019452D01*
X250921135Y-116933206D01*
X250921128Y-116933202D01*
X250786282Y-116882908D01*
X250786283Y-116882908D01*
X250726683Y-116876501D01*
X250726681Y-116876500D01*
X250726673Y-116876500D01*
X250726665Y-116876500D01*
X250204629Y-116876500D01*
X250137590Y-116856815D01*
X250091835Y-116804011D01*
X250081891Y-116734853D01*
X250110916Y-116671297D01*
X250150827Y-116640780D01*
X250331434Y-116553805D01*
X250542017Y-116410232D01*
X250728850Y-116236877D01*
X250887759Y-116037612D01*
X251015193Y-115816888D01*
X251108308Y-115579637D01*
X251165022Y-115331157D01*
X251184068Y-115077000D01*
X251165022Y-114822843D01*
X251108308Y-114574363D01*
X251015193Y-114337112D01*
X250887759Y-114116388D01*
X250728850Y-113917123D01*
X250542017Y-113743768D01*
X250331434Y-113600195D01*
X250331430Y-113600193D01*
X250331427Y-113600191D01*
X250331426Y-113600190D01*
X250101806Y-113489612D01*
X250101808Y-113489612D01*
X249958770Y-113445491D01*
X249900511Y-113406921D01*
X249872353Y-113342976D01*
X249883237Y-113273959D01*
X249929706Y-113221782D01*
X249958770Y-113208509D01*
X250101804Y-113164389D01*
X250331434Y-113053805D01*
X250542017Y-112910232D01*
X250728850Y-112736877D01*
X250887759Y-112537612D01*
X251015193Y-112316888D01*
X251108308Y-112079637D01*
X251165022Y-111831157D01*
X251184068Y-111577000D01*
X251180407Y-111528151D01*
X251165022Y-111322845D01*
X251154379Y-111276216D01*
X251108308Y-111074363D01*
X251015193Y-110837112D01*
X250887759Y-110616388D01*
X250728850Y-110417123D01*
X250542017Y-110243768D01*
X250331434Y-110100195D01*
X250331428Y-110100192D01*
X250331427Y-110100191D01*
X250331426Y-110100190D01*
X250101806Y-109989612D01*
X250101808Y-109989612D01*
X249958770Y-109945491D01*
X249900511Y-109906921D01*
X249872353Y-109842976D01*
X249883237Y-109773959D01*
X249929706Y-109721782D01*
X249958770Y-109708509D01*
X249974085Y-109703785D01*
X250101804Y-109664389D01*
X250331434Y-109553805D01*
X250542017Y-109410232D01*
X250728850Y-109236877D01*
X250887759Y-109037612D01*
X251015193Y-108816888D01*
X251108308Y-108579637D01*
X251165022Y-108331157D01*
X251184068Y-108077000D01*
X251179477Y-108015740D01*
X251165987Y-107835716D01*
X251165022Y-107822843D01*
X251108308Y-107574363D01*
X251015193Y-107337112D01*
X250887759Y-107116388D01*
X250728850Y-106917123D01*
X250542017Y-106743768D01*
X250331434Y-106600195D01*
X250331430Y-106600193D01*
X250331427Y-106600191D01*
X250331426Y-106600190D01*
X250101806Y-106489612D01*
X250101808Y-106489612D01*
X249858266Y-106414489D01*
X249858262Y-106414488D01*
X249858258Y-106414487D01*
X249737031Y-106396214D01*
X249606240Y-106376500D01*
X249606235Y-106376500D01*
X249351365Y-106376500D01*
X249351359Y-106376500D01*
X249194409Y-106400157D01*
X249099342Y-106414487D01*
X249099339Y-106414488D01*
X249099333Y-106414489D01*
X248855792Y-106489612D01*
X248626173Y-106600190D01*
X248626172Y-106600191D01*
X248415582Y-106743768D01*
X248228752Y-106917121D01*
X248228750Y-106917123D01*
X248069841Y-107116388D01*
X247942408Y-107337109D01*
X247849292Y-107574362D01*
X247849290Y-107574369D01*
X247792577Y-107822845D01*
X247773532Y-108076995D01*
X247773532Y-108077004D01*
X247792577Y-108331154D01*
X247847613Y-108572284D01*
X247849292Y-108579637D01*
X247942407Y-108816888D01*
X248069841Y-109037612D01*
X248228750Y-109236877D01*
X248415583Y-109410232D01*
X248626166Y-109553805D01*
X248626171Y-109553807D01*
X248626172Y-109553808D01*
X248626173Y-109553809D01*
X248748128Y-109612538D01*
X248855792Y-109664387D01*
X248855793Y-109664387D01*
X248855796Y-109664389D01*
X248962160Y-109697197D01*
X248998829Y-109708509D01*
X249057088Y-109747080D01*
X249085246Y-109811024D01*
X249074362Y-109880041D01*
X249027893Y-109932218D01*
X248998829Y-109945491D01*
X248855792Y-109989612D01*
X248626173Y-110100190D01*
X248626172Y-110100191D01*
X248415582Y-110243768D01*
X248228752Y-110417121D01*
X248228750Y-110417123D01*
X248069841Y-110616388D01*
X247942408Y-110837109D01*
X247849292Y-111074362D01*
X247849290Y-111074369D01*
X247792577Y-111322845D01*
X247773532Y-111576995D01*
X247773532Y-111577004D01*
X247792577Y-111831154D01*
X247828783Y-111989785D01*
X247849292Y-112079637D01*
X247942407Y-112316888D01*
X248069841Y-112537612D01*
X248228750Y-112736877D01*
X248415583Y-112910232D01*
X248626166Y-113053805D01*
X248626171Y-113053807D01*
X248626172Y-113053808D01*
X248626173Y-113053809D01*
X248713245Y-113095740D01*
X248855792Y-113164387D01*
X248855793Y-113164387D01*
X248855796Y-113164389D01*
X248954671Y-113194888D01*
X248998829Y-113208509D01*
X249057088Y-113247080D01*
X249085246Y-113311024D01*
X249074362Y-113380041D01*
X249027893Y-113432218D01*
X248998829Y-113445491D01*
X248855792Y-113489612D01*
X248626173Y-113600190D01*
X248626172Y-113600191D01*
X248415582Y-113743768D01*
X248228752Y-113917121D01*
X248228750Y-113917123D01*
X248069841Y-114116388D01*
X247942408Y-114337109D01*
X247849292Y-114574362D01*
X247849290Y-114574369D01*
X247792577Y-114822845D01*
X247773532Y-115076995D01*
X247773532Y-115077004D01*
X206937268Y-115077004D01*
X206937268Y-115077000D01*
X206918222Y-114822843D01*
X206861508Y-114574363D01*
X206768393Y-114337112D01*
X206640959Y-114116388D01*
X206482050Y-113917123D01*
X206295217Y-113743768D01*
X206084634Y-113600195D01*
X206084630Y-113600193D01*
X206084627Y-113600191D01*
X206084626Y-113600190D01*
X205855006Y-113489612D01*
X205855008Y-113489612D01*
X205711970Y-113445491D01*
X205653711Y-113406921D01*
X205625553Y-113342976D01*
X205634854Y-113284000D01*
X218931540Y-113284000D01*
X218951326Y-113472256D01*
X218951327Y-113472259D01*
X219009818Y-113652277D01*
X219009821Y-113652284D01*
X219104467Y-113816216D01*
X219231129Y-113956888D01*
X219384265Y-114068148D01*
X219384270Y-114068151D01*
X219557192Y-114145142D01*
X219557197Y-114145144D01*
X219742354Y-114184500D01*
X219742355Y-114184500D01*
X219931644Y-114184500D01*
X219931646Y-114184500D01*
X220116803Y-114145144D01*
X220289730Y-114068151D01*
X220442871Y-113956888D01*
X220569533Y-113816216D01*
X220664179Y-113652284D01*
X220722674Y-113472256D01*
X220742460Y-113284000D01*
X222360540Y-113284000D01*
X222380326Y-113472256D01*
X222380327Y-113472259D01*
X222438818Y-113652277D01*
X222438821Y-113652284D01*
X222533467Y-113816216D01*
X222660129Y-113956888D01*
X222813265Y-114068148D01*
X222813270Y-114068151D01*
X222986192Y-114145142D01*
X222986197Y-114145144D01*
X223171354Y-114184500D01*
X223171355Y-114184500D01*
X223360644Y-114184500D01*
X223360646Y-114184500D01*
X223545803Y-114145144D01*
X223718730Y-114068151D01*
X223871871Y-113956888D01*
X223998533Y-113816216D01*
X224093179Y-113652284D01*
X224151674Y-113472256D01*
X224171460Y-113284000D01*
X224151674Y-113095744D01*
X224093179Y-112915716D01*
X223998533Y-112751784D01*
X223871871Y-112611112D01*
X223770707Y-112537612D01*
X223749219Y-112522000D01*
X233790540Y-112522000D01*
X233810326Y-112710256D01*
X233810327Y-112710259D01*
X233868818Y-112890277D01*
X233868821Y-112890284D01*
X233963467Y-113054216D01*
X234090129Y-113194888D01*
X234243265Y-113306148D01*
X234243270Y-113306151D01*
X234416192Y-113383142D01*
X234416197Y-113383144D01*
X234601354Y-113422500D01*
X234601355Y-113422500D01*
X234790644Y-113422500D01*
X234790646Y-113422500D01*
X234975803Y-113383144D01*
X235148730Y-113306151D01*
X235301871Y-113194888D01*
X235428533Y-113054216D01*
X235523179Y-112890284D01*
X235581674Y-112710256D01*
X235601460Y-112522000D01*
X235581674Y-112333744D01*
X235523179Y-112153716D01*
X235428533Y-111989784D01*
X235301871Y-111849112D01*
X235277154Y-111831154D01*
X235148734Y-111737851D01*
X235148729Y-111737848D01*
X234975807Y-111660857D01*
X234975802Y-111660855D01*
X234830001Y-111629865D01*
X234790646Y-111621500D01*
X234601354Y-111621500D01*
X234568897Y-111628398D01*
X234416197Y-111660855D01*
X234416192Y-111660857D01*
X234243270Y-111737848D01*
X234243265Y-111737851D01*
X234090129Y-111849111D01*
X233963466Y-111989785D01*
X233868821Y-112153715D01*
X233868818Y-112153722D01*
X233815803Y-112316888D01*
X233810326Y-112333744D01*
X233790540Y-112522000D01*
X223749219Y-112522000D01*
X223718734Y-112499851D01*
X223718729Y-112499848D01*
X223545807Y-112422857D01*
X223545802Y-112422855D01*
X223400001Y-112391865D01*
X223360646Y-112383500D01*
X223171354Y-112383500D01*
X223138897Y-112390398D01*
X222986197Y-112422855D01*
X222986192Y-112422857D01*
X222813270Y-112499848D01*
X222813265Y-112499851D01*
X222660129Y-112611111D01*
X222533466Y-112751785D01*
X222438821Y-112915715D01*
X222438818Y-112915722D01*
X222393820Y-113054214D01*
X222380326Y-113095744D01*
X222360540Y-113284000D01*
X220742460Y-113284000D01*
X220722674Y-113095744D01*
X220664179Y-112915716D01*
X220569533Y-112751784D01*
X220442871Y-112611112D01*
X220341707Y-112537612D01*
X220289734Y-112499851D01*
X220289729Y-112499848D01*
X220116807Y-112422857D01*
X220116802Y-112422855D01*
X219971001Y-112391865D01*
X219931646Y-112383500D01*
X219742354Y-112383500D01*
X219709897Y-112390398D01*
X219557197Y-112422855D01*
X219557192Y-112422857D01*
X219384270Y-112499848D01*
X219384265Y-112499851D01*
X219231129Y-112611111D01*
X219104466Y-112751785D01*
X219009821Y-112915715D01*
X219009818Y-112915722D01*
X218964820Y-113054214D01*
X218951326Y-113095744D01*
X218931540Y-113284000D01*
X205634854Y-113284000D01*
X205636437Y-113273959D01*
X205682906Y-113221782D01*
X205711970Y-113208509D01*
X205855004Y-113164389D01*
X206084634Y-113053805D01*
X206295217Y-112910232D01*
X206482050Y-112736877D01*
X206640959Y-112537612D01*
X206768393Y-112316888D01*
X206861508Y-112079637D01*
X206918222Y-111831157D01*
X206937268Y-111577000D01*
X206933607Y-111528151D01*
X206918222Y-111322845D01*
X206907579Y-111276216D01*
X206861508Y-111074363D01*
X206768393Y-110837112D01*
X206714635Y-110744000D01*
X218931540Y-110744000D01*
X218951326Y-110932256D01*
X218951327Y-110932259D01*
X219009818Y-111112277D01*
X219009821Y-111112284D01*
X219104467Y-111276216D01*
X219231129Y-111416888D01*
X219384265Y-111528148D01*
X219384270Y-111528151D01*
X219557192Y-111605142D01*
X219557197Y-111605144D01*
X219742354Y-111644500D01*
X219742355Y-111644500D01*
X219931644Y-111644500D01*
X219931646Y-111644500D01*
X220116803Y-111605144D01*
X220289730Y-111528151D01*
X220442871Y-111416888D01*
X220569533Y-111276216D01*
X220664179Y-111112284D01*
X220722674Y-110932256D01*
X220742460Y-110744000D01*
X222360540Y-110744000D01*
X222380326Y-110932256D01*
X222380327Y-110932259D01*
X222438818Y-111112277D01*
X222438821Y-111112284D01*
X222533467Y-111276216D01*
X222660129Y-111416888D01*
X222813265Y-111528148D01*
X222813270Y-111528151D01*
X222986192Y-111605142D01*
X222986197Y-111605144D01*
X223171354Y-111644500D01*
X223171355Y-111644500D01*
X223360644Y-111644500D01*
X223360646Y-111644500D01*
X223545803Y-111605144D01*
X223718730Y-111528151D01*
X223871871Y-111416888D01*
X223998533Y-111276216D01*
X224093179Y-111112284D01*
X224151674Y-110932256D01*
X224171460Y-110744000D01*
X224151674Y-110555744D01*
X224093179Y-110375716D01*
X224012514Y-110236000D01*
X233790540Y-110236000D01*
X233810326Y-110424256D01*
X233810327Y-110424259D01*
X233868818Y-110604277D01*
X233868821Y-110604284D01*
X233963467Y-110768216D01*
X234090129Y-110908888D01*
X234243265Y-111020148D01*
X234243270Y-111020151D01*
X234416192Y-111097142D01*
X234416197Y-111097144D01*
X234601354Y-111136500D01*
X234601355Y-111136500D01*
X234790644Y-111136500D01*
X234790646Y-111136500D01*
X234975803Y-111097144D01*
X235148730Y-111020151D01*
X235301871Y-110908888D01*
X235428533Y-110768216D01*
X235523179Y-110604284D01*
X235581674Y-110424256D01*
X235601460Y-110236000D01*
X235581674Y-110047744D01*
X235523179Y-109867716D01*
X235428533Y-109703784D01*
X235301871Y-109563112D01*
X235301870Y-109563111D01*
X235148734Y-109451851D01*
X235148729Y-109451848D01*
X234975807Y-109374857D01*
X234975802Y-109374855D01*
X234830001Y-109343865D01*
X234790646Y-109335500D01*
X234601354Y-109335500D01*
X234568897Y-109342398D01*
X234416197Y-109374855D01*
X234416192Y-109374857D01*
X234243270Y-109451848D01*
X234243265Y-109451851D01*
X234090129Y-109563111D01*
X233963466Y-109703785D01*
X233868821Y-109867715D01*
X233868818Y-109867722D01*
X233810327Y-110047740D01*
X233810326Y-110047744D01*
X233790540Y-110236000D01*
X224012514Y-110236000D01*
X223998533Y-110211784D01*
X223871871Y-110071112D01*
X223839708Y-110047744D01*
X223718734Y-109959851D01*
X223718729Y-109959848D01*
X223545807Y-109882857D01*
X223545802Y-109882855D01*
X223391165Y-109849987D01*
X223360646Y-109843500D01*
X223171354Y-109843500D01*
X223140835Y-109849987D01*
X222986197Y-109882855D01*
X222986192Y-109882857D01*
X222813270Y-109959848D01*
X222813265Y-109959851D01*
X222660129Y-110071111D01*
X222533466Y-110211785D01*
X222438821Y-110375715D01*
X222438818Y-110375722D01*
X222380327Y-110555740D01*
X222380326Y-110555744D01*
X222360540Y-110744000D01*
X220742460Y-110744000D01*
X220722674Y-110555744D01*
X220664179Y-110375716D01*
X220569533Y-110211784D01*
X220442871Y-110071112D01*
X220410708Y-110047744D01*
X220289734Y-109959851D01*
X220289729Y-109959848D01*
X220116807Y-109882857D01*
X220116802Y-109882855D01*
X219962165Y-109849987D01*
X219931646Y-109843500D01*
X219742354Y-109843500D01*
X219711835Y-109849987D01*
X219557197Y-109882855D01*
X219557192Y-109882857D01*
X219384270Y-109959848D01*
X219384265Y-109959851D01*
X219231129Y-110071111D01*
X219104466Y-110211785D01*
X219009821Y-110375715D01*
X219009818Y-110375722D01*
X218951327Y-110555740D01*
X218951326Y-110555744D01*
X218931540Y-110744000D01*
X206714635Y-110744000D01*
X206640959Y-110616388D01*
X206482050Y-110417123D01*
X206295217Y-110243768D01*
X206084634Y-110100195D01*
X206084628Y-110100192D01*
X206084627Y-110100191D01*
X206084625Y-110100190D01*
X205904027Y-110013219D01*
X205852167Y-109966397D01*
X205833854Y-109898970D01*
X205854902Y-109832346D01*
X205908628Y-109787677D01*
X205957826Y-109777499D01*
X206479872Y-109777499D01*
X206539483Y-109771091D01*
X206674331Y-109720796D01*
X206789546Y-109634546D01*
X206875796Y-109519331D01*
X206926091Y-109384483D01*
X206932500Y-109324873D01*
X206932500Y-108204000D01*
X226805540Y-108204000D01*
X226825326Y-108392256D01*
X226825327Y-108392259D01*
X226883818Y-108572277D01*
X226883821Y-108572284D01*
X226978467Y-108736216D01*
X227105129Y-108876888D01*
X227258265Y-108988148D01*
X227258270Y-108988151D01*
X227431192Y-109065142D01*
X227431197Y-109065144D01*
X227616354Y-109104500D01*
X227616355Y-109104500D01*
X227805644Y-109104500D01*
X227805646Y-109104500D01*
X227990803Y-109065144D01*
X228163730Y-108988151D01*
X228316871Y-108876888D01*
X228443533Y-108736216D01*
X228538179Y-108572284D01*
X228596674Y-108392256D01*
X228616460Y-108204000D01*
X228596674Y-108015744D01*
X228538179Y-107835716D01*
X228443533Y-107671784D01*
X228316871Y-107531112D01*
X228316870Y-107531111D01*
X228163734Y-107419851D01*
X228163729Y-107419848D01*
X227990807Y-107342857D01*
X227990802Y-107342855D01*
X227845001Y-107311865D01*
X227805646Y-107303500D01*
X227616354Y-107303500D01*
X227583897Y-107310398D01*
X227431197Y-107342855D01*
X227431192Y-107342857D01*
X227258270Y-107419848D01*
X227258265Y-107419851D01*
X227105129Y-107531111D01*
X226978466Y-107671785D01*
X226883821Y-107835715D01*
X226883818Y-107835722D01*
X226825327Y-108015740D01*
X226825326Y-108015744D01*
X226805540Y-108204000D01*
X206932500Y-108204000D01*
X206932499Y-106829128D01*
X206926091Y-106769517D01*
X206916487Y-106743768D01*
X206875797Y-106634671D01*
X206875793Y-106634664D01*
X206789547Y-106519455D01*
X206789544Y-106519452D01*
X206674335Y-106433206D01*
X206674328Y-106433202D01*
X206539482Y-106382908D01*
X206539483Y-106382908D01*
X206479883Y-106376501D01*
X206479881Y-106376500D01*
X206479873Y-106376500D01*
X206479864Y-106376500D01*
X203984129Y-106376500D01*
X203984123Y-106376501D01*
X203924516Y-106382908D01*
X203789671Y-106433202D01*
X203789664Y-106433206D01*
X203674455Y-106519452D01*
X203674452Y-106519455D01*
X203588206Y-106634664D01*
X203588202Y-106634671D01*
X203537908Y-106769517D01*
X203531501Y-106829116D01*
X203531501Y-106829123D01*
X203531500Y-106829135D01*
X203531500Y-109324870D01*
X203531501Y-109324876D01*
X203537908Y-109384483D01*
X203588202Y-109519328D01*
X203588206Y-109519335D01*
X203674452Y-109634544D01*
X203674455Y-109634547D01*
X203789664Y-109720793D01*
X203789671Y-109720797D01*
X203924517Y-109771091D01*
X203924516Y-109771091D01*
X203931444Y-109771835D01*
X203984127Y-109777500D01*
X204506172Y-109777499D01*
X204573209Y-109797183D01*
X204618964Y-109849987D01*
X204628908Y-109919146D01*
X204599883Y-109982702D01*
X204559972Y-110013219D01*
X204379370Y-110100192D01*
X204168782Y-110243768D01*
X203981952Y-110417121D01*
X203981950Y-110417123D01*
X203823041Y-110616388D01*
X203695608Y-110837109D01*
X203602492Y-111074362D01*
X203602490Y-111074369D01*
X203545777Y-111322845D01*
X203526732Y-111576995D01*
X203526732Y-111577004D01*
X203545777Y-111831154D01*
X203581983Y-111989785D01*
X203602492Y-112079637D01*
X203695607Y-112316888D01*
X203823041Y-112537612D01*
X203981950Y-112736877D01*
X204168783Y-112910232D01*
X204379366Y-113053805D01*
X204379371Y-113053807D01*
X204379372Y-113053808D01*
X204379373Y-113053809D01*
X204466445Y-113095740D01*
X204608992Y-113164387D01*
X204608993Y-113164387D01*
X204608996Y-113164389D01*
X204707871Y-113194888D01*
X204752029Y-113208509D01*
X204810288Y-113247080D01*
X204838446Y-113311024D01*
X204827562Y-113380041D01*
X204781093Y-113432218D01*
X204752029Y-113445491D01*
X204608992Y-113489612D01*
X204379373Y-113600190D01*
X204379372Y-113600191D01*
X204168782Y-113743768D01*
X203981952Y-113917121D01*
X203981950Y-113917123D01*
X203823041Y-114116388D01*
X203695608Y-114337109D01*
X203602492Y-114574362D01*
X203602490Y-114574369D01*
X203545777Y-114822845D01*
X203526732Y-115076995D01*
X203526732Y-115077004D01*
X203545777Y-115331154D01*
X203545778Y-115331157D01*
X203602492Y-115579637D01*
X203695607Y-115816888D01*
X203823041Y-116037612D01*
X203981950Y-116236877D01*
X204168783Y-116410232D01*
X204379366Y-116553805D01*
X204379371Y-116553807D01*
X204379372Y-116553808D01*
X204379373Y-116553809D01*
X204501328Y-116612538D01*
X204608992Y-116664387D01*
X204608993Y-116664387D01*
X204608996Y-116664389D01*
X204684251Y-116687602D01*
X204752029Y-116708509D01*
X204810288Y-116747080D01*
X204838446Y-116811024D01*
X204827562Y-116880041D01*
X204781093Y-116932218D01*
X204752029Y-116945491D01*
X204608992Y-116989612D01*
X204379373Y-117100190D01*
X204379372Y-117100191D01*
X204168782Y-117243768D01*
X203981952Y-117417121D01*
X203981950Y-117417123D01*
X203823041Y-117616388D01*
X203695608Y-117837109D01*
X203602492Y-118074362D01*
X203602490Y-118074369D01*
X203545777Y-118322845D01*
X203526732Y-118576995D01*
X203526732Y-118577004D01*
X195585184Y-118577004D01*
X195589478Y-103124000D01*
X226170540Y-103124000D01*
X226190326Y-103312256D01*
X226190327Y-103312259D01*
X226248818Y-103492277D01*
X226248821Y-103492284D01*
X226343467Y-103656216D01*
X226470129Y-103796888D01*
X226623265Y-103908148D01*
X226623270Y-103908151D01*
X226796192Y-103985142D01*
X226796197Y-103985144D01*
X226981354Y-104024500D01*
X226981355Y-104024500D01*
X227170644Y-104024500D01*
X227170646Y-104024500D01*
X227355803Y-103985144D01*
X227528730Y-103908151D01*
X227681871Y-103796888D01*
X227715986Y-103759000D01*
X233790540Y-103759000D01*
X233810326Y-103947256D01*
X233810327Y-103947259D01*
X233868818Y-104127277D01*
X233868821Y-104127284D01*
X233963467Y-104291216D01*
X234090129Y-104431888D01*
X234243265Y-104543148D01*
X234243270Y-104543151D01*
X234416192Y-104620142D01*
X234416197Y-104620144D01*
X234601354Y-104659500D01*
X234601355Y-104659500D01*
X234790644Y-104659500D01*
X234790646Y-104659500D01*
X234975803Y-104620144D01*
X235148730Y-104543151D01*
X235301871Y-104431888D01*
X235428533Y-104291216D01*
X235523179Y-104127284D01*
X235581674Y-103947256D01*
X235601460Y-103759000D01*
X235581674Y-103570744D01*
X235523179Y-103390716D01*
X235428533Y-103226784D01*
X235301871Y-103086112D01*
X235301870Y-103086111D01*
X235148734Y-102974851D01*
X235148729Y-102974848D01*
X235025043Y-102919779D01*
X234971806Y-102874529D01*
X234951485Y-102807680D01*
X234970531Y-102740456D01*
X235022897Y-102694201D01*
X235025043Y-102693221D01*
X235077498Y-102669865D01*
X235148730Y-102638151D01*
X235301871Y-102526888D01*
X235428533Y-102386216D01*
X235523179Y-102222284D01*
X235581674Y-102042256D01*
X235601460Y-101854000D01*
X235581674Y-101665744D01*
X235523179Y-101485716D01*
X235428533Y-101321784D01*
X235301871Y-101181112D01*
X235301870Y-101181111D01*
X235148734Y-101069851D01*
X235148729Y-101069848D01*
X234975807Y-100992857D01*
X234975802Y-100992855D01*
X234830001Y-100961865D01*
X234790646Y-100953500D01*
X234601354Y-100953500D01*
X234568897Y-100960398D01*
X234416197Y-100992855D01*
X234416192Y-100992857D01*
X234243270Y-101069848D01*
X234243265Y-101069851D01*
X234090129Y-101181111D01*
X233963466Y-101321785D01*
X233868821Y-101485715D01*
X233868818Y-101485722D01*
X233810327Y-101665740D01*
X233810326Y-101665744D01*
X233790540Y-101854000D01*
X233810326Y-102042256D01*
X233810327Y-102042259D01*
X233868818Y-102222277D01*
X233868821Y-102222284D01*
X233963467Y-102386216D01*
X234090129Y-102526888D01*
X234243265Y-102638148D01*
X234243270Y-102638151D01*
X234366956Y-102693221D01*
X234420193Y-102738472D01*
X234440514Y-102805321D01*
X234421468Y-102872544D01*
X234369102Y-102918799D01*
X234366956Y-102919779D01*
X234243270Y-102974848D01*
X234243265Y-102974851D01*
X234090129Y-103086111D01*
X233963466Y-103226785D01*
X233868821Y-103390715D01*
X233868818Y-103390722D01*
X233835819Y-103492284D01*
X233810326Y-103570744D01*
X233790540Y-103759000D01*
X227715986Y-103759000D01*
X227808533Y-103656216D01*
X227903179Y-103492284D01*
X227961674Y-103312256D01*
X227981460Y-103124000D01*
X227961674Y-102935744D01*
X227903179Y-102755716D01*
X227808533Y-102591784D01*
X227790693Y-102571971D01*
X227760464Y-102508981D01*
X227769089Y-102439646D01*
X227790694Y-102406028D01*
X227808533Y-102386216D01*
X227903179Y-102222284D01*
X227961674Y-102042256D01*
X227981460Y-101854000D01*
X227961674Y-101665744D01*
X227903179Y-101485716D01*
X227808533Y-101321784D01*
X227681871Y-101181112D01*
X227681870Y-101181111D01*
X227528734Y-101069851D01*
X227528729Y-101069848D01*
X227355807Y-100992857D01*
X227355802Y-100992855D01*
X227210001Y-100961865D01*
X227170646Y-100953500D01*
X226981354Y-100953500D01*
X226948897Y-100960398D01*
X226796197Y-100992855D01*
X226796192Y-100992857D01*
X226623270Y-101069848D01*
X226623265Y-101069851D01*
X226470129Y-101181111D01*
X226343466Y-101321785D01*
X226248821Y-101485715D01*
X226248818Y-101485722D01*
X226190327Y-101665740D01*
X226190326Y-101665744D01*
X226170540Y-101854000D01*
X226190326Y-102042256D01*
X226190327Y-102042259D01*
X226248818Y-102222277D01*
X226248821Y-102222284D01*
X226343467Y-102386216D01*
X226353806Y-102397699D01*
X226361307Y-102406030D01*
X226391535Y-102469022D01*
X226382909Y-102538357D01*
X226361307Y-102571970D01*
X226343466Y-102591785D01*
X226248821Y-102755715D01*
X226248818Y-102755722D01*
X226195513Y-102919779D01*
X226190326Y-102935744D01*
X226170540Y-103124000D01*
X195589478Y-103124000D01*
X195589901Y-101600000D01*
X201844341Y-101600000D01*
X201864936Y-101835403D01*
X201864938Y-101835413D01*
X201926094Y-102063655D01*
X201926096Y-102063659D01*
X201926097Y-102063663D01*
X202025965Y-102277830D01*
X202025967Y-102277834D01*
X202101856Y-102386214D01*
X202161505Y-102471401D01*
X202328599Y-102638495D01*
X202406756Y-102693221D01*
X202522165Y-102774032D01*
X202522167Y-102774033D01*
X202522170Y-102774035D01*
X202736337Y-102873903D01*
X202964592Y-102935063D01*
X203141034Y-102950500D01*
X203199999Y-102955659D01*
X203200000Y-102955659D01*
X203200001Y-102955659D01*
X203258966Y-102950500D01*
X203435408Y-102935063D01*
X203663663Y-102873903D01*
X203877830Y-102774035D01*
X204071401Y-102638495D01*
X204238495Y-102471401D01*
X204374035Y-102277830D01*
X204473903Y-102063663D01*
X204535063Y-101835408D01*
X204555659Y-101600000D01*
X204535063Y-101364592D01*
X204473903Y-101136337D01*
X204374035Y-100922171D01*
X204238495Y-100728599D01*
X204238494Y-100728597D01*
X204071402Y-100561506D01*
X204071396Y-100561501D01*
X203885842Y-100431575D01*
X203842217Y-100376998D01*
X203835023Y-100307500D01*
X203866546Y-100245145D01*
X203885842Y-100228425D01*
X203998054Y-100149853D01*
X204071401Y-100098495D01*
X204238495Y-99931401D01*
X204374035Y-99737830D01*
X204473903Y-99523663D01*
X204535063Y-99295408D01*
X204555659Y-99060000D01*
X250104341Y-99060000D01*
X250124936Y-99295403D01*
X250124938Y-99295413D01*
X250186094Y-99523655D01*
X250186096Y-99523659D01*
X250186097Y-99523663D01*
X250285965Y-99737830D01*
X250285967Y-99737834D01*
X250394281Y-99892521D01*
X250421501Y-99931396D01*
X250421506Y-99931402D01*
X250543430Y-100053326D01*
X250576915Y-100114649D01*
X250571931Y-100184341D01*
X250530059Y-100240274D01*
X250499083Y-100257189D01*
X250367669Y-100306203D01*
X250367664Y-100306206D01*
X250252455Y-100392452D01*
X250252452Y-100392455D01*
X250166206Y-100507664D01*
X250166202Y-100507671D01*
X250115908Y-100642517D01*
X250109501Y-100702116D01*
X250109501Y-100702123D01*
X250109500Y-100702135D01*
X250109500Y-102497870D01*
X250109501Y-102497876D01*
X250115908Y-102557483D01*
X250166202Y-102692328D01*
X250166206Y-102692335D01*
X250252452Y-102807544D01*
X250252455Y-102807547D01*
X250367664Y-102893793D01*
X250367671Y-102893797D01*
X250502517Y-102944091D01*
X250502516Y-102944091D01*
X250509444Y-102944835D01*
X250562127Y-102950500D01*
X252357872Y-102950499D01*
X252417483Y-102944091D01*
X252552331Y-102893796D01*
X252667546Y-102807546D01*
X252753796Y-102692331D01*
X252804091Y-102557483D01*
X252810500Y-102497873D01*
X252810499Y-100702128D01*
X252804091Y-100642517D01*
X252753796Y-100507669D01*
X252753795Y-100507668D01*
X252753793Y-100507664D01*
X252667547Y-100392455D01*
X252667544Y-100392452D01*
X252552335Y-100306206D01*
X252552328Y-100306202D01*
X252420917Y-100257189D01*
X252364983Y-100215318D01*
X252340566Y-100149853D01*
X252355418Y-100081580D01*
X252376563Y-100053332D01*
X252498495Y-99931401D01*
X252634035Y-99737830D01*
X252733903Y-99523663D01*
X252795063Y-99295408D01*
X252815659Y-99060000D01*
X252795063Y-98824592D01*
X252733903Y-98596337D01*
X252634035Y-98382171D01*
X252498495Y-98188599D01*
X252498494Y-98188597D01*
X252331402Y-98021506D01*
X252331396Y-98021501D01*
X252145842Y-97891575D01*
X252102217Y-97836998D01*
X252095023Y-97767500D01*
X252126546Y-97705145D01*
X252145842Y-97688425D01*
X252168026Y-97672891D01*
X252331401Y-97558495D01*
X252498495Y-97391401D01*
X252634035Y-97197830D01*
X252733903Y-96983663D01*
X252795063Y-96755408D01*
X252815659Y-96520000D01*
X252795063Y-96284592D01*
X252733903Y-96056337D01*
X252634035Y-95842171D01*
X252498495Y-95648599D01*
X252498494Y-95648597D01*
X252331402Y-95481506D01*
X252331396Y-95481501D01*
X252145842Y-95351575D01*
X252102217Y-95296998D01*
X252095023Y-95227500D01*
X252126546Y-95165145D01*
X252145842Y-95148425D01*
X252216735Y-95098785D01*
X252331401Y-95018495D01*
X252498495Y-94851401D01*
X252634035Y-94657830D01*
X252733903Y-94443663D01*
X252795063Y-94215408D01*
X252815659Y-93980000D01*
X252795063Y-93744592D01*
X252733903Y-93516337D01*
X252634035Y-93302171D01*
X252498495Y-93108599D01*
X252498494Y-93108597D01*
X252331402Y-92941506D01*
X252331396Y-92941501D01*
X252145842Y-92811575D01*
X252102217Y-92756998D01*
X252095023Y-92687500D01*
X252126546Y-92625145D01*
X252145842Y-92608425D01*
X252168026Y-92592891D01*
X252331401Y-92478495D01*
X252498495Y-92311401D01*
X252634035Y-92117830D01*
X252733903Y-91903663D01*
X252795063Y-91675408D01*
X252815659Y-91440000D01*
X252795063Y-91204592D01*
X252733903Y-90976337D01*
X252634035Y-90762171D01*
X252583151Y-90689500D01*
X252498494Y-90568597D01*
X252331402Y-90401506D01*
X252331396Y-90401501D01*
X252145842Y-90271575D01*
X252102217Y-90216998D01*
X252095023Y-90147500D01*
X252126546Y-90085145D01*
X252145842Y-90068425D01*
X252168026Y-90052891D01*
X252331401Y-89938495D01*
X252498495Y-89771401D01*
X252634035Y-89577830D01*
X252733903Y-89363663D01*
X252795063Y-89135408D01*
X252815659Y-88900000D01*
X252795063Y-88664592D01*
X252733903Y-88436337D01*
X252634035Y-88222171D01*
X252621133Y-88203744D01*
X252498494Y-88028597D01*
X252331402Y-87861506D01*
X252331396Y-87861501D01*
X252145842Y-87731575D01*
X252102217Y-87676998D01*
X252095023Y-87607500D01*
X252126546Y-87545145D01*
X252145842Y-87528425D01*
X252236262Y-87465112D01*
X252331401Y-87398495D01*
X252498495Y-87231401D01*
X252634035Y-87037830D01*
X252733903Y-86823663D01*
X252795063Y-86595408D01*
X252815659Y-86360000D01*
X252795063Y-86124592D01*
X252733903Y-85896337D01*
X252634035Y-85682171D01*
X252498495Y-85488599D01*
X252498494Y-85488597D01*
X252331402Y-85321506D01*
X252331396Y-85321501D01*
X252145842Y-85191575D01*
X252102217Y-85136998D01*
X252095023Y-85067500D01*
X252126546Y-85005145D01*
X252145842Y-84988425D01*
X252216735Y-84938785D01*
X252331401Y-84858495D01*
X252498495Y-84691401D01*
X252634035Y-84497830D01*
X252733903Y-84283663D01*
X252795063Y-84055408D01*
X252815659Y-83820000D01*
X252795063Y-83584592D01*
X252733903Y-83356337D01*
X252634035Y-83142171D01*
X252598017Y-83090731D01*
X252498494Y-82948597D01*
X252331402Y-82781506D01*
X252331395Y-82781501D01*
X252137834Y-82645967D01*
X252137830Y-82645965D01*
X252137828Y-82645964D01*
X251923663Y-82546097D01*
X251923659Y-82546096D01*
X251923655Y-82546094D01*
X251695413Y-82484938D01*
X251695403Y-82484936D01*
X251460001Y-82464341D01*
X251459999Y-82464341D01*
X251224596Y-82484936D01*
X251224586Y-82484938D01*
X250996344Y-82546094D01*
X250996335Y-82546098D01*
X250782171Y-82645964D01*
X250782169Y-82645965D01*
X250588597Y-82781505D01*
X250421505Y-82948597D01*
X250285965Y-83142169D01*
X250285964Y-83142171D01*
X250186098Y-83356335D01*
X250186094Y-83356344D01*
X250124938Y-83584586D01*
X250124936Y-83584596D01*
X250104341Y-83819999D01*
X250104341Y-83820000D01*
X250124936Y-84055403D01*
X250124938Y-84055413D01*
X250186094Y-84283655D01*
X250186096Y-84283659D01*
X250186097Y-84283663D01*
X250285965Y-84497830D01*
X250285967Y-84497834D01*
X250421501Y-84691395D01*
X250421506Y-84691402D01*
X250588597Y-84858493D01*
X250588603Y-84858498D01*
X250774158Y-84988425D01*
X250817783Y-85043002D01*
X250824977Y-85112500D01*
X250793454Y-85174855D01*
X250774158Y-85191575D01*
X250588597Y-85321505D01*
X250421505Y-85488597D01*
X250285965Y-85682169D01*
X250285964Y-85682171D01*
X250186098Y-85896335D01*
X250186094Y-85896344D01*
X250124938Y-86124586D01*
X250124936Y-86124596D01*
X250104341Y-86359999D01*
X250104341Y-86360000D01*
X250124936Y-86595403D01*
X250124938Y-86595413D01*
X250186094Y-86823655D01*
X250186096Y-86823659D01*
X250186097Y-86823663D01*
X250285965Y-87037830D01*
X250285967Y-87037834D01*
X250421501Y-87231395D01*
X250421506Y-87231402D01*
X250588597Y-87398493D01*
X250588603Y-87398498D01*
X250774158Y-87528425D01*
X250817783Y-87583002D01*
X250824977Y-87652500D01*
X250793454Y-87714855D01*
X250774158Y-87731575D01*
X250588597Y-87861505D01*
X250421505Y-88028597D01*
X250285965Y-88222169D01*
X250285964Y-88222171D01*
X250186098Y-88436335D01*
X250186094Y-88436344D01*
X250124938Y-88664586D01*
X250124936Y-88664596D01*
X250104341Y-88899999D01*
X250104341Y-88900000D01*
X250124936Y-89135403D01*
X250124938Y-89135413D01*
X250186094Y-89363655D01*
X250186096Y-89363659D01*
X250186097Y-89363663D01*
X250265993Y-89535000D01*
X250285965Y-89577830D01*
X250285967Y-89577834D01*
X250421501Y-89771395D01*
X250421506Y-89771402D01*
X250588597Y-89938493D01*
X250588603Y-89938498D01*
X250774158Y-90068425D01*
X250817783Y-90123002D01*
X250824977Y-90192500D01*
X250793454Y-90254855D01*
X250774158Y-90271575D01*
X250588597Y-90401505D01*
X250421505Y-90568597D01*
X250285965Y-90762169D01*
X250285964Y-90762171D01*
X250186098Y-90976335D01*
X250186094Y-90976344D01*
X250124938Y-91204586D01*
X250124936Y-91204596D01*
X250104341Y-91439999D01*
X250104341Y-91440000D01*
X250124936Y-91675403D01*
X250124938Y-91675413D01*
X250186094Y-91903655D01*
X250186096Y-91903659D01*
X250186097Y-91903663D01*
X250285965Y-92117830D01*
X250285967Y-92117834D01*
X250421501Y-92311395D01*
X250421506Y-92311402D01*
X250588597Y-92478493D01*
X250588603Y-92478498D01*
X250774158Y-92608425D01*
X250817783Y-92663002D01*
X250824977Y-92732500D01*
X250793454Y-92794855D01*
X250774158Y-92811575D01*
X250588597Y-92941505D01*
X250421505Y-93108597D01*
X250285965Y-93302169D01*
X250285964Y-93302171D01*
X250186098Y-93516335D01*
X250186094Y-93516344D01*
X250124938Y-93744586D01*
X250124936Y-93744596D01*
X250104341Y-93979999D01*
X250104341Y-93980000D01*
X250124936Y-94215403D01*
X250124938Y-94215413D01*
X250186094Y-94443655D01*
X250186096Y-94443659D01*
X250186097Y-94443663D01*
X250285965Y-94657830D01*
X250285967Y-94657834D01*
X250421501Y-94851395D01*
X250421506Y-94851402D01*
X250588597Y-95018493D01*
X250588603Y-95018498D01*
X250774158Y-95148425D01*
X250817783Y-95203002D01*
X250824977Y-95272500D01*
X250793454Y-95334855D01*
X250774158Y-95351575D01*
X250588597Y-95481505D01*
X250421505Y-95648597D01*
X250285965Y-95842169D01*
X250285964Y-95842171D01*
X250186098Y-96056335D01*
X250186094Y-96056344D01*
X250124938Y-96284586D01*
X250124936Y-96284596D01*
X250104341Y-96519999D01*
X250104341Y-96520000D01*
X250124936Y-96755403D01*
X250124938Y-96755413D01*
X250186094Y-96983655D01*
X250186096Y-96983659D01*
X250186097Y-96983663D01*
X250285965Y-97197830D01*
X250285967Y-97197834D01*
X250421501Y-97391395D01*
X250421506Y-97391402D01*
X250588597Y-97558493D01*
X250588603Y-97558498D01*
X250774158Y-97688425D01*
X250817783Y-97743002D01*
X250824977Y-97812500D01*
X250793454Y-97874855D01*
X250774158Y-97891575D01*
X250588597Y-98021505D01*
X250421505Y-98188597D01*
X250285965Y-98382169D01*
X250285964Y-98382171D01*
X250186098Y-98596335D01*
X250186094Y-98596344D01*
X250124938Y-98824586D01*
X250124936Y-98824596D01*
X250104341Y-99059999D01*
X250104341Y-99060000D01*
X204555659Y-99060000D01*
X204535063Y-98824592D01*
X204473903Y-98596337D01*
X204374035Y-98382171D01*
X204238495Y-98188599D01*
X204238494Y-98188597D01*
X204071402Y-98021506D01*
X204071396Y-98021501D01*
X203885842Y-97891575D01*
X203842217Y-97836998D01*
X203835023Y-97767500D01*
X203866546Y-97705145D01*
X203885842Y-97688425D01*
X203908026Y-97672891D01*
X204071401Y-97558495D01*
X204238495Y-97391401D01*
X204374035Y-97197830D01*
X204473903Y-96983663D01*
X204496052Y-96901000D01*
X239124540Y-96901000D01*
X239144326Y-97089256D01*
X239144327Y-97089259D01*
X239202818Y-97269277D01*
X239202821Y-97269284D01*
X239297467Y-97433216D01*
X239410267Y-97558493D01*
X239424129Y-97573888D01*
X239577265Y-97685148D01*
X239577270Y-97685151D01*
X239750192Y-97762142D01*
X239750197Y-97762144D01*
X239935354Y-97801500D01*
X239935355Y-97801500D01*
X240124644Y-97801500D01*
X240124646Y-97801500D01*
X240309803Y-97762144D01*
X240482730Y-97685151D01*
X240635871Y-97573888D01*
X240762533Y-97433216D01*
X240857179Y-97269284D01*
X240915674Y-97089256D01*
X240935460Y-96901000D01*
X244204540Y-96901000D01*
X244224326Y-97089256D01*
X244224327Y-97089259D01*
X244282818Y-97269277D01*
X244282821Y-97269284D01*
X244377467Y-97433216D01*
X244490267Y-97558493D01*
X244504129Y-97573888D01*
X244657265Y-97685148D01*
X244657270Y-97685151D01*
X244830192Y-97762142D01*
X244830197Y-97762144D01*
X245015354Y-97801500D01*
X245015355Y-97801500D01*
X245204644Y-97801500D01*
X245204646Y-97801500D01*
X245389803Y-97762144D01*
X245562730Y-97685151D01*
X245715871Y-97573888D01*
X245842533Y-97433216D01*
X245937179Y-97269284D01*
X245995674Y-97089256D01*
X246015460Y-96901000D01*
X245995674Y-96712744D01*
X245937179Y-96532716D01*
X245935366Y-96527136D01*
X245933371Y-96457295D01*
X245969451Y-96397462D01*
X245980412Y-96388500D01*
X246096871Y-96303888D01*
X246223533Y-96163216D01*
X246318179Y-95999284D01*
X246376674Y-95819256D01*
X246396460Y-95631000D01*
X246376674Y-95442744D01*
X246318179Y-95262716D01*
X246223533Y-95098784D01*
X246096871Y-94958112D01*
X246096870Y-94958111D01*
X245943734Y-94846851D01*
X245943729Y-94846848D01*
X245770807Y-94769857D01*
X245770802Y-94769855D01*
X245625001Y-94738865D01*
X245585646Y-94730500D01*
X245396354Y-94730500D01*
X245363897Y-94737398D01*
X245211197Y-94769855D01*
X245211192Y-94769857D01*
X245038270Y-94846848D01*
X245038265Y-94846851D01*
X244885129Y-94958111D01*
X244758466Y-95098785D01*
X244663821Y-95262715D01*
X244663818Y-95262722D01*
X244605327Y-95442740D01*
X244605326Y-95442744D01*
X244585540Y-95631000D01*
X244605326Y-95819256D01*
X244605327Y-95819259D01*
X244665633Y-96004863D01*
X244667628Y-96074704D01*
X244631548Y-96134537D01*
X244620588Y-96143499D01*
X244504127Y-96228113D01*
X244377466Y-96368785D01*
X244282821Y-96532715D01*
X244282818Y-96532722D01*
X244224327Y-96712740D01*
X244224326Y-96712744D01*
X244204540Y-96901000D01*
X240935460Y-96901000D01*
X240915674Y-96712744D01*
X240857179Y-96532716D01*
X240762533Y-96368784D01*
X240744693Y-96348971D01*
X240714464Y-96285981D01*
X240723089Y-96216646D01*
X240744694Y-96183028D01*
X240762533Y-96163216D01*
X240857179Y-95999284D01*
X240915674Y-95819256D01*
X240935460Y-95631000D01*
X240915674Y-95442744D01*
X240857179Y-95262716D01*
X240762533Y-95098784D01*
X240635871Y-94958112D01*
X240635870Y-94958111D01*
X240482734Y-94846851D01*
X240482729Y-94846848D01*
X240309807Y-94769857D01*
X240309802Y-94769855D01*
X240164001Y-94738865D01*
X240124646Y-94730500D01*
X239935354Y-94730500D01*
X239902897Y-94737398D01*
X239750197Y-94769855D01*
X239750192Y-94769857D01*
X239577270Y-94846848D01*
X239577265Y-94846851D01*
X239424129Y-94958111D01*
X239297466Y-95098785D01*
X239202821Y-95262715D01*
X239202818Y-95262722D01*
X239144327Y-95442740D01*
X239144326Y-95442744D01*
X239124540Y-95631000D01*
X239144326Y-95819256D01*
X239144327Y-95819259D01*
X239202818Y-95999277D01*
X239202821Y-95999284D01*
X239297467Y-96163216D01*
X239307806Y-96174699D01*
X239315307Y-96183030D01*
X239345535Y-96246022D01*
X239336909Y-96315357D01*
X239315307Y-96348970D01*
X239297466Y-96368785D01*
X239202821Y-96532715D01*
X239202818Y-96532722D01*
X239144327Y-96712740D01*
X239144326Y-96712744D01*
X239124540Y-96901000D01*
X204496052Y-96901000D01*
X204535063Y-96755408D01*
X204555659Y-96520000D01*
X204535063Y-96284592D01*
X204473903Y-96056337D01*
X204374035Y-95842171D01*
X204238495Y-95648599D01*
X204238494Y-95648597D01*
X204071402Y-95481506D01*
X204071396Y-95481501D01*
X203885842Y-95351575D01*
X203842217Y-95296998D01*
X203835023Y-95227500D01*
X203866546Y-95165145D01*
X203885842Y-95148425D01*
X203956735Y-95098785D01*
X204071401Y-95018495D01*
X204238495Y-94851401D01*
X204374035Y-94657830D01*
X204473903Y-94443663D01*
X204535063Y-94215408D01*
X204555659Y-93980000D01*
X204535063Y-93744592D01*
X204473903Y-93516337D01*
X204374035Y-93302171D01*
X204238495Y-93108599D01*
X204238494Y-93108597D01*
X204071402Y-92941506D01*
X204071396Y-92941501D01*
X203885842Y-92811575D01*
X203842217Y-92756998D01*
X203835023Y-92687500D01*
X203866546Y-92625145D01*
X203885842Y-92608425D01*
X203908026Y-92592891D01*
X204071401Y-92478495D01*
X204238495Y-92311401D01*
X204374035Y-92117830D01*
X204473903Y-91903663D01*
X204496052Y-91821000D01*
X239124540Y-91821000D01*
X239144326Y-92009256D01*
X239144327Y-92009259D01*
X239202818Y-92189277D01*
X239202821Y-92189284D01*
X239297467Y-92353216D01*
X239410267Y-92478493D01*
X239424129Y-92493888D01*
X239577265Y-92605148D01*
X239577270Y-92605151D01*
X239750192Y-92682142D01*
X239750197Y-92682144D01*
X239935354Y-92721500D01*
X239935355Y-92721500D01*
X240124644Y-92721500D01*
X240124646Y-92721500D01*
X240309803Y-92682144D01*
X240482730Y-92605151D01*
X240635871Y-92493888D01*
X240762533Y-92353216D01*
X240857179Y-92189284D01*
X240915674Y-92009256D01*
X240935460Y-91821000D01*
X240915674Y-91632744D01*
X240857179Y-91452716D01*
X240775647Y-91311499D01*
X240759175Y-91243600D01*
X240775648Y-91187500D01*
X240835857Y-91083214D01*
X240857179Y-91046284D01*
X240915674Y-90866256D01*
X240935460Y-90678000D01*
X240922112Y-90551000D01*
X244585540Y-90551000D01*
X244605326Y-90739256D01*
X244605327Y-90739259D01*
X244663818Y-90919277D01*
X244663821Y-90919284D01*
X244758467Y-91083216D01*
X244852365Y-91187500D01*
X244885129Y-91223888D01*
X245038265Y-91335148D01*
X245038270Y-91335151D01*
X245211192Y-91412142D01*
X245211197Y-91412144D01*
X245396354Y-91451500D01*
X245396355Y-91451500D01*
X245585644Y-91451500D01*
X245585646Y-91451500D01*
X245770803Y-91412144D01*
X245943730Y-91335151D01*
X246096871Y-91223888D01*
X246223533Y-91083216D01*
X246318179Y-90919284D01*
X246376674Y-90739256D01*
X246396460Y-90551000D01*
X246376674Y-90362744D01*
X246318179Y-90182716D01*
X246223533Y-90018784D01*
X246096871Y-89878112D01*
X246068478Y-89857483D01*
X245943734Y-89766851D01*
X245943729Y-89766848D01*
X245770807Y-89689857D01*
X245770802Y-89689855D01*
X245625001Y-89658865D01*
X245585646Y-89650500D01*
X245396354Y-89650500D01*
X245363897Y-89657398D01*
X245211197Y-89689855D01*
X245211192Y-89689857D01*
X245038270Y-89766848D01*
X245038265Y-89766851D01*
X244885129Y-89878111D01*
X244758466Y-90018785D01*
X244663821Y-90182715D01*
X244663818Y-90182722D01*
X244605327Y-90362740D01*
X244605326Y-90362744D01*
X244585540Y-90551000D01*
X240922112Y-90551000D01*
X240915674Y-90489744D01*
X240857179Y-90309716D01*
X240762533Y-90145784D01*
X240635871Y-90005112D01*
X240618285Y-89992335D01*
X240482734Y-89893851D01*
X240482729Y-89893848D01*
X240309807Y-89816857D01*
X240309802Y-89816855D01*
X240164001Y-89785865D01*
X240124646Y-89777500D01*
X239935354Y-89777500D01*
X239902897Y-89784398D01*
X239750197Y-89816855D01*
X239750192Y-89816857D01*
X239577270Y-89893848D01*
X239577265Y-89893851D01*
X239424129Y-90005111D01*
X239297466Y-90145785D01*
X239202821Y-90309715D01*
X239202818Y-90309722D01*
X239158320Y-90446674D01*
X239144326Y-90489744D01*
X239124540Y-90678000D01*
X239144326Y-90866256D01*
X239144327Y-90866259D01*
X239202818Y-91046277D01*
X239202820Y-91046281D01*
X239202821Y-91046284D01*
X239224143Y-91083214D01*
X239284352Y-91187501D01*
X239300824Y-91255401D01*
X239284352Y-91311499D01*
X239202820Y-91452718D01*
X239202818Y-91452722D01*
X239144327Y-91632740D01*
X239144326Y-91632744D01*
X239124540Y-91821000D01*
X204496052Y-91821000D01*
X204535063Y-91675408D01*
X204555659Y-91440000D01*
X204535063Y-91204592D01*
X204473903Y-90976337D01*
X204374035Y-90762171D01*
X204323150Y-90689500D01*
X204238496Y-90568600D01*
X204220896Y-90551000D01*
X204116567Y-90446671D01*
X204083084Y-90385351D01*
X204088068Y-90315659D01*
X204129939Y-90259725D01*
X204160915Y-90242810D01*
X204292331Y-90193796D01*
X204407546Y-90107546D01*
X204493796Y-89992331D01*
X204544091Y-89857483D01*
X204550500Y-89797873D01*
X204550499Y-88138000D01*
X216518540Y-88138000D01*
X216538326Y-88326256D01*
X216538327Y-88326259D01*
X216596818Y-88506277D01*
X216596821Y-88506284D01*
X216691467Y-88670216D01*
X216771110Y-88758668D01*
X216818129Y-88810888D01*
X216971265Y-88922148D01*
X216971270Y-88922151D01*
X217144192Y-88999142D01*
X217144197Y-88999144D01*
X217329354Y-89038500D01*
X217329355Y-89038500D01*
X217518644Y-89038500D01*
X217518646Y-89038500D01*
X217703803Y-88999144D01*
X217876730Y-88922151D01*
X218029871Y-88810888D01*
X218156533Y-88670216D01*
X218251179Y-88506284D01*
X218309674Y-88326256D01*
X218309674Y-88326254D01*
X218311351Y-88321094D01*
X218343656Y-88273849D01*
X218512010Y-88273849D01*
X218535469Y-88295379D01*
X218553231Y-88362953D01*
X218552603Y-88372368D01*
X218550540Y-88392000D01*
X218570326Y-88580256D01*
X218570327Y-88580259D01*
X218628818Y-88760277D01*
X218628821Y-88760284D01*
X218723467Y-88924216D01*
X218826369Y-89038500D01*
X218850129Y-89064888D01*
X219003265Y-89176148D01*
X219003270Y-89176151D01*
X219176192Y-89253142D01*
X219176197Y-89253144D01*
X219361354Y-89292500D01*
X219361355Y-89292500D01*
X219515809Y-89292500D01*
X219582848Y-89312185D01*
X219628603Y-89364989D01*
X219638547Y-89434147D01*
X219633740Y-89454818D01*
X219593771Y-89577830D01*
X219586326Y-89600744D01*
X219566540Y-89789000D01*
X219586326Y-89977256D01*
X219586327Y-89977259D01*
X219644818Y-90157277D01*
X219644821Y-90157284D01*
X219739467Y-90321216D01*
X219842369Y-90435500D01*
X219866129Y-90461888D01*
X220019265Y-90573148D01*
X220019270Y-90573151D01*
X220192192Y-90650142D01*
X220192197Y-90650144D01*
X220377354Y-90689500D01*
X220377355Y-90689500D01*
X220566644Y-90689500D01*
X220566646Y-90689500D01*
X220751803Y-90650144D01*
X220924730Y-90573151D01*
X221077871Y-90461888D01*
X221204533Y-90321216D01*
X221299179Y-90157284D01*
X221357674Y-89977256D01*
X221377460Y-89789000D01*
X221357674Y-89600744D01*
X221336312Y-89535000D01*
X221725540Y-89535000D01*
X221745326Y-89723256D01*
X221745327Y-89723259D01*
X221803818Y-89903277D01*
X221803821Y-89903284D01*
X221898467Y-90067216D01*
X222012441Y-90193797D01*
X222025129Y-90207888D01*
X222178265Y-90319148D01*
X222178270Y-90319151D01*
X222351192Y-90396142D01*
X222351197Y-90396144D01*
X222536354Y-90435500D01*
X222536355Y-90435500D01*
X222725644Y-90435500D01*
X222725646Y-90435500D01*
X222910803Y-90396144D01*
X223083730Y-90319151D01*
X223236871Y-90207888D01*
X223363533Y-90067216D01*
X223458179Y-89903284D01*
X223516674Y-89723256D01*
X223536460Y-89535000D01*
X223516674Y-89346744D01*
X223458179Y-89166716D01*
X223363533Y-89002784D01*
X223236871Y-88862112D01*
X223236870Y-88862111D01*
X223083734Y-88750851D01*
X223083729Y-88750848D01*
X222910807Y-88673857D01*
X222910802Y-88673855D01*
X222765001Y-88642865D01*
X222725646Y-88634500D01*
X222536354Y-88634500D01*
X222503897Y-88641398D01*
X222351197Y-88673855D01*
X222351192Y-88673857D01*
X222178270Y-88750848D01*
X222178265Y-88750851D01*
X222025129Y-88862111D01*
X221898466Y-89002785D01*
X221803821Y-89166715D01*
X221803818Y-89166722D01*
X221762951Y-89292500D01*
X221745326Y-89346744D01*
X221725540Y-89535000D01*
X221336312Y-89535000D01*
X221299179Y-89420716D01*
X221204533Y-89256784D01*
X221077871Y-89116112D01*
X221077870Y-89116111D01*
X220924734Y-89004851D01*
X220924729Y-89004848D01*
X220751807Y-88927857D01*
X220751802Y-88927855D01*
X220606001Y-88896865D01*
X220566646Y-88888500D01*
X220412191Y-88888500D01*
X220345152Y-88868815D01*
X220299397Y-88816011D01*
X220289453Y-88746853D01*
X220294260Y-88726182D01*
X220314273Y-88664586D01*
X220341674Y-88580256D01*
X220361460Y-88392000D01*
X224646540Y-88392000D01*
X224666326Y-88580256D01*
X224666327Y-88580259D01*
X224724818Y-88760277D01*
X224724821Y-88760284D01*
X224819467Y-88924216D01*
X224922369Y-89038500D01*
X224946129Y-89064888D01*
X225099265Y-89176148D01*
X225099270Y-89176151D01*
X225272192Y-89253142D01*
X225272197Y-89253144D01*
X225457354Y-89292500D01*
X225457355Y-89292500D01*
X225646644Y-89292500D01*
X225646646Y-89292500D01*
X225820248Y-89255600D01*
X235212940Y-89255600D01*
X235232726Y-89443856D01*
X235232727Y-89443859D01*
X235291218Y-89623877D01*
X235291221Y-89623884D01*
X235385867Y-89787816D01*
X235467170Y-89878112D01*
X235512529Y-89928488D01*
X235665665Y-90039748D01*
X235665670Y-90039751D01*
X235838592Y-90116742D01*
X235838597Y-90116744D01*
X236023754Y-90156100D01*
X236023755Y-90156100D01*
X236213044Y-90156100D01*
X236213046Y-90156100D01*
X236398203Y-90116744D01*
X236571130Y-90039751D01*
X236724271Y-89928488D01*
X236850933Y-89787816D01*
X236945579Y-89623884D01*
X237004074Y-89443856D01*
X237023860Y-89255600D01*
X237004074Y-89067344D01*
X236945579Y-88887316D01*
X236871303Y-88758667D01*
X236854831Y-88690768D01*
X236877684Y-88624741D01*
X236886534Y-88613704D01*
X236927133Y-88568616D01*
X237021779Y-88404684D01*
X237080274Y-88224656D01*
X237100060Y-88036400D01*
X237080274Y-87848144D01*
X237021779Y-87668116D01*
X236927133Y-87504184D01*
X236800471Y-87363512D01*
X236787170Y-87353848D01*
X236647334Y-87252251D01*
X236647329Y-87252248D01*
X236474407Y-87175257D01*
X236474402Y-87175255D01*
X236328601Y-87144265D01*
X236289246Y-87135900D01*
X236099954Y-87135900D01*
X236067497Y-87142798D01*
X235914797Y-87175255D01*
X235914792Y-87175257D01*
X235741870Y-87252248D01*
X235741865Y-87252251D01*
X235588729Y-87363511D01*
X235462066Y-87504185D01*
X235367421Y-87668115D01*
X235367418Y-87668122D01*
X235308927Y-87848140D01*
X235308926Y-87848144D01*
X235289140Y-88036400D01*
X235308926Y-88224656D01*
X235308927Y-88224659D01*
X235367418Y-88404677D01*
X235367421Y-88404684D01*
X235441695Y-88533330D01*
X235458168Y-88601230D01*
X235435315Y-88667257D01*
X235426459Y-88678301D01*
X235385866Y-88723385D01*
X235291221Y-88887315D01*
X235291218Y-88887322D01*
X235253031Y-89004851D01*
X235232726Y-89067344D01*
X235212940Y-89255600D01*
X225820248Y-89255600D01*
X225831803Y-89253144D01*
X226004730Y-89176151D01*
X226157871Y-89064888D01*
X226284533Y-88924216D01*
X226379179Y-88760284D01*
X226437674Y-88580256D01*
X226457460Y-88392000D01*
X226437674Y-88203744D01*
X226379179Y-88023716D01*
X226284533Y-87859784D01*
X226157871Y-87719112D01*
X226121181Y-87692455D01*
X226004734Y-87607851D01*
X226004729Y-87607848D01*
X225831807Y-87530857D01*
X225831802Y-87530855D01*
X225686001Y-87499865D01*
X225646646Y-87491500D01*
X225457354Y-87491500D01*
X225424897Y-87498398D01*
X225272197Y-87530855D01*
X225272192Y-87530857D01*
X225099270Y-87607848D01*
X225099265Y-87607851D01*
X224946129Y-87719111D01*
X224819466Y-87859785D01*
X224724821Y-88023715D01*
X224724818Y-88023722D01*
X224687687Y-88138001D01*
X224666326Y-88203744D01*
X224646540Y-88392000D01*
X220361460Y-88392000D01*
X220341674Y-88203744D01*
X220283179Y-88023716D01*
X220188533Y-87859784D01*
X220061871Y-87719112D01*
X220025181Y-87692455D01*
X219908734Y-87607851D01*
X219908729Y-87607848D01*
X219735807Y-87530857D01*
X219735802Y-87530855D01*
X219590001Y-87499865D01*
X219550646Y-87491500D01*
X219361354Y-87491500D01*
X219328897Y-87498398D01*
X219176197Y-87530855D01*
X219176192Y-87530857D01*
X219003270Y-87607848D01*
X219003265Y-87607851D01*
X218850129Y-87719111D01*
X218723466Y-87859785D01*
X218628821Y-88023715D01*
X218628819Y-88023719D01*
X218568648Y-88208906D01*
X218529210Y-88266581D01*
X218512010Y-88273849D01*
X218343656Y-88273849D01*
X218350788Y-88263419D01*
X218367987Y-88256150D01*
X218344529Y-88234620D01*
X218326768Y-88167045D01*
X218327395Y-88157641D01*
X218329460Y-88138000D01*
X218309674Y-87949744D01*
X218251179Y-87769716D01*
X218156533Y-87605784D01*
X218029871Y-87465112D01*
X218029870Y-87465111D01*
X217876734Y-87353851D01*
X217876729Y-87353848D01*
X217703807Y-87276857D01*
X217703802Y-87276855D01*
X217558001Y-87245865D01*
X217518646Y-87237500D01*
X217329354Y-87237500D01*
X217296897Y-87244398D01*
X217144197Y-87276855D01*
X217144192Y-87276857D01*
X216971270Y-87353848D01*
X216971265Y-87353851D01*
X216818129Y-87465111D01*
X216691466Y-87605785D01*
X216596821Y-87769715D01*
X216596818Y-87769722D01*
X216540674Y-87942517D01*
X216538326Y-87949744D01*
X216518540Y-88138000D01*
X204550499Y-88138000D01*
X204550499Y-88002128D01*
X204544091Y-87942517D01*
X204493796Y-87807669D01*
X204493795Y-87807668D01*
X204493793Y-87807664D01*
X204407547Y-87692455D01*
X204407544Y-87692452D01*
X204292335Y-87606206D01*
X204292328Y-87606202D01*
X204157482Y-87555908D01*
X204157483Y-87555908D01*
X204097883Y-87549501D01*
X204097881Y-87549500D01*
X204097873Y-87549500D01*
X204097864Y-87549500D01*
X202302129Y-87549500D01*
X202302123Y-87549501D01*
X202242516Y-87555908D01*
X202107671Y-87606202D01*
X202107664Y-87606206D01*
X201992455Y-87692452D01*
X201992452Y-87692455D01*
X201906206Y-87807664D01*
X201906202Y-87807671D01*
X201855908Y-87942517D01*
X201849501Y-88002116D01*
X201849501Y-88002123D01*
X201849500Y-88002135D01*
X201849500Y-89797870D01*
X201849501Y-89797876D01*
X201855908Y-89857483D01*
X201906202Y-89992328D01*
X201906206Y-89992335D01*
X201992452Y-90107544D01*
X201992455Y-90107547D01*
X202107664Y-90193793D01*
X202107671Y-90193797D01*
X202239081Y-90242810D01*
X202295015Y-90284681D01*
X202319432Y-90350145D01*
X202304580Y-90418418D01*
X202283430Y-90446673D01*
X202161503Y-90568600D01*
X202025965Y-90762169D01*
X202025964Y-90762171D01*
X201926098Y-90976335D01*
X201926094Y-90976344D01*
X201864938Y-91204586D01*
X201864936Y-91204596D01*
X201844341Y-91439999D01*
X201844341Y-91440000D01*
X201864936Y-91675403D01*
X201864938Y-91675413D01*
X201926094Y-91903655D01*
X201926096Y-91903659D01*
X201926097Y-91903663D01*
X202025965Y-92117830D01*
X202025967Y-92117834D01*
X202161501Y-92311395D01*
X202161506Y-92311402D01*
X202328597Y-92478493D01*
X202328603Y-92478498D01*
X202514158Y-92608425D01*
X202557783Y-92663002D01*
X202564977Y-92732500D01*
X202533454Y-92794855D01*
X202514158Y-92811575D01*
X202328597Y-92941505D01*
X202161505Y-93108597D01*
X202025965Y-93302169D01*
X202025964Y-93302171D01*
X201926098Y-93516335D01*
X201926094Y-93516344D01*
X201864938Y-93744586D01*
X201864936Y-93744596D01*
X201844341Y-93979999D01*
X201844341Y-93980000D01*
X201864936Y-94215403D01*
X201864938Y-94215413D01*
X201926094Y-94443655D01*
X201926096Y-94443659D01*
X201926097Y-94443663D01*
X202025965Y-94657830D01*
X202025967Y-94657834D01*
X202161501Y-94851395D01*
X202161506Y-94851402D01*
X202328597Y-95018493D01*
X202328603Y-95018498D01*
X202514158Y-95148425D01*
X202557783Y-95203002D01*
X202564977Y-95272500D01*
X202533454Y-95334855D01*
X202514158Y-95351575D01*
X202328597Y-95481505D01*
X202161505Y-95648597D01*
X202025965Y-95842169D01*
X202025964Y-95842171D01*
X201926098Y-96056335D01*
X201926094Y-96056344D01*
X201864938Y-96284586D01*
X201864936Y-96284596D01*
X201844341Y-96519999D01*
X201844341Y-96520000D01*
X201864936Y-96755403D01*
X201864938Y-96755413D01*
X201926094Y-96983655D01*
X201926096Y-96983659D01*
X201926097Y-96983663D01*
X202025965Y-97197830D01*
X202025967Y-97197834D01*
X202161501Y-97391395D01*
X202161506Y-97391402D01*
X202328597Y-97558493D01*
X202328603Y-97558498D01*
X202514158Y-97688425D01*
X202557783Y-97743002D01*
X202564977Y-97812500D01*
X202533454Y-97874855D01*
X202514158Y-97891575D01*
X202328597Y-98021505D01*
X202161505Y-98188597D01*
X202025965Y-98382169D01*
X202025964Y-98382171D01*
X201926098Y-98596335D01*
X201926094Y-98596344D01*
X201864938Y-98824586D01*
X201864936Y-98824596D01*
X201844341Y-99059999D01*
X201844341Y-99060000D01*
X201864936Y-99295403D01*
X201864938Y-99295413D01*
X201926094Y-99523655D01*
X201926096Y-99523659D01*
X201926097Y-99523663D01*
X202025965Y-99737830D01*
X202025967Y-99737834D01*
X202134281Y-99892521D01*
X202161501Y-99931396D01*
X202161506Y-99931402D01*
X202328597Y-100098493D01*
X202328603Y-100098498D01*
X202514158Y-100228425D01*
X202557783Y-100283002D01*
X202564977Y-100352500D01*
X202533454Y-100414855D01*
X202514158Y-100431575D01*
X202328597Y-100561505D01*
X202161505Y-100728597D01*
X202025965Y-100922169D01*
X202025964Y-100922171D01*
X201926098Y-101136335D01*
X201926094Y-101136344D01*
X201864938Y-101364586D01*
X201864936Y-101364596D01*
X201844341Y-101599999D01*
X201844341Y-101600000D01*
X195589901Y-101600000D01*
X195594030Y-86741000D01*
X239124540Y-86741000D01*
X239144326Y-86929256D01*
X239144327Y-86929259D01*
X239202818Y-87109277D01*
X239202821Y-87109284D01*
X239297467Y-87273216D01*
X239378770Y-87363512D01*
X239424129Y-87413888D01*
X239577265Y-87525148D01*
X239577270Y-87525151D01*
X239750192Y-87602142D01*
X239750197Y-87602144D01*
X239935354Y-87641500D01*
X239935355Y-87641500D01*
X240124644Y-87641500D01*
X240124646Y-87641500D01*
X240309803Y-87602144D01*
X240482730Y-87525151D01*
X240635871Y-87413888D01*
X240762533Y-87273216D01*
X240857179Y-87109284D01*
X240915674Y-86929256D01*
X240935460Y-86741000D01*
X240915674Y-86552744D01*
X240857179Y-86372716D01*
X240762533Y-86208784D01*
X240744693Y-86188971D01*
X240714464Y-86125981D01*
X240723089Y-86056646D01*
X240744694Y-86023028D01*
X240762533Y-86003216D01*
X240857179Y-85839284D01*
X240915674Y-85659256D01*
X240935460Y-85471000D01*
X244204540Y-85471000D01*
X244224326Y-85659256D01*
X244224327Y-85659259D01*
X244282818Y-85839277D01*
X244282821Y-85839284D01*
X244377467Y-86003216D01*
X244504129Y-86143888D01*
X244657265Y-86255148D01*
X244657270Y-86255151D01*
X244830192Y-86332142D01*
X244830197Y-86332144D01*
X245015354Y-86371500D01*
X245015355Y-86371500D01*
X245204644Y-86371500D01*
X245204646Y-86371500D01*
X245389803Y-86332144D01*
X245562730Y-86255151D01*
X245715871Y-86143888D01*
X245842533Y-86003216D01*
X245937179Y-85839284D01*
X245995674Y-85659256D01*
X246015460Y-85471000D01*
X245995674Y-85282744D01*
X245937179Y-85102716D01*
X245842533Y-84938784D01*
X245715871Y-84798112D01*
X245715870Y-84798111D01*
X245562734Y-84686851D01*
X245562729Y-84686848D01*
X245389807Y-84609857D01*
X245389802Y-84609855D01*
X245244001Y-84578865D01*
X245204646Y-84570500D01*
X245015354Y-84570500D01*
X244982897Y-84577398D01*
X244830197Y-84609855D01*
X244830192Y-84609857D01*
X244657270Y-84686848D01*
X244657265Y-84686851D01*
X244504129Y-84798111D01*
X244377466Y-84938785D01*
X244282821Y-85102715D01*
X244282818Y-85102722D01*
X244224327Y-85282740D01*
X244224326Y-85282744D01*
X244204540Y-85471000D01*
X240935460Y-85471000D01*
X240915674Y-85282744D01*
X240857179Y-85102716D01*
X240762533Y-84938784D01*
X240635871Y-84798112D01*
X240635870Y-84798111D01*
X240482734Y-84686851D01*
X240482729Y-84686848D01*
X240309807Y-84609857D01*
X240309802Y-84609855D01*
X240164001Y-84578865D01*
X240124646Y-84570500D01*
X239935354Y-84570500D01*
X239902897Y-84577398D01*
X239750197Y-84609855D01*
X239750192Y-84609857D01*
X239577270Y-84686848D01*
X239577265Y-84686851D01*
X239424129Y-84798111D01*
X239297466Y-84938785D01*
X239202821Y-85102715D01*
X239202818Y-85102722D01*
X239144327Y-85282740D01*
X239144326Y-85282744D01*
X239124540Y-85471000D01*
X239144326Y-85659256D01*
X239144327Y-85659259D01*
X239202818Y-85839277D01*
X239202821Y-85839284D01*
X239297467Y-86003216D01*
X239307806Y-86014699D01*
X239315307Y-86023030D01*
X239345535Y-86086022D01*
X239336909Y-86155357D01*
X239315307Y-86188970D01*
X239297466Y-86208785D01*
X239202821Y-86372715D01*
X239202818Y-86372722D01*
X239144327Y-86552740D01*
X239144326Y-86552744D01*
X239124540Y-86741000D01*
X195594030Y-86741000D01*
X195594400Y-85409022D01*
X222930518Y-85409022D01*
X222950304Y-85597278D01*
X222950305Y-85597281D01*
X223008796Y-85777299D01*
X223008799Y-85777306D01*
X223103445Y-85941238D01*
X223177091Y-86023030D01*
X223230107Y-86081910D01*
X223383243Y-86193170D01*
X223383248Y-86193173D01*
X223556170Y-86270164D01*
X223556175Y-86270166D01*
X223741332Y-86309522D01*
X223741333Y-86309522D01*
X223930622Y-86309522D01*
X223930624Y-86309522D01*
X224115781Y-86270166D01*
X224288708Y-86193173D01*
X224441849Y-86081910D01*
X224568511Y-85941238D01*
X224663157Y-85777306D01*
X224721652Y-85597278D01*
X224741438Y-85409022D01*
X224721652Y-85220766D01*
X224663157Y-85040738D01*
X224568511Y-84876806D01*
X224441849Y-84736134D01*
X224401418Y-84706759D01*
X224288712Y-84624873D01*
X224288707Y-84624870D01*
X224115785Y-84547879D01*
X224115780Y-84547877D01*
X223977568Y-84518500D01*
X225599040Y-84518500D01*
X225618826Y-84706756D01*
X225618827Y-84706759D01*
X225677318Y-84886777D01*
X225677321Y-84886784D01*
X225771967Y-85050716D01*
X225818794Y-85102722D01*
X225898629Y-85191388D01*
X226051765Y-85302648D01*
X226051770Y-85302651D01*
X226224692Y-85379642D01*
X226224697Y-85379644D01*
X226409854Y-85419000D01*
X226409855Y-85419000D01*
X226599144Y-85419000D01*
X226599146Y-85419000D01*
X226784303Y-85379644D01*
X226957230Y-85302651D01*
X227110371Y-85191388D01*
X227237033Y-85050716D01*
X227331679Y-84886784D01*
X227390174Y-84706756D01*
X227409960Y-84518500D01*
X227390174Y-84330244D01*
X227331679Y-84150216D01*
X227237033Y-83986284D01*
X227110371Y-83845612D01*
X227110370Y-83845611D01*
X226957234Y-83734351D01*
X226957229Y-83734348D01*
X226784307Y-83657357D01*
X226784302Y-83657355D01*
X226638501Y-83626365D01*
X226599146Y-83618000D01*
X226409854Y-83618000D01*
X226377397Y-83624898D01*
X226224697Y-83657355D01*
X226224692Y-83657357D01*
X226051770Y-83734348D01*
X226051765Y-83734351D01*
X225898629Y-83845611D01*
X225771966Y-83986285D01*
X225677321Y-84150215D01*
X225677318Y-84150222D01*
X225618827Y-84330240D01*
X225618826Y-84330244D01*
X225599040Y-84518500D01*
X223977568Y-84518500D01*
X223969979Y-84516887D01*
X223930624Y-84508522D01*
X223741332Y-84508522D01*
X223708875Y-84515420D01*
X223556175Y-84547877D01*
X223556170Y-84547879D01*
X223383248Y-84624870D01*
X223383243Y-84624873D01*
X223230107Y-84736133D01*
X223103444Y-84876807D01*
X223008799Y-85040737D01*
X223008796Y-85040744D01*
X222950305Y-85220762D01*
X222950304Y-85220766D01*
X222930518Y-85409022D01*
X195594400Y-85409022D01*
X195594842Y-83820000D01*
X201844341Y-83820000D01*
X201864936Y-84055403D01*
X201864938Y-84055413D01*
X201926094Y-84283655D01*
X201926096Y-84283659D01*
X201926097Y-84283663D01*
X202025965Y-84497830D01*
X202025967Y-84497834D01*
X202134281Y-84652521D01*
X202161505Y-84691401D01*
X202328599Y-84858495D01*
X202368990Y-84886777D01*
X202522165Y-84994032D01*
X202522167Y-84994033D01*
X202522170Y-84994035D01*
X202736337Y-85093903D01*
X202964592Y-85155063D01*
X203152918Y-85171539D01*
X203199999Y-85175659D01*
X203200000Y-85175659D01*
X203200001Y-85175659D01*
X203239234Y-85172226D01*
X203435408Y-85155063D01*
X203663663Y-85093903D01*
X203877830Y-84994035D01*
X204071401Y-84858495D01*
X204238495Y-84691401D01*
X204374035Y-84497830D01*
X204473903Y-84283663D01*
X204535063Y-84055408D01*
X204555659Y-83820000D01*
X204535063Y-83584592D01*
X204473903Y-83356337D01*
X204374035Y-83142171D01*
X204338017Y-83090731D01*
X204238494Y-82948597D01*
X204071402Y-82781506D01*
X204071396Y-82781501D01*
X203885842Y-82651575D01*
X203842217Y-82596998D01*
X203835023Y-82527500D01*
X203866546Y-82465145D01*
X203885842Y-82448425D01*
X203997477Y-82370257D01*
X204071401Y-82318495D01*
X204093896Y-82296000D01*
X210549540Y-82296000D01*
X210569326Y-82484256D01*
X210569327Y-82484259D01*
X210627818Y-82664277D01*
X210627821Y-82664284D01*
X210722467Y-82828216D01*
X210789328Y-82902472D01*
X210849129Y-82968888D01*
X211002265Y-83080148D01*
X211002270Y-83080151D01*
X211175192Y-83157142D01*
X211175197Y-83157144D01*
X211360354Y-83196500D01*
X211360355Y-83196500D01*
X211549644Y-83196500D01*
X211549646Y-83196500D01*
X211734803Y-83157144D01*
X211907730Y-83080151D01*
X212060871Y-82968888D01*
X212187533Y-82828216D01*
X212282179Y-82664284D01*
X212340674Y-82484256D01*
X212360460Y-82296000D01*
X212352998Y-82225000D01*
X221231936Y-82225000D01*
X221251722Y-82413256D01*
X221251723Y-82413259D01*
X221310214Y-82593277D01*
X221310217Y-82593284D01*
X221404863Y-82757216D01*
X221468790Y-82828214D01*
X221531525Y-82897888D01*
X221684661Y-83009148D01*
X221684666Y-83009151D01*
X221857588Y-83086142D01*
X221857593Y-83086144D01*
X222042750Y-83125500D01*
X222042751Y-83125500D01*
X222232040Y-83125500D01*
X222232042Y-83125500D01*
X222417199Y-83086144D01*
X222590126Y-83009151D01*
X222736958Y-82902472D01*
X244204540Y-82902472D01*
X244224326Y-83090728D01*
X244224327Y-83090731D01*
X244282818Y-83270749D01*
X244282821Y-83270756D01*
X244377467Y-83434688D01*
X244504129Y-83575360D01*
X244657265Y-83686620D01*
X244657270Y-83686623D01*
X244830192Y-83763614D01*
X244830197Y-83763616D01*
X245015354Y-83802972D01*
X245015355Y-83802972D01*
X245204644Y-83802972D01*
X245204646Y-83802972D01*
X245389803Y-83763616D01*
X245562730Y-83686623D01*
X245576102Y-83676907D01*
X245641906Y-83653425D01*
X245709961Y-83669248D01*
X245741139Y-83694250D01*
X245774128Y-83730887D01*
X245774135Y-83730893D01*
X245927265Y-83842148D01*
X245927270Y-83842151D01*
X246100192Y-83919142D01*
X246100197Y-83919144D01*
X246285354Y-83958500D01*
X246285355Y-83958500D01*
X246474644Y-83958500D01*
X246474646Y-83958500D01*
X246659803Y-83919144D01*
X246832730Y-83842151D01*
X246985871Y-83730888D01*
X247112533Y-83590216D01*
X247207179Y-83426284D01*
X247265009Y-83248302D01*
X247304445Y-83190629D01*
X247368804Y-83163430D01*
X247408718Y-83165331D01*
X247555354Y-83196500D01*
X247555355Y-83196500D01*
X247744644Y-83196500D01*
X247744646Y-83196500D01*
X247929803Y-83157144D01*
X248102730Y-83080151D01*
X248255871Y-82968888D01*
X248382533Y-82828216D01*
X248477179Y-82664284D01*
X248535674Y-82484256D01*
X248555460Y-82296000D01*
X248535674Y-82107744D01*
X248477179Y-81927716D01*
X248382533Y-81763784D01*
X248255871Y-81623112D01*
X248255870Y-81623111D01*
X248102734Y-81511851D01*
X248102729Y-81511848D01*
X247929807Y-81434857D01*
X247929802Y-81434855D01*
X247784001Y-81403865D01*
X247744646Y-81395500D01*
X247555354Y-81395500D01*
X247522897Y-81402398D01*
X247370197Y-81434855D01*
X247370192Y-81434857D01*
X247197270Y-81511848D01*
X247197265Y-81511851D01*
X247044129Y-81623111D01*
X246917466Y-81763785D01*
X246822821Y-81927715D01*
X246822819Y-81927719D01*
X246764991Y-82105696D01*
X246725553Y-82163371D01*
X246661194Y-82190569D01*
X246621280Y-82188667D01*
X246474647Y-82157500D01*
X246474646Y-82157500D01*
X246285354Y-82157500D01*
X246257733Y-82163371D01*
X246100197Y-82196855D01*
X246100192Y-82196857D01*
X245927270Y-82273848D01*
X245913889Y-82283570D01*
X245848082Y-82307046D01*
X245780029Y-82291218D01*
X245748860Y-82266221D01*
X245715871Y-82229584D01*
X245715864Y-82229578D01*
X245562734Y-82118323D01*
X245562729Y-82118320D01*
X245389807Y-82041329D01*
X245389802Y-82041327D01*
X245244001Y-82010337D01*
X245204646Y-82001972D01*
X245015354Y-82001972D01*
X244982897Y-82008870D01*
X244830197Y-82041327D01*
X244830192Y-82041329D01*
X244657270Y-82118320D01*
X244657265Y-82118323D01*
X244504129Y-82229583D01*
X244377466Y-82370257D01*
X244282821Y-82534187D01*
X244282818Y-82534194D01*
X244224327Y-82714212D01*
X244224326Y-82714216D01*
X244204540Y-82902472D01*
X222736958Y-82902472D01*
X222743267Y-82897888D01*
X222869929Y-82757216D01*
X222964575Y-82593284D01*
X223023070Y-82413256D01*
X223042856Y-82225000D01*
X223023070Y-82036744D01*
X222964575Y-81856716D01*
X222869929Y-81692784D01*
X222743267Y-81552112D01*
X222743266Y-81552111D01*
X222590130Y-81440851D01*
X222590125Y-81440848D01*
X222417203Y-81363857D01*
X222417198Y-81363855D01*
X222271397Y-81332865D01*
X222232042Y-81324500D01*
X222042750Y-81324500D01*
X222010293Y-81331398D01*
X221857593Y-81363855D01*
X221857588Y-81363857D01*
X221684666Y-81440848D01*
X221684661Y-81440851D01*
X221531525Y-81552111D01*
X221404862Y-81692785D01*
X221310217Y-81856715D01*
X221310214Y-81856722D01*
X221263020Y-82001972D01*
X221251722Y-82036744D01*
X221231936Y-82225000D01*
X212352998Y-82225000D01*
X212340674Y-82107744D01*
X212282179Y-81927716D01*
X212187533Y-81763784D01*
X212060871Y-81623112D01*
X212060870Y-81623111D01*
X211907734Y-81511851D01*
X211907729Y-81511848D01*
X211734807Y-81434857D01*
X211734802Y-81434855D01*
X211589001Y-81403865D01*
X211549646Y-81395500D01*
X211360354Y-81395500D01*
X211327897Y-81402398D01*
X211175197Y-81434855D01*
X211175192Y-81434857D01*
X211002270Y-81511848D01*
X211002265Y-81511851D01*
X210849129Y-81623111D01*
X210722466Y-81763785D01*
X210627821Y-81927715D01*
X210627818Y-81927722D01*
X210569991Y-82105696D01*
X210569326Y-82107744D01*
X210549540Y-82296000D01*
X204093896Y-82296000D01*
X204238495Y-82151401D01*
X204374035Y-81957830D01*
X204473903Y-81743663D01*
X204535063Y-81515408D01*
X204555659Y-81280000D01*
X204535063Y-81044592D01*
X204473903Y-80816337D01*
X204453228Y-80772000D01*
X226170540Y-80772000D01*
X226190326Y-80960256D01*
X226190327Y-80960259D01*
X226248818Y-81140277D01*
X226248821Y-81140284D01*
X226343467Y-81304216D01*
X226425660Y-81395500D01*
X226470129Y-81444888D01*
X226623265Y-81556148D01*
X226623270Y-81556151D01*
X226796192Y-81633142D01*
X226796197Y-81633144D01*
X226981354Y-81672500D01*
X226981355Y-81672500D01*
X227170644Y-81672500D01*
X227170646Y-81672500D01*
X227355803Y-81633144D01*
X227528730Y-81556151D01*
X227681871Y-81444888D01*
X227808533Y-81304216D01*
X227903179Y-81140284D01*
X227961674Y-80960256D01*
X227981460Y-80772000D01*
X227961674Y-80583744D01*
X227903179Y-80403716D01*
X227808533Y-80239784D01*
X227681871Y-80099112D01*
X227676012Y-80094855D01*
X227528734Y-79987851D01*
X227528729Y-79987848D01*
X227355807Y-79910857D01*
X227355802Y-79910855D01*
X227210001Y-79879865D01*
X227170646Y-79871500D01*
X226981354Y-79871500D01*
X226948897Y-79878398D01*
X226796197Y-79910855D01*
X226796192Y-79910857D01*
X226623270Y-79987848D01*
X226623265Y-79987851D01*
X226470129Y-80099111D01*
X226343466Y-80239785D01*
X226248821Y-80403715D01*
X226248818Y-80403722D01*
X226207951Y-80529500D01*
X226190326Y-80583744D01*
X226170540Y-80772000D01*
X204453228Y-80772000D01*
X204374035Y-80602171D01*
X204361133Y-80583744D01*
X204238494Y-80408597D01*
X204071402Y-80241506D01*
X204071396Y-80241501D01*
X203885842Y-80111575D01*
X203842217Y-80056998D01*
X203835023Y-79987500D01*
X203866546Y-79925145D01*
X203885842Y-79908425D01*
X204016040Y-79817259D01*
X204071401Y-79778495D01*
X204220896Y-79629000D01*
X213978540Y-79629000D01*
X213998326Y-79817256D01*
X213998327Y-79817259D01*
X214056818Y-79997277D01*
X214056821Y-79997284D01*
X214151467Y-80161216D01*
X214222211Y-80239785D01*
X214278129Y-80301888D01*
X214431265Y-80413148D01*
X214431270Y-80413151D01*
X214604192Y-80490142D01*
X214604197Y-80490144D01*
X214789354Y-80529500D01*
X214789355Y-80529500D01*
X214978644Y-80529500D01*
X214978646Y-80529500D01*
X215163803Y-80490144D01*
X215336730Y-80413151D01*
X215489871Y-80301888D01*
X215616533Y-80161216D01*
X215711179Y-79997284D01*
X215769674Y-79817256D01*
X215776112Y-79756000D01*
X219566540Y-79756000D01*
X219586326Y-79944256D01*
X219586327Y-79944259D01*
X219644818Y-80124277D01*
X219644821Y-80124284D01*
X219739467Y-80288216D01*
X219847859Y-80408597D01*
X219866129Y-80428888D01*
X220019265Y-80540148D01*
X220019270Y-80540151D01*
X220192192Y-80617142D01*
X220192197Y-80617144D01*
X220377354Y-80656500D01*
X220377355Y-80656500D01*
X220566644Y-80656500D01*
X220566646Y-80656500D01*
X220751803Y-80617144D01*
X220924730Y-80540151D01*
X221077871Y-80428888D01*
X221204533Y-80288216D01*
X221299179Y-80124284D01*
X221357674Y-79944256D01*
X221377460Y-79756000D01*
X221357674Y-79567744D01*
X221299179Y-79387716D01*
X221204533Y-79223784D01*
X221077871Y-79083112D01*
X221077870Y-79083111D01*
X220924734Y-78971851D01*
X220924729Y-78971848D01*
X220751807Y-78894857D01*
X220751802Y-78894855D01*
X220606001Y-78863865D01*
X220566646Y-78855500D01*
X220377354Y-78855500D01*
X220344897Y-78862398D01*
X220192197Y-78894855D01*
X220192192Y-78894857D01*
X220019270Y-78971848D01*
X220019265Y-78971851D01*
X219866129Y-79083111D01*
X219739466Y-79223785D01*
X219644821Y-79387715D01*
X219644818Y-79387722D01*
X219586327Y-79567740D01*
X219586326Y-79567744D01*
X219566540Y-79756000D01*
X215776112Y-79756000D01*
X215789460Y-79629000D01*
X215769674Y-79440744D01*
X215711179Y-79260716D01*
X215616533Y-79096784D01*
X215489871Y-78956112D01*
X215489870Y-78956111D01*
X215336734Y-78844851D01*
X215336729Y-78844848D01*
X215163807Y-78767857D01*
X215163802Y-78767855D01*
X215018001Y-78736865D01*
X214978646Y-78728500D01*
X214789354Y-78728500D01*
X214756897Y-78735398D01*
X214604197Y-78767855D01*
X214604192Y-78767857D01*
X214431270Y-78844848D01*
X214431265Y-78844851D01*
X214278129Y-78956111D01*
X214151466Y-79096785D01*
X214056821Y-79260715D01*
X214056818Y-79260722D01*
X214005771Y-79417830D01*
X213998326Y-79440744D01*
X213978540Y-79629000D01*
X204220896Y-79629000D01*
X204238495Y-79611401D01*
X204374035Y-79417830D01*
X204473903Y-79203663D01*
X204535063Y-78975408D01*
X204555659Y-78740000D01*
X204535063Y-78504592D01*
X204473903Y-78276337D01*
X204374035Y-78062171D01*
X204330609Y-78000151D01*
X204238494Y-77868597D01*
X204071402Y-77701506D01*
X204071396Y-77701501D01*
X203885842Y-77571575D01*
X203842217Y-77516998D01*
X203835023Y-77447500D01*
X203866546Y-77385145D01*
X203885842Y-77368425D01*
X203956735Y-77318785D01*
X204071401Y-77238495D01*
X204093896Y-77216000D01*
X211057540Y-77216000D01*
X211077326Y-77404256D01*
X211077327Y-77404259D01*
X211135818Y-77584277D01*
X211135821Y-77584284D01*
X211230467Y-77748216D01*
X211338859Y-77868597D01*
X211357129Y-77888888D01*
X211510265Y-78000148D01*
X211510270Y-78000151D01*
X211683192Y-78077142D01*
X211683197Y-78077144D01*
X211868354Y-78116500D01*
X211868355Y-78116500D01*
X212057644Y-78116500D01*
X212057646Y-78116500D01*
X212242803Y-78077144D01*
X212415730Y-78000151D01*
X212568871Y-77888888D01*
X212602986Y-77851000D01*
X224392540Y-77851000D01*
X224412326Y-78039256D01*
X224412327Y-78039259D01*
X224470818Y-78219277D01*
X224470821Y-78219284D01*
X224565467Y-78383216D01*
X224585903Y-78405912D01*
X224692129Y-78523888D01*
X224845265Y-78635148D01*
X224845270Y-78635151D01*
X225018192Y-78712142D01*
X225018197Y-78712144D01*
X225203354Y-78751500D01*
X225203355Y-78751500D01*
X225392644Y-78751500D01*
X225392646Y-78751500D01*
X225577803Y-78712144D01*
X225750730Y-78635151D01*
X225903871Y-78523888D01*
X226030533Y-78383216D01*
X226125179Y-78219284D01*
X226183674Y-78039256D01*
X226203460Y-77851000D01*
X226183674Y-77662744D01*
X226162312Y-77597000D01*
X231758540Y-77597000D01*
X231778326Y-77785256D01*
X231778327Y-77785259D01*
X231836818Y-77965277D01*
X231836821Y-77965284D01*
X231931467Y-78129216D01*
X231948231Y-78147834D01*
X232058129Y-78269888D01*
X232211265Y-78381148D01*
X232211270Y-78381151D01*
X232384192Y-78458142D01*
X232384197Y-78458144D01*
X232569354Y-78497500D01*
X232569355Y-78497500D01*
X232758644Y-78497500D01*
X232758646Y-78497500D01*
X232943803Y-78458144D01*
X233090227Y-78392950D01*
X233159477Y-78383666D01*
X233213548Y-78405912D01*
X233354265Y-78508148D01*
X233354270Y-78508151D01*
X233527192Y-78585142D01*
X233527197Y-78585144D01*
X233712354Y-78624500D01*
X233712355Y-78624500D01*
X233901644Y-78624500D01*
X233901646Y-78624500D01*
X234086803Y-78585144D01*
X234259730Y-78508151D01*
X234412871Y-78396888D01*
X234539533Y-78256216D01*
X234634179Y-78092284D01*
X234692674Y-77912256D01*
X234712460Y-77724000D01*
X234692674Y-77535744D01*
X234671312Y-77470000D01*
X250104341Y-77470000D01*
X250124936Y-77705403D01*
X250124938Y-77705413D01*
X250186094Y-77933655D01*
X250186096Y-77933659D01*
X250186097Y-77933663D01*
X250271356Y-78116500D01*
X250285965Y-78147830D01*
X250285967Y-78147834D01*
X250394281Y-78302521D01*
X250421501Y-78341396D01*
X250421506Y-78341402D01*
X250543430Y-78463326D01*
X250576915Y-78524649D01*
X250571931Y-78594341D01*
X250530059Y-78650274D01*
X250499083Y-78667189D01*
X250367669Y-78716203D01*
X250367664Y-78716206D01*
X250252455Y-78802452D01*
X250252452Y-78802455D01*
X250166206Y-78917664D01*
X250166202Y-78917671D01*
X250115908Y-79052517D01*
X250109501Y-79112116D01*
X250109501Y-79112123D01*
X250109500Y-79112135D01*
X250109500Y-80907870D01*
X250109501Y-80907876D01*
X250115908Y-80967483D01*
X250166202Y-81102328D01*
X250166206Y-81102335D01*
X250252452Y-81217544D01*
X250252455Y-81217547D01*
X250367664Y-81303793D01*
X250367671Y-81303797D01*
X250502517Y-81354091D01*
X250502516Y-81354091D01*
X250509444Y-81354835D01*
X250562127Y-81360500D01*
X252357872Y-81360499D01*
X252417483Y-81354091D01*
X252552331Y-81303796D01*
X252667546Y-81217546D01*
X252753796Y-81102331D01*
X252804091Y-80967483D01*
X252810500Y-80907873D01*
X252810499Y-79112128D01*
X252804091Y-79052517D01*
X252775331Y-78975408D01*
X252753797Y-78917671D01*
X252753793Y-78917664D01*
X252667547Y-78802455D01*
X252667544Y-78802452D01*
X252552335Y-78716206D01*
X252552328Y-78716202D01*
X252420917Y-78667189D01*
X252364983Y-78625318D01*
X252340566Y-78559853D01*
X252355418Y-78491580D01*
X252376563Y-78463332D01*
X252498495Y-78341401D01*
X252634035Y-78147830D01*
X252733903Y-77933663D01*
X252795063Y-77705408D01*
X252815659Y-77470000D01*
X252813690Y-77447500D01*
X252802429Y-77318784D01*
X252795063Y-77234592D01*
X252733903Y-77006337D01*
X252634035Y-76792171D01*
X252594603Y-76735855D01*
X252498494Y-76598597D01*
X252331402Y-76431506D01*
X252331396Y-76431501D01*
X252145842Y-76301575D01*
X252102217Y-76246998D01*
X252095023Y-76177500D01*
X252126546Y-76115145D01*
X252145842Y-76098425D01*
X252276040Y-76007259D01*
X252331401Y-75968495D01*
X252498495Y-75801401D01*
X252634035Y-75607830D01*
X252733903Y-75393663D01*
X252795063Y-75165408D01*
X252815659Y-74930000D01*
X252815331Y-74926256D01*
X252798861Y-74738000D01*
X252795063Y-74694592D01*
X252733903Y-74466337D01*
X252634035Y-74252171D01*
X252601556Y-74205785D01*
X252498494Y-74058597D01*
X252331402Y-73891506D01*
X252331396Y-73891501D01*
X252145842Y-73761575D01*
X252102217Y-73706998D01*
X252095023Y-73637500D01*
X252126546Y-73575145D01*
X252145842Y-73558425D01*
X252276040Y-73467259D01*
X252331401Y-73428495D01*
X252498495Y-73261401D01*
X252634035Y-73067830D01*
X252733903Y-72853663D01*
X252795063Y-72625408D01*
X252815659Y-72390000D01*
X252814546Y-72377284D01*
X252805554Y-72274500D01*
X252795063Y-72154592D01*
X252733903Y-71926337D01*
X252634035Y-71712171D01*
X252584002Y-71640715D01*
X252498494Y-71518597D01*
X252331402Y-71351506D01*
X252331396Y-71351501D01*
X252145842Y-71221575D01*
X252102217Y-71166998D01*
X252095023Y-71097500D01*
X252126546Y-71035145D01*
X252145842Y-71018425D01*
X252168026Y-71002891D01*
X252331401Y-70888495D01*
X252498495Y-70721401D01*
X252634035Y-70527830D01*
X252733903Y-70313663D01*
X252795063Y-70085408D01*
X252815659Y-69850000D01*
X252813690Y-69827500D01*
X252804548Y-69723000D01*
X252795063Y-69614592D01*
X252733903Y-69386337D01*
X252634035Y-69172171D01*
X252594603Y-69115855D01*
X252498494Y-68978597D01*
X252331402Y-68811506D01*
X252331396Y-68811501D01*
X252145842Y-68681575D01*
X252102217Y-68626998D01*
X252095023Y-68557500D01*
X252126546Y-68495145D01*
X252145842Y-68478425D01*
X252269635Y-68391744D01*
X252331401Y-68348495D01*
X252498495Y-68181401D01*
X252634035Y-67987830D01*
X252733903Y-67773663D01*
X252795063Y-67545408D01*
X252815659Y-67310000D01*
X252795063Y-67074592D01*
X252733903Y-66846337D01*
X252634035Y-66632171D01*
X252592055Y-66572216D01*
X252498494Y-66438597D01*
X252331402Y-66271506D01*
X252331396Y-66271501D01*
X252145842Y-66141575D01*
X252102217Y-66086998D01*
X252095023Y-66017500D01*
X252126546Y-65955145D01*
X252145842Y-65938425D01*
X252269635Y-65851744D01*
X252331401Y-65808495D01*
X252498495Y-65641401D01*
X252634035Y-65447830D01*
X252733903Y-65233663D01*
X252795063Y-65005408D01*
X252815659Y-64770000D01*
X252795063Y-64534592D01*
X252733903Y-64306337D01*
X252634035Y-64092171D01*
X252498495Y-63898599D01*
X252498494Y-63898597D01*
X252331402Y-63731506D01*
X252331396Y-63731501D01*
X252145842Y-63601575D01*
X252102217Y-63546998D01*
X252095023Y-63477500D01*
X252126546Y-63415145D01*
X252145842Y-63398425D01*
X252168026Y-63382891D01*
X252331401Y-63268495D01*
X252498495Y-63101401D01*
X252634035Y-62907830D01*
X252733903Y-62693663D01*
X252795063Y-62465408D01*
X252815659Y-62230000D01*
X252795063Y-61994592D01*
X252733903Y-61766337D01*
X252634035Y-61552171D01*
X252498495Y-61358599D01*
X252498494Y-61358597D01*
X252331402Y-61191506D01*
X252331396Y-61191501D01*
X252145842Y-61061575D01*
X252102217Y-61006998D01*
X252095023Y-60937500D01*
X252126546Y-60875145D01*
X252145842Y-60858425D01*
X252273001Y-60769387D01*
X252331401Y-60728495D01*
X252498495Y-60561401D01*
X252634035Y-60367830D01*
X252733903Y-60153663D01*
X252795063Y-59925408D01*
X252815659Y-59690000D01*
X252795063Y-59454592D01*
X252733903Y-59226337D01*
X252634035Y-59012171D01*
X252574989Y-58927843D01*
X252498494Y-58818597D01*
X252331402Y-58651506D01*
X252331396Y-58651501D01*
X252145842Y-58521575D01*
X252102217Y-58466998D01*
X252095023Y-58397500D01*
X252126546Y-58335145D01*
X252145842Y-58318425D01*
X252168026Y-58302891D01*
X252331401Y-58188495D01*
X252498495Y-58021401D01*
X252634035Y-57827830D01*
X252733903Y-57613663D01*
X252795063Y-57385408D01*
X252815659Y-57150000D01*
X252795063Y-56914592D01*
X252733903Y-56686337D01*
X252634035Y-56472171D01*
X252498495Y-56278599D01*
X252498494Y-56278597D01*
X252331402Y-56111506D01*
X252331395Y-56111501D01*
X252137834Y-55975967D01*
X252137830Y-55975965D01*
X252137828Y-55975964D01*
X251923663Y-55876097D01*
X251923659Y-55876096D01*
X251923655Y-55876094D01*
X251695413Y-55814938D01*
X251695403Y-55814936D01*
X251460001Y-55794341D01*
X251459999Y-55794341D01*
X251224596Y-55814936D01*
X251224586Y-55814938D01*
X250996344Y-55876094D01*
X250996335Y-55876098D01*
X250782171Y-55975964D01*
X250782169Y-55975965D01*
X250588597Y-56111505D01*
X250421505Y-56278597D01*
X250285965Y-56472169D01*
X250285964Y-56472171D01*
X250186098Y-56686335D01*
X250186094Y-56686344D01*
X250124938Y-56914586D01*
X250124936Y-56914596D01*
X250104341Y-57149999D01*
X250104341Y-57150000D01*
X250124936Y-57385403D01*
X250124938Y-57385413D01*
X250186094Y-57613655D01*
X250186096Y-57613659D01*
X250186097Y-57613663D01*
X250244855Y-57739669D01*
X250285965Y-57827830D01*
X250285967Y-57827834D01*
X250421501Y-58021395D01*
X250421506Y-58021402D01*
X250588597Y-58188493D01*
X250588603Y-58188498D01*
X250774158Y-58318425D01*
X250817783Y-58373002D01*
X250824977Y-58442500D01*
X250793454Y-58504855D01*
X250774158Y-58521575D01*
X250588597Y-58651505D01*
X250421505Y-58818597D01*
X250285965Y-59012169D01*
X250285964Y-59012171D01*
X250186098Y-59226335D01*
X250186094Y-59226344D01*
X250124938Y-59454586D01*
X250124936Y-59454596D01*
X250104341Y-59689999D01*
X250104341Y-59690000D01*
X250124936Y-59925403D01*
X250124938Y-59925413D01*
X250186094Y-60153655D01*
X250186096Y-60153659D01*
X250186097Y-60153663D01*
X250273862Y-60341876D01*
X250285965Y-60367830D01*
X250285967Y-60367834D01*
X250421501Y-60561395D01*
X250421506Y-60561402D01*
X250588597Y-60728493D01*
X250588603Y-60728498D01*
X250774158Y-60858425D01*
X250817783Y-60913002D01*
X250824977Y-60982500D01*
X250793454Y-61044855D01*
X250774158Y-61061575D01*
X250588597Y-61191505D01*
X250421505Y-61358597D01*
X250285965Y-61552169D01*
X250285964Y-61552171D01*
X250186098Y-61766335D01*
X250186094Y-61766344D01*
X250124938Y-61994586D01*
X250124936Y-61994596D01*
X250104341Y-62229999D01*
X250104341Y-62230000D01*
X250124936Y-62465403D01*
X250124938Y-62465413D01*
X250186094Y-62693655D01*
X250186096Y-62693659D01*
X250186097Y-62693663D01*
X250285965Y-62907830D01*
X250285967Y-62907834D01*
X250421501Y-63101395D01*
X250421506Y-63101402D01*
X250588597Y-63268493D01*
X250588603Y-63268498D01*
X250774158Y-63398425D01*
X250817783Y-63453002D01*
X250824977Y-63522500D01*
X250793454Y-63584855D01*
X250774158Y-63601575D01*
X250588597Y-63731505D01*
X250421505Y-63898597D01*
X250285965Y-64092169D01*
X250285964Y-64092171D01*
X250186098Y-64306335D01*
X250186094Y-64306344D01*
X250124938Y-64534586D01*
X250124936Y-64534596D01*
X250104341Y-64769999D01*
X250104341Y-64770000D01*
X250124936Y-65005403D01*
X250124938Y-65005413D01*
X250186094Y-65233655D01*
X250186096Y-65233659D01*
X250186097Y-65233663D01*
X250276321Y-65427148D01*
X250285965Y-65447830D01*
X250285967Y-65447834D01*
X250421501Y-65641395D01*
X250421506Y-65641402D01*
X250588597Y-65808493D01*
X250588603Y-65808498D01*
X250774158Y-65938425D01*
X250817783Y-65993002D01*
X250824977Y-66062500D01*
X250793454Y-66124855D01*
X250774158Y-66141575D01*
X250588597Y-66271505D01*
X250421505Y-66438597D01*
X250285965Y-66632169D01*
X250285964Y-66632171D01*
X250186098Y-66846335D01*
X250186094Y-66846344D01*
X250124938Y-67074586D01*
X250124936Y-67074596D01*
X250104341Y-67309999D01*
X250104341Y-67310000D01*
X250124936Y-67545403D01*
X250124938Y-67545413D01*
X250186094Y-67773655D01*
X250186096Y-67773659D01*
X250186097Y-67773663D01*
X250285965Y-67987830D01*
X250285967Y-67987834D01*
X250421501Y-68181395D01*
X250421506Y-68181402D01*
X250588597Y-68348493D01*
X250588603Y-68348498D01*
X250774158Y-68478425D01*
X250817783Y-68533002D01*
X250824977Y-68602500D01*
X250793454Y-68664855D01*
X250774158Y-68681575D01*
X250588597Y-68811505D01*
X250421505Y-68978597D01*
X250285965Y-69172169D01*
X250285964Y-69172171D01*
X250186098Y-69386335D01*
X250186094Y-69386344D01*
X250124938Y-69614586D01*
X250124936Y-69614596D01*
X250104341Y-69849999D01*
X250104341Y-69850000D01*
X250124936Y-70085403D01*
X250124938Y-70085413D01*
X250186094Y-70313655D01*
X250186096Y-70313659D01*
X250186097Y-70313663D01*
X250278983Y-70512857D01*
X250285965Y-70527830D01*
X250285967Y-70527834D01*
X250394281Y-70682521D01*
X250407298Y-70701112D01*
X250421501Y-70721395D01*
X250421506Y-70721402D01*
X250588597Y-70888493D01*
X250588603Y-70888498D01*
X250774158Y-71018425D01*
X250817783Y-71073002D01*
X250824977Y-71142500D01*
X250793454Y-71204855D01*
X250774158Y-71221575D01*
X250588597Y-71351505D01*
X250421505Y-71518597D01*
X250285965Y-71712169D01*
X250285964Y-71712171D01*
X250186098Y-71926335D01*
X250186094Y-71926344D01*
X250124938Y-72154586D01*
X250124936Y-72154596D01*
X250104341Y-72389999D01*
X250104341Y-72390000D01*
X250124936Y-72625403D01*
X250124938Y-72625413D01*
X250186094Y-72853655D01*
X250186096Y-72853659D01*
X250186097Y-72853663D01*
X250285965Y-73067830D01*
X250285967Y-73067834D01*
X250421501Y-73261395D01*
X250421506Y-73261402D01*
X250588597Y-73428493D01*
X250588603Y-73428498D01*
X250774158Y-73558425D01*
X250817783Y-73613002D01*
X250824977Y-73682500D01*
X250793454Y-73744855D01*
X250774158Y-73761575D01*
X250588597Y-73891505D01*
X250421505Y-74058597D01*
X250285965Y-74252169D01*
X250285964Y-74252171D01*
X250186098Y-74466335D01*
X250186094Y-74466344D01*
X250124938Y-74694586D01*
X250124936Y-74694596D01*
X250104341Y-74929999D01*
X250104341Y-74930000D01*
X250124936Y-75165403D01*
X250124938Y-75165413D01*
X250186094Y-75393655D01*
X250186096Y-75393659D01*
X250186097Y-75393663D01*
X250281914Y-75599142D01*
X250285965Y-75607830D01*
X250285967Y-75607834D01*
X250421501Y-75801395D01*
X250421506Y-75801402D01*
X250588597Y-75968493D01*
X250588603Y-75968498D01*
X250774158Y-76098425D01*
X250817783Y-76153002D01*
X250824977Y-76222500D01*
X250793454Y-76284855D01*
X250774158Y-76301575D01*
X250588597Y-76431505D01*
X250421505Y-76598597D01*
X250285965Y-76792169D01*
X250285964Y-76792171D01*
X250186098Y-77006335D01*
X250186094Y-77006344D01*
X250124938Y-77234586D01*
X250124936Y-77234596D01*
X250104341Y-77469999D01*
X250104341Y-77470000D01*
X234671312Y-77470000D01*
X234634179Y-77355716D01*
X234539533Y-77191784D01*
X234412871Y-77051112D01*
X234380708Y-77027744D01*
X234259734Y-76939851D01*
X234259729Y-76939848D01*
X234086807Y-76862857D01*
X234086802Y-76862855D01*
X233941001Y-76831865D01*
X233901646Y-76823500D01*
X233712354Y-76823500D01*
X233679897Y-76830398D01*
X233527197Y-76862855D01*
X233380771Y-76928049D01*
X233311521Y-76937333D01*
X233257451Y-76915088D01*
X233164729Y-76847722D01*
X233116730Y-76812849D01*
X233116728Y-76812848D01*
X233116729Y-76812848D01*
X232943807Y-76735857D01*
X232943802Y-76735855D01*
X232798001Y-76704865D01*
X232758646Y-76696500D01*
X232569354Y-76696500D01*
X232536897Y-76703398D01*
X232384197Y-76735855D01*
X232384192Y-76735857D01*
X232211270Y-76812848D01*
X232211265Y-76812851D01*
X232058129Y-76924111D01*
X231931466Y-77064785D01*
X231836821Y-77228715D01*
X231836818Y-77228722D01*
X231779784Y-77404256D01*
X231778326Y-77408744D01*
X231758540Y-77597000D01*
X226162312Y-77597000D01*
X226125179Y-77482716D01*
X226030533Y-77318784D01*
X225903871Y-77178112D01*
X225903870Y-77178111D01*
X225750734Y-77066851D01*
X225750729Y-77066848D01*
X225577807Y-76989857D01*
X225577802Y-76989855D01*
X225432001Y-76958865D01*
X225392646Y-76950500D01*
X225203354Y-76950500D01*
X225170897Y-76957398D01*
X225018197Y-76989855D01*
X225018192Y-76989857D01*
X224845270Y-77066848D01*
X224845265Y-77066851D01*
X224692129Y-77178111D01*
X224565466Y-77318785D01*
X224470821Y-77482715D01*
X224470818Y-77482722D01*
X224412327Y-77662740D01*
X224412326Y-77662744D01*
X224392540Y-77851000D01*
X212602986Y-77851000D01*
X212695533Y-77748216D01*
X212790179Y-77584284D01*
X212848674Y-77404256D01*
X212868460Y-77216000D01*
X212848674Y-77027744D01*
X212790179Y-76847716D01*
X212695533Y-76683784D01*
X212568871Y-76543112D01*
X212568870Y-76543111D01*
X212415734Y-76431851D01*
X212415729Y-76431848D01*
X212242807Y-76354857D01*
X212242802Y-76354855D01*
X212097001Y-76323865D01*
X212057646Y-76315500D01*
X211868354Y-76315500D01*
X211835897Y-76322398D01*
X211683197Y-76354855D01*
X211683192Y-76354857D01*
X211510270Y-76431848D01*
X211510265Y-76431851D01*
X211357129Y-76543111D01*
X211230466Y-76683785D01*
X211135821Y-76847715D01*
X211135818Y-76847722D01*
X211084279Y-77006344D01*
X211077326Y-77027744D01*
X211057540Y-77216000D01*
X204093896Y-77216000D01*
X204238495Y-77071401D01*
X204374035Y-76877830D01*
X204473903Y-76663663D01*
X204535063Y-76435408D01*
X204555659Y-76200000D01*
X204554546Y-76187284D01*
X204538796Y-76007259D01*
X204535063Y-75964592D01*
X204473903Y-75736337D01*
X204374035Y-75522171D01*
X204332055Y-75462216D01*
X204238494Y-75328597D01*
X204071402Y-75161506D01*
X204071396Y-75161501D01*
X203885842Y-75031575D01*
X203842217Y-74976998D01*
X203837352Y-74930000D01*
X218804540Y-74930000D01*
X218824326Y-75118256D01*
X218824327Y-75118259D01*
X218882818Y-75298277D01*
X218882821Y-75298284D01*
X218977467Y-75462216D01*
X219031451Y-75522171D01*
X219104129Y-75602888D01*
X219257265Y-75714148D01*
X219257270Y-75714151D01*
X219430192Y-75791142D01*
X219430197Y-75791144D01*
X219615354Y-75830500D01*
X219615355Y-75830500D01*
X219804644Y-75830500D01*
X219804646Y-75830500D01*
X219858750Y-75819000D01*
X226551540Y-75819000D01*
X226571326Y-76007256D01*
X226571327Y-76007259D01*
X226629818Y-76187277D01*
X226629821Y-76187284D01*
X226724467Y-76351216D01*
X226800270Y-76435403D01*
X226851129Y-76491888D01*
X227004265Y-76603148D01*
X227004270Y-76603151D01*
X227177192Y-76680142D01*
X227177197Y-76680144D01*
X227362354Y-76719500D01*
X227362355Y-76719500D01*
X227551644Y-76719500D01*
X227551646Y-76719500D01*
X227736803Y-76680144D01*
X227909730Y-76603151D01*
X228062871Y-76491888D01*
X228189533Y-76351216D01*
X228284179Y-76187284D01*
X228342674Y-76007256D01*
X228362460Y-75819000D01*
X228342674Y-75630744D01*
X228284179Y-75450716D01*
X228189533Y-75286784D01*
X228062871Y-75146112D01*
X228062870Y-75146111D01*
X227909734Y-75034851D01*
X227909729Y-75034848D01*
X227736807Y-74957857D01*
X227736802Y-74957855D01*
X227591001Y-74926865D01*
X227551646Y-74918500D01*
X227362354Y-74918500D01*
X227329897Y-74925398D01*
X227177197Y-74957855D01*
X227177192Y-74957857D01*
X227004270Y-75034848D01*
X227004265Y-75034851D01*
X226851129Y-75146111D01*
X226724466Y-75286785D01*
X226629821Y-75450715D01*
X226629818Y-75450722D01*
X226580377Y-75602888D01*
X226571326Y-75630744D01*
X226551540Y-75819000D01*
X219858750Y-75819000D01*
X219989803Y-75791144D01*
X220162730Y-75714151D01*
X220315871Y-75602888D01*
X220442533Y-75462216D01*
X220537179Y-75298284D01*
X220595674Y-75118256D01*
X220615460Y-74930000D01*
X220595674Y-74741744D01*
X220594457Y-74738000D01*
X229218540Y-74738000D01*
X229238326Y-74926256D01*
X229238327Y-74926259D01*
X229296818Y-75106277D01*
X229296821Y-75106284D01*
X229391467Y-75270216D01*
X229502620Y-75393664D01*
X229518129Y-75410888D01*
X229671265Y-75522148D01*
X229671270Y-75522151D01*
X229844192Y-75599142D01*
X229844197Y-75599144D01*
X230029354Y-75638500D01*
X230029355Y-75638500D01*
X230218644Y-75638500D01*
X230218646Y-75638500D01*
X230403803Y-75599144D01*
X230576730Y-75522151D01*
X230729871Y-75410888D01*
X230856533Y-75270216D01*
X230951179Y-75106284D01*
X231009674Y-74926256D01*
X231029460Y-74738000D01*
X231009674Y-74549744D01*
X230951179Y-74369716D01*
X230856533Y-74205784D01*
X230729871Y-74065112D01*
X230720904Y-74058597D01*
X230576734Y-73953851D01*
X230576729Y-73953848D01*
X230403807Y-73876857D01*
X230403802Y-73876855D01*
X230258001Y-73845865D01*
X230218646Y-73837500D01*
X230029354Y-73837500D01*
X229996897Y-73844398D01*
X229844197Y-73876855D01*
X229844192Y-73876857D01*
X229671270Y-73953848D01*
X229671265Y-73953851D01*
X229518129Y-74065111D01*
X229391466Y-74205785D01*
X229296821Y-74369715D01*
X229296818Y-74369722D01*
X229238327Y-74549740D01*
X229238326Y-74549744D01*
X229218540Y-74738000D01*
X220594457Y-74738000D01*
X220537179Y-74561716D01*
X220442533Y-74397784D01*
X220315871Y-74257112D01*
X220315870Y-74257111D01*
X220162734Y-74145851D01*
X220162729Y-74145848D01*
X219989807Y-74068857D01*
X219989802Y-74068855D01*
X219844001Y-74037865D01*
X219804646Y-74029500D01*
X219615354Y-74029500D01*
X219582897Y-74036398D01*
X219430197Y-74068855D01*
X219430192Y-74068857D01*
X219257270Y-74145848D01*
X219257265Y-74145851D01*
X219104129Y-74257111D01*
X218977466Y-74397785D01*
X218882821Y-74561715D01*
X218882818Y-74561722D01*
X218824327Y-74741740D01*
X218824326Y-74741744D01*
X218804540Y-74930000D01*
X203837352Y-74930000D01*
X203835023Y-74907500D01*
X203866546Y-74845145D01*
X203885842Y-74828425D01*
X204009635Y-74741744D01*
X204071401Y-74698495D01*
X204238495Y-74531401D01*
X204374035Y-74337830D01*
X204473903Y-74123663D01*
X204535063Y-73895408D01*
X204555659Y-73660000D01*
X204554546Y-73647284D01*
X204538796Y-73467259D01*
X204535063Y-73424592D01*
X204496052Y-73279000D01*
X226043540Y-73279000D01*
X226063326Y-73467256D01*
X226063327Y-73467259D01*
X226121818Y-73647277D01*
X226121821Y-73647284D01*
X226216467Y-73811216D01*
X226275569Y-73876855D01*
X226343129Y-73951888D01*
X226496265Y-74063148D01*
X226496270Y-74063151D01*
X226669192Y-74140142D01*
X226669197Y-74140144D01*
X226854354Y-74179500D01*
X226854355Y-74179500D01*
X227043644Y-74179500D01*
X227043646Y-74179500D01*
X227228803Y-74140144D01*
X227401730Y-74063151D01*
X227554871Y-73951888D01*
X227681533Y-73811216D01*
X227776179Y-73647284D01*
X227834674Y-73467256D01*
X227854460Y-73279000D01*
X227834674Y-73090744D01*
X227776179Y-72910716D01*
X227681533Y-72746784D01*
X227554871Y-72606112D01*
X227554870Y-72606111D01*
X227401734Y-72494851D01*
X227401729Y-72494848D01*
X227228807Y-72417857D01*
X227228802Y-72417855D01*
X227083001Y-72386865D01*
X227043646Y-72378500D01*
X226854354Y-72378500D01*
X226821897Y-72385398D01*
X226669197Y-72417855D01*
X226669192Y-72417857D01*
X226496270Y-72494848D01*
X226496265Y-72494851D01*
X226343129Y-72606111D01*
X226216466Y-72746785D01*
X226121821Y-72910715D01*
X226121818Y-72910722D01*
X226070771Y-73067830D01*
X226063326Y-73090744D01*
X226043540Y-73279000D01*
X204496052Y-73279000D01*
X204473903Y-73196337D01*
X204374035Y-72982171D01*
X204324002Y-72910715D01*
X204238494Y-72788597D01*
X204071402Y-72621506D01*
X204071396Y-72621501D01*
X203885842Y-72491575D01*
X203842217Y-72436998D01*
X203835023Y-72367500D01*
X203866546Y-72305145D01*
X203885842Y-72288425D01*
X204016040Y-72197259D01*
X204071401Y-72158495D01*
X204238495Y-71991401D01*
X204374035Y-71797830D01*
X204473903Y-71583663D01*
X204530081Y-71374000D01*
X219312540Y-71374000D01*
X219332326Y-71562256D01*
X219332327Y-71562259D01*
X219390818Y-71742277D01*
X219390821Y-71742284D01*
X219485467Y-71906216D01*
X219612129Y-72046888D01*
X219765265Y-72158148D01*
X219765270Y-72158151D01*
X219938192Y-72235142D01*
X219938197Y-72235144D01*
X220123354Y-72274500D01*
X220123355Y-72274500D01*
X220312644Y-72274500D01*
X220312646Y-72274500D01*
X220497803Y-72235144D01*
X220670730Y-72158151D01*
X220823871Y-72046888D01*
X220857986Y-72009000D01*
X228075540Y-72009000D01*
X228095326Y-72197256D01*
X228095327Y-72197259D01*
X228153818Y-72377277D01*
X228153821Y-72377284D01*
X228248467Y-72541216D01*
X228306899Y-72606111D01*
X228375129Y-72681888D01*
X228528265Y-72793148D01*
X228528270Y-72793151D01*
X228701192Y-72870142D01*
X228701197Y-72870144D01*
X228886354Y-72909500D01*
X228886355Y-72909500D01*
X229075644Y-72909500D01*
X229075646Y-72909500D01*
X229260803Y-72870144D01*
X229433730Y-72793151D01*
X229586871Y-72681888D01*
X229713533Y-72541216D01*
X229808179Y-72377284D01*
X229866674Y-72197256D01*
X229886460Y-72009000D01*
X229866674Y-71820744D01*
X229808179Y-71640716D01*
X229713533Y-71476784D01*
X229586871Y-71336112D01*
X229586870Y-71336111D01*
X229433734Y-71224851D01*
X229433729Y-71224848D01*
X229260807Y-71147857D01*
X229260802Y-71147855D01*
X229115001Y-71116865D01*
X229075646Y-71108500D01*
X228886354Y-71108500D01*
X228853897Y-71115398D01*
X228701197Y-71147855D01*
X228701192Y-71147857D01*
X228528270Y-71224848D01*
X228528265Y-71224851D01*
X228375129Y-71336111D01*
X228248466Y-71476785D01*
X228153821Y-71640715D01*
X228153818Y-71640722D01*
X228120819Y-71742284D01*
X228095326Y-71820744D01*
X228075540Y-72009000D01*
X220857986Y-72009000D01*
X220950533Y-71906216D01*
X221045179Y-71742284D01*
X221103674Y-71562256D01*
X221123460Y-71374000D01*
X221103674Y-71185744D01*
X221045179Y-71005716D01*
X220950533Y-70841784D01*
X220823871Y-70701112D01*
X220823870Y-70701111D01*
X220670734Y-70589851D01*
X220670729Y-70589848D01*
X220497807Y-70512857D01*
X220497802Y-70512855D01*
X220352001Y-70481865D01*
X220312646Y-70473500D01*
X220123354Y-70473500D01*
X220090897Y-70480398D01*
X219938197Y-70512855D01*
X219938192Y-70512857D01*
X219765270Y-70589848D01*
X219765265Y-70589851D01*
X219612129Y-70701111D01*
X219485466Y-70841785D01*
X219390821Y-71005715D01*
X219390818Y-71005722D01*
X219344636Y-71147857D01*
X219332326Y-71185744D01*
X219312540Y-71374000D01*
X204530081Y-71374000D01*
X204535063Y-71355408D01*
X204555659Y-71120000D01*
X204553690Y-71097500D01*
X204545660Y-71005715D01*
X204535063Y-70884592D01*
X204473903Y-70656337D01*
X204374035Y-70442171D01*
X204341628Y-70395888D01*
X204238494Y-70248597D01*
X204071402Y-70081506D01*
X204071396Y-70081501D01*
X203922153Y-69977000D01*
X208517540Y-69977000D01*
X208537326Y-70165256D01*
X208537327Y-70165259D01*
X208595818Y-70345277D01*
X208595821Y-70345284D01*
X208690467Y-70509216D01*
X208793369Y-70623500D01*
X208817129Y-70649888D01*
X208970265Y-70761148D01*
X208970270Y-70761151D01*
X209143192Y-70838142D01*
X209143197Y-70838144D01*
X209328354Y-70877500D01*
X209328355Y-70877500D01*
X209517644Y-70877500D01*
X209517646Y-70877500D01*
X209702803Y-70838144D01*
X209875730Y-70761151D01*
X210028871Y-70649888D01*
X210155533Y-70509216D01*
X210250179Y-70345284D01*
X210308674Y-70165256D01*
X210328460Y-69977000D01*
X210308674Y-69788744D01*
X210287312Y-69723000D01*
X236203540Y-69723000D01*
X236223326Y-69911256D01*
X236223327Y-69911259D01*
X236281818Y-70091277D01*
X236281821Y-70091284D01*
X236376467Y-70255216D01*
X236429094Y-70313664D01*
X236503129Y-70395888D01*
X236656265Y-70507148D01*
X236656270Y-70507151D01*
X236829192Y-70584142D01*
X236829197Y-70584144D01*
X237014354Y-70623500D01*
X237014355Y-70623500D01*
X237203644Y-70623500D01*
X237203646Y-70623500D01*
X237388803Y-70584144D01*
X237561730Y-70507151D01*
X237714871Y-70395888D01*
X237841533Y-70255216D01*
X237936179Y-70091284D01*
X237994674Y-69911256D01*
X238014460Y-69723000D01*
X237994674Y-69534744D01*
X237936179Y-69354716D01*
X237841533Y-69190784D01*
X237714871Y-69050112D01*
X237705984Y-69043655D01*
X237561734Y-68938851D01*
X237561729Y-68938848D01*
X237388807Y-68861857D01*
X237388802Y-68861855D01*
X237243001Y-68830865D01*
X237203646Y-68822500D01*
X237014354Y-68822500D01*
X236981897Y-68829398D01*
X236829197Y-68861855D01*
X236829192Y-68861857D01*
X236656270Y-68938848D01*
X236656265Y-68938851D01*
X236503129Y-69050111D01*
X236376466Y-69190785D01*
X236281821Y-69354715D01*
X236281818Y-69354722D01*
X236240951Y-69480500D01*
X236223326Y-69534744D01*
X236203540Y-69723000D01*
X210287312Y-69723000D01*
X210250179Y-69608716D01*
X210155533Y-69444784D01*
X210028871Y-69304112D01*
X209965175Y-69257834D01*
X209875734Y-69192851D01*
X209875729Y-69192848D01*
X209702807Y-69115857D01*
X209702802Y-69115855D01*
X209557001Y-69084865D01*
X209517646Y-69076500D01*
X209328354Y-69076500D01*
X209295897Y-69083398D01*
X209143197Y-69115855D01*
X209143192Y-69115857D01*
X208970270Y-69192848D01*
X208970265Y-69192851D01*
X208817129Y-69304111D01*
X208690466Y-69444785D01*
X208595821Y-69608715D01*
X208595818Y-69608722D01*
X208537327Y-69788740D01*
X208537326Y-69788744D01*
X208517540Y-69977000D01*
X203922153Y-69977000D01*
X203885842Y-69951575D01*
X203842217Y-69896998D01*
X203835023Y-69827500D01*
X203866546Y-69765145D01*
X203885842Y-69748425D01*
X203908026Y-69732891D01*
X204071401Y-69618495D01*
X204238495Y-69451401D01*
X204374035Y-69257830D01*
X204473903Y-69043663D01*
X204535063Y-68815408D01*
X204555659Y-68580000D01*
X217661540Y-68580000D01*
X217681326Y-68768256D01*
X217681327Y-68768259D01*
X217739818Y-68948277D01*
X217739821Y-68948284D01*
X217834467Y-69112216D01*
X217961129Y-69252888D01*
X218114265Y-69364148D01*
X218114270Y-69364151D01*
X218287192Y-69441142D01*
X218287197Y-69441144D01*
X218472354Y-69480500D01*
X218472355Y-69480500D01*
X218661644Y-69480500D01*
X218661646Y-69480500D01*
X218846803Y-69441144D01*
X219019730Y-69364151D01*
X219172871Y-69252888D01*
X219299533Y-69112216D01*
X219394179Y-68948284D01*
X219452674Y-68768256D01*
X219472460Y-68580000D01*
X219452674Y-68391744D01*
X219394179Y-68211716D01*
X219313514Y-68072000D01*
X244966540Y-68072000D01*
X244986326Y-68260256D01*
X244986327Y-68260259D01*
X245044818Y-68440277D01*
X245044821Y-68440284D01*
X245139467Y-68604216D01*
X245209122Y-68681575D01*
X245266129Y-68744888D01*
X245419265Y-68856148D01*
X245419270Y-68856151D01*
X245592192Y-68933142D01*
X245592197Y-68933144D01*
X245777354Y-68972500D01*
X245777355Y-68972500D01*
X245966644Y-68972500D01*
X245966646Y-68972500D01*
X246151803Y-68933144D01*
X246324730Y-68856151D01*
X246477871Y-68744888D01*
X246604533Y-68604216D01*
X246699179Y-68440284D01*
X246757674Y-68260256D01*
X246777460Y-68072000D01*
X246757674Y-67883744D01*
X246699179Y-67703716D01*
X246604533Y-67539784D01*
X246477871Y-67399112D01*
X246466018Y-67390500D01*
X246324734Y-67287851D01*
X246324729Y-67287848D01*
X246151807Y-67210857D01*
X246151802Y-67210855D01*
X246006001Y-67179865D01*
X245966646Y-67171500D01*
X245777354Y-67171500D01*
X245744897Y-67178398D01*
X245592197Y-67210855D01*
X245592192Y-67210857D01*
X245419270Y-67287848D01*
X245419265Y-67287851D01*
X245266129Y-67399111D01*
X245139466Y-67539785D01*
X245044821Y-67703715D01*
X245044818Y-67703722D01*
X245014884Y-67795851D01*
X244986326Y-67883744D01*
X244966540Y-68072000D01*
X219313514Y-68072000D01*
X219299533Y-68047784D01*
X219172871Y-67907112D01*
X219172870Y-67907111D01*
X219019734Y-67795851D01*
X219019729Y-67795848D01*
X218846807Y-67718857D01*
X218846802Y-67718855D01*
X218701001Y-67687865D01*
X218661646Y-67679500D01*
X218472354Y-67679500D01*
X218439897Y-67686398D01*
X218287197Y-67718855D01*
X218287192Y-67718857D01*
X218114270Y-67795848D01*
X218114265Y-67795851D01*
X217961129Y-67907111D01*
X217834466Y-68047785D01*
X217739821Y-68211715D01*
X217739818Y-68211722D01*
X217681327Y-68391740D01*
X217681326Y-68391744D01*
X217661540Y-68580000D01*
X204555659Y-68580000D01*
X204553690Y-68557500D01*
X204543435Y-68440284D01*
X204535063Y-68344592D01*
X204473903Y-68116337D01*
X204374035Y-67902171D01*
X204361132Y-67883744D01*
X204238496Y-67708600D01*
X204209396Y-67679500D01*
X204116567Y-67586671D01*
X204083084Y-67525351D01*
X204088068Y-67455659D01*
X204129939Y-67399725D01*
X204160915Y-67382810D01*
X204292331Y-67333796D01*
X204407546Y-67247546D01*
X204493796Y-67132331D01*
X204544091Y-66997483D01*
X204550500Y-66937873D01*
X204550499Y-66040000D01*
X205723540Y-66040000D01*
X205743326Y-66228256D01*
X205743327Y-66228259D01*
X205801818Y-66408277D01*
X205801821Y-66408284D01*
X205896467Y-66572216D01*
X205950451Y-66632171D01*
X206023129Y-66712888D01*
X206176265Y-66824148D01*
X206176270Y-66824151D01*
X206349192Y-66901142D01*
X206349197Y-66901144D01*
X206534354Y-66940500D01*
X206534355Y-66940500D01*
X206723644Y-66940500D01*
X206723646Y-66940500D01*
X206908803Y-66901144D01*
X207081730Y-66824151D01*
X207234871Y-66712888D01*
X207361533Y-66572216D01*
X207456179Y-66408284D01*
X207514674Y-66228256D01*
X207534460Y-66040000D01*
X207514674Y-65851744D01*
X207456179Y-65671716D01*
X207361533Y-65507784D01*
X207234871Y-65367112D01*
X207234870Y-65367111D01*
X207081734Y-65255851D01*
X207081729Y-65255848D01*
X206908807Y-65178857D01*
X206908802Y-65178855D01*
X206763001Y-65147865D01*
X206723646Y-65139500D01*
X206534354Y-65139500D01*
X206501897Y-65146398D01*
X206349197Y-65178855D01*
X206349192Y-65178857D01*
X206176270Y-65255848D01*
X206176265Y-65255851D01*
X206023129Y-65367111D01*
X205896466Y-65507785D01*
X205801821Y-65671715D01*
X205801818Y-65671722D01*
X205743327Y-65851740D01*
X205743326Y-65851744D01*
X205723540Y-66040000D01*
X204550499Y-66040000D01*
X204550499Y-65142128D01*
X204544091Y-65082517D01*
X204517520Y-65011277D01*
X204493797Y-64947671D01*
X204493793Y-64947664D01*
X204407547Y-64832455D01*
X204407544Y-64832452D01*
X204292335Y-64746206D01*
X204292328Y-64746202D01*
X204157482Y-64695908D01*
X204157483Y-64695908D01*
X204097883Y-64689501D01*
X204097881Y-64689500D01*
X204097873Y-64689500D01*
X204097864Y-64689500D01*
X202302129Y-64689500D01*
X202302123Y-64689501D01*
X202242516Y-64695908D01*
X202107671Y-64746202D01*
X202107664Y-64746206D01*
X201992455Y-64832452D01*
X201992452Y-64832455D01*
X201906206Y-64947664D01*
X201906202Y-64947671D01*
X201855908Y-65082517D01*
X201849782Y-65139500D01*
X201849501Y-65142123D01*
X201849500Y-65142135D01*
X201849500Y-66937870D01*
X201849501Y-66937876D01*
X201855908Y-66997483D01*
X201906202Y-67132328D01*
X201906206Y-67132335D01*
X201992452Y-67247544D01*
X201992455Y-67247547D01*
X202107664Y-67333793D01*
X202107671Y-67333797D01*
X202239081Y-67382810D01*
X202295015Y-67424681D01*
X202319432Y-67490145D01*
X202304580Y-67558418D01*
X202283430Y-67586673D01*
X202161503Y-67708600D01*
X202025965Y-67902169D01*
X202025964Y-67902171D01*
X201926098Y-68116335D01*
X201926094Y-68116344D01*
X201864938Y-68344586D01*
X201864936Y-68344596D01*
X201844341Y-68579999D01*
X201844341Y-68580000D01*
X201864936Y-68815403D01*
X201864938Y-68815413D01*
X201926094Y-69043655D01*
X201926096Y-69043659D01*
X201926097Y-69043663D01*
X201994701Y-69190784D01*
X202025965Y-69257830D01*
X202025967Y-69257834D01*
X202134281Y-69412521D01*
X202156872Y-69444785D01*
X202161501Y-69451395D01*
X202161506Y-69451402D01*
X202328597Y-69618493D01*
X202328603Y-69618498D01*
X202514158Y-69748425D01*
X202557783Y-69803002D01*
X202564977Y-69872500D01*
X202533454Y-69934855D01*
X202514158Y-69951575D01*
X202328597Y-70081505D01*
X202161505Y-70248597D01*
X202025965Y-70442169D01*
X202025964Y-70442171D01*
X201926098Y-70656335D01*
X201926094Y-70656344D01*
X201864938Y-70884586D01*
X201864936Y-70884596D01*
X201844341Y-71119999D01*
X201844341Y-71120000D01*
X201864936Y-71355403D01*
X201864938Y-71355413D01*
X201926094Y-71583655D01*
X201926096Y-71583659D01*
X201926097Y-71583663D01*
X202025965Y-71797830D01*
X202025967Y-71797834D01*
X202161501Y-71991395D01*
X202161506Y-71991402D01*
X202328597Y-72158493D01*
X202328603Y-72158498D01*
X202514158Y-72288425D01*
X202557783Y-72343002D01*
X202564977Y-72412500D01*
X202533454Y-72474855D01*
X202514158Y-72491575D01*
X202328597Y-72621505D01*
X202161505Y-72788597D01*
X202025965Y-72982169D01*
X202025964Y-72982171D01*
X201926098Y-73196335D01*
X201926094Y-73196344D01*
X201864938Y-73424586D01*
X201864936Y-73424596D01*
X201844341Y-73659999D01*
X201844341Y-73660000D01*
X201864936Y-73895403D01*
X201864938Y-73895413D01*
X201926094Y-74123655D01*
X201926096Y-74123659D01*
X201926097Y-74123663D01*
X202025965Y-74337830D01*
X202025967Y-74337834D01*
X202161501Y-74531395D01*
X202161506Y-74531402D01*
X202328597Y-74698493D01*
X202328603Y-74698498D01*
X202514158Y-74828425D01*
X202557783Y-74883002D01*
X202564977Y-74952500D01*
X202533454Y-75014855D01*
X202514158Y-75031575D01*
X202328597Y-75161505D01*
X202161505Y-75328597D01*
X202025965Y-75522169D01*
X202025964Y-75522171D01*
X201926098Y-75736335D01*
X201926094Y-75736344D01*
X201864938Y-75964586D01*
X201864936Y-75964596D01*
X201844341Y-76199999D01*
X201844341Y-76200000D01*
X201864936Y-76435403D01*
X201864938Y-76435413D01*
X201926094Y-76663655D01*
X201926096Y-76663659D01*
X201926097Y-76663663D01*
X202018983Y-76862857D01*
X202025965Y-76877830D01*
X202025967Y-76877834D01*
X202130933Y-77027740D01*
X202156872Y-77064785D01*
X202161501Y-77071395D01*
X202161506Y-77071402D01*
X202328597Y-77238493D01*
X202328603Y-77238498D01*
X202514158Y-77368425D01*
X202557783Y-77423002D01*
X202564977Y-77492500D01*
X202533454Y-77554855D01*
X202514158Y-77571575D01*
X202328597Y-77701505D01*
X202161505Y-77868597D01*
X202025965Y-78062169D01*
X202025964Y-78062171D01*
X201926098Y-78276335D01*
X201926094Y-78276344D01*
X201864938Y-78504586D01*
X201864936Y-78504596D01*
X201844341Y-78739999D01*
X201844341Y-78740000D01*
X201864936Y-78975403D01*
X201864938Y-78975413D01*
X201926094Y-79203655D01*
X201926096Y-79203659D01*
X201926097Y-79203663D01*
X202011922Y-79387715D01*
X202025965Y-79417830D01*
X202025967Y-79417834D01*
X202161501Y-79611395D01*
X202161506Y-79611402D01*
X202328597Y-79778493D01*
X202328603Y-79778498D01*
X202514158Y-79908425D01*
X202557783Y-79963002D01*
X202564977Y-80032500D01*
X202533454Y-80094855D01*
X202514158Y-80111575D01*
X202328597Y-80241505D01*
X202161505Y-80408597D01*
X202025965Y-80602169D01*
X202025964Y-80602171D01*
X201926098Y-80816335D01*
X201926094Y-80816344D01*
X201864938Y-81044586D01*
X201864936Y-81044596D01*
X201844341Y-81279999D01*
X201844341Y-81280000D01*
X201864936Y-81515403D01*
X201864938Y-81515413D01*
X201926094Y-81743655D01*
X201926096Y-81743659D01*
X201926097Y-81743663D01*
X202011922Y-81927715D01*
X202025965Y-81957830D01*
X202025967Y-81957834D01*
X202161501Y-82151395D01*
X202161506Y-82151402D01*
X202328597Y-82318493D01*
X202328603Y-82318498D01*
X202514158Y-82448425D01*
X202557783Y-82503002D01*
X202564977Y-82572500D01*
X202533454Y-82634855D01*
X202514158Y-82651575D01*
X202328597Y-82781505D01*
X202161505Y-82948597D01*
X202025965Y-83142169D01*
X202025964Y-83142171D01*
X201926098Y-83356335D01*
X201926094Y-83356344D01*
X201864938Y-83584586D01*
X201864936Y-83584596D01*
X201844341Y-83819999D01*
X201844341Y-83820000D01*
X195594842Y-83820000D01*
X195600171Y-64643000D01*
X224265540Y-64643000D01*
X224285326Y-64831256D01*
X224285327Y-64831259D01*
X224343818Y-65011277D01*
X224343821Y-65011284D01*
X224438467Y-65175216D01*
X224565129Y-65315888D01*
X224718265Y-65427148D01*
X224718270Y-65427151D01*
X224891192Y-65504142D01*
X224891197Y-65504144D01*
X225076354Y-65543500D01*
X225076355Y-65543500D01*
X225265644Y-65543500D01*
X225265646Y-65543500D01*
X225450803Y-65504144D01*
X225623730Y-65427151D01*
X225776871Y-65315888D01*
X225903533Y-65175216D01*
X225998179Y-65011284D01*
X226056674Y-64831256D01*
X226076460Y-64643000D01*
X226056674Y-64454744D01*
X225998179Y-64274716D01*
X225903533Y-64110784D01*
X225776871Y-63970112D01*
X225776870Y-63970111D01*
X225623734Y-63858851D01*
X225623729Y-63858848D01*
X225450807Y-63781857D01*
X225450802Y-63781855D01*
X225305001Y-63750865D01*
X225265646Y-63742500D01*
X225076354Y-63742500D01*
X225043897Y-63749398D01*
X224891197Y-63781855D01*
X224891192Y-63781857D01*
X224718270Y-63858848D01*
X224718265Y-63858851D01*
X224565129Y-63970111D01*
X224438466Y-64110785D01*
X224343821Y-64274715D01*
X224343818Y-64274722D01*
X224285327Y-64454740D01*
X224285326Y-64454744D01*
X224265540Y-64643000D01*
X195600171Y-64643000D01*
X195601688Y-59182004D01*
X206884732Y-59182004D01*
X206903777Y-59436154D01*
X206959543Y-59680482D01*
X206960492Y-59684637D01*
X207053607Y-59921888D01*
X207181041Y-60142612D01*
X207339950Y-60341877D01*
X207526783Y-60515232D01*
X207737366Y-60658805D01*
X207737371Y-60658807D01*
X207737372Y-60658808D01*
X207737373Y-60658809D01*
X207859328Y-60717538D01*
X207966992Y-60769387D01*
X207966993Y-60769387D01*
X207966996Y-60769389D01*
X208210542Y-60844513D01*
X208462565Y-60882500D01*
X208717435Y-60882500D01*
X208969458Y-60844513D01*
X209213004Y-60769389D01*
X209442634Y-60658805D01*
X209653217Y-60515232D01*
X209840050Y-60341877D01*
X209998959Y-60142612D01*
X210126393Y-59921888D01*
X210219508Y-59684637D01*
X210219510Y-59684624D01*
X210220878Y-59680196D01*
X210222324Y-59680642D01*
X210253213Y-59625412D01*
X210314873Y-59592552D01*
X210384510Y-59598243D01*
X210440016Y-59640680D01*
X210458192Y-59680482D01*
X210459122Y-59680196D01*
X210460490Y-59684630D01*
X210460492Y-59684637D01*
X210553607Y-59921888D01*
X210681041Y-60142612D01*
X210839950Y-60341877D01*
X211026783Y-60515232D01*
X211237366Y-60658805D01*
X211237371Y-60658807D01*
X211237372Y-60658808D01*
X211237373Y-60658809D01*
X211359328Y-60717538D01*
X211466992Y-60769387D01*
X211466993Y-60769387D01*
X211466996Y-60769389D01*
X211710542Y-60844513D01*
X211962565Y-60882500D01*
X212217435Y-60882500D01*
X212469458Y-60844513D01*
X212713004Y-60769389D01*
X212942634Y-60658805D01*
X213153217Y-60515232D01*
X213340050Y-60341877D01*
X213498959Y-60142612D01*
X213626393Y-59921888D01*
X213719508Y-59684637D01*
X213719510Y-59684624D01*
X213720878Y-59680196D01*
X213722324Y-59680642D01*
X213753213Y-59625412D01*
X213814873Y-59592552D01*
X213884510Y-59598243D01*
X213940016Y-59640680D01*
X213958192Y-59680482D01*
X213959122Y-59680196D01*
X213960490Y-59684630D01*
X213960492Y-59684637D01*
X214053607Y-59921888D01*
X214181041Y-60142612D01*
X214339950Y-60341877D01*
X214526783Y-60515232D01*
X214737366Y-60658805D01*
X214737371Y-60658807D01*
X214737372Y-60658808D01*
X214737373Y-60658809D01*
X214859328Y-60717538D01*
X214966992Y-60769387D01*
X214966993Y-60769387D01*
X214966996Y-60769389D01*
X215210542Y-60844513D01*
X215462565Y-60882500D01*
X215717435Y-60882500D01*
X215969458Y-60844513D01*
X216213004Y-60769389D01*
X216442634Y-60658805D01*
X216653217Y-60515232D01*
X216840050Y-60341877D01*
X216998959Y-60142612D01*
X217126393Y-59921888D01*
X217150074Y-59861549D01*
X217192887Y-59806340D01*
X217258756Y-59783039D01*
X217326767Y-59799048D01*
X217375326Y-59849286D01*
X217389500Y-59906855D01*
X217389500Y-60429870D01*
X217389501Y-60429876D01*
X217395908Y-60489483D01*
X217446202Y-60624328D01*
X217446206Y-60624335D01*
X217532452Y-60739544D01*
X217532455Y-60739547D01*
X217647664Y-60825793D01*
X217647671Y-60825797D01*
X217782517Y-60876091D01*
X217782516Y-60876091D01*
X217789444Y-60876835D01*
X217842127Y-60882500D01*
X220337872Y-60882499D01*
X220397483Y-60876091D01*
X220532331Y-60825796D01*
X220647546Y-60739546D01*
X220733796Y-60624331D01*
X220784091Y-60489483D01*
X220790500Y-60429873D01*
X220790500Y-59182004D01*
X233102732Y-59182004D01*
X233121777Y-59436154D01*
X233177543Y-59680482D01*
X233178492Y-59684637D01*
X233271607Y-59921888D01*
X233399041Y-60142612D01*
X233557950Y-60341877D01*
X233744783Y-60515232D01*
X233955366Y-60658805D01*
X233955371Y-60658807D01*
X233955372Y-60658808D01*
X233955373Y-60658809D01*
X234077328Y-60717538D01*
X234184992Y-60769387D01*
X234184993Y-60769387D01*
X234184996Y-60769389D01*
X234428542Y-60844513D01*
X234680565Y-60882500D01*
X234935435Y-60882500D01*
X235187458Y-60844513D01*
X235431004Y-60769389D01*
X235660634Y-60658805D01*
X235871217Y-60515232D01*
X236058050Y-60341877D01*
X236216959Y-60142612D01*
X236344393Y-59921888D01*
X236437508Y-59684637D01*
X236437510Y-59684624D01*
X236438878Y-59680196D01*
X236440324Y-59680642D01*
X236471213Y-59625412D01*
X236532873Y-59592552D01*
X236602510Y-59598243D01*
X236658016Y-59640680D01*
X236676192Y-59680482D01*
X236677122Y-59680196D01*
X236678490Y-59684630D01*
X236678492Y-59684637D01*
X236771607Y-59921888D01*
X236899041Y-60142612D01*
X237057950Y-60341877D01*
X237244783Y-60515232D01*
X237455366Y-60658805D01*
X237455371Y-60658807D01*
X237455372Y-60658808D01*
X237455373Y-60658809D01*
X237577328Y-60717538D01*
X237684992Y-60769387D01*
X237684993Y-60769387D01*
X237684996Y-60769389D01*
X237928542Y-60844513D01*
X238180565Y-60882500D01*
X238435435Y-60882500D01*
X238687458Y-60844513D01*
X238931004Y-60769389D01*
X239160634Y-60658805D01*
X239371217Y-60515232D01*
X239558050Y-60341877D01*
X239716959Y-60142612D01*
X239844393Y-59921888D01*
X239937508Y-59684637D01*
X239937510Y-59684624D01*
X239938878Y-59680196D01*
X239940324Y-59680642D01*
X239971213Y-59625412D01*
X240032873Y-59592552D01*
X240102510Y-59598243D01*
X240158016Y-59640680D01*
X240176192Y-59680482D01*
X240177122Y-59680196D01*
X240178490Y-59684630D01*
X240178492Y-59684637D01*
X240271607Y-59921888D01*
X240399041Y-60142612D01*
X240557950Y-60341877D01*
X240744783Y-60515232D01*
X240955366Y-60658805D01*
X240955371Y-60658807D01*
X240955372Y-60658808D01*
X240955373Y-60658809D01*
X241077328Y-60717538D01*
X241184992Y-60769387D01*
X241184993Y-60769387D01*
X241184996Y-60769389D01*
X241428542Y-60844513D01*
X241680565Y-60882500D01*
X241935435Y-60882500D01*
X242187458Y-60844513D01*
X242431004Y-60769389D01*
X242660634Y-60658805D01*
X242871217Y-60515232D01*
X243058050Y-60341877D01*
X243216959Y-60142612D01*
X243344393Y-59921888D01*
X243368074Y-59861549D01*
X243410887Y-59806340D01*
X243476756Y-59783039D01*
X243544767Y-59799048D01*
X243593326Y-59849286D01*
X243607500Y-59906855D01*
X243607500Y-60429870D01*
X243607501Y-60429876D01*
X243613908Y-60489483D01*
X243664202Y-60624328D01*
X243664206Y-60624335D01*
X243750452Y-60739544D01*
X243750455Y-60739547D01*
X243865664Y-60825793D01*
X243865671Y-60825797D01*
X244000517Y-60876091D01*
X244000516Y-60876091D01*
X244007444Y-60876835D01*
X244060127Y-60882500D01*
X246555872Y-60882499D01*
X246615483Y-60876091D01*
X246750331Y-60825796D01*
X246865546Y-60739546D01*
X246951796Y-60624331D01*
X247002091Y-60489483D01*
X247008500Y-60429873D01*
X247008499Y-57934128D01*
X247002091Y-57874517D01*
X246992487Y-57848768D01*
X246951797Y-57739671D01*
X246951793Y-57739664D01*
X246865547Y-57624455D01*
X246865544Y-57624452D01*
X246750335Y-57538206D01*
X246750328Y-57538202D01*
X246615482Y-57487908D01*
X246615483Y-57487908D01*
X246555883Y-57481501D01*
X246555881Y-57481500D01*
X246555873Y-57481500D01*
X246555864Y-57481500D01*
X244060129Y-57481500D01*
X244060123Y-57481501D01*
X244000516Y-57487908D01*
X243865671Y-57538202D01*
X243865664Y-57538206D01*
X243750455Y-57624452D01*
X243750452Y-57624455D01*
X243664206Y-57739664D01*
X243664202Y-57739671D01*
X243613908Y-57874517D01*
X243607501Y-57934116D01*
X243607501Y-57934123D01*
X243607500Y-57934135D01*
X243607500Y-58457142D01*
X243587815Y-58524181D01*
X243535011Y-58569936D01*
X243465853Y-58579880D01*
X243402297Y-58550855D01*
X243368072Y-58502445D01*
X243354160Y-58466998D01*
X243344393Y-58442112D01*
X243216959Y-58221388D01*
X243058050Y-58022123D01*
X242871217Y-57848768D01*
X242660634Y-57705195D01*
X242660630Y-57705193D01*
X242660627Y-57705191D01*
X242660626Y-57705190D01*
X242431006Y-57594612D01*
X242431008Y-57594612D01*
X242187466Y-57519489D01*
X242187462Y-57519488D01*
X242187458Y-57519487D01*
X242066231Y-57501214D01*
X241935440Y-57481500D01*
X241935435Y-57481500D01*
X241680565Y-57481500D01*
X241680559Y-57481500D01*
X241523609Y-57505157D01*
X241428542Y-57519487D01*
X241428539Y-57519488D01*
X241428533Y-57519489D01*
X241184992Y-57594612D01*
X240955373Y-57705190D01*
X240955372Y-57705191D01*
X240744782Y-57848768D01*
X240557952Y-58022121D01*
X240557950Y-58022123D01*
X240399041Y-58221388D01*
X240271608Y-58442109D01*
X240178492Y-58679362D01*
X240177122Y-58683804D01*
X240175677Y-58683358D01*
X240144780Y-58738593D01*
X240083117Y-58771449D01*
X240013480Y-58765752D01*
X239957978Y-58723311D01*
X239939805Y-58683517D01*
X239938878Y-58683804D01*
X239937509Y-58679369D01*
X239937508Y-58679363D01*
X239844393Y-58442112D01*
X239716959Y-58221388D01*
X239558050Y-58022123D01*
X239371217Y-57848768D01*
X239160634Y-57705195D01*
X239160630Y-57705193D01*
X239160627Y-57705191D01*
X239160626Y-57705190D01*
X238931006Y-57594612D01*
X238931008Y-57594612D01*
X238687466Y-57519489D01*
X238687462Y-57519488D01*
X238687458Y-57519487D01*
X238566231Y-57501214D01*
X238435440Y-57481500D01*
X238435435Y-57481500D01*
X238180565Y-57481500D01*
X238180559Y-57481500D01*
X238023609Y-57505157D01*
X237928542Y-57519487D01*
X237928539Y-57519488D01*
X237928533Y-57519489D01*
X237684992Y-57594612D01*
X237455373Y-57705190D01*
X237455372Y-57705191D01*
X237244782Y-57848768D01*
X237057952Y-58022121D01*
X237057950Y-58022123D01*
X236899041Y-58221388D01*
X236771608Y-58442109D01*
X236678492Y-58679362D01*
X236677122Y-58683804D01*
X236675677Y-58683358D01*
X236644780Y-58738593D01*
X236583117Y-58771449D01*
X236513480Y-58765752D01*
X236457978Y-58723311D01*
X236439805Y-58683517D01*
X236438878Y-58683804D01*
X236437509Y-58679369D01*
X236437508Y-58679363D01*
X236344393Y-58442112D01*
X236216959Y-58221388D01*
X236058050Y-58022123D01*
X235871217Y-57848768D01*
X235660634Y-57705195D01*
X235660630Y-57705193D01*
X235660627Y-57705191D01*
X235660626Y-57705190D01*
X235431006Y-57594612D01*
X235431008Y-57594612D01*
X235187466Y-57519489D01*
X235187462Y-57519488D01*
X235187458Y-57519487D01*
X235066231Y-57501214D01*
X234935440Y-57481500D01*
X234935435Y-57481500D01*
X234680565Y-57481500D01*
X234680559Y-57481500D01*
X234523609Y-57505157D01*
X234428542Y-57519487D01*
X234428539Y-57519488D01*
X234428533Y-57519489D01*
X234184992Y-57594612D01*
X233955373Y-57705190D01*
X233955372Y-57705191D01*
X233744782Y-57848768D01*
X233557952Y-58022121D01*
X233557950Y-58022123D01*
X233399041Y-58221388D01*
X233271608Y-58442109D01*
X233178492Y-58679362D01*
X233178490Y-58679369D01*
X233121777Y-58927845D01*
X233102732Y-59181995D01*
X233102732Y-59182004D01*
X220790500Y-59182004D01*
X220790499Y-57934128D01*
X220784091Y-57874517D01*
X220774487Y-57848768D01*
X220733797Y-57739671D01*
X220733793Y-57739664D01*
X220647547Y-57624455D01*
X220647544Y-57624452D01*
X220532335Y-57538206D01*
X220532328Y-57538202D01*
X220397482Y-57487908D01*
X220397483Y-57487908D01*
X220337883Y-57481501D01*
X220337881Y-57481500D01*
X220337873Y-57481500D01*
X220337864Y-57481500D01*
X217842129Y-57481500D01*
X217842123Y-57481501D01*
X217782516Y-57487908D01*
X217647671Y-57538202D01*
X217647664Y-57538206D01*
X217532455Y-57624452D01*
X217532452Y-57624455D01*
X217446206Y-57739664D01*
X217446202Y-57739671D01*
X217395908Y-57874517D01*
X217389501Y-57934116D01*
X217389501Y-57934123D01*
X217389500Y-57934135D01*
X217389500Y-58457142D01*
X217369815Y-58524181D01*
X217317011Y-58569936D01*
X217247853Y-58579880D01*
X217184297Y-58550855D01*
X217150072Y-58502445D01*
X217136160Y-58466998D01*
X217126393Y-58442112D01*
X216998959Y-58221388D01*
X216840050Y-58022123D01*
X216653217Y-57848768D01*
X216442634Y-57705195D01*
X216442630Y-57705193D01*
X216442627Y-57705191D01*
X216442626Y-57705190D01*
X216213006Y-57594612D01*
X216213008Y-57594612D01*
X215969466Y-57519489D01*
X215969462Y-57519488D01*
X215969458Y-57519487D01*
X215848231Y-57501214D01*
X215717440Y-57481500D01*
X215717435Y-57481500D01*
X215462565Y-57481500D01*
X215462559Y-57481500D01*
X215305609Y-57505157D01*
X215210542Y-57519487D01*
X215210539Y-57519488D01*
X215210533Y-57519489D01*
X214966992Y-57594612D01*
X214737373Y-57705190D01*
X214737372Y-57705191D01*
X214526782Y-57848768D01*
X214339952Y-58022121D01*
X214339950Y-58022123D01*
X214181041Y-58221388D01*
X214053608Y-58442109D01*
X213960492Y-58679362D01*
X213959122Y-58683804D01*
X213957677Y-58683358D01*
X213926780Y-58738593D01*
X213865117Y-58771449D01*
X213795480Y-58765752D01*
X213739978Y-58723311D01*
X213721805Y-58683517D01*
X213720878Y-58683804D01*
X213719509Y-58679369D01*
X213719508Y-58679363D01*
X213626393Y-58442112D01*
X213498959Y-58221388D01*
X213340050Y-58022123D01*
X213153217Y-57848768D01*
X212942634Y-57705195D01*
X212942630Y-57705193D01*
X212942627Y-57705191D01*
X212942626Y-57705190D01*
X212713006Y-57594612D01*
X212713008Y-57594612D01*
X212469466Y-57519489D01*
X212469462Y-57519488D01*
X212469458Y-57519487D01*
X212348231Y-57501214D01*
X212217440Y-57481500D01*
X212217435Y-57481500D01*
X211962565Y-57481500D01*
X211962559Y-57481500D01*
X211805609Y-57505157D01*
X211710542Y-57519487D01*
X211710539Y-57519488D01*
X211710533Y-57519489D01*
X211466992Y-57594612D01*
X211237373Y-57705190D01*
X211237372Y-57705191D01*
X211026782Y-57848768D01*
X210839952Y-58022121D01*
X210839950Y-58022123D01*
X210681041Y-58221388D01*
X210553608Y-58442109D01*
X210460492Y-58679362D01*
X210459122Y-58683804D01*
X210457677Y-58683358D01*
X210426780Y-58738593D01*
X210365117Y-58771449D01*
X210295480Y-58765752D01*
X210239978Y-58723311D01*
X210221805Y-58683517D01*
X210220878Y-58683804D01*
X210219509Y-58679369D01*
X210219508Y-58679363D01*
X210126393Y-58442112D01*
X209998959Y-58221388D01*
X209840050Y-58022123D01*
X209653217Y-57848768D01*
X209442634Y-57705195D01*
X209442630Y-57705193D01*
X209442627Y-57705191D01*
X209442626Y-57705190D01*
X209213006Y-57594612D01*
X209213008Y-57594612D01*
X208969466Y-57519489D01*
X208969462Y-57519488D01*
X208969458Y-57519487D01*
X208848231Y-57501214D01*
X208717440Y-57481500D01*
X208717435Y-57481500D01*
X208462565Y-57481500D01*
X208462559Y-57481500D01*
X208305609Y-57505157D01*
X208210542Y-57519487D01*
X208210539Y-57519488D01*
X208210533Y-57519489D01*
X207966992Y-57594612D01*
X207737373Y-57705190D01*
X207737372Y-57705191D01*
X207526782Y-57848768D01*
X207339952Y-58022121D01*
X207339950Y-58022123D01*
X207181041Y-58221388D01*
X207053608Y-58442109D01*
X206960492Y-58679362D01*
X206960490Y-58679369D01*
X206903777Y-58927845D01*
X206884732Y-59181995D01*
X206884732Y-59182004D01*
X195601688Y-59182004D01*
X195604812Y-47936979D01*
X195606564Y-47916245D01*
X195621159Y-47830341D01*
X195621405Y-47828951D01*
X195648009Y-47683781D01*
X195650810Y-47671859D01*
X195689040Y-47539161D01*
X195689757Y-47536772D01*
X195732427Y-47399839D01*
X195736231Y-47389330D01*
X195789714Y-47260214D01*
X195791109Y-47256984D01*
X195849307Y-47127673D01*
X195853821Y-47118650D01*
X195921820Y-46995615D01*
X195924172Y-46991549D01*
X195997051Y-46870991D01*
X196002027Y-46863406D01*
X196083605Y-46748431D01*
X196087048Y-46743815D01*
X196173697Y-46633215D01*
X196178797Y-46627122D01*
X196272892Y-46521829D01*
X196277603Y-46516847D01*
X196376847Y-46417603D01*
X196381829Y-46412892D01*
X196487122Y-46318797D01*
X196493215Y-46313697D01*
X196603815Y-46227048D01*
X196608431Y-46223605D01*
X196723410Y-46142024D01*
X196730991Y-46137051D01*
X196851549Y-46064172D01*
X196855615Y-46061820D01*
X196978650Y-45993821D01*
X196987673Y-45989307D01*
X197116984Y-45931109D01*
X197120214Y-45929714D01*
X197249337Y-45876228D01*
X197259832Y-45872429D01*
X197396756Y-45829760D01*
X197399104Y-45829056D01*
X197421014Y-45822744D01*
X197455074Y-45817901D01*
X246175618Y-45720500D01*
X256536521Y-45720500D01*
X256543471Y-45720694D01*
G37*
G04 #@! TD.AperFunction*
M02*
