G04 #@! TF.GenerationSoftware,KiCad,Pcbnew,7.0.10*
G04 #@! TF.CreationDate,2024-03-17T21:58:49+02:00*
G04 #@! TF.ProjectId,MasterShield,4d617374-6572-4536-9869-656c642e6b69,rev?*
G04 #@! TF.SameCoordinates,Original*
G04 #@! TF.FileFunction,Copper,L4,Bot*
G04 #@! TF.FilePolarity,Positive*
%FSLAX46Y46*%
G04 Gerber Fmt 4.6, Leading zero omitted, Abs format (unit mm)*
G04 Created by KiCad (PCBNEW 7.0.10) date 2024-03-17 21:58:49*
%MOMM*%
%LPD*%
G01*
G04 APERTURE LIST*
G04 #@! TA.AperFunction,ComponentPad*
%ADD10R,2.400000X2.400000*%
G04 #@! TD*
G04 #@! TA.AperFunction,ComponentPad*
%ADD11C,2.400000*%
G04 #@! TD*
G04 #@! TA.AperFunction,ComponentPad*
%ADD12R,1.700000X1.700000*%
G04 #@! TD*
G04 #@! TA.AperFunction,ComponentPad*
%ADD13O,1.700000X1.700000*%
G04 #@! TD*
G04 #@! TA.AperFunction,ViaPad*
%ADD14C,0.800000*%
G04 #@! TD*
G04 #@! TA.AperFunction,Conductor*
%ADD15C,0.250000*%
G04 #@! TD*
G04 #@! TA.AperFunction,Conductor*
%ADD16C,0.300000*%
G04 #@! TD*
G04 #@! TA.AperFunction,Conductor*
%ADD17C,0.600000*%
G04 #@! TD*
G04 #@! TA.AperFunction,Conductor*
%ADD18C,1.000000*%
G04 #@! TD*
G04 APERTURE END LIST*
D10*
X245308000Y-59182000D03*
D11*
X241808000Y-59182000D03*
X238308000Y-59182000D03*
X234808000Y-59182000D03*
D10*
X219090000Y-59182000D03*
D11*
X215590000Y-59182000D03*
X212090000Y-59182000D03*
X208590000Y-59182000D03*
D10*
X205232000Y-108077000D03*
D11*
X205232000Y-111577000D03*
X205232000Y-115077000D03*
X205232000Y-118577000D03*
D10*
X249478800Y-118577000D03*
D11*
X249478800Y-115077000D03*
X249478800Y-111577000D03*
X249478800Y-108077000D03*
D12*
X251460000Y-101600000D03*
D13*
X251460000Y-99060000D03*
X251460000Y-96520000D03*
X251460000Y-93980000D03*
X251460000Y-91440000D03*
X251460000Y-88900000D03*
X251460000Y-86360000D03*
X251460000Y-83820000D03*
D12*
X251460000Y-80010000D03*
D13*
X251460000Y-77470000D03*
X251460000Y-74930000D03*
X251460000Y-72390000D03*
X251460000Y-69850000D03*
X251460000Y-67310000D03*
X251460000Y-64770000D03*
X251460000Y-62230000D03*
X251460000Y-59690000D03*
X251460000Y-57150000D03*
D12*
X203200000Y-88900000D03*
D13*
X203200000Y-91440000D03*
X203200000Y-93980000D03*
X203200000Y-96520000D03*
X203200000Y-99060000D03*
X203200000Y-101600000D03*
D12*
X203200000Y-66040000D03*
D13*
X203200000Y-68580000D03*
X203200000Y-71120000D03*
X203200000Y-73660000D03*
X203200000Y-76200000D03*
X203200000Y-78740000D03*
X203200000Y-81280000D03*
X203200000Y-83820000D03*
D14*
X232791000Y-116459000D03*
X221615000Y-113284000D03*
X226695000Y-58039000D03*
X220682412Y-102016855D03*
X221615000Y-110744000D03*
X212852000Y-67437000D03*
X234061000Y-116459000D03*
X243332000Y-72390000D03*
X245872000Y-63119000D03*
X220726000Y-103124000D03*
X227203000Y-68580000D03*
X224536000Y-122174000D03*
X221996000Y-120269000D03*
X206629000Y-66040000D03*
X221996000Y-118364000D03*
X225171000Y-64643000D03*
X245491000Y-90551000D03*
X245491000Y-95631000D03*
X221996000Y-124079000D03*
X219456000Y-124079000D03*
X227076000Y-101854000D03*
X220472000Y-89789000D03*
X224536000Y-118364000D03*
X221996000Y-122174000D03*
X219837000Y-110744000D03*
X227076000Y-122174000D03*
X237109000Y-69723000D03*
X227076000Y-118364000D03*
X225552000Y-88392000D03*
X224536000Y-124079000D03*
X234696000Y-103759000D03*
X227076000Y-124079000D03*
X227076000Y-103124000D03*
X211963000Y-77216000D03*
X209423000Y-69977000D03*
X224536000Y-120269000D03*
X227076000Y-120269000D03*
X219456000Y-122174000D03*
X217424000Y-88138000D03*
X227711000Y-108204000D03*
X245872000Y-68072000D03*
X228981000Y-72009000D03*
X219456000Y-118364000D03*
X223266000Y-113284000D03*
X233807000Y-77724000D03*
X219456000Y-120269000D03*
X223266000Y-110744000D03*
X234696000Y-101854000D03*
X219837000Y-113284000D03*
X219710000Y-74930000D03*
X220218000Y-71374000D03*
X230124000Y-74738000D03*
X218567000Y-68580000D03*
X214884000Y-79629000D03*
X232664000Y-77597000D03*
X247650000Y-82296000D03*
X219456000Y-88392000D03*
X245110000Y-82902472D03*
X236118400Y-89255600D03*
X225298000Y-77851000D03*
X240030000Y-86741000D03*
X240030000Y-85471000D03*
X245110000Y-85471000D03*
X240030000Y-91821000D03*
X240030000Y-90678000D03*
X234696000Y-110236000D03*
X234696000Y-112522000D03*
X240030000Y-96901000D03*
X240030000Y-95631000D03*
X245110000Y-96901000D03*
X227076000Y-80772000D03*
X211455000Y-82296000D03*
X227457000Y-75819000D03*
X220472000Y-79756000D03*
X226949000Y-73279000D03*
X223835978Y-85409022D03*
X226504500Y-84518500D03*
X222137396Y-82225000D03*
X222631000Y-89535000D03*
X246380000Y-83058000D03*
X236194600Y-88036400D03*
D15*
X230124000Y-74738000D02*
X230124000Y-76454000D01*
D16*
X219710000Y-74930000D02*
X220218000Y-74422000D01*
D15*
X248597000Y-81338000D02*
X248597000Y-98737000D01*
X232733000Y-79063000D02*
X246322000Y-79063000D01*
X230124000Y-76454000D02*
X232733000Y-79063000D01*
D16*
X220218000Y-74422000D02*
X220218000Y-71374000D01*
D15*
X246322000Y-79063000D02*
X248597000Y-81338000D01*
X248597000Y-98737000D02*
X251460000Y-101600000D01*
X249047000Y-98550604D02*
X249047000Y-81151604D01*
X246508396Y-78613000D02*
X232919396Y-78613000D01*
D16*
X216027000Y-68580000D02*
X218567000Y-68580000D01*
X214884000Y-69723000D02*
X216027000Y-68580000D01*
D15*
X249556396Y-99060000D02*
X249047000Y-98550604D01*
D16*
X214884000Y-79629000D02*
X214884000Y-69723000D01*
D15*
X232664000Y-78357604D02*
X232664000Y-77597000D01*
X232919396Y-78613000D02*
X232664000Y-78357604D01*
X251460000Y-99060000D02*
X249556396Y-99060000D01*
X249047000Y-81151604D02*
X246508396Y-78613000D01*
D16*
X221330000Y-89433604D02*
X220288396Y-88392000D01*
X223559396Y-89820000D02*
X222986396Y-90393000D01*
X232698396Y-79538000D02*
X223559396Y-88677000D01*
X223559396Y-88677000D02*
X223559396Y-89820000D01*
X220288396Y-88392000D02*
X219456000Y-88392000D01*
X247650000Y-81062752D02*
X246125248Y-79538000D01*
X221330000Y-89758000D02*
X221330000Y-89433604D01*
X246125248Y-79538000D02*
X232698396Y-79538000D01*
X247650000Y-82296000D02*
X247650000Y-81062752D01*
X221965000Y-90393000D02*
X221330000Y-89758000D01*
X222986396Y-90393000D02*
X221965000Y-90393000D01*
D17*
X244954472Y-83058000D02*
X239508229Y-83058000D01*
X239508229Y-83058000D02*
X235186600Y-87379629D01*
X245110000Y-82902472D02*
X244954472Y-83058000D01*
X235186600Y-87379629D02*
X235186600Y-88476200D01*
X235186600Y-88476200D02*
X235966000Y-89255600D01*
X235966000Y-89255600D02*
X236118400Y-89255600D01*
D18*
X240030000Y-104902000D02*
X240030000Y-98552000D01*
D16*
X227076000Y-78613000D02*
X227076000Y-80772000D01*
D18*
X240030000Y-92913200D02*
X240030000Y-86029800D01*
D17*
X240030000Y-96901000D02*
X245110000Y-96901000D01*
D18*
X240030000Y-92913200D02*
X240030000Y-90678000D01*
D16*
X226314000Y-77851000D02*
X227076000Y-78613000D01*
D18*
X240030000Y-98552000D02*
X240030000Y-96901000D01*
X245110000Y-85471000D02*
X240030000Y-85471000D01*
X234696000Y-110236000D02*
X240030000Y-104902000D01*
X234696000Y-110236000D02*
X234696000Y-112522000D01*
X240030000Y-86029800D02*
X240030000Y-85471000D01*
D16*
X225298000Y-77851000D02*
X226314000Y-77851000D01*
D18*
X240030000Y-98552000D02*
X240030000Y-92913200D01*
D16*
X219145396Y-82296000D02*
X225622396Y-75819000D01*
X211455000Y-82296000D02*
X219145396Y-82296000D01*
X225622396Y-75819000D02*
X227457000Y-75819000D01*
X220472000Y-79756000D02*
X226949000Y-73279000D01*
X225613978Y-85409022D02*
X223835978Y-85409022D01*
X226504500Y-84518500D02*
X225613978Y-85409022D01*
X222123000Y-86487000D02*
X222631000Y-86995000D01*
X222123000Y-82239396D02*
X222123000Y-86487000D01*
X222137396Y-82225000D02*
X222123000Y-82239396D01*
X222631000Y-86995000D02*
X222631000Y-89535000D01*
D17*
X236194600Y-88036400D02*
X236194600Y-87503000D01*
X236194600Y-87503000D02*
X239787127Y-83910472D01*
X245527528Y-83910472D02*
X246380000Y-83058000D01*
X239787127Y-83910472D02*
X245527528Y-83910472D01*
M02*
