G04 #@! TF.GenerationSoftware,KiCad,Pcbnew,7.0.10*
G04 #@! TF.CreationDate,2024-03-17T21:58:49+02:00*
G04 #@! TF.ProjectId,MasterShield,4d617374-6572-4536-9869-656c642e6b69,rev?*
G04 #@! TF.SameCoordinates,Original*
G04 #@! TF.FileFunction,Copper,L3,Inr*
G04 #@! TF.FilePolarity,Positive*
%FSLAX46Y46*%
G04 Gerber Fmt 4.6, Leading zero omitted, Abs format (unit mm)*
G04 Created by KiCad (PCBNEW 7.0.10) date 2024-03-17 21:58:49*
%MOMM*%
%LPD*%
G01*
G04 APERTURE LIST*
G04 #@! TA.AperFunction,ComponentPad*
%ADD10R,2.400000X2.400000*%
G04 #@! TD*
G04 #@! TA.AperFunction,ComponentPad*
%ADD11C,2.400000*%
G04 #@! TD*
G04 #@! TA.AperFunction,ComponentPad*
%ADD12R,1.700000X1.700000*%
G04 #@! TD*
G04 #@! TA.AperFunction,ComponentPad*
%ADD13O,1.700000X1.700000*%
G04 #@! TD*
G04 #@! TA.AperFunction,ViaPad*
%ADD14C,0.800000*%
G04 #@! TD*
G04 #@! TA.AperFunction,Conductor*
%ADD15C,0.600000*%
G04 #@! TD*
G04 #@! TA.AperFunction,Conductor*
%ADD16C,0.300000*%
G04 #@! TD*
G04 #@! TA.AperFunction,Conductor*
%ADD17C,0.900000*%
G04 #@! TD*
G04 APERTURE END LIST*
D10*
X245308000Y-59182000D03*
D11*
X241808000Y-59182000D03*
X238308000Y-59182000D03*
X234808000Y-59182000D03*
D10*
X219090000Y-59182000D03*
D11*
X215590000Y-59182000D03*
X212090000Y-59182000D03*
X208590000Y-59182000D03*
D10*
X205232000Y-108077000D03*
D11*
X205232000Y-111577000D03*
X205232000Y-115077000D03*
X205232000Y-118577000D03*
D10*
X249478800Y-118577000D03*
D11*
X249478800Y-115077000D03*
X249478800Y-111577000D03*
X249478800Y-108077000D03*
D12*
X251460000Y-101600000D03*
D13*
X251460000Y-99060000D03*
X251460000Y-96520000D03*
X251460000Y-93980000D03*
X251460000Y-91440000D03*
X251460000Y-88900000D03*
X251460000Y-86360000D03*
X251460000Y-83820000D03*
D12*
X251460000Y-80010000D03*
D13*
X251460000Y-77470000D03*
X251460000Y-74930000D03*
X251460000Y-72390000D03*
X251460000Y-69850000D03*
X251460000Y-67310000D03*
X251460000Y-64770000D03*
X251460000Y-62230000D03*
X251460000Y-59690000D03*
X251460000Y-57150000D03*
D12*
X203200000Y-88900000D03*
D13*
X203200000Y-91440000D03*
X203200000Y-93980000D03*
X203200000Y-96520000D03*
X203200000Y-99060000D03*
X203200000Y-101600000D03*
D12*
X203200000Y-66040000D03*
D13*
X203200000Y-68580000D03*
X203200000Y-71120000D03*
X203200000Y-73660000D03*
X203200000Y-76200000D03*
X203200000Y-78740000D03*
X203200000Y-81280000D03*
X203200000Y-83820000D03*
D14*
X232791000Y-116459000D03*
X221615000Y-113284000D03*
X226695000Y-58039000D03*
X220682412Y-102016855D03*
X221615000Y-110744000D03*
X212852000Y-67437000D03*
X234061000Y-116459000D03*
X243332000Y-72390000D03*
X245872000Y-63119000D03*
X220726000Y-103124000D03*
X227203000Y-68580000D03*
X224536000Y-122174000D03*
X221996000Y-120269000D03*
X206629000Y-66040000D03*
X221996000Y-118364000D03*
X225171000Y-64643000D03*
X245491000Y-90551000D03*
X245491000Y-95631000D03*
X221996000Y-124079000D03*
X219456000Y-124079000D03*
X227076000Y-101854000D03*
X220472000Y-89789000D03*
X224536000Y-118364000D03*
X221996000Y-122174000D03*
X219837000Y-110744000D03*
X227076000Y-122174000D03*
X237109000Y-69723000D03*
X227076000Y-118364000D03*
X225552000Y-88392000D03*
X224536000Y-124079000D03*
X234696000Y-103759000D03*
X227076000Y-124079000D03*
X227076000Y-103124000D03*
X211963000Y-77216000D03*
X209423000Y-69977000D03*
X224536000Y-120269000D03*
X227076000Y-120269000D03*
X219456000Y-122174000D03*
X217424000Y-88138000D03*
X227711000Y-108204000D03*
X245872000Y-68072000D03*
X228981000Y-72009000D03*
X219456000Y-118364000D03*
X223266000Y-113284000D03*
X233807000Y-77724000D03*
X219456000Y-120269000D03*
X223266000Y-110744000D03*
X234696000Y-101854000D03*
X219837000Y-113284000D03*
X219710000Y-74930000D03*
X220218000Y-71374000D03*
X230124000Y-74738000D03*
X218567000Y-68580000D03*
X214884000Y-79629000D03*
X232664000Y-77597000D03*
X247650000Y-82296000D03*
X219456000Y-88392000D03*
X245110000Y-82902472D03*
X236118400Y-89255600D03*
X225298000Y-77851000D03*
X240030000Y-86741000D03*
X240030000Y-85471000D03*
X245110000Y-85471000D03*
X240030000Y-91821000D03*
X240030000Y-90678000D03*
X234696000Y-110236000D03*
X234696000Y-112522000D03*
X240030000Y-96901000D03*
X240030000Y-95631000D03*
X245110000Y-96901000D03*
X227076000Y-80772000D03*
X211455000Y-82296000D03*
X227457000Y-75819000D03*
X220472000Y-79756000D03*
X226949000Y-73279000D03*
X223835978Y-85409022D03*
X226504500Y-84518500D03*
X222137396Y-82225000D03*
X222631000Y-89535000D03*
X246380000Y-83058000D03*
X236194600Y-88036400D03*
D15*
X219456000Y-118364000D02*
X219456000Y-124079000D01*
X220472000Y-89789000D02*
X219075000Y-89789000D01*
X219456000Y-122174000D02*
X227076000Y-122174000D01*
X222032528Y-109736000D02*
X220845000Y-109736000D01*
D16*
X234188000Y-72644000D02*
X233807000Y-72644000D01*
X211963000Y-78740000D02*
X203200000Y-78740000D01*
X206629000Y-67183000D02*
X206629000Y-66040000D01*
X211963000Y-77216000D02*
X211963000Y-78740000D01*
D15*
X223266000Y-110744000D02*
X223040528Y-110744000D01*
X223266000Y-110744000D02*
X224942400Y-109067600D01*
D17*
X227076000Y-101854000D02*
X227076000Y-107569000D01*
D15*
X205232000Y-108077000D02*
X205232000Y-111577000D01*
D16*
X247015000Y-68072000D02*
X245872000Y-68072000D01*
D15*
X225552000Y-88392000D02*
X233426000Y-88392000D01*
D16*
X233172000Y-72009000D02*
X228981000Y-72009000D01*
D17*
X246542200Y-118577000D02*
X249478800Y-118577000D01*
D15*
X220472000Y-89789000D02*
X221869000Y-88392000D01*
D16*
X215590000Y-59182000D02*
X215590000Y-63825000D01*
D15*
X224942400Y-109067600D02*
X226847400Y-109067600D01*
D16*
X238760000Y-68072000D02*
X237109000Y-69723000D01*
D15*
X233807000Y-90043000D02*
X233807000Y-88011000D01*
D16*
X228981000Y-72009000D02*
X227457000Y-72009000D01*
X250317000Y-64770000D02*
X247015000Y-68072000D01*
X209423000Y-69977000D02*
X211963000Y-72517000D01*
X245872000Y-68072000D02*
X241681000Y-68072000D01*
X241808000Y-67945000D02*
X241808000Y-59182000D01*
D17*
X246380000Y-97536000D02*
X246380000Y-96266000D01*
D15*
X226847400Y-109067600D02*
X227711000Y-108204000D01*
D16*
X225298000Y-69850000D02*
X225298000Y-64770000D01*
D15*
X245491000Y-95631000D02*
X245491000Y-90551000D01*
D16*
X237109000Y-69723000D02*
X234188000Y-72644000D01*
X227457000Y-72009000D02*
X225298000Y-69850000D01*
X203200000Y-78740000D02*
X203200000Y-81280000D01*
X228981000Y-72009000D02*
X228981000Y-77978000D01*
D15*
X221869000Y-88392000D02*
X225552000Y-88392000D01*
D16*
X241681000Y-68072000D02*
X238760000Y-68072000D01*
X233807000Y-77724000D02*
X233807000Y-72644000D01*
X215590000Y-63825000D02*
X216408000Y-64643000D01*
D15*
X219456000Y-118364000D02*
X227076000Y-118364000D01*
D17*
X245745000Y-108077000D02*
X249478800Y-108077000D01*
X245745000Y-117779800D02*
X246542200Y-118577000D01*
D16*
X225171000Y-64643000D02*
X225298000Y-64770000D01*
D15*
X219456000Y-124079000D02*
X227076000Y-124079000D01*
X245491000Y-92865528D02*
X236629528Y-92865528D01*
D17*
X245745000Y-101854000D02*
X234696000Y-101854000D01*
X245745000Y-98171000D02*
X246380000Y-97536000D01*
D16*
X251460000Y-64770000D02*
X250317000Y-64770000D01*
D17*
X245745000Y-101854000D02*
X245745000Y-98171000D01*
D16*
X233807000Y-72644000D02*
X233172000Y-72009000D01*
D17*
X227076000Y-107569000D02*
X227711000Y-108204000D01*
X234696000Y-101854000D02*
X227076000Y-101854000D01*
D16*
X216408000Y-64643000D02*
X225171000Y-64643000D01*
D15*
X233807000Y-88011000D02*
X233807000Y-77724000D01*
D17*
X245745000Y-108077000D02*
X245745000Y-117779800D01*
D16*
X228981000Y-77978000D02*
X228219000Y-78740000D01*
D17*
X245745000Y-95631000D02*
X245491000Y-95631000D01*
X245745000Y-108077000D02*
X245745000Y-101854000D01*
D16*
X241681000Y-68072000D02*
X241808000Y-67945000D01*
D15*
X223266000Y-110744000D02*
X223266000Y-114554000D01*
D16*
X228219000Y-78740000D02*
X211963000Y-78740000D01*
X211963000Y-72517000D02*
X211963000Y-77216000D01*
D15*
X219075000Y-89789000D02*
X217424000Y-88138000D01*
X233426000Y-88392000D02*
X233807000Y-88011000D01*
X219456000Y-120269000D02*
X227076000Y-120269000D01*
X223040528Y-110744000D02*
X222032528Y-109736000D01*
D17*
X246380000Y-96266000D02*
X245745000Y-95631000D01*
D15*
X220845000Y-109736000D02*
X219837000Y-110744000D01*
D16*
X209423000Y-69977000D02*
X206629000Y-67183000D01*
D15*
X219837000Y-110744000D02*
X219004000Y-111577000D01*
X236629528Y-92865528D02*
X233807000Y-90043000D01*
X223266000Y-114554000D02*
X219456000Y-118364000D01*
X219004000Y-111577000D02*
X205232000Y-111577000D01*
G04 #@! TA.AperFunction,Conductor*
G36*
X203450000Y-80844498D02*
G01*
X203342315Y-80795320D01*
X203235763Y-80780000D01*
X203164237Y-80780000D01*
X203057685Y-80795320D01*
X202950000Y-80844498D01*
X202950000Y-79175501D01*
X203057685Y-79224680D01*
X203164237Y-79240000D01*
X203235763Y-79240000D01*
X203342315Y-79224680D01*
X203450000Y-79175501D01*
X203450000Y-80844498D01*
G37*
G04 #@! TD.AperFunction*
G04 #@! TA.AperFunction,Conductor*
G36*
X256543471Y-45720694D02*
G01*
X256655527Y-45726987D01*
X256824353Y-45737199D01*
X256837591Y-45738720D01*
X256969665Y-45761160D01*
X256971007Y-45761397D01*
X257116210Y-45788007D01*
X257128153Y-45790814D01*
X257260788Y-45829025D01*
X257263279Y-45829773D01*
X257400146Y-45872423D01*
X257410682Y-45876237D01*
X257539736Y-45929693D01*
X257543063Y-45931130D01*
X257672306Y-45989298D01*
X257681372Y-45993834D01*
X257804331Y-46061791D01*
X257808500Y-46064202D01*
X257928988Y-46137040D01*
X257936592Y-46142027D01*
X258051525Y-46223575D01*
X258056223Y-46227078D01*
X258166752Y-46313672D01*
X258172906Y-46318823D01*
X258278133Y-46412859D01*
X258283187Y-46417638D01*
X258382360Y-46516811D01*
X258387139Y-46521865D01*
X258481175Y-46627092D01*
X258486326Y-46633246D01*
X258572904Y-46743754D01*
X258576423Y-46748473D01*
X258657971Y-46863406D01*
X258662958Y-46871010D01*
X258735796Y-46991498D01*
X258738207Y-46995667D01*
X258806164Y-47118626D01*
X258810712Y-47127716D01*
X258868832Y-47256853D01*
X258870317Y-47260291D01*
X258923756Y-47389303D01*
X258927580Y-47399866D01*
X258970214Y-47536684D01*
X258970983Y-47539246D01*
X259009180Y-47671831D01*
X259011995Y-47683807D01*
X259038578Y-47828865D01*
X259038857Y-47830446D01*
X259061275Y-47962385D01*
X259062801Y-47975670D01*
X259072997Y-48144242D01*
X259073028Y-48144774D01*
X259079305Y-48256526D01*
X259079500Y-48263480D01*
X259079500Y-134616519D01*
X259079305Y-134623473D01*
X259073028Y-134735224D01*
X259072997Y-134735756D01*
X259062801Y-134904328D01*
X259061275Y-134917613D01*
X259038857Y-135049552D01*
X259038578Y-135051133D01*
X259011995Y-135196191D01*
X259009180Y-135208167D01*
X258970983Y-135340752D01*
X258970214Y-135343314D01*
X258927580Y-135480132D01*
X258923756Y-135490695D01*
X258870317Y-135619707D01*
X258868832Y-135623145D01*
X258810712Y-135752282D01*
X258806164Y-135761372D01*
X258738207Y-135884331D01*
X258735796Y-135888500D01*
X258662958Y-136008988D01*
X258657971Y-136016592D01*
X258576423Y-136131525D01*
X258572904Y-136136244D01*
X258486326Y-136246752D01*
X258481175Y-136252906D01*
X258387139Y-136358133D01*
X258382360Y-136363187D01*
X258283187Y-136462360D01*
X258278133Y-136467139D01*
X258172906Y-136561175D01*
X258166752Y-136566326D01*
X258056244Y-136652904D01*
X258051525Y-136656423D01*
X257936592Y-136737971D01*
X257928988Y-136742958D01*
X257808500Y-136815796D01*
X257804331Y-136818207D01*
X257681372Y-136886164D01*
X257672282Y-136890712D01*
X257543145Y-136948832D01*
X257539707Y-136950317D01*
X257410695Y-137003756D01*
X257400132Y-137007580D01*
X257263314Y-137050214D01*
X257260752Y-137050983D01*
X257128167Y-137089180D01*
X257116191Y-137091995D01*
X256971133Y-137118578D01*
X256969552Y-137118857D01*
X256837613Y-137141275D01*
X256824328Y-137142801D01*
X256655756Y-137152997D01*
X256655224Y-137153028D01*
X256547513Y-137159078D01*
X256543471Y-137159305D01*
X256536519Y-137159500D01*
X198123481Y-137159500D01*
X198116528Y-137159305D01*
X198112045Y-137159053D01*
X198004774Y-137153028D01*
X198004242Y-137152997D01*
X197835670Y-137142801D01*
X197822385Y-137141275D01*
X197690446Y-137118857D01*
X197688865Y-137118578D01*
X197543807Y-137091995D01*
X197531831Y-137089180D01*
X197399246Y-137050983D01*
X197396684Y-137050214D01*
X197259866Y-137007580D01*
X197249303Y-137003756D01*
X197120291Y-136950317D01*
X197116873Y-136948841D01*
X196987713Y-136890710D01*
X196978626Y-136886164D01*
X196855667Y-136818207D01*
X196851498Y-136815796D01*
X196731010Y-136742958D01*
X196723406Y-136737971D01*
X196608473Y-136656423D01*
X196603754Y-136652904D01*
X196493246Y-136566326D01*
X196487092Y-136561175D01*
X196381865Y-136467139D01*
X196376811Y-136462360D01*
X196277638Y-136363187D01*
X196272859Y-136358133D01*
X196178823Y-136252906D01*
X196173672Y-136246752D01*
X196087078Y-136136223D01*
X196083575Y-136131525D01*
X196002027Y-136016592D01*
X195997040Y-136008988D01*
X195924202Y-135888500D01*
X195921791Y-135884331D01*
X195903272Y-135850824D01*
X195853832Y-135761369D01*
X195849298Y-135752306D01*
X195791130Y-135623063D01*
X195789693Y-135619736D01*
X195736237Y-135490682D01*
X195732423Y-135480146D01*
X195689773Y-135343279D01*
X195689015Y-135340752D01*
X195684307Y-135324409D01*
X195650814Y-135208153D01*
X195648007Y-135196210D01*
X195621397Y-135051007D01*
X195621160Y-135049665D01*
X195598720Y-134917591D01*
X195597199Y-134904353D01*
X195586983Y-134735453D01*
X195580695Y-134623472D01*
X195580500Y-134616520D01*
X195580500Y-118577004D01*
X203526732Y-118577004D01*
X203545777Y-118831154D01*
X203545778Y-118831157D01*
X203602492Y-119079637D01*
X203695607Y-119316888D01*
X203823041Y-119537612D01*
X203981950Y-119736877D01*
X204168783Y-119910232D01*
X204379366Y-120053805D01*
X204379371Y-120053807D01*
X204379372Y-120053808D01*
X204379373Y-120053809D01*
X204501328Y-120112538D01*
X204608992Y-120164387D01*
X204608993Y-120164387D01*
X204608996Y-120164389D01*
X204852542Y-120239513D01*
X205104565Y-120277500D01*
X205359435Y-120277500D01*
X205611458Y-120239513D01*
X205855004Y-120164389D01*
X206084634Y-120053805D01*
X206295217Y-119910232D01*
X206482050Y-119736877D01*
X206640959Y-119537612D01*
X206768393Y-119316888D01*
X206861508Y-119079637D01*
X206918222Y-118831157D01*
X206937268Y-118577000D01*
X206918222Y-118322843D01*
X206861508Y-118074363D01*
X206768393Y-117837112D01*
X206640959Y-117616388D01*
X206482050Y-117417123D01*
X206295217Y-117243768D01*
X206084634Y-117100195D01*
X206084630Y-117100193D01*
X206084627Y-117100191D01*
X206084626Y-117100190D01*
X205855006Y-116989612D01*
X205855008Y-116989612D01*
X205711970Y-116945491D01*
X205653711Y-116906921D01*
X205625553Y-116842976D01*
X205636437Y-116773959D01*
X205682906Y-116721782D01*
X205711970Y-116708509D01*
X205855004Y-116664389D01*
X206084634Y-116553805D01*
X206223687Y-116459000D01*
X231885540Y-116459000D01*
X231905326Y-116647256D01*
X231905327Y-116647259D01*
X231963818Y-116827277D01*
X231963821Y-116827284D01*
X232058467Y-116991216D01*
X232185129Y-117131888D01*
X232338265Y-117243148D01*
X232338270Y-117243151D01*
X232511192Y-117320142D01*
X232511197Y-117320144D01*
X232696354Y-117359500D01*
X232696355Y-117359500D01*
X232885644Y-117359500D01*
X232885646Y-117359500D01*
X233070803Y-117320144D01*
X233243730Y-117243151D01*
X233353117Y-117163676D01*
X233418920Y-117140198D01*
X233486974Y-117156023D01*
X233498871Y-117163668D01*
X233608266Y-117243148D01*
X233608270Y-117243151D01*
X233781192Y-117320142D01*
X233781197Y-117320144D01*
X233966354Y-117359500D01*
X233966355Y-117359500D01*
X234155644Y-117359500D01*
X234155646Y-117359500D01*
X234340803Y-117320144D01*
X234513730Y-117243151D01*
X234666871Y-117131888D01*
X234793533Y-116991216D01*
X234888179Y-116827284D01*
X234946674Y-116647256D01*
X234966460Y-116459000D01*
X234946674Y-116270744D01*
X234888179Y-116090716D01*
X234793533Y-115926784D01*
X234666871Y-115786112D01*
X234655432Y-115777801D01*
X234513734Y-115674851D01*
X234513729Y-115674848D01*
X234340807Y-115597857D01*
X234340802Y-115597855D01*
X234195001Y-115566865D01*
X234155646Y-115558500D01*
X233966354Y-115558500D01*
X233933897Y-115565398D01*
X233781197Y-115597855D01*
X233781192Y-115597857D01*
X233608270Y-115674848D01*
X233608265Y-115674851D01*
X233498885Y-115754321D01*
X233433079Y-115777801D01*
X233365025Y-115761975D01*
X233353115Y-115754321D01*
X233243734Y-115674851D01*
X233243729Y-115674848D01*
X233070807Y-115597857D01*
X233070802Y-115597855D01*
X232925001Y-115566865D01*
X232885646Y-115558500D01*
X232696354Y-115558500D01*
X232663897Y-115565398D01*
X232511197Y-115597855D01*
X232511192Y-115597857D01*
X232338270Y-115674848D01*
X232338265Y-115674851D01*
X232185129Y-115786111D01*
X232058466Y-115926785D01*
X231963821Y-116090715D01*
X231963818Y-116090722D01*
X231905327Y-116270740D01*
X231905326Y-116270744D01*
X231885540Y-116459000D01*
X206223687Y-116459000D01*
X206295217Y-116410232D01*
X206482050Y-116236877D01*
X206640959Y-116037612D01*
X206768393Y-115816888D01*
X206861508Y-115579637D01*
X206918222Y-115331157D01*
X206937268Y-115077004D01*
X247773532Y-115077004D01*
X247792577Y-115331154D01*
X247844467Y-115558500D01*
X247849292Y-115579637D01*
X247942407Y-115816888D01*
X248069841Y-116037612D01*
X248228750Y-116236877D01*
X248415583Y-116410232D01*
X248626166Y-116553805D01*
X248626169Y-116553806D01*
X248626170Y-116553807D01*
X248807810Y-116641280D01*
X248859669Y-116688102D01*
X248877982Y-116755529D01*
X248856934Y-116822153D01*
X248803208Y-116866822D01*
X248754008Y-116877000D01*
X248230955Y-116877000D01*
X248171427Y-116883401D01*
X248171420Y-116883403D01*
X248036713Y-116933645D01*
X248036706Y-116933649D01*
X247921612Y-117019809D01*
X247921609Y-117019812D01*
X247835449Y-117134906D01*
X247835445Y-117134913D01*
X247785203Y-117269620D01*
X247785201Y-117269627D01*
X247778800Y-117329155D01*
X247778800Y-118327000D01*
X248932918Y-118327000D01*
X248894244Y-118420369D01*
X248873623Y-118577000D01*
X248894244Y-118733631D01*
X248932918Y-118827000D01*
X247778800Y-118827000D01*
X247778800Y-119824844D01*
X247785201Y-119884372D01*
X247785203Y-119884379D01*
X247835445Y-120019086D01*
X247835449Y-120019093D01*
X247921609Y-120134187D01*
X247921612Y-120134190D01*
X248036706Y-120220350D01*
X248036713Y-120220354D01*
X248171420Y-120270596D01*
X248171427Y-120270598D01*
X248230955Y-120276999D01*
X248230972Y-120277000D01*
X249228800Y-120277000D01*
X249228800Y-119122881D01*
X249322169Y-119161556D01*
X249439477Y-119177000D01*
X249518123Y-119177000D01*
X249635431Y-119161556D01*
X249728800Y-119122881D01*
X249728800Y-120277000D01*
X250726628Y-120277000D01*
X250726644Y-120276999D01*
X250786172Y-120270598D01*
X250786179Y-120270596D01*
X250920886Y-120220354D01*
X250920893Y-120220350D01*
X251035987Y-120134190D01*
X251035990Y-120134187D01*
X251122150Y-120019093D01*
X251122154Y-120019086D01*
X251172396Y-119884379D01*
X251172398Y-119884372D01*
X251178799Y-119824844D01*
X251178800Y-119824827D01*
X251178800Y-118827000D01*
X250024682Y-118827000D01*
X250063356Y-118733631D01*
X250083977Y-118577000D01*
X250063356Y-118420369D01*
X250024682Y-118327000D01*
X251178800Y-118327000D01*
X251178800Y-117329172D01*
X251178799Y-117329155D01*
X251172398Y-117269627D01*
X251172396Y-117269620D01*
X251122154Y-117134913D01*
X251122150Y-117134906D01*
X251035990Y-117019812D01*
X251035987Y-117019809D01*
X250920893Y-116933649D01*
X250920886Y-116933645D01*
X250786179Y-116883403D01*
X250786172Y-116883401D01*
X250726644Y-116877000D01*
X250203592Y-116877000D01*
X250136553Y-116857315D01*
X250090798Y-116804511D01*
X250080854Y-116735353D01*
X250109879Y-116671797D01*
X250149790Y-116641280D01*
X250331434Y-116553805D01*
X250542017Y-116410232D01*
X250728850Y-116236877D01*
X250887759Y-116037612D01*
X251015193Y-115816888D01*
X251108308Y-115579637D01*
X251165022Y-115331157D01*
X251184068Y-115077000D01*
X251165022Y-114822843D01*
X251108308Y-114574363D01*
X251015193Y-114337112D01*
X250887759Y-114116388D01*
X250728850Y-113917123D01*
X250542017Y-113743768D01*
X250331434Y-113600195D01*
X250331430Y-113600193D01*
X250331427Y-113600191D01*
X250331426Y-113600190D01*
X250101806Y-113489612D01*
X250101808Y-113489612D01*
X249958770Y-113445491D01*
X249900511Y-113406921D01*
X249872353Y-113342976D01*
X249883237Y-113273959D01*
X249929706Y-113221782D01*
X249958770Y-113208509D01*
X250101804Y-113164389D01*
X250331434Y-113053805D01*
X250542017Y-112910232D01*
X250728850Y-112736877D01*
X250887759Y-112537612D01*
X251015193Y-112316888D01*
X251108308Y-112079637D01*
X251165022Y-111831157D01*
X251184068Y-111577000D01*
X251180407Y-111528151D01*
X251165022Y-111322845D01*
X251154379Y-111276216D01*
X251108308Y-111074363D01*
X251015193Y-110837112D01*
X250887759Y-110616388D01*
X250728850Y-110417123D01*
X250542017Y-110243768D01*
X250331434Y-110100195D01*
X250331430Y-110100193D01*
X250331427Y-110100191D01*
X250331426Y-110100190D01*
X250101809Y-109989613D01*
X250101806Y-109989612D01*
X250101804Y-109989611D01*
X250012041Y-109961922D01*
X249957922Y-109945229D01*
X249899664Y-109906658D01*
X249871506Y-109842713D01*
X249882390Y-109773697D01*
X249928859Y-109721520D01*
X249957924Y-109708247D01*
X250101622Y-109663922D01*
X250101623Y-109663921D01*
X250331176Y-109553376D01*
X250331177Y-109553375D01*
X250491985Y-109443738D01*
X249688020Y-108639772D01*
X249781388Y-108601099D01*
X249906725Y-108504925D01*
X250002899Y-108379589D01*
X250041573Y-108286220D01*
X250845344Y-109089992D01*
X250845346Y-109089991D01*
X250887344Y-109037330D01*
X251014741Y-108816671D01*
X251107826Y-108579494D01*
X251107831Y-108579477D01*
X251164526Y-108331079D01*
X251183567Y-108077004D01*
X251183567Y-108076995D01*
X251164526Y-107822920D01*
X251107831Y-107574522D01*
X251107826Y-107574505D01*
X251014741Y-107337328D01*
X251014742Y-107337328D01*
X250887345Y-107116672D01*
X250845345Y-107064006D01*
X250041572Y-107867779D01*
X250002899Y-107774412D01*
X249906725Y-107649075D01*
X249781388Y-107552901D01*
X249688019Y-107514226D01*
X250491985Y-106710260D01*
X250331184Y-106600628D01*
X250331176Y-106600623D01*
X250101623Y-106490078D01*
X250101625Y-106490078D01*
X249858147Y-106414975D01*
X249858141Y-106414973D01*
X249606204Y-106377000D01*
X249351395Y-106377000D01*
X249099458Y-106414973D01*
X249099452Y-106414975D01*
X248855975Y-106490078D01*
X248626422Y-106600625D01*
X248626409Y-106600632D01*
X248465613Y-106710259D01*
X249269580Y-107514226D01*
X249176212Y-107552901D01*
X249050875Y-107649075D01*
X248954701Y-107774411D01*
X248916026Y-107867780D01*
X248112252Y-107064006D01*
X248070257Y-107116667D01*
X247942858Y-107337328D01*
X247849773Y-107574505D01*
X247849768Y-107574522D01*
X247793073Y-107822920D01*
X247774033Y-108076995D01*
X247774033Y-108077004D01*
X247793073Y-108331079D01*
X247849768Y-108579477D01*
X247849773Y-108579494D01*
X247942858Y-108816671D01*
X247942857Y-108816671D01*
X248070254Y-109037327D01*
X248070261Y-109037338D01*
X248112252Y-109089991D01*
X248112253Y-109089992D01*
X248916026Y-108286219D01*
X248954701Y-108379588D01*
X249050875Y-108504925D01*
X249176212Y-108601099D01*
X249269579Y-108639772D01*
X248465613Y-109443738D01*
X248626416Y-109553371D01*
X248626424Y-109553376D01*
X248855975Y-109663921D01*
X248999676Y-109708247D01*
X249057935Y-109746817D01*
X249086092Y-109810762D01*
X249075209Y-109879779D01*
X249028741Y-109931955D01*
X248999677Y-109945229D01*
X248855790Y-109989613D01*
X248626173Y-110100190D01*
X248626172Y-110100191D01*
X248415582Y-110243768D01*
X248228752Y-110417121D01*
X248228750Y-110417123D01*
X248069841Y-110616388D01*
X247942408Y-110837109D01*
X247849292Y-111074362D01*
X247849290Y-111074369D01*
X247792577Y-111322845D01*
X247773532Y-111576995D01*
X247773532Y-111577004D01*
X247792577Y-111831154D01*
X247828783Y-111989785D01*
X247849292Y-112079637D01*
X247942407Y-112316888D01*
X248069841Y-112537612D01*
X248228750Y-112736877D01*
X248415583Y-112910232D01*
X248626166Y-113053805D01*
X248626171Y-113053807D01*
X248626172Y-113053808D01*
X248626173Y-113053809D01*
X248713245Y-113095740D01*
X248855792Y-113164387D01*
X248855793Y-113164387D01*
X248855796Y-113164389D01*
X248954671Y-113194888D01*
X248998829Y-113208509D01*
X249057088Y-113247080D01*
X249085246Y-113311024D01*
X249074362Y-113380041D01*
X249027893Y-113432218D01*
X248998829Y-113445491D01*
X248855792Y-113489612D01*
X248626173Y-113600190D01*
X248626172Y-113600191D01*
X248415582Y-113743768D01*
X248228752Y-113917121D01*
X248228750Y-113917123D01*
X248069841Y-114116388D01*
X247942408Y-114337109D01*
X247849292Y-114574362D01*
X247849290Y-114574369D01*
X247792577Y-114822845D01*
X247773532Y-115076995D01*
X247773532Y-115077004D01*
X206937268Y-115077004D01*
X206937268Y-115077000D01*
X206918222Y-114822843D01*
X206861508Y-114574363D01*
X206768393Y-114337112D01*
X206640959Y-114116388D01*
X206482050Y-113917123D01*
X206295217Y-113743768D01*
X206084634Y-113600195D01*
X206084630Y-113600193D01*
X206084627Y-113600191D01*
X206084626Y-113600190D01*
X205855009Y-113489613D01*
X205855006Y-113489612D01*
X205855004Y-113489611D01*
X205765241Y-113461922D01*
X205711122Y-113445229D01*
X205652864Y-113406658D01*
X205624706Y-113342713D01*
X205633965Y-113284000D01*
X220709540Y-113284000D01*
X220729326Y-113472256D01*
X220729327Y-113472259D01*
X220787818Y-113652277D01*
X220787821Y-113652284D01*
X220882467Y-113816216D01*
X221009129Y-113956888D01*
X221162265Y-114068148D01*
X221162270Y-114068151D01*
X221335192Y-114145142D01*
X221335197Y-114145144D01*
X221520354Y-114184500D01*
X221520355Y-114184500D01*
X221709644Y-114184500D01*
X221709646Y-114184500D01*
X221894803Y-114145144D01*
X222067730Y-114068151D01*
X222220871Y-113956888D01*
X222347533Y-113816216D01*
X222442179Y-113652284D01*
X222500674Y-113472256D01*
X222520460Y-113284000D01*
X222500674Y-113095744D01*
X222442179Y-112915716D01*
X222347533Y-112751784D01*
X222220871Y-112611112D01*
X222191802Y-112589992D01*
X222098219Y-112522000D01*
X233790540Y-112522000D01*
X233810326Y-112710256D01*
X233810327Y-112710259D01*
X233868818Y-112890277D01*
X233868821Y-112890284D01*
X233963467Y-113054216D01*
X234090129Y-113194888D01*
X234243265Y-113306148D01*
X234243270Y-113306151D01*
X234416192Y-113383142D01*
X234416197Y-113383144D01*
X234601354Y-113422500D01*
X234601355Y-113422500D01*
X234790644Y-113422500D01*
X234790646Y-113422500D01*
X234975803Y-113383144D01*
X235148730Y-113306151D01*
X235301871Y-113194888D01*
X235428533Y-113054216D01*
X235523179Y-112890284D01*
X235581674Y-112710256D01*
X235601460Y-112522000D01*
X235581674Y-112333744D01*
X235523179Y-112153716D01*
X235428533Y-111989784D01*
X235301871Y-111849112D01*
X235277051Y-111831079D01*
X235148734Y-111737851D01*
X235148729Y-111737848D01*
X234975807Y-111660857D01*
X234975802Y-111660855D01*
X234830001Y-111629865D01*
X234790646Y-111621500D01*
X234601354Y-111621500D01*
X234568897Y-111628398D01*
X234416197Y-111660855D01*
X234416192Y-111660857D01*
X234243270Y-111737848D01*
X234243265Y-111737851D01*
X234090129Y-111849111D01*
X233963466Y-111989785D01*
X233868821Y-112153715D01*
X233868818Y-112153722D01*
X233815873Y-112316671D01*
X233810326Y-112333744D01*
X233790540Y-112522000D01*
X222098219Y-112522000D01*
X222067734Y-112499851D01*
X222067729Y-112499848D01*
X221894807Y-112422857D01*
X221894802Y-112422855D01*
X221749001Y-112391865D01*
X221709646Y-112383500D01*
X221520354Y-112383500D01*
X221487897Y-112390398D01*
X221335197Y-112422855D01*
X221335192Y-112422857D01*
X221162270Y-112499848D01*
X221162265Y-112499851D01*
X221009129Y-112611111D01*
X220882466Y-112751785D01*
X220787821Y-112915715D01*
X220787818Y-112915722D01*
X220742820Y-113054214D01*
X220729326Y-113095744D01*
X220709540Y-113284000D01*
X205633965Y-113284000D01*
X205635590Y-113273697D01*
X205682059Y-113221520D01*
X205711124Y-113208247D01*
X205854822Y-113163922D01*
X205854823Y-113163921D01*
X206084376Y-113053376D01*
X206084377Y-113053375D01*
X206245185Y-112943738D01*
X205441220Y-112139772D01*
X205534588Y-112101099D01*
X205659925Y-112004925D01*
X205756099Y-111879589D01*
X205794773Y-111786220D01*
X206598544Y-112589992D01*
X206598546Y-112589991D01*
X206640544Y-112537330D01*
X206767941Y-112316671D01*
X206861026Y-112079494D01*
X206861031Y-112079477D01*
X206917726Y-111831079D01*
X206936767Y-111577004D01*
X206936767Y-111576995D01*
X206917726Y-111322920D01*
X206861031Y-111074522D01*
X206861026Y-111074505D01*
X206767941Y-110837328D01*
X206767942Y-110837328D01*
X206714059Y-110744000D01*
X220709540Y-110744000D01*
X220729326Y-110932256D01*
X220729327Y-110932259D01*
X220787818Y-111112277D01*
X220787821Y-111112284D01*
X220882467Y-111276216D01*
X220924520Y-111322920D01*
X221009129Y-111416888D01*
X221162265Y-111528148D01*
X221162270Y-111528151D01*
X221335192Y-111605142D01*
X221335197Y-111605144D01*
X221520354Y-111644500D01*
X221520355Y-111644500D01*
X221709644Y-111644500D01*
X221709646Y-111644500D01*
X221894803Y-111605144D01*
X222067730Y-111528151D01*
X222220871Y-111416888D01*
X222347533Y-111276216D01*
X222442179Y-111112284D01*
X222500674Y-110932256D01*
X222520460Y-110744000D01*
X222500674Y-110555744D01*
X222442179Y-110375716D01*
X222361514Y-110236000D01*
X233790540Y-110236000D01*
X233810326Y-110424256D01*
X233810327Y-110424259D01*
X233868818Y-110604277D01*
X233868821Y-110604284D01*
X233963467Y-110768216D01*
X234025696Y-110837328D01*
X234090129Y-110908888D01*
X234243265Y-111020148D01*
X234243270Y-111020151D01*
X234416192Y-111097142D01*
X234416197Y-111097144D01*
X234601354Y-111136500D01*
X234601355Y-111136500D01*
X234790644Y-111136500D01*
X234790646Y-111136500D01*
X234975803Y-111097144D01*
X235148730Y-111020151D01*
X235301871Y-110908888D01*
X235428533Y-110768216D01*
X235523179Y-110604284D01*
X235581674Y-110424256D01*
X235601460Y-110236000D01*
X235581674Y-110047744D01*
X235523179Y-109867716D01*
X235428533Y-109703784D01*
X235301871Y-109563112D01*
X235301870Y-109563111D01*
X235148734Y-109451851D01*
X235148729Y-109451848D01*
X234975807Y-109374857D01*
X234975802Y-109374855D01*
X234830001Y-109343865D01*
X234790646Y-109335500D01*
X234601354Y-109335500D01*
X234568897Y-109342398D01*
X234416197Y-109374855D01*
X234416192Y-109374857D01*
X234243270Y-109451848D01*
X234243265Y-109451851D01*
X234090129Y-109563111D01*
X233963466Y-109703785D01*
X233868821Y-109867715D01*
X233868818Y-109867722D01*
X233821706Y-110012720D01*
X233810326Y-110047744D01*
X233790540Y-110236000D01*
X222361514Y-110236000D01*
X222347533Y-110211784D01*
X222220871Y-110071112D01*
X222188708Y-110047744D01*
X222067734Y-109959851D01*
X222067729Y-109959848D01*
X221894807Y-109882857D01*
X221894802Y-109882855D01*
X221737822Y-109849489D01*
X221709646Y-109843500D01*
X221520354Y-109843500D01*
X221492178Y-109849489D01*
X221335197Y-109882855D01*
X221335192Y-109882857D01*
X221162270Y-109959848D01*
X221162265Y-109959851D01*
X221009129Y-110071111D01*
X220882466Y-110211785D01*
X220787821Y-110375715D01*
X220787818Y-110375722D01*
X220729327Y-110555740D01*
X220729326Y-110555744D01*
X220709540Y-110744000D01*
X206714059Y-110744000D01*
X206640545Y-110616672D01*
X206598545Y-110564006D01*
X205794772Y-111367779D01*
X205756099Y-111274412D01*
X205659925Y-111149075D01*
X205534588Y-111052901D01*
X205441219Y-111014226D01*
X206245185Y-110210260D01*
X206084384Y-110100628D01*
X206084376Y-110100623D01*
X205901840Y-110012720D01*
X205849980Y-109965898D01*
X205831667Y-109898471D01*
X205852714Y-109831847D01*
X205906441Y-109787179D01*
X205955641Y-109777000D01*
X206479828Y-109777000D01*
X206479844Y-109776999D01*
X206539372Y-109770598D01*
X206539379Y-109770596D01*
X206674086Y-109720354D01*
X206674093Y-109720350D01*
X206789187Y-109634190D01*
X206789190Y-109634187D01*
X206875350Y-109519093D01*
X206875354Y-109519086D01*
X206925596Y-109384379D01*
X206925598Y-109384372D01*
X206931999Y-109324844D01*
X206932000Y-109324827D01*
X206932000Y-108327000D01*
X205777882Y-108327000D01*
X205816556Y-108233631D01*
X205837177Y-108077000D01*
X205816556Y-107920369D01*
X205777882Y-107827000D01*
X206932000Y-107827000D01*
X206932000Y-106829172D01*
X206931999Y-106829155D01*
X206925598Y-106769627D01*
X206925596Y-106769620D01*
X206875354Y-106634913D01*
X206875350Y-106634906D01*
X206789190Y-106519812D01*
X206789187Y-106519809D01*
X206674093Y-106433649D01*
X206674086Y-106433645D01*
X206539379Y-106383403D01*
X206539372Y-106383401D01*
X206479844Y-106377000D01*
X205482000Y-106377000D01*
X205482000Y-107531118D01*
X205388631Y-107492444D01*
X205271323Y-107477000D01*
X205192677Y-107477000D01*
X205075369Y-107492444D01*
X204982000Y-107531118D01*
X204982000Y-106377000D01*
X203984155Y-106377000D01*
X203924627Y-106383401D01*
X203924620Y-106383403D01*
X203789913Y-106433645D01*
X203789906Y-106433649D01*
X203674812Y-106519809D01*
X203674809Y-106519812D01*
X203588649Y-106634906D01*
X203588645Y-106634913D01*
X203538403Y-106769620D01*
X203538401Y-106769627D01*
X203532000Y-106829155D01*
X203532000Y-107827000D01*
X204686118Y-107827000D01*
X204647444Y-107920369D01*
X204626823Y-108077000D01*
X204647444Y-108233631D01*
X204686118Y-108327000D01*
X203532000Y-108327000D01*
X203532000Y-109324844D01*
X203538401Y-109384372D01*
X203538403Y-109384379D01*
X203588645Y-109519086D01*
X203588649Y-109519093D01*
X203674809Y-109634187D01*
X203674812Y-109634190D01*
X203789906Y-109720350D01*
X203789913Y-109720354D01*
X203924620Y-109770596D01*
X203924627Y-109770598D01*
X203984155Y-109776999D01*
X203984172Y-109777000D01*
X204508359Y-109777000D01*
X204575398Y-109796685D01*
X204621153Y-109849489D01*
X204631097Y-109918647D01*
X204602072Y-109982203D01*
X204562160Y-110012720D01*
X204379622Y-110100625D01*
X204379609Y-110100632D01*
X204218813Y-110210259D01*
X205022780Y-111014226D01*
X204929412Y-111052901D01*
X204804075Y-111149075D01*
X204707901Y-111274411D01*
X204669226Y-111367780D01*
X203865452Y-110564006D01*
X203823457Y-110616667D01*
X203696058Y-110837328D01*
X203602973Y-111074505D01*
X203602968Y-111074522D01*
X203546273Y-111322920D01*
X203527233Y-111576995D01*
X203527233Y-111577004D01*
X203546273Y-111831079D01*
X203602968Y-112079477D01*
X203602973Y-112079494D01*
X203696058Y-112316671D01*
X203696057Y-112316671D01*
X203823454Y-112537327D01*
X203823461Y-112537338D01*
X203865452Y-112589991D01*
X203865453Y-112589992D01*
X204669226Y-111786219D01*
X204707901Y-111879588D01*
X204804075Y-112004925D01*
X204929412Y-112101099D01*
X205022779Y-112139772D01*
X204218813Y-112943738D01*
X204379616Y-113053371D01*
X204379624Y-113053376D01*
X204609175Y-113163921D01*
X204752876Y-113208247D01*
X204811135Y-113246817D01*
X204839292Y-113310762D01*
X204828409Y-113379779D01*
X204781941Y-113431955D01*
X204752877Y-113445229D01*
X204608990Y-113489613D01*
X204379373Y-113600190D01*
X204379372Y-113600191D01*
X204168782Y-113743768D01*
X203981952Y-113917121D01*
X203981950Y-113917123D01*
X203823041Y-114116388D01*
X203695608Y-114337109D01*
X203602492Y-114574362D01*
X203602490Y-114574369D01*
X203545777Y-114822845D01*
X203526732Y-115076995D01*
X203526732Y-115077004D01*
X203545777Y-115331154D01*
X203597667Y-115558500D01*
X203602492Y-115579637D01*
X203695607Y-115816888D01*
X203823041Y-116037612D01*
X203981950Y-116236877D01*
X204168783Y-116410232D01*
X204379366Y-116553805D01*
X204379371Y-116553807D01*
X204379372Y-116553808D01*
X204379373Y-116553809D01*
X204501328Y-116612538D01*
X204608992Y-116664387D01*
X204608993Y-116664387D01*
X204608996Y-116664389D01*
X204685872Y-116688102D01*
X204752029Y-116708509D01*
X204810288Y-116747080D01*
X204838446Y-116811024D01*
X204827562Y-116880041D01*
X204781093Y-116932218D01*
X204752029Y-116945491D01*
X204608992Y-116989612D01*
X204379373Y-117100190D01*
X204379372Y-117100191D01*
X204168782Y-117243768D01*
X203981952Y-117417121D01*
X203981950Y-117417123D01*
X203823041Y-117616388D01*
X203695608Y-117837109D01*
X203602492Y-118074362D01*
X203602490Y-118074369D01*
X203545777Y-118322845D01*
X203526732Y-118576995D01*
X203526732Y-118577004D01*
X195580500Y-118577004D01*
X195580500Y-101600000D01*
X201844341Y-101600000D01*
X201864936Y-101835403D01*
X201864938Y-101835413D01*
X201926094Y-102063655D01*
X201926096Y-102063659D01*
X201926097Y-102063663D01*
X201992057Y-102205114D01*
X202025965Y-102277830D01*
X202025967Y-102277834D01*
X202134281Y-102432521D01*
X202161505Y-102471401D01*
X202328599Y-102638495D01*
X202425384Y-102706265D01*
X202522165Y-102774032D01*
X202522167Y-102774033D01*
X202522170Y-102774035D01*
X202736337Y-102873903D01*
X202964592Y-102935063D01*
X203141034Y-102950500D01*
X203199999Y-102955659D01*
X203200000Y-102955659D01*
X203200001Y-102955659D01*
X203258966Y-102950500D01*
X203435408Y-102935063D01*
X203663663Y-102873903D01*
X203877830Y-102774035D01*
X204071401Y-102638495D01*
X204238495Y-102471401D01*
X204374035Y-102277830D01*
X204473903Y-102063663D01*
X204486445Y-102016855D01*
X219776952Y-102016855D01*
X219796738Y-102205111D01*
X219796739Y-102205114D01*
X219855230Y-102385132D01*
X219855233Y-102385139D01*
X219948207Y-102546175D01*
X219964680Y-102614075D01*
X219948207Y-102670175D01*
X219898821Y-102755714D01*
X219853955Y-102893797D01*
X219840326Y-102935744D01*
X219820540Y-103124000D01*
X219840326Y-103312256D01*
X219840327Y-103312259D01*
X219898818Y-103492277D01*
X219898821Y-103492284D01*
X219993467Y-103656216D01*
X220120129Y-103796888D01*
X220273265Y-103908148D01*
X220273270Y-103908151D01*
X220446192Y-103985142D01*
X220446197Y-103985144D01*
X220631354Y-104024500D01*
X220631355Y-104024500D01*
X220820644Y-104024500D01*
X220820646Y-104024500D01*
X221005803Y-103985144D01*
X221178730Y-103908151D01*
X221331871Y-103796888D01*
X221458533Y-103656216D01*
X221553179Y-103492284D01*
X221611674Y-103312256D01*
X221631460Y-103124000D01*
X221611674Y-102935744D01*
X221553179Y-102755716D01*
X221471403Y-102614075D01*
X221460204Y-102594678D01*
X221443731Y-102526777D01*
X221460202Y-102470681D01*
X221509591Y-102385139D01*
X221568086Y-102205111D01*
X221587872Y-102016855D01*
X221568086Y-101828599D01*
X221509591Y-101648571D01*
X221414945Y-101484639D01*
X221288283Y-101343967D01*
X221288282Y-101343966D01*
X221135146Y-101232706D01*
X221135141Y-101232703D01*
X220962219Y-101155712D01*
X220962214Y-101155710D01*
X220816413Y-101124720D01*
X220777058Y-101116355D01*
X220587766Y-101116355D01*
X220555309Y-101123253D01*
X220402609Y-101155710D01*
X220402604Y-101155712D01*
X220229682Y-101232703D01*
X220229677Y-101232706D01*
X220076541Y-101343966D01*
X219949878Y-101484640D01*
X219855233Y-101648570D01*
X219855230Y-101648577D01*
X219796739Y-101828595D01*
X219796738Y-101828599D01*
X219776952Y-102016855D01*
X204486445Y-102016855D01*
X204535063Y-101835408D01*
X204555659Y-101600000D01*
X204535063Y-101364592D01*
X204488626Y-101191285D01*
X204473905Y-101136344D01*
X204473904Y-101136343D01*
X204473903Y-101136337D01*
X204374035Y-100922171D01*
X204238495Y-100728599D01*
X204238494Y-100728597D01*
X204071402Y-100561506D01*
X204071396Y-100561501D01*
X203885842Y-100431575D01*
X203842217Y-100376998D01*
X203835023Y-100307500D01*
X203866546Y-100245145D01*
X203885842Y-100228425D01*
X203998054Y-100149853D01*
X204071401Y-100098495D01*
X204238495Y-99931401D01*
X204374035Y-99737830D01*
X204473903Y-99523663D01*
X204535063Y-99295408D01*
X204555659Y-99060000D01*
X250104341Y-99060000D01*
X250124936Y-99295403D01*
X250124938Y-99295413D01*
X250186094Y-99523655D01*
X250186096Y-99523659D01*
X250186097Y-99523663D01*
X250285965Y-99737830D01*
X250285967Y-99737834D01*
X250394281Y-99892521D01*
X250421501Y-99931396D01*
X250421506Y-99931402D01*
X250543430Y-100053326D01*
X250576915Y-100114649D01*
X250571931Y-100184341D01*
X250530059Y-100240274D01*
X250499083Y-100257189D01*
X250367669Y-100306203D01*
X250367664Y-100306206D01*
X250252455Y-100392452D01*
X250252452Y-100392455D01*
X250166206Y-100507664D01*
X250166202Y-100507671D01*
X250115908Y-100642517D01*
X250109501Y-100702116D01*
X250109501Y-100702123D01*
X250109500Y-100702135D01*
X250109500Y-102497870D01*
X250109501Y-102497876D01*
X250115908Y-102557483D01*
X250166202Y-102692328D01*
X250166206Y-102692335D01*
X250252452Y-102807544D01*
X250252455Y-102807547D01*
X250367664Y-102893793D01*
X250367671Y-102893797D01*
X250502517Y-102944091D01*
X250502516Y-102944091D01*
X250509444Y-102944835D01*
X250562127Y-102950500D01*
X252357872Y-102950499D01*
X252417483Y-102944091D01*
X252552331Y-102893796D01*
X252667546Y-102807546D01*
X252753796Y-102692331D01*
X252804091Y-102557483D01*
X252810500Y-102497873D01*
X252810499Y-100702128D01*
X252804091Y-100642517D01*
X252753796Y-100507669D01*
X252753795Y-100507668D01*
X252753793Y-100507664D01*
X252667547Y-100392455D01*
X252667544Y-100392452D01*
X252552335Y-100306206D01*
X252552328Y-100306202D01*
X252420917Y-100257189D01*
X252364983Y-100215318D01*
X252340566Y-100149853D01*
X252355418Y-100081580D01*
X252376563Y-100053332D01*
X252498495Y-99931401D01*
X252634035Y-99737830D01*
X252733903Y-99523663D01*
X252795063Y-99295408D01*
X252815659Y-99060000D01*
X252795063Y-98824592D01*
X252733903Y-98596337D01*
X252634035Y-98382171D01*
X252498495Y-98188599D01*
X252498494Y-98188597D01*
X252331402Y-98021506D01*
X252331396Y-98021501D01*
X252145842Y-97891575D01*
X252102217Y-97836998D01*
X252095023Y-97767500D01*
X252126546Y-97705145D01*
X252145842Y-97688425D01*
X252168026Y-97672891D01*
X252331401Y-97558495D01*
X252498495Y-97391401D01*
X252634035Y-97197830D01*
X252733903Y-96983663D01*
X252795063Y-96755408D01*
X252815659Y-96520000D01*
X252795063Y-96284592D01*
X252733903Y-96056337D01*
X252634035Y-95842171D01*
X252498495Y-95648599D01*
X252498494Y-95648597D01*
X252331402Y-95481506D01*
X252331396Y-95481501D01*
X252145842Y-95351575D01*
X252102217Y-95296998D01*
X252095023Y-95227500D01*
X252126546Y-95165145D01*
X252145842Y-95148425D01*
X252216735Y-95098785D01*
X252331401Y-95018495D01*
X252498495Y-94851401D01*
X252634035Y-94657830D01*
X252733903Y-94443663D01*
X252795063Y-94215408D01*
X252815659Y-93980000D01*
X252795063Y-93744592D01*
X252733903Y-93516337D01*
X252634035Y-93302171D01*
X252498495Y-93108599D01*
X252498494Y-93108597D01*
X252331402Y-92941506D01*
X252331396Y-92941501D01*
X252145842Y-92811575D01*
X252102217Y-92756998D01*
X252095023Y-92687500D01*
X252126546Y-92625145D01*
X252145842Y-92608425D01*
X252168026Y-92592891D01*
X252331401Y-92478495D01*
X252498495Y-92311401D01*
X252634035Y-92117830D01*
X252733903Y-91903663D01*
X252795063Y-91675408D01*
X252815659Y-91440000D01*
X252795063Y-91204592D01*
X252733903Y-90976337D01*
X252634035Y-90762171D01*
X252498495Y-90568599D01*
X252498494Y-90568597D01*
X252331402Y-90401506D01*
X252331396Y-90401501D01*
X252145842Y-90271575D01*
X252102217Y-90216998D01*
X252095023Y-90147500D01*
X252126546Y-90085145D01*
X252145842Y-90068425D01*
X252168026Y-90052891D01*
X252331401Y-89938495D01*
X252498495Y-89771401D01*
X252634035Y-89577830D01*
X252733903Y-89363663D01*
X252795063Y-89135408D01*
X252815659Y-88900000D01*
X252795063Y-88664592D01*
X252733903Y-88436337D01*
X252634035Y-88222171D01*
X252621133Y-88203744D01*
X252498494Y-88028597D01*
X252331402Y-87861506D01*
X252331396Y-87861501D01*
X252145842Y-87731575D01*
X252102217Y-87676998D01*
X252095023Y-87607500D01*
X252126546Y-87545145D01*
X252145842Y-87528425D01*
X252198576Y-87491500D01*
X252331401Y-87398495D01*
X252498495Y-87231401D01*
X252634035Y-87037830D01*
X252733903Y-86823663D01*
X252795063Y-86595408D01*
X252815659Y-86360000D01*
X252795063Y-86124592D01*
X252733903Y-85896337D01*
X252634035Y-85682171D01*
X252498495Y-85488599D01*
X252498494Y-85488597D01*
X252331402Y-85321506D01*
X252331396Y-85321501D01*
X252145842Y-85191575D01*
X252102217Y-85136998D01*
X252095023Y-85067500D01*
X252126546Y-85005145D01*
X252145842Y-84988425D01*
X252216735Y-84938785D01*
X252331401Y-84858495D01*
X252498495Y-84691401D01*
X252634035Y-84497830D01*
X252733903Y-84283663D01*
X252795063Y-84055408D01*
X252815659Y-83820000D01*
X252795063Y-83584592D01*
X252733903Y-83356337D01*
X252634035Y-83142171D01*
X252598017Y-83090731D01*
X252498494Y-82948597D01*
X252331402Y-82781506D01*
X252331395Y-82781501D01*
X252137834Y-82645967D01*
X252137830Y-82645965D01*
X252113348Y-82634549D01*
X251923663Y-82546097D01*
X251923659Y-82546096D01*
X251923655Y-82546094D01*
X251695413Y-82484938D01*
X251695403Y-82484936D01*
X251460001Y-82464341D01*
X251459999Y-82464341D01*
X251224596Y-82484936D01*
X251224586Y-82484938D01*
X250996344Y-82546094D01*
X250996335Y-82546098D01*
X250782171Y-82645964D01*
X250782169Y-82645965D01*
X250588597Y-82781505D01*
X250421505Y-82948597D01*
X250285965Y-83142169D01*
X250285964Y-83142171D01*
X250186098Y-83356335D01*
X250186094Y-83356344D01*
X250124938Y-83584586D01*
X250124936Y-83584596D01*
X250104341Y-83819999D01*
X250104341Y-83820000D01*
X250124936Y-84055403D01*
X250124938Y-84055413D01*
X250186094Y-84283655D01*
X250186096Y-84283659D01*
X250186097Y-84283663D01*
X250285965Y-84497830D01*
X250285967Y-84497834D01*
X250421501Y-84691395D01*
X250421506Y-84691402D01*
X250588597Y-84858493D01*
X250588603Y-84858498D01*
X250774158Y-84988425D01*
X250817783Y-85043002D01*
X250824977Y-85112500D01*
X250793454Y-85174855D01*
X250774158Y-85191575D01*
X250588597Y-85321505D01*
X250421505Y-85488597D01*
X250285965Y-85682169D01*
X250285964Y-85682171D01*
X250186098Y-85896335D01*
X250186094Y-85896344D01*
X250124938Y-86124586D01*
X250124936Y-86124596D01*
X250104341Y-86359999D01*
X250104341Y-86360000D01*
X250124936Y-86595403D01*
X250124938Y-86595413D01*
X250186094Y-86823655D01*
X250186096Y-86823659D01*
X250186097Y-86823663D01*
X250285965Y-87037830D01*
X250285967Y-87037834D01*
X250421501Y-87231395D01*
X250421506Y-87231402D01*
X250588597Y-87398493D01*
X250588603Y-87398498D01*
X250774158Y-87528425D01*
X250817783Y-87583002D01*
X250824977Y-87652500D01*
X250793454Y-87714855D01*
X250774158Y-87731575D01*
X250588597Y-87861505D01*
X250421505Y-88028597D01*
X250285965Y-88222169D01*
X250285964Y-88222171D01*
X250186098Y-88436335D01*
X250186094Y-88436344D01*
X250124938Y-88664586D01*
X250124936Y-88664596D01*
X250104341Y-88899999D01*
X250104341Y-88900000D01*
X250124936Y-89135403D01*
X250124938Y-89135413D01*
X250186094Y-89363655D01*
X250186096Y-89363659D01*
X250186097Y-89363663D01*
X250223492Y-89443856D01*
X250285965Y-89577830D01*
X250285967Y-89577834D01*
X250421501Y-89771395D01*
X250421506Y-89771402D01*
X250588597Y-89938493D01*
X250588603Y-89938498D01*
X250774158Y-90068425D01*
X250817783Y-90123002D01*
X250824977Y-90192500D01*
X250793454Y-90254855D01*
X250774158Y-90271575D01*
X250588597Y-90401505D01*
X250421505Y-90568597D01*
X250285965Y-90762169D01*
X250285964Y-90762171D01*
X250186098Y-90976335D01*
X250186094Y-90976344D01*
X250124938Y-91204586D01*
X250124936Y-91204596D01*
X250104341Y-91439999D01*
X250104341Y-91440000D01*
X250124936Y-91675403D01*
X250124938Y-91675413D01*
X250186094Y-91903655D01*
X250186096Y-91903659D01*
X250186097Y-91903663D01*
X250285965Y-92117830D01*
X250285967Y-92117834D01*
X250421501Y-92311395D01*
X250421506Y-92311402D01*
X250588597Y-92478493D01*
X250588603Y-92478498D01*
X250774158Y-92608425D01*
X250817783Y-92663002D01*
X250824977Y-92732500D01*
X250793454Y-92794855D01*
X250774158Y-92811575D01*
X250588597Y-92941505D01*
X250421505Y-93108597D01*
X250285965Y-93302169D01*
X250285964Y-93302171D01*
X250186098Y-93516335D01*
X250186094Y-93516344D01*
X250124938Y-93744586D01*
X250124936Y-93744596D01*
X250104341Y-93979999D01*
X250104341Y-93980000D01*
X250124936Y-94215403D01*
X250124938Y-94215413D01*
X250186094Y-94443655D01*
X250186096Y-94443659D01*
X250186097Y-94443663D01*
X250285965Y-94657830D01*
X250285967Y-94657834D01*
X250421501Y-94851395D01*
X250421506Y-94851402D01*
X250588597Y-95018493D01*
X250588603Y-95018498D01*
X250774158Y-95148425D01*
X250817783Y-95203002D01*
X250824977Y-95272500D01*
X250793454Y-95334855D01*
X250774158Y-95351575D01*
X250588597Y-95481505D01*
X250421505Y-95648597D01*
X250285965Y-95842169D01*
X250285964Y-95842171D01*
X250186098Y-96056335D01*
X250186094Y-96056344D01*
X250124938Y-96284586D01*
X250124936Y-96284596D01*
X250104341Y-96519999D01*
X250104341Y-96520000D01*
X250124936Y-96755403D01*
X250124938Y-96755413D01*
X250186094Y-96983655D01*
X250186096Y-96983659D01*
X250186097Y-96983663D01*
X250285965Y-97197830D01*
X250285967Y-97197834D01*
X250421501Y-97391395D01*
X250421506Y-97391402D01*
X250588597Y-97558493D01*
X250588603Y-97558498D01*
X250774158Y-97688425D01*
X250817783Y-97743002D01*
X250824977Y-97812500D01*
X250793454Y-97874855D01*
X250774158Y-97891575D01*
X250588597Y-98021505D01*
X250421505Y-98188597D01*
X250285965Y-98382169D01*
X250285964Y-98382171D01*
X250186098Y-98596335D01*
X250186094Y-98596344D01*
X250124938Y-98824586D01*
X250124936Y-98824596D01*
X250104341Y-99059999D01*
X250104341Y-99060000D01*
X204555659Y-99060000D01*
X204535063Y-98824592D01*
X204473903Y-98596337D01*
X204374035Y-98382171D01*
X204238495Y-98188599D01*
X204238494Y-98188597D01*
X204071402Y-98021506D01*
X204071396Y-98021501D01*
X203885842Y-97891575D01*
X203842217Y-97836998D01*
X203835023Y-97767500D01*
X203866546Y-97705145D01*
X203885842Y-97688425D01*
X203908026Y-97672891D01*
X204071401Y-97558495D01*
X204238495Y-97391401D01*
X204374035Y-97197830D01*
X204473903Y-96983663D01*
X204496052Y-96901000D01*
X239124540Y-96901000D01*
X239144326Y-97089256D01*
X239144327Y-97089259D01*
X239202818Y-97269277D01*
X239202821Y-97269284D01*
X239297467Y-97433216D01*
X239410267Y-97558493D01*
X239424129Y-97573888D01*
X239577265Y-97685148D01*
X239577270Y-97685151D01*
X239750192Y-97762142D01*
X239750197Y-97762144D01*
X239935354Y-97801500D01*
X239935355Y-97801500D01*
X240124644Y-97801500D01*
X240124646Y-97801500D01*
X240309803Y-97762144D01*
X240482730Y-97685151D01*
X240635871Y-97573888D01*
X240762533Y-97433216D01*
X240857179Y-97269284D01*
X240915674Y-97089256D01*
X240935460Y-96901000D01*
X244204540Y-96901000D01*
X244224326Y-97089256D01*
X244224327Y-97089259D01*
X244282818Y-97269277D01*
X244282821Y-97269284D01*
X244377467Y-97433216D01*
X244490267Y-97558493D01*
X244504129Y-97573888D01*
X244657265Y-97685148D01*
X244657270Y-97685151D01*
X244830192Y-97762142D01*
X244830197Y-97762144D01*
X245015354Y-97801500D01*
X245015355Y-97801500D01*
X245204644Y-97801500D01*
X245204646Y-97801500D01*
X245389803Y-97762144D01*
X245562730Y-97685151D01*
X245715871Y-97573888D01*
X245842533Y-97433216D01*
X245937179Y-97269284D01*
X245995674Y-97089256D01*
X246015460Y-96901000D01*
X245995674Y-96712744D01*
X245937179Y-96532716D01*
X245842533Y-96368784D01*
X245715871Y-96228112D01*
X245715870Y-96228111D01*
X245562734Y-96116851D01*
X245562729Y-96116848D01*
X245389807Y-96039857D01*
X245389802Y-96039855D01*
X245244001Y-96008865D01*
X245204646Y-96000500D01*
X245015354Y-96000500D01*
X244982897Y-96007398D01*
X244830197Y-96039855D01*
X244830192Y-96039857D01*
X244657270Y-96116848D01*
X244657265Y-96116851D01*
X244504129Y-96228111D01*
X244377466Y-96368785D01*
X244282821Y-96532715D01*
X244282818Y-96532722D01*
X244224327Y-96712740D01*
X244224326Y-96712744D01*
X244204540Y-96901000D01*
X240935460Y-96901000D01*
X240915674Y-96712744D01*
X240857179Y-96532716D01*
X240762533Y-96368784D01*
X240744693Y-96348971D01*
X240714464Y-96285981D01*
X240723089Y-96216646D01*
X240744694Y-96183028D01*
X240762533Y-96163216D01*
X240857179Y-95999284D01*
X240915674Y-95819256D01*
X240935460Y-95631000D01*
X240915674Y-95442744D01*
X240857179Y-95262716D01*
X240762533Y-95098784D01*
X240635871Y-94958112D01*
X240635870Y-94958111D01*
X240482734Y-94846851D01*
X240482729Y-94846848D01*
X240309807Y-94769857D01*
X240309802Y-94769855D01*
X240164001Y-94738865D01*
X240124646Y-94730500D01*
X239935354Y-94730500D01*
X239902897Y-94737398D01*
X239750197Y-94769855D01*
X239750192Y-94769857D01*
X239577270Y-94846848D01*
X239577265Y-94846851D01*
X239424129Y-94958111D01*
X239297466Y-95098785D01*
X239202821Y-95262715D01*
X239202818Y-95262722D01*
X239144327Y-95442740D01*
X239144326Y-95442744D01*
X239124540Y-95631000D01*
X239144326Y-95819256D01*
X239144327Y-95819259D01*
X239202818Y-95999277D01*
X239202821Y-95999284D01*
X239297467Y-96163216D01*
X239307806Y-96174699D01*
X239315307Y-96183030D01*
X239345535Y-96246022D01*
X239336909Y-96315357D01*
X239315307Y-96348970D01*
X239297466Y-96368785D01*
X239202821Y-96532715D01*
X239202818Y-96532722D01*
X239144327Y-96712740D01*
X239144326Y-96712744D01*
X239124540Y-96901000D01*
X204496052Y-96901000D01*
X204535063Y-96755408D01*
X204555659Y-96520000D01*
X204535063Y-96284592D01*
X204473903Y-96056337D01*
X204374035Y-95842171D01*
X204238495Y-95648599D01*
X204238494Y-95648597D01*
X204071402Y-95481506D01*
X204071396Y-95481501D01*
X203885842Y-95351575D01*
X203842217Y-95296998D01*
X203835023Y-95227500D01*
X203866546Y-95165145D01*
X203885842Y-95148425D01*
X203956735Y-95098785D01*
X204071401Y-95018495D01*
X204238495Y-94851401D01*
X204374035Y-94657830D01*
X204473903Y-94443663D01*
X204535063Y-94215408D01*
X204555659Y-93980000D01*
X204535063Y-93744592D01*
X204473903Y-93516337D01*
X204374035Y-93302171D01*
X204238495Y-93108599D01*
X204238494Y-93108597D01*
X204071402Y-92941506D01*
X204071396Y-92941501D01*
X203885842Y-92811575D01*
X203842217Y-92756998D01*
X203835023Y-92687500D01*
X203866546Y-92625145D01*
X203885842Y-92608425D01*
X203908026Y-92592891D01*
X204071401Y-92478495D01*
X204238495Y-92311401D01*
X204374035Y-92117830D01*
X204473903Y-91903663D01*
X204496052Y-91821000D01*
X239124540Y-91821000D01*
X239144326Y-92009256D01*
X239144327Y-92009259D01*
X239202818Y-92189277D01*
X239202821Y-92189284D01*
X239297467Y-92353216D01*
X239410267Y-92478493D01*
X239424129Y-92493888D01*
X239577265Y-92605148D01*
X239577270Y-92605151D01*
X239750192Y-92682142D01*
X239750197Y-92682144D01*
X239935354Y-92721500D01*
X239935355Y-92721500D01*
X240124644Y-92721500D01*
X240124646Y-92721500D01*
X240309803Y-92682144D01*
X240482730Y-92605151D01*
X240635871Y-92493888D01*
X240762533Y-92353216D01*
X240857179Y-92189284D01*
X240915674Y-92009256D01*
X240935460Y-91821000D01*
X240915674Y-91632744D01*
X240857179Y-91452716D01*
X240775647Y-91311499D01*
X240759175Y-91243600D01*
X240775648Y-91187500D01*
X240857179Y-91046284D01*
X240915674Y-90866256D01*
X240935460Y-90678000D01*
X240915674Y-90489744D01*
X240857179Y-90309716D01*
X240762533Y-90145784D01*
X240635871Y-90005112D01*
X240618285Y-89992335D01*
X240482734Y-89893851D01*
X240482729Y-89893848D01*
X240309807Y-89816857D01*
X240309802Y-89816855D01*
X240164001Y-89785865D01*
X240124646Y-89777500D01*
X239935354Y-89777500D01*
X239902897Y-89784398D01*
X239750197Y-89816855D01*
X239750192Y-89816857D01*
X239577270Y-89893848D01*
X239577265Y-89893851D01*
X239424129Y-90005111D01*
X239297466Y-90145785D01*
X239202821Y-90309715D01*
X239202818Y-90309722D01*
X239158320Y-90446674D01*
X239144326Y-90489744D01*
X239124540Y-90678000D01*
X239144326Y-90866256D01*
X239144327Y-90866259D01*
X239202818Y-91046277D01*
X239202820Y-91046281D01*
X239202821Y-91046284D01*
X239250712Y-91129235D01*
X239284352Y-91187501D01*
X239300824Y-91255401D01*
X239284352Y-91311499D01*
X239202820Y-91452718D01*
X239202818Y-91452722D01*
X239144327Y-91632740D01*
X239144326Y-91632744D01*
X239124540Y-91821000D01*
X204496052Y-91821000D01*
X204535063Y-91675408D01*
X204555659Y-91440000D01*
X204535063Y-91204592D01*
X204473903Y-90976337D01*
X204374035Y-90762171D01*
X204238495Y-90568599D01*
X204116567Y-90446671D01*
X204083084Y-90385351D01*
X204088068Y-90315659D01*
X204129939Y-90259725D01*
X204160915Y-90242810D01*
X204292331Y-90193796D01*
X204407546Y-90107546D01*
X204493796Y-89992331D01*
X204544091Y-89857483D01*
X204550500Y-89797873D01*
X204550500Y-89535000D01*
X221725540Y-89535000D01*
X221745326Y-89723256D01*
X221745327Y-89723259D01*
X221803818Y-89903277D01*
X221803821Y-89903284D01*
X221898467Y-90067216D01*
X222012441Y-90193797D01*
X222025129Y-90207888D01*
X222178265Y-90319148D01*
X222178270Y-90319151D01*
X222351192Y-90396142D01*
X222351197Y-90396144D01*
X222536354Y-90435500D01*
X222536355Y-90435500D01*
X222725644Y-90435500D01*
X222725646Y-90435500D01*
X222910803Y-90396144D01*
X223083730Y-90319151D01*
X223236871Y-90207888D01*
X223363533Y-90067216D01*
X223458179Y-89903284D01*
X223516674Y-89723256D01*
X223536460Y-89535000D01*
X223516674Y-89346744D01*
X223487059Y-89255600D01*
X235212940Y-89255600D01*
X235232726Y-89443856D01*
X235232727Y-89443859D01*
X235291218Y-89623877D01*
X235291221Y-89623884D01*
X235385867Y-89787816D01*
X235412015Y-89816856D01*
X235512529Y-89928488D01*
X235665665Y-90039748D01*
X235665670Y-90039751D01*
X235838592Y-90116742D01*
X235838597Y-90116744D01*
X236023754Y-90156100D01*
X236023755Y-90156100D01*
X236213044Y-90156100D01*
X236213046Y-90156100D01*
X236398203Y-90116744D01*
X236571130Y-90039751D01*
X236724271Y-89928488D01*
X236850933Y-89787816D01*
X236945579Y-89623884D01*
X237004074Y-89443856D01*
X237023860Y-89255600D01*
X237004074Y-89067344D01*
X236945579Y-88887316D01*
X236871303Y-88758667D01*
X236854831Y-88690768D01*
X236877684Y-88624741D01*
X236886534Y-88613704D01*
X236927133Y-88568616D01*
X237021779Y-88404684D01*
X237080274Y-88224656D01*
X237100060Y-88036400D01*
X237080274Y-87848144D01*
X237021779Y-87668116D01*
X236927133Y-87504184D01*
X236800471Y-87363512D01*
X236800470Y-87363511D01*
X236647334Y-87252251D01*
X236647329Y-87252248D01*
X236474407Y-87175257D01*
X236474402Y-87175255D01*
X236328601Y-87144265D01*
X236289246Y-87135900D01*
X236099954Y-87135900D01*
X236067497Y-87142798D01*
X235914797Y-87175255D01*
X235914792Y-87175257D01*
X235741870Y-87252248D01*
X235741865Y-87252251D01*
X235588729Y-87363511D01*
X235462066Y-87504185D01*
X235367421Y-87668115D01*
X235367418Y-87668122D01*
X235308927Y-87848140D01*
X235308926Y-87848144D01*
X235289140Y-88036400D01*
X235308926Y-88224656D01*
X235308927Y-88224659D01*
X235367418Y-88404677D01*
X235367421Y-88404684D01*
X235441695Y-88533330D01*
X235458168Y-88601230D01*
X235435315Y-88667257D01*
X235426459Y-88678301D01*
X235385866Y-88723385D01*
X235291221Y-88887315D01*
X235291218Y-88887322D01*
X235233524Y-89064888D01*
X235232726Y-89067344D01*
X235212940Y-89255600D01*
X223487059Y-89255600D01*
X223458179Y-89166716D01*
X223363533Y-89002784D01*
X223236871Y-88862112D01*
X223236870Y-88862111D01*
X223083734Y-88750851D01*
X223083729Y-88750848D01*
X222910807Y-88673857D01*
X222910802Y-88673855D01*
X222765001Y-88642865D01*
X222725646Y-88634500D01*
X222536354Y-88634500D01*
X222503897Y-88641398D01*
X222351197Y-88673855D01*
X222351192Y-88673857D01*
X222178270Y-88750848D01*
X222178265Y-88750851D01*
X222025129Y-88862111D01*
X221898466Y-89002785D01*
X221803821Y-89166715D01*
X221803818Y-89166722D01*
X221762951Y-89292500D01*
X221745326Y-89346744D01*
X221725540Y-89535000D01*
X204550500Y-89535000D01*
X204550499Y-88392000D01*
X218550540Y-88392000D01*
X218570326Y-88580256D01*
X218570327Y-88580259D01*
X218628818Y-88760277D01*
X218628821Y-88760284D01*
X218723467Y-88924216D01*
X218794211Y-89002785D01*
X218850129Y-89064888D01*
X219003265Y-89176148D01*
X219003270Y-89176151D01*
X219176192Y-89253142D01*
X219176197Y-89253144D01*
X219361354Y-89292500D01*
X219361355Y-89292500D01*
X219550644Y-89292500D01*
X219550646Y-89292500D01*
X219735803Y-89253144D01*
X219908730Y-89176151D01*
X220061871Y-89064888D01*
X220188533Y-88924216D01*
X220283179Y-88760284D01*
X220341674Y-88580256D01*
X220361460Y-88392000D01*
X220341674Y-88203744D01*
X220283179Y-88023716D01*
X220188533Y-87859784D01*
X220061871Y-87719112D01*
X220025181Y-87692455D01*
X219908734Y-87607851D01*
X219908729Y-87607848D01*
X219735807Y-87530857D01*
X219735802Y-87530855D01*
X219590001Y-87499865D01*
X219550646Y-87491500D01*
X219361354Y-87491500D01*
X219328897Y-87498398D01*
X219176197Y-87530855D01*
X219176192Y-87530857D01*
X219003270Y-87607848D01*
X219003265Y-87607851D01*
X218850129Y-87719111D01*
X218723466Y-87859785D01*
X218628821Y-88023715D01*
X218628818Y-88023722D01*
X218570327Y-88203740D01*
X218570326Y-88203744D01*
X218550540Y-88392000D01*
X204550499Y-88392000D01*
X204550499Y-88002128D01*
X204544091Y-87942517D01*
X204493796Y-87807669D01*
X204493795Y-87807668D01*
X204493793Y-87807664D01*
X204407547Y-87692455D01*
X204407544Y-87692452D01*
X204292335Y-87606206D01*
X204292328Y-87606202D01*
X204157482Y-87555908D01*
X204157483Y-87555908D01*
X204097883Y-87549501D01*
X204097881Y-87549500D01*
X204097873Y-87549500D01*
X204097864Y-87549500D01*
X202302129Y-87549500D01*
X202302123Y-87549501D01*
X202242516Y-87555908D01*
X202107671Y-87606202D01*
X202107664Y-87606206D01*
X201992455Y-87692452D01*
X201992452Y-87692455D01*
X201906206Y-87807664D01*
X201906202Y-87807671D01*
X201855908Y-87942517D01*
X201849501Y-88002116D01*
X201849501Y-88002123D01*
X201849500Y-88002135D01*
X201849500Y-89797870D01*
X201849501Y-89797876D01*
X201855908Y-89857483D01*
X201906202Y-89992328D01*
X201906206Y-89992335D01*
X201992452Y-90107544D01*
X201992455Y-90107547D01*
X202107664Y-90193793D01*
X202107671Y-90193797D01*
X202239081Y-90242810D01*
X202295015Y-90284681D01*
X202319432Y-90350145D01*
X202304580Y-90418418D01*
X202283430Y-90446673D01*
X202161503Y-90568600D01*
X202025965Y-90762169D01*
X202025964Y-90762171D01*
X201926098Y-90976335D01*
X201926094Y-90976344D01*
X201864938Y-91204586D01*
X201864936Y-91204596D01*
X201844341Y-91439999D01*
X201844341Y-91440000D01*
X201864936Y-91675403D01*
X201864938Y-91675413D01*
X201926094Y-91903655D01*
X201926096Y-91903659D01*
X201926097Y-91903663D01*
X202025965Y-92117830D01*
X202025967Y-92117834D01*
X202161501Y-92311395D01*
X202161506Y-92311402D01*
X202328597Y-92478493D01*
X202328603Y-92478498D01*
X202514158Y-92608425D01*
X202557783Y-92663002D01*
X202564977Y-92732500D01*
X202533454Y-92794855D01*
X202514158Y-92811575D01*
X202328597Y-92941505D01*
X202161505Y-93108597D01*
X202025965Y-93302169D01*
X202025964Y-93302171D01*
X201926098Y-93516335D01*
X201926094Y-93516344D01*
X201864938Y-93744586D01*
X201864936Y-93744596D01*
X201844341Y-93979999D01*
X201844341Y-93980000D01*
X201864936Y-94215403D01*
X201864938Y-94215413D01*
X201926094Y-94443655D01*
X201926096Y-94443659D01*
X201926097Y-94443663D01*
X202025965Y-94657830D01*
X202025967Y-94657834D01*
X202161501Y-94851395D01*
X202161506Y-94851402D01*
X202328597Y-95018493D01*
X202328603Y-95018498D01*
X202514158Y-95148425D01*
X202557783Y-95203002D01*
X202564977Y-95272500D01*
X202533454Y-95334855D01*
X202514158Y-95351575D01*
X202328597Y-95481505D01*
X202161505Y-95648597D01*
X202025965Y-95842169D01*
X202025964Y-95842171D01*
X201926098Y-96056335D01*
X201926094Y-96056344D01*
X201864938Y-96284586D01*
X201864936Y-96284596D01*
X201844341Y-96519999D01*
X201844341Y-96520000D01*
X201864936Y-96755403D01*
X201864938Y-96755413D01*
X201926094Y-96983655D01*
X201926096Y-96983659D01*
X201926097Y-96983663D01*
X202025965Y-97197830D01*
X202025967Y-97197834D01*
X202161501Y-97391395D01*
X202161506Y-97391402D01*
X202328597Y-97558493D01*
X202328603Y-97558498D01*
X202514158Y-97688425D01*
X202557783Y-97743002D01*
X202564977Y-97812500D01*
X202533454Y-97874855D01*
X202514158Y-97891575D01*
X202328597Y-98021505D01*
X202161505Y-98188597D01*
X202025965Y-98382169D01*
X202025964Y-98382171D01*
X201926098Y-98596335D01*
X201926094Y-98596344D01*
X201864938Y-98824586D01*
X201864936Y-98824596D01*
X201844341Y-99059999D01*
X201844341Y-99060000D01*
X201864936Y-99295403D01*
X201864938Y-99295413D01*
X201926094Y-99523655D01*
X201926096Y-99523659D01*
X201926097Y-99523663D01*
X202025965Y-99737830D01*
X202025967Y-99737834D01*
X202134281Y-99892521D01*
X202161501Y-99931396D01*
X202161506Y-99931402D01*
X202328597Y-100098493D01*
X202328603Y-100098498D01*
X202514158Y-100228425D01*
X202557783Y-100283002D01*
X202564977Y-100352500D01*
X202533454Y-100414855D01*
X202514158Y-100431575D01*
X202328597Y-100561505D01*
X202161505Y-100728597D01*
X202025965Y-100922169D01*
X202025964Y-100922171D01*
X201926098Y-101136335D01*
X201926094Y-101136344D01*
X201864938Y-101364586D01*
X201864936Y-101364596D01*
X201844341Y-101599999D01*
X201844341Y-101600000D01*
X195580500Y-101600000D01*
X195580500Y-86741000D01*
X239124540Y-86741000D01*
X239144326Y-86929256D01*
X239144327Y-86929259D01*
X239202818Y-87109277D01*
X239202821Y-87109284D01*
X239297467Y-87273216D01*
X239378770Y-87363512D01*
X239424129Y-87413888D01*
X239577265Y-87525148D01*
X239577270Y-87525151D01*
X239750192Y-87602142D01*
X239750197Y-87602144D01*
X239935354Y-87641500D01*
X239935355Y-87641500D01*
X240124644Y-87641500D01*
X240124646Y-87641500D01*
X240309803Y-87602144D01*
X240482730Y-87525151D01*
X240635871Y-87413888D01*
X240762533Y-87273216D01*
X240857179Y-87109284D01*
X240915674Y-86929256D01*
X240935460Y-86741000D01*
X240915674Y-86552744D01*
X240857179Y-86372716D01*
X240762533Y-86208784D01*
X240744693Y-86188971D01*
X240714464Y-86125981D01*
X240723089Y-86056646D01*
X240744694Y-86023028D01*
X240762533Y-86003216D01*
X240857179Y-85839284D01*
X240915674Y-85659256D01*
X240935460Y-85471000D01*
X244204540Y-85471000D01*
X244224326Y-85659256D01*
X244224327Y-85659259D01*
X244282818Y-85839277D01*
X244282821Y-85839284D01*
X244377467Y-86003216D01*
X244504129Y-86143888D01*
X244657265Y-86255148D01*
X244657270Y-86255151D01*
X244830192Y-86332142D01*
X244830197Y-86332144D01*
X245015354Y-86371500D01*
X245015355Y-86371500D01*
X245204644Y-86371500D01*
X245204646Y-86371500D01*
X245389803Y-86332144D01*
X245562730Y-86255151D01*
X245715871Y-86143888D01*
X245842533Y-86003216D01*
X245937179Y-85839284D01*
X245995674Y-85659256D01*
X246015460Y-85471000D01*
X245995674Y-85282744D01*
X245937179Y-85102716D01*
X245842533Y-84938784D01*
X245715871Y-84798112D01*
X245715870Y-84798111D01*
X245562734Y-84686851D01*
X245562729Y-84686848D01*
X245389807Y-84609857D01*
X245389802Y-84609855D01*
X245244001Y-84578865D01*
X245204646Y-84570500D01*
X245015354Y-84570500D01*
X244982897Y-84577398D01*
X244830197Y-84609855D01*
X244830192Y-84609857D01*
X244657270Y-84686848D01*
X244657265Y-84686851D01*
X244504129Y-84798111D01*
X244377466Y-84938785D01*
X244282821Y-85102715D01*
X244282818Y-85102722D01*
X244224327Y-85282740D01*
X244224326Y-85282744D01*
X244204540Y-85471000D01*
X240935460Y-85471000D01*
X240915674Y-85282744D01*
X240857179Y-85102716D01*
X240762533Y-84938784D01*
X240635871Y-84798112D01*
X240635870Y-84798111D01*
X240482734Y-84686851D01*
X240482729Y-84686848D01*
X240309807Y-84609857D01*
X240309802Y-84609855D01*
X240164001Y-84578865D01*
X240124646Y-84570500D01*
X239935354Y-84570500D01*
X239902897Y-84577398D01*
X239750197Y-84609855D01*
X239750192Y-84609857D01*
X239577270Y-84686848D01*
X239577265Y-84686851D01*
X239424129Y-84798111D01*
X239297466Y-84938785D01*
X239202821Y-85102715D01*
X239202818Y-85102722D01*
X239144327Y-85282740D01*
X239144326Y-85282744D01*
X239124540Y-85471000D01*
X239144326Y-85659256D01*
X239144327Y-85659259D01*
X239202818Y-85839277D01*
X239202821Y-85839284D01*
X239297467Y-86003216D01*
X239307806Y-86014699D01*
X239315307Y-86023030D01*
X239345535Y-86086022D01*
X239336909Y-86155357D01*
X239315307Y-86188970D01*
X239297466Y-86208785D01*
X239202821Y-86372715D01*
X239202818Y-86372722D01*
X239144327Y-86552740D01*
X239144326Y-86552744D01*
X239124540Y-86741000D01*
X195580500Y-86741000D01*
X195580500Y-85409022D01*
X222930518Y-85409022D01*
X222950304Y-85597278D01*
X222950305Y-85597281D01*
X223008796Y-85777299D01*
X223008799Y-85777306D01*
X223103445Y-85941238D01*
X223177091Y-86023030D01*
X223230107Y-86081910D01*
X223383243Y-86193170D01*
X223383248Y-86193173D01*
X223556170Y-86270164D01*
X223556175Y-86270166D01*
X223741332Y-86309522D01*
X223741333Y-86309522D01*
X223930622Y-86309522D01*
X223930624Y-86309522D01*
X224115781Y-86270166D01*
X224288708Y-86193173D01*
X224441849Y-86081910D01*
X224568511Y-85941238D01*
X224663157Y-85777306D01*
X224721652Y-85597278D01*
X224741438Y-85409022D01*
X224721652Y-85220766D01*
X224663157Y-85040738D01*
X224568511Y-84876806D01*
X224441849Y-84736134D01*
X224401418Y-84706759D01*
X224288712Y-84624873D01*
X224288707Y-84624870D01*
X224115785Y-84547879D01*
X224115780Y-84547877D01*
X223977568Y-84518500D01*
X225599040Y-84518500D01*
X225618826Y-84706756D01*
X225618827Y-84706759D01*
X225677318Y-84886777D01*
X225677321Y-84886784D01*
X225771967Y-85050716D01*
X225818794Y-85102722D01*
X225898629Y-85191388D01*
X226051765Y-85302648D01*
X226051770Y-85302651D01*
X226224692Y-85379642D01*
X226224697Y-85379644D01*
X226409854Y-85419000D01*
X226409855Y-85419000D01*
X226599144Y-85419000D01*
X226599146Y-85419000D01*
X226784303Y-85379644D01*
X226957230Y-85302651D01*
X227110371Y-85191388D01*
X227237033Y-85050716D01*
X227331679Y-84886784D01*
X227390174Y-84706756D01*
X227409960Y-84518500D01*
X227390174Y-84330244D01*
X227331679Y-84150216D01*
X227237033Y-83986284D01*
X227110371Y-83845612D01*
X227110370Y-83845611D01*
X226957234Y-83734351D01*
X226957229Y-83734348D01*
X226784307Y-83657357D01*
X226784302Y-83657355D01*
X226638501Y-83626365D01*
X226599146Y-83618000D01*
X226409854Y-83618000D01*
X226377397Y-83624898D01*
X226224697Y-83657355D01*
X226224692Y-83657357D01*
X226051770Y-83734348D01*
X226051765Y-83734351D01*
X225898629Y-83845611D01*
X225771966Y-83986285D01*
X225677321Y-84150215D01*
X225677318Y-84150222D01*
X225618827Y-84330240D01*
X225618826Y-84330244D01*
X225599040Y-84518500D01*
X223977568Y-84518500D01*
X223969979Y-84516887D01*
X223930624Y-84508522D01*
X223741332Y-84508522D01*
X223708875Y-84515420D01*
X223556175Y-84547877D01*
X223556170Y-84547879D01*
X223383248Y-84624870D01*
X223383243Y-84624873D01*
X223230107Y-84736133D01*
X223103444Y-84876807D01*
X223008799Y-85040737D01*
X223008796Y-85040744D01*
X222950305Y-85220762D01*
X222950304Y-85220766D01*
X222930518Y-85409022D01*
X195580500Y-85409022D01*
X195580500Y-83820000D01*
X201844341Y-83820000D01*
X201864936Y-84055403D01*
X201864938Y-84055413D01*
X201926094Y-84283655D01*
X201926096Y-84283659D01*
X201926097Y-84283663D01*
X202025965Y-84497830D01*
X202025967Y-84497834D01*
X202134281Y-84652521D01*
X202161505Y-84691401D01*
X202328599Y-84858495D01*
X202368990Y-84886777D01*
X202522165Y-84994032D01*
X202522167Y-84994033D01*
X202522170Y-84994035D01*
X202736337Y-85093903D01*
X202964592Y-85155063D01*
X203152918Y-85171539D01*
X203199999Y-85175659D01*
X203200000Y-85175659D01*
X203200001Y-85175659D01*
X203239234Y-85172226D01*
X203435408Y-85155063D01*
X203663663Y-85093903D01*
X203877830Y-84994035D01*
X204071401Y-84858495D01*
X204238495Y-84691401D01*
X204374035Y-84497830D01*
X204473903Y-84283663D01*
X204535063Y-84055408D01*
X204555659Y-83820000D01*
X204535063Y-83584592D01*
X204473903Y-83356337D01*
X204374035Y-83142171D01*
X204338017Y-83090731D01*
X204238494Y-82948597D01*
X204071402Y-82781506D01*
X204071401Y-82781505D01*
X203885405Y-82651269D01*
X203841781Y-82596692D01*
X203834588Y-82527193D01*
X203866110Y-82464839D01*
X203885405Y-82448119D01*
X204071082Y-82318105D01*
X204093187Y-82296000D01*
X210549540Y-82296000D01*
X210569326Y-82484256D01*
X210569327Y-82484259D01*
X210627818Y-82664277D01*
X210627821Y-82664284D01*
X210722467Y-82828216D01*
X210789328Y-82902472D01*
X210849129Y-82968888D01*
X211002265Y-83080148D01*
X211002270Y-83080151D01*
X211175192Y-83157142D01*
X211175197Y-83157144D01*
X211360354Y-83196500D01*
X211360355Y-83196500D01*
X211549644Y-83196500D01*
X211549646Y-83196500D01*
X211734803Y-83157144D01*
X211907730Y-83080151D01*
X212060871Y-82968888D01*
X212187533Y-82828216D01*
X212282179Y-82664284D01*
X212340674Y-82484256D01*
X212360460Y-82296000D01*
X212352998Y-82225000D01*
X221231936Y-82225000D01*
X221251722Y-82413256D01*
X221251723Y-82413259D01*
X221310214Y-82593277D01*
X221310217Y-82593284D01*
X221404863Y-82757216D01*
X221426736Y-82781508D01*
X221531525Y-82897888D01*
X221684661Y-83009148D01*
X221684666Y-83009151D01*
X221857588Y-83086142D01*
X221857593Y-83086144D01*
X222042750Y-83125500D01*
X222042751Y-83125500D01*
X222232040Y-83125500D01*
X222232042Y-83125500D01*
X222417199Y-83086144D01*
X222590126Y-83009151D01*
X222736958Y-82902472D01*
X244204540Y-82902472D01*
X244224326Y-83090728D01*
X244224327Y-83090731D01*
X244282818Y-83270749D01*
X244282821Y-83270756D01*
X244377467Y-83434688D01*
X244504129Y-83575360D01*
X244657265Y-83686620D01*
X244657270Y-83686623D01*
X244830192Y-83763614D01*
X244830197Y-83763616D01*
X245015354Y-83802972D01*
X245015355Y-83802972D01*
X245204644Y-83802972D01*
X245204646Y-83802972D01*
X245389803Y-83763616D01*
X245562730Y-83686623D01*
X245576102Y-83676907D01*
X245641906Y-83653425D01*
X245709961Y-83669248D01*
X245741139Y-83694250D01*
X245774128Y-83730887D01*
X245774135Y-83730893D01*
X245927265Y-83842148D01*
X245927270Y-83842151D01*
X246100192Y-83919142D01*
X246100197Y-83919144D01*
X246285354Y-83958500D01*
X246285355Y-83958500D01*
X246474644Y-83958500D01*
X246474646Y-83958500D01*
X246659803Y-83919144D01*
X246832730Y-83842151D01*
X246985871Y-83730888D01*
X247112533Y-83590216D01*
X247207179Y-83426284D01*
X247265009Y-83248302D01*
X247304445Y-83190629D01*
X247368804Y-83163430D01*
X247408718Y-83165331D01*
X247555354Y-83196500D01*
X247555355Y-83196500D01*
X247744644Y-83196500D01*
X247744646Y-83196500D01*
X247929803Y-83157144D01*
X248102730Y-83080151D01*
X248255871Y-82968888D01*
X248382533Y-82828216D01*
X248477179Y-82664284D01*
X248535674Y-82484256D01*
X248555460Y-82296000D01*
X248535674Y-82107744D01*
X248477179Y-81927716D01*
X248382533Y-81763784D01*
X248255871Y-81623112D01*
X248255870Y-81623111D01*
X248102734Y-81511851D01*
X248102729Y-81511848D01*
X247929807Y-81434857D01*
X247929802Y-81434855D01*
X247784001Y-81403865D01*
X247744646Y-81395500D01*
X247555354Y-81395500D01*
X247522897Y-81402398D01*
X247370197Y-81434855D01*
X247370192Y-81434857D01*
X247197270Y-81511848D01*
X247197265Y-81511851D01*
X247044129Y-81623111D01*
X246917466Y-81763785D01*
X246822821Y-81927715D01*
X246822819Y-81927719D01*
X246764991Y-82105696D01*
X246725553Y-82163371D01*
X246661194Y-82190569D01*
X246621280Y-82188667D01*
X246474647Y-82157500D01*
X246474646Y-82157500D01*
X246285354Y-82157500D01*
X246257733Y-82163371D01*
X246100197Y-82196855D01*
X246100192Y-82196857D01*
X245927270Y-82273848D01*
X245913889Y-82283570D01*
X245848082Y-82307046D01*
X245780029Y-82291218D01*
X245748860Y-82266221D01*
X245715871Y-82229584D01*
X245715864Y-82229578D01*
X245562734Y-82118323D01*
X245562729Y-82118320D01*
X245389807Y-82041329D01*
X245389802Y-82041327D01*
X245244001Y-82010337D01*
X245204646Y-82001972D01*
X245015354Y-82001972D01*
X244982897Y-82008870D01*
X244830197Y-82041327D01*
X244830192Y-82041329D01*
X244657270Y-82118320D01*
X244657265Y-82118323D01*
X244504129Y-82229583D01*
X244377466Y-82370257D01*
X244282821Y-82534187D01*
X244282818Y-82534194D01*
X244224327Y-82714212D01*
X244224326Y-82714216D01*
X244204540Y-82902472D01*
X222736958Y-82902472D01*
X222743267Y-82897888D01*
X222869929Y-82757216D01*
X222964575Y-82593284D01*
X223023070Y-82413256D01*
X223042856Y-82225000D01*
X223023070Y-82036744D01*
X222964575Y-81856716D01*
X222869929Y-81692784D01*
X222743267Y-81552112D01*
X222743266Y-81552111D01*
X222590130Y-81440851D01*
X222590125Y-81440848D01*
X222417203Y-81363857D01*
X222417198Y-81363855D01*
X222271397Y-81332865D01*
X222232042Y-81324500D01*
X222042750Y-81324500D01*
X222010293Y-81331398D01*
X221857593Y-81363855D01*
X221857588Y-81363857D01*
X221684666Y-81440848D01*
X221684661Y-81440851D01*
X221531525Y-81552111D01*
X221404862Y-81692785D01*
X221310217Y-81856715D01*
X221310214Y-81856722D01*
X221263020Y-82001972D01*
X221251722Y-82036744D01*
X221231936Y-82225000D01*
X212352998Y-82225000D01*
X212340674Y-82107744D01*
X212282179Y-81927716D01*
X212187533Y-81763784D01*
X212060871Y-81623112D01*
X212060870Y-81623111D01*
X211907734Y-81511851D01*
X211907729Y-81511848D01*
X211734807Y-81434857D01*
X211734802Y-81434855D01*
X211589001Y-81403865D01*
X211549646Y-81395500D01*
X211360354Y-81395500D01*
X211327897Y-81402398D01*
X211175197Y-81434855D01*
X211175192Y-81434857D01*
X211002270Y-81511848D01*
X211002265Y-81511851D01*
X210849129Y-81623111D01*
X210722466Y-81763785D01*
X210627821Y-81927715D01*
X210627818Y-81927722D01*
X210569991Y-82105696D01*
X210569326Y-82107744D01*
X210549540Y-82296000D01*
X204093187Y-82296000D01*
X204238105Y-82151082D01*
X204373600Y-81957578D01*
X204473429Y-81743492D01*
X204473432Y-81743486D01*
X204530636Y-81530000D01*
X203633686Y-81530000D01*
X203659493Y-81489844D01*
X203700000Y-81351889D01*
X203700000Y-81208111D01*
X203659493Y-81070156D01*
X203633686Y-81030000D01*
X204530636Y-81030000D01*
X204530635Y-81029999D01*
X204473432Y-80816513D01*
X204473429Y-80816507D01*
X204452675Y-80772000D01*
X226170540Y-80772000D01*
X226190326Y-80960256D01*
X226190327Y-80960259D01*
X226248818Y-81140277D01*
X226248821Y-81140284D01*
X226343467Y-81304216D01*
X226425660Y-81395500D01*
X226470129Y-81444888D01*
X226623265Y-81556148D01*
X226623270Y-81556151D01*
X226796192Y-81633142D01*
X226796197Y-81633144D01*
X226981354Y-81672500D01*
X226981355Y-81672500D01*
X227170644Y-81672500D01*
X227170646Y-81672500D01*
X227355803Y-81633144D01*
X227528730Y-81556151D01*
X227681871Y-81444888D01*
X227808533Y-81304216D01*
X227903179Y-81140284D01*
X227961674Y-80960256D01*
X227981460Y-80772000D01*
X227961674Y-80583744D01*
X227903179Y-80403716D01*
X227808533Y-80239784D01*
X227681871Y-80099112D01*
X227681870Y-80099111D01*
X227528734Y-79987851D01*
X227528729Y-79987848D01*
X227355807Y-79910857D01*
X227355802Y-79910855D01*
X227210001Y-79879865D01*
X227170646Y-79871500D01*
X226981354Y-79871500D01*
X226948897Y-79878398D01*
X226796197Y-79910855D01*
X226796192Y-79910857D01*
X226623270Y-79987848D01*
X226623265Y-79987851D01*
X226470129Y-80099111D01*
X226343466Y-80239785D01*
X226248821Y-80403715D01*
X226248818Y-80403722D01*
X226207951Y-80529500D01*
X226190326Y-80583744D01*
X226170540Y-80772000D01*
X204452675Y-80772000D01*
X204373600Y-80602422D01*
X204373599Y-80602420D01*
X204238113Y-80408926D01*
X204238108Y-80408920D01*
X204071082Y-80241894D01*
X203884968Y-80111575D01*
X203841344Y-80056998D01*
X203834151Y-79987499D01*
X203865673Y-79925145D01*
X203884968Y-79908425D01*
X204071082Y-79778105D01*
X204220187Y-79629000D01*
X213978540Y-79629000D01*
X213998326Y-79817256D01*
X213998327Y-79817259D01*
X214056818Y-79997277D01*
X214056821Y-79997284D01*
X214151467Y-80161216D01*
X214224110Y-80241894D01*
X214278129Y-80301888D01*
X214431265Y-80413148D01*
X214431270Y-80413151D01*
X214604192Y-80490142D01*
X214604197Y-80490144D01*
X214789354Y-80529500D01*
X214789355Y-80529500D01*
X214978644Y-80529500D01*
X214978646Y-80529500D01*
X215163803Y-80490144D01*
X215336730Y-80413151D01*
X215489871Y-80301888D01*
X215616533Y-80161216D01*
X215711179Y-79997284D01*
X215769674Y-79817256D01*
X215776112Y-79756000D01*
X219566540Y-79756000D01*
X219586326Y-79944256D01*
X219586327Y-79944259D01*
X219644818Y-80124277D01*
X219644821Y-80124284D01*
X219739467Y-80288216D01*
X219848150Y-80408920D01*
X219866129Y-80428888D01*
X220019265Y-80540148D01*
X220019270Y-80540151D01*
X220192192Y-80617142D01*
X220192197Y-80617144D01*
X220377354Y-80656500D01*
X220377355Y-80656500D01*
X220566644Y-80656500D01*
X220566646Y-80656500D01*
X220751803Y-80617144D01*
X220924730Y-80540151D01*
X221077871Y-80428888D01*
X221204533Y-80288216D01*
X221299179Y-80124284D01*
X221357674Y-79944256D01*
X221377460Y-79756000D01*
X221357674Y-79567744D01*
X221299179Y-79387716D01*
X221204533Y-79223784D01*
X221077871Y-79083112D01*
X221077870Y-79083111D01*
X220924734Y-78971851D01*
X220924729Y-78971848D01*
X220751807Y-78894857D01*
X220751802Y-78894855D01*
X220606001Y-78863865D01*
X220566646Y-78855500D01*
X220377354Y-78855500D01*
X220344897Y-78862398D01*
X220192197Y-78894855D01*
X220192192Y-78894857D01*
X220019270Y-78971848D01*
X220019265Y-78971851D01*
X219866129Y-79083111D01*
X219739466Y-79223785D01*
X219644821Y-79387715D01*
X219644818Y-79387722D01*
X219586327Y-79567740D01*
X219586326Y-79567744D01*
X219566540Y-79756000D01*
X215776112Y-79756000D01*
X215789460Y-79629000D01*
X215769674Y-79440744D01*
X215711179Y-79260716D01*
X215616533Y-79096784D01*
X215489871Y-78956112D01*
X215481244Y-78949844D01*
X215336734Y-78844851D01*
X215336729Y-78844848D01*
X215163807Y-78767857D01*
X215163802Y-78767855D01*
X215018001Y-78736865D01*
X214978646Y-78728500D01*
X214789354Y-78728500D01*
X214756897Y-78735398D01*
X214604197Y-78767855D01*
X214604192Y-78767857D01*
X214431270Y-78844848D01*
X214431265Y-78844851D01*
X214278129Y-78956111D01*
X214151466Y-79096785D01*
X214056821Y-79260715D01*
X214056818Y-79260722D01*
X214005853Y-79417578D01*
X213998326Y-79440744D01*
X213978540Y-79629000D01*
X204220187Y-79629000D01*
X204238105Y-79611082D01*
X204373600Y-79417578D01*
X204473429Y-79203492D01*
X204473432Y-79203486D01*
X204530636Y-78990000D01*
X203633686Y-78990000D01*
X203659493Y-78949844D01*
X203700000Y-78811889D01*
X203700000Y-78668111D01*
X203659493Y-78530156D01*
X203633686Y-78490000D01*
X204530636Y-78490000D01*
X204530635Y-78489999D01*
X204473432Y-78276513D01*
X204473429Y-78276507D01*
X204373600Y-78062422D01*
X204373599Y-78062420D01*
X204238113Y-77868926D01*
X204238108Y-77868920D01*
X204220188Y-77851000D01*
X224392540Y-77851000D01*
X224412326Y-78039256D01*
X224412327Y-78039259D01*
X224470818Y-78219277D01*
X224470821Y-78219284D01*
X224565467Y-78383216D01*
X224632931Y-78458142D01*
X224692129Y-78523888D01*
X224845265Y-78635148D01*
X224845270Y-78635151D01*
X225018192Y-78712142D01*
X225018197Y-78712144D01*
X225203354Y-78751500D01*
X225203355Y-78751500D01*
X225392644Y-78751500D01*
X225392646Y-78751500D01*
X225577803Y-78712144D01*
X225750730Y-78635151D01*
X225903871Y-78523888D01*
X226030533Y-78383216D01*
X226125179Y-78219284D01*
X226183674Y-78039256D01*
X226203460Y-77851000D01*
X226183674Y-77662744D01*
X226162312Y-77597000D01*
X231758540Y-77597000D01*
X231778326Y-77785256D01*
X231778327Y-77785259D01*
X231836818Y-77965277D01*
X231836821Y-77965284D01*
X231931467Y-78129216D01*
X231948231Y-78147834D01*
X232058129Y-78269888D01*
X232211265Y-78381148D01*
X232211270Y-78381151D01*
X232384192Y-78458142D01*
X232384197Y-78458144D01*
X232569354Y-78497500D01*
X232569355Y-78497500D01*
X232758644Y-78497500D01*
X232758646Y-78497500D01*
X232943803Y-78458144D01*
X233116730Y-78381151D01*
X233269871Y-78269888D01*
X233396533Y-78129216D01*
X233491179Y-77965284D01*
X233549674Y-77785256D01*
X233569460Y-77597000D01*
X233556112Y-77470000D01*
X250104341Y-77470000D01*
X250124936Y-77705403D01*
X250124938Y-77705413D01*
X250186094Y-77933655D01*
X250186096Y-77933659D01*
X250186097Y-77933663D01*
X250277284Y-78129214D01*
X250285965Y-78147830D01*
X250285967Y-78147834D01*
X250350503Y-78240000D01*
X250421501Y-78341396D01*
X250421506Y-78341402D01*
X250543430Y-78463326D01*
X250576915Y-78524649D01*
X250571931Y-78594341D01*
X250530059Y-78650274D01*
X250499083Y-78667189D01*
X250367669Y-78716203D01*
X250367664Y-78716206D01*
X250252455Y-78802452D01*
X250252452Y-78802455D01*
X250166206Y-78917664D01*
X250166202Y-78917671D01*
X250115908Y-79052517D01*
X250109501Y-79112116D01*
X250109501Y-79112123D01*
X250109500Y-79112135D01*
X250109500Y-80907870D01*
X250109501Y-80907876D01*
X250115908Y-80967483D01*
X250166202Y-81102328D01*
X250166206Y-81102335D01*
X250252452Y-81217544D01*
X250252455Y-81217547D01*
X250367664Y-81303793D01*
X250367671Y-81303797D01*
X250502517Y-81354091D01*
X250502516Y-81354091D01*
X250509444Y-81354835D01*
X250562127Y-81360500D01*
X252357872Y-81360499D01*
X252417483Y-81354091D01*
X252552331Y-81303796D01*
X252667546Y-81217546D01*
X252753796Y-81102331D01*
X252804091Y-80967483D01*
X252810500Y-80907873D01*
X252810499Y-79112128D01*
X252804091Y-79052517D01*
X252774003Y-78971848D01*
X252753797Y-78917671D01*
X252753793Y-78917664D01*
X252667547Y-78802455D01*
X252667544Y-78802452D01*
X252552335Y-78716206D01*
X252552328Y-78716202D01*
X252420917Y-78667189D01*
X252364983Y-78625318D01*
X252340566Y-78559853D01*
X252355418Y-78491580D01*
X252376563Y-78463332D01*
X252498495Y-78341401D01*
X252634035Y-78147830D01*
X252733903Y-77933663D01*
X252795063Y-77705408D01*
X252815659Y-77470000D01*
X252795063Y-77234592D01*
X252733903Y-77006337D01*
X252634035Y-76792171D01*
X252594603Y-76735855D01*
X252498494Y-76598597D01*
X252331402Y-76431506D01*
X252331396Y-76431501D01*
X252145842Y-76301575D01*
X252102217Y-76246998D01*
X252095023Y-76177500D01*
X252126546Y-76115145D01*
X252145842Y-76098425D01*
X252276040Y-76007259D01*
X252331401Y-75968495D01*
X252498495Y-75801401D01*
X252634035Y-75607830D01*
X252733903Y-75393663D01*
X252795063Y-75165408D01*
X252815659Y-74930000D01*
X252815331Y-74926256D01*
X252798861Y-74738000D01*
X252795063Y-74694592D01*
X252733903Y-74466337D01*
X252634035Y-74252171D01*
X252601556Y-74205785D01*
X252498494Y-74058597D01*
X252331402Y-73891506D01*
X252331396Y-73891501D01*
X252145842Y-73761575D01*
X252102217Y-73706998D01*
X252095023Y-73637500D01*
X252126546Y-73575145D01*
X252145842Y-73558425D01*
X252276040Y-73467259D01*
X252331401Y-73428495D01*
X252498495Y-73261401D01*
X252634035Y-73067830D01*
X252733903Y-72853663D01*
X252795063Y-72625408D01*
X252815659Y-72390000D01*
X252813690Y-72367500D01*
X252805554Y-72274500D01*
X252795063Y-72154592D01*
X252733903Y-71926337D01*
X252634035Y-71712171D01*
X252559590Y-71605851D01*
X252498494Y-71518597D01*
X252331402Y-71351506D01*
X252331396Y-71351501D01*
X252145842Y-71221575D01*
X252102217Y-71166998D01*
X252095023Y-71097500D01*
X252126546Y-71035145D01*
X252145842Y-71018425D01*
X252168026Y-71002891D01*
X252331401Y-70888495D01*
X252498495Y-70721401D01*
X252634035Y-70527830D01*
X252733903Y-70313663D01*
X252795063Y-70085408D01*
X252815659Y-69850000D01*
X252813690Y-69827500D01*
X252806772Y-69748425D01*
X252795063Y-69614592D01*
X252733903Y-69386337D01*
X252634035Y-69172171D01*
X252592055Y-69112216D01*
X252498494Y-68978597D01*
X252331402Y-68811506D01*
X252331396Y-68811501D01*
X252145842Y-68681575D01*
X252102217Y-68626998D01*
X252095023Y-68557500D01*
X252126546Y-68495145D01*
X252145842Y-68478425D01*
X252269635Y-68391744D01*
X252331401Y-68348495D01*
X252498495Y-68181401D01*
X252634035Y-67987830D01*
X252733903Y-67773663D01*
X252795063Y-67545408D01*
X252815659Y-67310000D01*
X252795063Y-67074592D01*
X252733903Y-66846337D01*
X252634035Y-66632171D01*
X252594603Y-66575855D01*
X252498494Y-66438597D01*
X252331402Y-66271506D01*
X252331401Y-66271505D01*
X252145405Y-66141269D01*
X252101781Y-66086692D01*
X252094588Y-66017193D01*
X252126110Y-65954839D01*
X252145405Y-65938119D01*
X252331082Y-65808105D01*
X252498105Y-65641082D01*
X252633600Y-65447578D01*
X252733429Y-65233492D01*
X252733432Y-65233486D01*
X252790636Y-65020000D01*
X251893686Y-65020000D01*
X251919493Y-64979844D01*
X251960000Y-64841889D01*
X251960000Y-64698111D01*
X251919493Y-64560156D01*
X251893686Y-64520000D01*
X252790636Y-64520000D01*
X252790635Y-64519999D01*
X252733432Y-64306513D01*
X252733429Y-64306507D01*
X252633600Y-64092422D01*
X252633599Y-64092420D01*
X252498113Y-63898926D01*
X252498108Y-63898920D01*
X252331078Y-63731890D01*
X252145405Y-63601879D01*
X252101780Y-63547302D01*
X252094588Y-63477804D01*
X252126110Y-63415449D01*
X252145406Y-63398730D01*
X252276040Y-63307259D01*
X252331401Y-63268495D01*
X252498495Y-63101401D01*
X252634035Y-62907830D01*
X252733903Y-62693663D01*
X252795063Y-62465408D01*
X252815659Y-62230000D01*
X252795063Y-61994592D01*
X252733903Y-61766337D01*
X252634035Y-61552171D01*
X252498495Y-61358599D01*
X252498494Y-61358597D01*
X252331402Y-61191506D01*
X252331396Y-61191501D01*
X252145842Y-61061575D01*
X252102217Y-61006998D01*
X252095023Y-60937500D01*
X252126546Y-60875145D01*
X252145842Y-60858425D01*
X252273001Y-60769387D01*
X252331401Y-60728495D01*
X252498495Y-60561401D01*
X252634035Y-60367830D01*
X252733903Y-60153663D01*
X252795063Y-59925408D01*
X252815659Y-59690000D01*
X252795063Y-59454592D01*
X252733903Y-59226337D01*
X252634035Y-59012171D01*
X252583151Y-58939500D01*
X252498494Y-58818597D01*
X252331402Y-58651506D01*
X252331396Y-58651501D01*
X252145842Y-58521575D01*
X252102217Y-58466998D01*
X252095023Y-58397500D01*
X252126546Y-58335145D01*
X252145842Y-58318425D01*
X252276040Y-58227259D01*
X252331401Y-58188495D01*
X252498495Y-58021401D01*
X252634035Y-57827830D01*
X252733903Y-57613663D01*
X252795063Y-57385408D01*
X252815659Y-57150000D01*
X252795063Y-56914592D01*
X252733903Y-56686337D01*
X252634035Y-56472171D01*
X252498495Y-56278599D01*
X252498494Y-56278597D01*
X252331402Y-56111506D01*
X252331395Y-56111501D01*
X252137834Y-55975967D01*
X252137830Y-55975965D01*
X252137828Y-55975964D01*
X251923663Y-55876097D01*
X251923659Y-55876096D01*
X251923655Y-55876094D01*
X251695413Y-55814938D01*
X251695403Y-55814936D01*
X251460001Y-55794341D01*
X251459999Y-55794341D01*
X251224596Y-55814936D01*
X251224586Y-55814938D01*
X250996344Y-55876094D01*
X250996335Y-55876098D01*
X250782171Y-55975964D01*
X250782169Y-55975965D01*
X250588597Y-56111505D01*
X250421505Y-56278597D01*
X250285965Y-56472169D01*
X250285964Y-56472171D01*
X250186098Y-56686335D01*
X250186094Y-56686344D01*
X250124938Y-56914586D01*
X250124936Y-56914596D01*
X250104341Y-57149999D01*
X250104341Y-57150000D01*
X250124936Y-57385403D01*
X250124938Y-57385413D01*
X250186094Y-57613655D01*
X250186096Y-57613659D01*
X250186097Y-57613663D01*
X250285965Y-57827830D01*
X250285967Y-57827834D01*
X250421501Y-58021395D01*
X250421506Y-58021402D01*
X250588597Y-58188493D01*
X250588603Y-58188498D01*
X250774158Y-58318425D01*
X250817783Y-58373002D01*
X250824977Y-58442500D01*
X250793454Y-58504855D01*
X250774158Y-58521575D01*
X250588597Y-58651505D01*
X250421505Y-58818597D01*
X250285965Y-59012169D01*
X250285964Y-59012171D01*
X250186098Y-59226335D01*
X250186094Y-59226344D01*
X250124938Y-59454586D01*
X250124936Y-59454596D01*
X250104341Y-59689999D01*
X250104341Y-59690000D01*
X250124936Y-59925403D01*
X250124938Y-59925413D01*
X250186094Y-60153655D01*
X250186096Y-60153659D01*
X250186097Y-60153663D01*
X250273862Y-60341876D01*
X250285965Y-60367830D01*
X250285967Y-60367834D01*
X250421501Y-60561395D01*
X250421506Y-60561402D01*
X250588597Y-60728493D01*
X250588603Y-60728498D01*
X250774158Y-60858425D01*
X250817783Y-60913002D01*
X250824977Y-60982500D01*
X250793454Y-61044855D01*
X250774158Y-61061575D01*
X250588597Y-61191505D01*
X250421505Y-61358597D01*
X250285965Y-61552169D01*
X250285964Y-61552171D01*
X250186098Y-61766335D01*
X250186094Y-61766344D01*
X250124938Y-61994586D01*
X250124936Y-61994596D01*
X250104341Y-62229999D01*
X250104341Y-62230000D01*
X250124936Y-62465403D01*
X250124938Y-62465413D01*
X250186094Y-62693655D01*
X250186096Y-62693659D01*
X250186097Y-62693663D01*
X250285965Y-62907830D01*
X250285967Y-62907834D01*
X250421501Y-63101395D01*
X250421506Y-63101402D01*
X250588597Y-63268493D01*
X250588603Y-63268498D01*
X250774594Y-63398730D01*
X250818219Y-63453307D01*
X250825413Y-63522805D01*
X250793890Y-63585160D01*
X250774595Y-63601880D01*
X250588922Y-63731890D01*
X250588920Y-63731891D01*
X250421891Y-63898920D01*
X250421886Y-63898926D01*
X250286400Y-64092420D01*
X250286399Y-64092422D01*
X250186570Y-64306507D01*
X250186567Y-64306513D01*
X250129364Y-64519999D01*
X250129364Y-64520000D01*
X251026314Y-64520000D01*
X251000507Y-64560156D01*
X250960000Y-64698111D01*
X250960000Y-64841889D01*
X251000507Y-64979844D01*
X251026314Y-65020000D01*
X250129364Y-65020000D01*
X250186567Y-65233486D01*
X250186570Y-65233492D01*
X250286399Y-65447578D01*
X250421894Y-65641082D01*
X250588917Y-65808105D01*
X250774595Y-65938119D01*
X250818219Y-65992696D01*
X250825412Y-66062195D01*
X250793890Y-66124549D01*
X250774595Y-66141269D01*
X250588594Y-66271508D01*
X250421505Y-66438597D01*
X250285965Y-66632169D01*
X250285964Y-66632171D01*
X250186098Y-66846335D01*
X250186094Y-66846344D01*
X250124938Y-67074586D01*
X250124936Y-67074596D01*
X250104341Y-67309999D01*
X250104341Y-67310000D01*
X250124936Y-67545403D01*
X250124938Y-67545413D01*
X250186094Y-67773655D01*
X250186096Y-67773659D01*
X250186097Y-67773663D01*
X250277284Y-67969214D01*
X250285965Y-67987830D01*
X250285967Y-67987834D01*
X250421501Y-68181395D01*
X250421506Y-68181402D01*
X250588597Y-68348493D01*
X250588603Y-68348498D01*
X250774158Y-68478425D01*
X250817783Y-68533002D01*
X250824977Y-68602500D01*
X250793454Y-68664855D01*
X250774158Y-68681575D01*
X250588597Y-68811505D01*
X250421505Y-68978597D01*
X250285965Y-69172169D01*
X250285964Y-69172171D01*
X250186098Y-69386335D01*
X250186094Y-69386344D01*
X250124938Y-69614586D01*
X250124936Y-69614596D01*
X250104341Y-69849999D01*
X250104341Y-69850000D01*
X250124936Y-70085403D01*
X250124938Y-70085413D01*
X250186094Y-70313655D01*
X250186096Y-70313659D01*
X250186097Y-70313663D01*
X250278983Y-70512857D01*
X250285965Y-70527830D01*
X250285967Y-70527834D01*
X250394281Y-70682521D01*
X250407298Y-70701112D01*
X250421501Y-70721395D01*
X250421506Y-70721402D01*
X250588597Y-70888493D01*
X250588603Y-70888498D01*
X250774158Y-71018425D01*
X250817783Y-71073002D01*
X250824977Y-71142500D01*
X250793454Y-71204855D01*
X250774158Y-71221575D01*
X250588597Y-71351505D01*
X250421505Y-71518597D01*
X250285965Y-71712169D01*
X250285964Y-71712171D01*
X250186098Y-71926335D01*
X250186094Y-71926344D01*
X250124938Y-72154586D01*
X250124936Y-72154596D01*
X250104341Y-72389999D01*
X250104341Y-72390000D01*
X250124936Y-72625403D01*
X250124938Y-72625413D01*
X250186094Y-72853655D01*
X250186096Y-72853659D01*
X250186097Y-72853663D01*
X250283661Y-73062888D01*
X250285965Y-73067830D01*
X250285967Y-73067834D01*
X250421501Y-73261395D01*
X250421506Y-73261402D01*
X250588597Y-73428493D01*
X250588603Y-73428498D01*
X250774158Y-73558425D01*
X250817783Y-73613002D01*
X250824977Y-73682500D01*
X250793454Y-73744855D01*
X250774158Y-73761575D01*
X250588597Y-73891505D01*
X250421505Y-74058597D01*
X250285965Y-74252169D01*
X250285964Y-74252171D01*
X250186098Y-74466335D01*
X250186094Y-74466344D01*
X250124938Y-74694586D01*
X250124936Y-74694596D01*
X250104341Y-74929999D01*
X250104341Y-74930000D01*
X250124936Y-75165403D01*
X250124938Y-75165413D01*
X250186094Y-75393655D01*
X250186096Y-75393659D01*
X250186097Y-75393663D01*
X250281914Y-75599142D01*
X250285965Y-75607830D01*
X250285967Y-75607834D01*
X250421501Y-75801395D01*
X250421506Y-75801402D01*
X250588597Y-75968493D01*
X250588603Y-75968498D01*
X250774158Y-76098425D01*
X250817783Y-76153002D01*
X250824977Y-76222500D01*
X250793454Y-76284855D01*
X250774158Y-76301575D01*
X250588597Y-76431505D01*
X250421505Y-76598597D01*
X250285965Y-76792169D01*
X250285964Y-76792171D01*
X250186098Y-77006335D01*
X250186094Y-77006344D01*
X250124938Y-77234586D01*
X250124936Y-77234596D01*
X250104341Y-77469999D01*
X250104341Y-77470000D01*
X233556112Y-77470000D01*
X233549674Y-77408744D01*
X233491179Y-77228716D01*
X233396533Y-77064784D01*
X233269871Y-76924112D01*
X233206175Y-76877834D01*
X233116734Y-76812851D01*
X233116729Y-76812848D01*
X232943807Y-76735857D01*
X232943802Y-76735855D01*
X232798001Y-76704865D01*
X232758646Y-76696500D01*
X232569354Y-76696500D01*
X232536897Y-76703398D01*
X232384197Y-76735855D01*
X232384192Y-76735857D01*
X232211270Y-76812848D01*
X232211265Y-76812851D01*
X232058129Y-76924111D01*
X231931466Y-77064785D01*
X231836821Y-77228715D01*
X231836818Y-77228722D01*
X231785895Y-77385449D01*
X231778326Y-77408744D01*
X231758540Y-77597000D01*
X226162312Y-77597000D01*
X226125179Y-77482716D01*
X226030533Y-77318784D01*
X225903871Y-77178112D01*
X225903870Y-77178111D01*
X225750734Y-77066851D01*
X225750729Y-77066848D01*
X225577807Y-76989857D01*
X225577802Y-76989855D01*
X225432001Y-76958865D01*
X225392646Y-76950500D01*
X225203354Y-76950500D01*
X225170897Y-76957398D01*
X225018197Y-76989855D01*
X225018192Y-76989857D01*
X224845270Y-77066848D01*
X224845265Y-77066851D01*
X224692129Y-77178111D01*
X224565466Y-77318785D01*
X224470821Y-77482715D01*
X224470818Y-77482722D01*
X224412327Y-77662740D01*
X224412326Y-77662744D01*
X224392540Y-77851000D01*
X204220188Y-77851000D01*
X204071078Y-77701890D01*
X203885405Y-77571879D01*
X203841780Y-77517302D01*
X203834588Y-77447804D01*
X203866110Y-77385449D01*
X203885406Y-77368730D01*
X203956735Y-77318785D01*
X204071401Y-77238495D01*
X204238495Y-77071401D01*
X204374035Y-76877830D01*
X204473903Y-76663663D01*
X204535063Y-76435408D01*
X204555659Y-76200000D01*
X204554546Y-76187284D01*
X204538796Y-76007259D01*
X204535063Y-75964592D01*
X204473903Y-75736337D01*
X204374035Y-75522171D01*
X204332055Y-75462216D01*
X204238494Y-75328597D01*
X204071402Y-75161506D01*
X204071396Y-75161501D01*
X203885842Y-75031575D01*
X203842217Y-74976998D01*
X203837352Y-74930000D01*
X218804540Y-74930000D01*
X218824326Y-75118256D01*
X218824327Y-75118259D01*
X218882818Y-75298277D01*
X218882821Y-75298284D01*
X218977467Y-75462216D01*
X219031451Y-75522171D01*
X219104129Y-75602888D01*
X219257265Y-75714148D01*
X219257270Y-75714151D01*
X219430192Y-75791142D01*
X219430197Y-75791144D01*
X219615354Y-75830500D01*
X219615355Y-75830500D01*
X219804644Y-75830500D01*
X219804646Y-75830500D01*
X219858750Y-75819000D01*
X226551540Y-75819000D01*
X226571326Y-76007256D01*
X226571327Y-76007259D01*
X226629818Y-76187277D01*
X226629821Y-76187284D01*
X226724467Y-76351216D01*
X226796756Y-76431501D01*
X226851129Y-76491888D01*
X227004265Y-76603148D01*
X227004270Y-76603151D01*
X227177192Y-76680142D01*
X227177197Y-76680144D01*
X227362354Y-76719500D01*
X227362355Y-76719500D01*
X227551644Y-76719500D01*
X227551646Y-76719500D01*
X227736803Y-76680144D01*
X227909730Y-76603151D01*
X228062871Y-76491888D01*
X228189533Y-76351216D01*
X228284179Y-76187284D01*
X228342674Y-76007256D01*
X228362460Y-75819000D01*
X228342674Y-75630744D01*
X228284179Y-75450716D01*
X228189533Y-75286784D01*
X228062871Y-75146112D01*
X228062870Y-75146111D01*
X227909734Y-75034851D01*
X227909729Y-75034848D01*
X227736807Y-74957857D01*
X227736802Y-74957855D01*
X227591001Y-74926865D01*
X227551646Y-74918500D01*
X227362354Y-74918500D01*
X227329897Y-74925398D01*
X227177197Y-74957855D01*
X227177192Y-74957857D01*
X227004270Y-75034848D01*
X227004265Y-75034851D01*
X226851129Y-75146111D01*
X226724466Y-75286785D01*
X226629821Y-75450715D01*
X226629818Y-75450722D01*
X226580377Y-75602888D01*
X226571326Y-75630744D01*
X226551540Y-75819000D01*
X219858750Y-75819000D01*
X219989803Y-75791144D01*
X220162730Y-75714151D01*
X220315871Y-75602888D01*
X220442533Y-75462216D01*
X220537179Y-75298284D01*
X220595674Y-75118256D01*
X220615460Y-74930000D01*
X220595674Y-74741744D01*
X220594457Y-74738000D01*
X229218540Y-74738000D01*
X229238326Y-74926256D01*
X229238327Y-74926259D01*
X229296818Y-75106277D01*
X229296821Y-75106284D01*
X229391467Y-75270216D01*
X229502620Y-75393664D01*
X229518129Y-75410888D01*
X229671265Y-75522148D01*
X229671270Y-75522151D01*
X229844192Y-75599142D01*
X229844197Y-75599144D01*
X230029354Y-75638500D01*
X230029355Y-75638500D01*
X230218644Y-75638500D01*
X230218646Y-75638500D01*
X230403803Y-75599144D01*
X230576730Y-75522151D01*
X230729871Y-75410888D01*
X230856533Y-75270216D01*
X230951179Y-75106284D01*
X231009674Y-74926256D01*
X231029460Y-74738000D01*
X231009674Y-74549744D01*
X230951179Y-74369716D01*
X230856533Y-74205784D01*
X230729871Y-74065112D01*
X230720904Y-74058597D01*
X230576734Y-73953851D01*
X230576729Y-73953848D01*
X230403807Y-73876857D01*
X230403802Y-73876855D01*
X230258001Y-73845865D01*
X230218646Y-73837500D01*
X230029354Y-73837500D01*
X229996897Y-73844398D01*
X229844197Y-73876855D01*
X229844192Y-73876857D01*
X229671270Y-73953848D01*
X229671265Y-73953851D01*
X229518129Y-74065111D01*
X229391466Y-74205785D01*
X229296821Y-74369715D01*
X229296818Y-74369722D01*
X229238327Y-74549740D01*
X229238326Y-74549744D01*
X229218540Y-74738000D01*
X220594457Y-74738000D01*
X220537179Y-74561716D01*
X220442533Y-74397784D01*
X220315871Y-74257112D01*
X220315870Y-74257111D01*
X220162734Y-74145851D01*
X220162729Y-74145848D01*
X219989807Y-74068857D01*
X219989802Y-74068855D01*
X219844001Y-74037865D01*
X219804646Y-74029500D01*
X219615354Y-74029500D01*
X219582897Y-74036398D01*
X219430197Y-74068855D01*
X219430192Y-74068857D01*
X219257270Y-74145848D01*
X219257265Y-74145851D01*
X219104129Y-74257111D01*
X218977466Y-74397785D01*
X218882821Y-74561715D01*
X218882818Y-74561722D01*
X218824327Y-74741740D01*
X218824326Y-74741744D01*
X218804540Y-74930000D01*
X203837352Y-74930000D01*
X203835023Y-74907500D01*
X203866546Y-74845145D01*
X203885842Y-74828425D01*
X204009635Y-74741744D01*
X204071401Y-74698495D01*
X204238495Y-74531401D01*
X204374035Y-74337830D01*
X204473903Y-74123663D01*
X204535063Y-73895408D01*
X204555659Y-73660000D01*
X204554546Y-73647284D01*
X204538796Y-73467259D01*
X204535063Y-73424592D01*
X204496052Y-73279000D01*
X226043540Y-73279000D01*
X226063326Y-73467256D01*
X226063327Y-73467259D01*
X226121818Y-73647277D01*
X226121821Y-73647284D01*
X226216467Y-73811216D01*
X226275569Y-73876855D01*
X226343129Y-73951888D01*
X226496265Y-74063148D01*
X226496270Y-74063151D01*
X226669192Y-74140142D01*
X226669197Y-74140144D01*
X226854354Y-74179500D01*
X226854355Y-74179500D01*
X227043644Y-74179500D01*
X227043646Y-74179500D01*
X227228803Y-74140144D01*
X227401730Y-74063151D01*
X227554871Y-73951888D01*
X227681533Y-73811216D01*
X227776179Y-73647284D01*
X227834674Y-73467256D01*
X227854460Y-73279000D01*
X227834674Y-73090744D01*
X227776179Y-72910716D01*
X227681533Y-72746784D01*
X227554871Y-72606112D01*
X227554870Y-72606111D01*
X227401734Y-72494851D01*
X227401729Y-72494848D01*
X227228807Y-72417857D01*
X227228802Y-72417855D01*
X227097750Y-72390000D01*
X242426540Y-72390000D01*
X242446326Y-72578256D01*
X242446327Y-72578259D01*
X242504818Y-72758277D01*
X242504821Y-72758284D01*
X242599467Y-72922216D01*
X242653451Y-72982171D01*
X242726129Y-73062888D01*
X242879265Y-73174148D01*
X242879270Y-73174151D01*
X243052192Y-73251142D01*
X243052197Y-73251144D01*
X243237354Y-73290500D01*
X243237355Y-73290500D01*
X243426644Y-73290500D01*
X243426646Y-73290500D01*
X243611803Y-73251144D01*
X243784730Y-73174151D01*
X243937871Y-73062888D01*
X244064533Y-72922216D01*
X244159179Y-72758284D01*
X244217674Y-72578256D01*
X244237460Y-72390000D01*
X244217674Y-72201744D01*
X244159179Y-72021716D01*
X244064533Y-71857784D01*
X243937871Y-71717112D01*
X243937870Y-71717111D01*
X243784734Y-71605851D01*
X243784729Y-71605848D01*
X243611807Y-71528857D01*
X243611802Y-71528855D01*
X243466001Y-71497865D01*
X243426646Y-71489500D01*
X243237354Y-71489500D01*
X243204897Y-71496398D01*
X243052197Y-71528855D01*
X243052192Y-71528857D01*
X242879270Y-71605848D01*
X242879265Y-71605851D01*
X242726129Y-71717111D01*
X242599466Y-71857785D01*
X242504821Y-72021715D01*
X242504818Y-72021722D01*
X242446327Y-72201740D01*
X242446326Y-72201744D01*
X242426540Y-72390000D01*
X227097750Y-72390000D01*
X227083001Y-72386865D01*
X227043646Y-72378500D01*
X226854354Y-72378500D01*
X226821897Y-72385398D01*
X226669197Y-72417855D01*
X226669192Y-72417857D01*
X226496270Y-72494848D01*
X226496265Y-72494851D01*
X226343129Y-72606111D01*
X226216466Y-72746785D01*
X226121821Y-72910715D01*
X226121818Y-72910722D01*
X226072377Y-73062888D01*
X226063326Y-73090744D01*
X226043540Y-73279000D01*
X204496052Y-73279000D01*
X204473903Y-73196337D01*
X204374035Y-72982171D01*
X204332055Y-72922216D01*
X204238494Y-72788597D01*
X204071402Y-72621506D01*
X204071396Y-72621501D01*
X203885842Y-72491575D01*
X203842217Y-72436998D01*
X203835023Y-72367500D01*
X203866546Y-72305145D01*
X203885842Y-72288425D01*
X204009635Y-72201744D01*
X204071401Y-72158495D01*
X204238495Y-71991401D01*
X204374035Y-71797830D01*
X204473903Y-71583663D01*
X204530081Y-71374000D01*
X219312540Y-71374000D01*
X219332326Y-71562256D01*
X219332327Y-71562259D01*
X219390818Y-71742277D01*
X219390821Y-71742284D01*
X219485467Y-71906216D01*
X219612129Y-72046888D01*
X219765265Y-72158148D01*
X219765270Y-72158151D01*
X219938192Y-72235142D01*
X219938197Y-72235144D01*
X220123354Y-72274500D01*
X220123355Y-72274500D01*
X220312644Y-72274500D01*
X220312646Y-72274500D01*
X220497803Y-72235144D01*
X220670730Y-72158151D01*
X220823871Y-72046888D01*
X220950533Y-71906216D01*
X221045179Y-71742284D01*
X221103674Y-71562256D01*
X221123460Y-71374000D01*
X221103674Y-71185744D01*
X221045179Y-71005716D01*
X220950533Y-70841784D01*
X220823871Y-70701112D01*
X220823870Y-70701111D01*
X220670734Y-70589851D01*
X220670729Y-70589848D01*
X220497807Y-70512857D01*
X220497802Y-70512855D01*
X220352001Y-70481865D01*
X220312646Y-70473500D01*
X220123354Y-70473500D01*
X220090897Y-70480398D01*
X219938197Y-70512855D01*
X219938192Y-70512857D01*
X219765270Y-70589848D01*
X219765265Y-70589851D01*
X219612129Y-70701111D01*
X219485466Y-70841785D01*
X219390821Y-71005715D01*
X219390818Y-71005722D01*
X219338417Y-71166998D01*
X219332326Y-71185744D01*
X219312540Y-71374000D01*
X204530081Y-71374000D01*
X204535063Y-71355408D01*
X204555659Y-71120000D01*
X204553690Y-71097500D01*
X204545660Y-71005715D01*
X204535063Y-70884592D01*
X204473903Y-70656337D01*
X204374035Y-70442171D01*
X204284054Y-70313663D01*
X204238494Y-70248597D01*
X204071402Y-70081506D01*
X204071396Y-70081501D01*
X203885842Y-69951575D01*
X203842217Y-69896998D01*
X203835023Y-69827500D01*
X203866546Y-69765145D01*
X203885842Y-69748425D01*
X203908026Y-69732891D01*
X204071401Y-69618495D01*
X204238495Y-69451401D01*
X204374035Y-69257830D01*
X204473903Y-69043663D01*
X204535063Y-68815408D01*
X204555659Y-68580000D01*
X217661540Y-68580000D01*
X217681326Y-68768256D01*
X217681327Y-68768259D01*
X217739818Y-68948277D01*
X217739821Y-68948284D01*
X217834467Y-69112216D01*
X217888451Y-69172171D01*
X217961129Y-69252888D01*
X218114265Y-69364148D01*
X218114270Y-69364151D01*
X218287192Y-69441142D01*
X218287197Y-69441144D01*
X218472354Y-69480500D01*
X218472355Y-69480500D01*
X218661644Y-69480500D01*
X218661646Y-69480500D01*
X218846803Y-69441144D01*
X219019730Y-69364151D01*
X219172871Y-69252888D01*
X219299533Y-69112216D01*
X219394179Y-68948284D01*
X219452674Y-68768256D01*
X219472460Y-68580000D01*
X226297540Y-68580000D01*
X226317326Y-68768256D01*
X226317327Y-68768259D01*
X226375818Y-68948277D01*
X226375821Y-68948284D01*
X226470467Y-69112216D01*
X226524451Y-69172171D01*
X226597129Y-69252888D01*
X226750265Y-69364148D01*
X226750270Y-69364151D01*
X226923192Y-69441142D01*
X226923197Y-69441144D01*
X227108354Y-69480500D01*
X227108355Y-69480500D01*
X227297644Y-69480500D01*
X227297646Y-69480500D01*
X227482803Y-69441144D01*
X227655730Y-69364151D01*
X227808871Y-69252888D01*
X227935533Y-69112216D01*
X228030179Y-68948284D01*
X228088674Y-68768256D01*
X228108460Y-68580000D01*
X228088674Y-68391744D01*
X228030179Y-68211716D01*
X227935533Y-68047784D01*
X227808871Y-67907112D01*
X227808870Y-67907111D01*
X227655734Y-67795851D01*
X227655729Y-67795848D01*
X227482807Y-67718857D01*
X227482802Y-67718855D01*
X227337001Y-67687865D01*
X227297646Y-67679500D01*
X227108354Y-67679500D01*
X227075897Y-67686398D01*
X226923197Y-67718855D01*
X226923192Y-67718857D01*
X226750270Y-67795848D01*
X226750265Y-67795851D01*
X226597129Y-67907111D01*
X226470466Y-68047785D01*
X226375821Y-68211715D01*
X226375818Y-68211722D01*
X226317327Y-68391740D01*
X226317326Y-68391744D01*
X226297540Y-68580000D01*
X219472460Y-68580000D01*
X219452674Y-68391744D01*
X219394179Y-68211716D01*
X219299533Y-68047784D01*
X219172871Y-67907112D01*
X219172870Y-67907111D01*
X219019734Y-67795851D01*
X219019729Y-67795848D01*
X218846807Y-67718857D01*
X218846802Y-67718855D01*
X218701001Y-67687865D01*
X218661646Y-67679500D01*
X218472354Y-67679500D01*
X218439897Y-67686398D01*
X218287197Y-67718855D01*
X218287192Y-67718857D01*
X218114270Y-67795848D01*
X218114265Y-67795851D01*
X217961129Y-67907111D01*
X217834466Y-68047785D01*
X217739821Y-68211715D01*
X217739818Y-68211722D01*
X217681327Y-68391740D01*
X217681326Y-68391744D01*
X217661540Y-68580000D01*
X204555659Y-68580000D01*
X204553690Y-68557500D01*
X204539188Y-68391740D01*
X204535063Y-68344592D01*
X204473903Y-68116337D01*
X204374035Y-67902171D01*
X204306194Y-67805284D01*
X204238496Y-67708600D01*
X204209396Y-67679500D01*
X204116567Y-67586671D01*
X204083084Y-67525351D01*
X204088068Y-67455659D01*
X204102036Y-67437000D01*
X211946540Y-67437000D01*
X211966326Y-67625256D01*
X211966327Y-67625259D01*
X212024818Y-67805277D01*
X212024821Y-67805284D01*
X212119467Y-67969216D01*
X212190211Y-68047785D01*
X212246129Y-68109888D01*
X212399265Y-68221148D01*
X212399270Y-68221151D01*
X212572192Y-68298142D01*
X212572197Y-68298144D01*
X212757354Y-68337500D01*
X212757355Y-68337500D01*
X212946644Y-68337500D01*
X212946646Y-68337500D01*
X213131803Y-68298144D01*
X213304730Y-68221151D01*
X213457871Y-68109888D01*
X213584533Y-67969216D01*
X213679179Y-67805284D01*
X213737674Y-67625256D01*
X213757460Y-67437000D01*
X213737674Y-67248744D01*
X213679179Y-67068716D01*
X213584533Y-66904784D01*
X213457871Y-66764112D01*
X213457870Y-66764111D01*
X213304734Y-66652851D01*
X213304729Y-66652848D01*
X213131807Y-66575857D01*
X213131802Y-66575855D01*
X212986001Y-66544865D01*
X212946646Y-66536500D01*
X212757354Y-66536500D01*
X212724897Y-66543398D01*
X212572197Y-66575855D01*
X212572192Y-66575857D01*
X212399270Y-66652848D01*
X212399265Y-66652851D01*
X212246129Y-66764111D01*
X212119466Y-66904785D01*
X212024821Y-67068715D01*
X212024818Y-67068722D01*
X211966716Y-67247544D01*
X211966326Y-67248744D01*
X211946540Y-67437000D01*
X204102036Y-67437000D01*
X204129939Y-67399725D01*
X204160915Y-67382810D01*
X204292331Y-67333796D01*
X204407546Y-67247546D01*
X204493796Y-67132331D01*
X204544091Y-66997483D01*
X204550500Y-66937873D01*
X204550499Y-65142128D01*
X204544091Y-65082517D01*
X204505796Y-64979844D01*
X204493797Y-64947671D01*
X204493793Y-64947664D01*
X204407547Y-64832455D01*
X204407544Y-64832452D01*
X204292335Y-64746206D01*
X204292328Y-64746202D01*
X204157482Y-64695908D01*
X204157483Y-64695908D01*
X204097883Y-64689501D01*
X204097881Y-64689500D01*
X204097873Y-64689500D01*
X204097864Y-64689500D01*
X202302129Y-64689500D01*
X202302123Y-64689501D01*
X202242516Y-64695908D01*
X202107671Y-64746202D01*
X202107664Y-64746206D01*
X201992455Y-64832452D01*
X201992452Y-64832455D01*
X201906206Y-64947664D01*
X201906202Y-64947671D01*
X201855908Y-65082517D01*
X201849501Y-65142116D01*
X201849501Y-65142123D01*
X201849500Y-65142135D01*
X201849500Y-66937870D01*
X201849501Y-66937876D01*
X201855908Y-66997483D01*
X201906202Y-67132328D01*
X201906206Y-67132335D01*
X201992452Y-67247544D01*
X201992455Y-67247547D01*
X202107664Y-67333793D01*
X202107671Y-67333797D01*
X202239081Y-67382810D01*
X202295015Y-67424681D01*
X202319432Y-67490145D01*
X202304580Y-67558418D01*
X202283430Y-67586673D01*
X202161503Y-67708600D01*
X202025965Y-67902169D01*
X202025964Y-67902171D01*
X201926098Y-68116335D01*
X201926094Y-68116344D01*
X201864938Y-68344586D01*
X201864936Y-68344596D01*
X201844341Y-68579999D01*
X201844341Y-68580000D01*
X201864936Y-68815403D01*
X201864938Y-68815413D01*
X201926094Y-69043655D01*
X201926096Y-69043659D01*
X201926097Y-69043663D01*
X202023661Y-69252888D01*
X202025965Y-69257830D01*
X202025967Y-69257834D01*
X202161501Y-69451395D01*
X202161506Y-69451402D01*
X202328597Y-69618493D01*
X202328603Y-69618498D01*
X202514158Y-69748425D01*
X202557783Y-69803002D01*
X202564977Y-69872500D01*
X202533454Y-69934855D01*
X202514158Y-69951575D01*
X202328597Y-70081505D01*
X202161505Y-70248597D01*
X202025965Y-70442169D01*
X202025964Y-70442171D01*
X201926098Y-70656335D01*
X201926094Y-70656344D01*
X201864938Y-70884586D01*
X201864936Y-70884596D01*
X201844341Y-71119999D01*
X201844341Y-71120000D01*
X201864936Y-71355403D01*
X201864938Y-71355413D01*
X201926094Y-71583655D01*
X201926096Y-71583659D01*
X201926097Y-71583663D01*
X202025965Y-71797830D01*
X202025967Y-71797834D01*
X202161501Y-71991395D01*
X202161506Y-71991402D01*
X202328597Y-72158493D01*
X202328603Y-72158498D01*
X202514158Y-72288425D01*
X202557783Y-72343002D01*
X202564977Y-72412500D01*
X202533454Y-72474855D01*
X202514158Y-72491575D01*
X202328597Y-72621505D01*
X202161505Y-72788597D01*
X202025965Y-72982169D01*
X202025964Y-72982171D01*
X201926098Y-73196335D01*
X201926094Y-73196344D01*
X201864938Y-73424586D01*
X201864936Y-73424596D01*
X201844341Y-73659999D01*
X201844341Y-73660000D01*
X201864936Y-73895403D01*
X201864938Y-73895413D01*
X201926094Y-74123655D01*
X201926096Y-74123659D01*
X201926097Y-74123663D01*
X202025965Y-74337830D01*
X202025967Y-74337834D01*
X202161501Y-74531395D01*
X202161506Y-74531402D01*
X202328597Y-74698493D01*
X202328603Y-74698498D01*
X202514158Y-74828425D01*
X202557783Y-74883002D01*
X202564977Y-74952500D01*
X202533454Y-75014855D01*
X202514158Y-75031575D01*
X202328597Y-75161505D01*
X202161505Y-75328597D01*
X202025965Y-75522169D01*
X202025964Y-75522171D01*
X201926098Y-75736335D01*
X201926094Y-75736344D01*
X201864938Y-75964586D01*
X201864936Y-75964596D01*
X201844341Y-76199999D01*
X201844341Y-76200000D01*
X201864936Y-76435403D01*
X201864938Y-76435413D01*
X201926094Y-76663655D01*
X201926096Y-76663659D01*
X201926097Y-76663663D01*
X201995663Y-76812848D01*
X202025965Y-76877830D01*
X202025967Y-76877834D01*
X202134281Y-77032521D01*
X202161505Y-77071401D01*
X202328599Y-77238495D01*
X202443263Y-77318784D01*
X202514594Y-77368730D01*
X202558219Y-77423307D01*
X202565413Y-77492805D01*
X202533890Y-77555160D01*
X202514595Y-77571880D01*
X202328922Y-77701890D01*
X202328920Y-77701891D01*
X202161891Y-77868920D01*
X202161886Y-77868926D01*
X202026400Y-78062420D01*
X202026399Y-78062422D01*
X201926570Y-78276507D01*
X201926567Y-78276513D01*
X201869364Y-78489999D01*
X201869364Y-78490000D01*
X202766314Y-78490000D01*
X202740507Y-78530156D01*
X202700000Y-78668111D01*
X202700000Y-78811889D01*
X202740507Y-78949844D01*
X202766314Y-78990000D01*
X201869364Y-78990000D01*
X201926567Y-79203486D01*
X201926570Y-79203492D01*
X202026399Y-79417578D01*
X202161894Y-79611082D01*
X202328917Y-79778105D01*
X202515031Y-79908425D01*
X202558656Y-79963003D01*
X202565848Y-80032501D01*
X202534326Y-80094856D01*
X202515031Y-80111575D01*
X202328922Y-80241890D01*
X202328920Y-80241891D01*
X202161891Y-80408920D01*
X202161886Y-80408926D01*
X202026400Y-80602420D01*
X202026399Y-80602422D01*
X201926570Y-80816507D01*
X201926567Y-80816513D01*
X201869364Y-81029999D01*
X201869364Y-81030000D01*
X202766314Y-81030000D01*
X202740507Y-81070156D01*
X202700000Y-81208111D01*
X202700000Y-81351889D01*
X202740507Y-81489844D01*
X202766314Y-81530000D01*
X201869364Y-81530000D01*
X201926567Y-81743486D01*
X201926570Y-81743492D01*
X202026399Y-81957578D01*
X202161894Y-82151082D01*
X202328917Y-82318105D01*
X202514595Y-82448119D01*
X202558219Y-82502696D01*
X202565412Y-82572195D01*
X202533890Y-82634549D01*
X202514595Y-82651269D01*
X202328594Y-82781508D01*
X202161505Y-82948597D01*
X202025965Y-83142169D01*
X202025964Y-83142171D01*
X201926098Y-83356335D01*
X201926094Y-83356344D01*
X201864938Y-83584586D01*
X201864936Y-83584596D01*
X201844341Y-83819999D01*
X201844341Y-83820000D01*
X195580500Y-83820000D01*
X195580500Y-63119000D01*
X244966540Y-63119000D01*
X244986326Y-63307256D01*
X244986327Y-63307259D01*
X245044818Y-63487277D01*
X245044821Y-63487284D01*
X245139467Y-63651216D01*
X245266129Y-63791888D01*
X245419265Y-63903148D01*
X245419270Y-63903151D01*
X245592192Y-63980142D01*
X245592197Y-63980144D01*
X245777354Y-64019500D01*
X245777355Y-64019500D01*
X245966644Y-64019500D01*
X245966646Y-64019500D01*
X246151803Y-63980144D01*
X246324730Y-63903151D01*
X246477871Y-63791888D01*
X246604533Y-63651216D01*
X246699179Y-63487284D01*
X246757674Y-63307256D01*
X246777460Y-63119000D01*
X246757674Y-62930744D01*
X246699179Y-62750716D01*
X246604533Y-62586784D01*
X246477871Y-62446112D01*
X246477870Y-62446111D01*
X246324734Y-62334851D01*
X246324729Y-62334848D01*
X246151807Y-62257857D01*
X246151802Y-62257855D01*
X246006001Y-62226865D01*
X245966646Y-62218500D01*
X245777354Y-62218500D01*
X245744897Y-62225398D01*
X245592197Y-62257855D01*
X245592192Y-62257857D01*
X245419270Y-62334848D01*
X245419265Y-62334851D01*
X245266129Y-62446111D01*
X245139466Y-62586785D01*
X245044821Y-62750715D01*
X245044818Y-62750722D01*
X244993771Y-62907830D01*
X244986326Y-62930744D01*
X244966540Y-63119000D01*
X195580500Y-63119000D01*
X195580500Y-59182004D01*
X206884732Y-59182004D01*
X206903777Y-59436154D01*
X206959557Y-59680544D01*
X206960492Y-59684637D01*
X207053607Y-59921888D01*
X207181041Y-60142612D01*
X207339950Y-60341877D01*
X207526783Y-60515232D01*
X207737366Y-60658805D01*
X207737371Y-60658807D01*
X207737372Y-60658808D01*
X207737373Y-60658809D01*
X207859328Y-60717538D01*
X207966992Y-60769387D01*
X207966993Y-60769387D01*
X207966996Y-60769389D01*
X208210542Y-60844513D01*
X208462565Y-60882500D01*
X208717435Y-60882500D01*
X208969458Y-60844513D01*
X209213004Y-60769389D01*
X209442634Y-60658805D01*
X209653217Y-60515232D01*
X209840050Y-60341877D01*
X209998959Y-60142612D01*
X210126393Y-59921888D01*
X210219508Y-59684637D01*
X210219510Y-59684624D01*
X210220878Y-59680196D01*
X210222324Y-59680642D01*
X210253213Y-59625412D01*
X210314873Y-59592552D01*
X210384510Y-59598243D01*
X210440016Y-59640680D01*
X210458192Y-59680482D01*
X210459122Y-59680196D01*
X210460490Y-59684630D01*
X210460492Y-59684637D01*
X210553607Y-59921888D01*
X210681041Y-60142612D01*
X210839950Y-60341877D01*
X211026783Y-60515232D01*
X211237366Y-60658805D01*
X211237371Y-60658807D01*
X211237372Y-60658808D01*
X211237373Y-60658809D01*
X211359328Y-60717538D01*
X211466992Y-60769387D01*
X211466993Y-60769387D01*
X211466996Y-60769389D01*
X211710542Y-60844513D01*
X211962565Y-60882500D01*
X212217435Y-60882500D01*
X212469458Y-60844513D01*
X212713004Y-60769389D01*
X212942634Y-60658805D01*
X213153217Y-60515232D01*
X213340050Y-60341877D01*
X213498959Y-60142612D01*
X213626393Y-59921888D01*
X213719508Y-59684637D01*
X213719510Y-59684624D01*
X213720878Y-59680196D01*
X213722008Y-59680544D01*
X213753464Y-59624295D01*
X213815121Y-59591430D01*
X213884759Y-59597117D01*
X213940268Y-59639551D01*
X213958868Y-59680269D01*
X213959600Y-59680044D01*
X213960973Y-59684494D01*
X214054058Y-59921671D01*
X214054057Y-59921671D01*
X214181454Y-60142327D01*
X214181461Y-60142338D01*
X214223452Y-60194991D01*
X214223453Y-60194992D01*
X215027226Y-59391219D01*
X215065901Y-59484588D01*
X215162075Y-59609925D01*
X215287412Y-59706099D01*
X215380779Y-59744772D01*
X214576813Y-60548738D01*
X214737616Y-60658371D01*
X214737624Y-60658376D01*
X214967176Y-60768921D01*
X214967174Y-60768921D01*
X215210652Y-60844024D01*
X215210658Y-60844026D01*
X215462595Y-60881999D01*
X215462604Y-60882000D01*
X215717396Y-60882000D01*
X215717404Y-60881999D01*
X215969341Y-60844026D01*
X215969347Y-60844024D01*
X216212824Y-60768921D01*
X216442376Y-60658376D01*
X216442377Y-60658375D01*
X216603185Y-60548738D01*
X215799220Y-59744772D01*
X215892588Y-59706099D01*
X216017925Y-59609925D01*
X216114099Y-59484589D01*
X216152773Y-59391220D01*
X216956544Y-60194992D01*
X216956546Y-60194991D01*
X216998544Y-60142330D01*
X217125939Y-59921675D01*
X217150071Y-59860187D01*
X217192886Y-59804973D01*
X217258756Y-59781672D01*
X217326767Y-59797681D01*
X217375326Y-59847918D01*
X217389500Y-59905488D01*
X217389500Y-60429870D01*
X217389501Y-60429876D01*
X217395908Y-60489483D01*
X217446202Y-60624328D01*
X217446206Y-60624335D01*
X217532452Y-60739544D01*
X217532455Y-60739547D01*
X217647664Y-60825793D01*
X217647671Y-60825797D01*
X217782517Y-60876091D01*
X217782516Y-60876091D01*
X217789444Y-60876835D01*
X217842127Y-60882500D01*
X220337872Y-60882499D01*
X220397483Y-60876091D01*
X220532331Y-60825796D01*
X220647546Y-60739546D01*
X220733796Y-60624331D01*
X220784091Y-60489483D01*
X220790500Y-60429873D01*
X220790499Y-59182004D01*
X233102732Y-59182004D01*
X233121777Y-59436154D01*
X233177557Y-59680544D01*
X233178492Y-59684637D01*
X233271607Y-59921888D01*
X233399041Y-60142612D01*
X233557950Y-60341877D01*
X233744783Y-60515232D01*
X233955366Y-60658805D01*
X233955371Y-60658807D01*
X233955372Y-60658808D01*
X233955373Y-60658809D01*
X234077328Y-60717538D01*
X234184992Y-60769387D01*
X234184993Y-60769387D01*
X234184996Y-60769389D01*
X234428542Y-60844513D01*
X234680565Y-60882500D01*
X234935435Y-60882500D01*
X235187458Y-60844513D01*
X235431004Y-60769389D01*
X235660634Y-60658805D01*
X235871217Y-60515232D01*
X236058050Y-60341877D01*
X236216959Y-60142612D01*
X236344393Y-59921888D01*
X236437508Y-59684637D01*
X236437510Y-59684624D01*
X236438878Y-59680196D01*
X236440324Y-59680642D01*
X236471213Y-59625412D01*
X236532873Y-59592552D01*
X236602510Y-59598243D01*
X236658016Y-59640680D01*
X236676192Y-59680482D01*
X236677122Y-59680196D01*
X236678490Y-59684630D01*
X236678492Y-59684637D01*
X236771607Y-59921888D01*
X236899041Y-60142612D01*
X237057950Y-60341877D01*
X237244783Y-60515232D01*
X237455366Y-60658805D01*
X237455371Y-60658807D01*
X237455372Y-60658808D01*
X237455373Y-60658809D01*
X237577328Y-60717538D01*
X237684992Y-60769387D01*
X237684993Y-60769387D01*
X237684996Y-60769389D01*
X237928542Y-60844513D01*
X238180565Y-60882500D01*
X238435435Y-60882500D01*
X238687458Y-60844513D01*
X238931004Y-60769389D01*
X239160634Y-60658805D01*
X239371217Y-60515232D01*
X239558050Y-60341877D01*
X239716959Y-60142612D01*
X239844393Y-59921888D01*
X239937508Y-59684637D01*
X239937510Y-59684624D01*
X239938878Y-59680196D01*
X239940008Y-59680544D01*
X239971464Y-59624295D01*
X240033121Y-59591430D01*
X240102759Y-59597117D01*
X240158268Y-59639551D01*
X240176868Y-59680269D01*
X240177600Y-59680044D01*
X240178973Y-59684494D01*
X240272058Y-59921671D01*
X240272057Y-59921671D01*
X240399454Y-60142327D01*
X240399461Y-60142338D01*
X240441452Y-60194991D01*
X240441453Y-60194992D01*
X241245226Y-59391219D01*
X241283901Y-59484588D01*
X241380075Y-59609925D01*
X241505412Y-59706099D01*
X241598779Y-59744772D01*
X240794813Y-60548738D01*
X240955616Y-60658371D01*
X240955624Y-60658376D01*
X241185176Y-60768921D01*
X241185174Y-60768921D01*
X241428652Y-60844024D01*
X241428658Y-60844026D01*
X241680595Y-60881999D01*
X241680604Y-60882000D01*
X241935396Y-60882000D01*
X241935404Y-60881999D01*
X242187341Y-60844026D01*
X242187347Y-60844024D01*
X242430824Y-60768921D01*
X242660376Y-60658376D01*
X242660377Y-60658375D01*
X242821185Y-60548738D01*
X242017220Y-59744772D01*
X242110588Y-59706099D01*
X242235925Y-59609925D01*
X242332099Y-59484589D01*
X242370773Y-59391220D01*
X243174544Y-60194992D01*
X243174546Y-60194991D01*
X243216544Y-60142330D01*
X243343939Y-59921675D01*
X243368071Y-59860187D01*
X243410886Y-59804973D01*
X243476756Y-59781672D01*
X243544767Y-59797681D01*
X243593326Y-59847918D01*
X243607500Y-59905488D01*
X243607500Y-60429870D01*
X243607501Y-60429876D01*
X243613908Y-60489483D01*
X243664202Y-60624328D01*
X243664206Y-60624335D01*
X243750452Y-60739544D01*
X243750455Y-60739547D01*
X243865664Y-60825793D01*
X243865671Y-60825797D01*
X244000517Y-60876091D01*
X244000516Y-60876091D01*
X244007444Y-60876835D01*
X244060127Y-60882500D01*
X246555872Y-60882499D01*
X246615483Y-60876091D01*
X246750331Y-60825796D01*
X246865546Y-60739546D01*
X246951796Y-60624331D01*
X247002091Y-60489483D01*
X247008500Y-60429873D01*
X247008499Y-57934128D01*
X247002091Y-57874517D01*
X246993224Y-57850744D01*
X246951797Y-57739671D01*
X246951793Y-57739664D01*
X246865547Y-57624455D01*
X246865544Y-57624452D01*
X246750335Y-57538206D01*
X246750328Y-57538202D01*
X246615482Y-57487908D01*
X246615483Y-57487908D01*
X246555883Y-57481501D01*
X246555881Y-57481500D01*
X246555873Y-57481500D01*
X246555864Y-57481500D01*
X244060129Y-57481500D01*
X244060123Y-57481501D01*
X244000516Y-57487908D01*
X243865671Y-57538202D01*
X243865664Y-57538206D01*
X243750455Y-57624452D01*
X243750452Y-57624455D01*
X243664206Y-57739664D01*
X243664202Y-57739671D01*
X243613908Y-57874517D01*
X243607501Y-57934116D01*
X243607501Y-57934123D01*
X243607500Y-57934135D01*
X243607500Y-58458509D01*
X243587815Y-58525548D01*
X243535011Y-58571303D01*
X243465853Y-58581247D01*
X243402297Y-58552222D01*
X243368072Y-58503811D01*
X243343941Y-58442328D01*
X243343942Y-58442328D01*
X243216545Y-58221672D01*
X243174545Y-58169006D01*
X242370772Y-58972779D01*
X242332099Y-58879412D01*
X242235925Y-58754075D01*
X242110588Y-58657901D01*
X242017219Y-58619226D01*
X242821185Y-57815260D01*
X242660384Y-57705628D01*
X242660376Y-57705623D01*
X242430823Y-57595078D01*
X242430825Y-57595078D01*
X242187347Y-57519975D01*
X242187341Y-57519973D01*
X241935404Y-57482000D01*
X241680595Y-57482000D01*
X241428658Y-57519973D01*
X241428652Y-57519975D01*
X241185175Y-57595078D01*
X240955622Y-57705625D01*
X240955609Y-57705632D01*
X240794813Y-57815259D01*
X241598780Y-58619226D01*
X241505412Y-58657901D01*
X241380075Y-58754075D01*
X241283901Y-58879411D01*
X241245226Y-58972780D01*
X240441452Y-58169006D01*
X240399457Y-58221667D01*
X240272058Y-58442328D01*
X240178973Y-58679505D01*
X240177600Y-58683956D01*
X240176432Y-58683595D01*
X240145026Y-58739726D01*
X240083360Y-58772575D01*
X240013724Y-58766871D01*
X239958226Y-58724423D01*
X239939581Y-58683587D01*
X239938878Y-58683804D01*
X239937509Y-58679369D01*
X239937508Y-58679363D01*
X239844393Y-58442112D01*
X239716959Y-58221388D01*
X239558050Y-58022123D01*
X239371217Y-57848768D01*
X239160634Y-57705195D01*
X239160630Y-57705193D01*
X239160627Y-57705191D01*
X239160626Y-57705190D01*
X238931006Y-57594612D01*
X238931008Y-57594612D01*
X238687466Y-57519489D01*
X238687462Y-57519488D01*
X238687458Y-57519487D01*
X238566231Y-57501214D01*
X238435440Y-57481500D01*
X238435435Y-57481500D01*
X238180565Y-57481500D01*
X238180559Y-57481500D01*
X238023609Y-57505157D01*
X237928542Y-57519487D01*
X237928539Y-57519488D01*
X237928533Y-57519489D01*
X237684992Y-57594612D01*
X237455373Y-57705190D01*
X237455372Y-57705191D01*
X237244782Y-57848768D01*
X237057952Y-58022121D01*
X237057950Y-58022123D01*
X236899041Y-58221388D01*
X236771608Y-58442109D01*
X236678492Y-58679362D01*
X236677122Y-58683804D01*
X236675677Y-58683358D01*
X236644780Y-58738593D01*
X236583117Y-58771449D01*
X236513480Y-58765752D01*
X236457978Y-58723311D01*
X236439805Y-58683517D01*
X236438878Y-58683804D01*
X236437509Y-58679369D01*
X236437508Y-58679363D01*
X236344393Y-58442112D01*
X236216959Y-58221388D01*
X236058050Y-58022123D01*
X235871217Y-57848768D01*
X235660634Y-57705195D01*
X235660630Y-57705193D01*
X235660627Y-57705191D01*
X235660626Y-57705190D01*
X235431006Y-57594612D01*
X235431008Y-57594612D01*
X235187466Y-57519489D01*
X235187462Y-57519488D01*
X235187458Y-57519487D01*
X235066231Y-57501214D01*
X234935440Y-57481500D01*
X234935435Y-57481500D01*
X234680565Y-57481500D01*
X234680559Y-57481500D01*
X234523609Y-57505157D01*
X234428542Y-57519487D01*
X234428539Y-57519488D01*
X234428533Y-57519489D01*
X234184992Y-57594612D01*
X233955373Y-57705190D01*
X233955372Y-57705191D01*
X233744782Y-57848768D01*
X233557952Y-58022121D01*
X233557950Y-58022123D01*
X233399041Y-58221388D01*
X233271608Y-58442109D01*
X233178492Y-58679362D01*
X233178490Y-58679369D01*
X233121777Y-58927845D01*
X233102732Y-59181995D01*
X233102732Y-59182004D01*
X220790499Y-59182004D01*
X220790499Y-58039000D01*
X225789540Y-58039000D01*
X225809326Y-58227256D01*
X225809327Y-58227259D01*
X225867818Y-58407277D01*
X225867821Y-58407284D01*
X225962467Y-58571216D01*
X226063584Y-58683517D01*
X226089129Y-58711888D01*
X226242265Y-58823148D01*
X226242270Y-58823151D01*
X226415192Y-58900142D01*
X226415197Y-58900144D01*
X226600354Y-58939500D01*
X226600355Y-58939500D01*
X226789644Y-58939500D01*
X226789646Y-58939500D01*
X226974803Y-58900144D01*
X227147730Y-58823151D01*
X227300871Y-58711888D01*
X227427533Y-58571216D01*
X227522179Y-58407284D01*
X227580674Y-58227256D01*
X227600460Y-58039000D01*
X227580674Y-57850744D01*
X227522179Y-57670716D01*
X227427533Y-57506784D01*
X227300871Y-57366112D01*
X227300870Y-57366111D01*
X227147734Y-57254851D01*
X227147729Y-57254848D01*
X226974807Y-57177857D01*
X226974802Y-57177855D01*
X226829001Y-57146865D01*
X226789646Y-57138500D01*
X226600354Y-57138500D01*
X226567897Y-57145398D01*
X226415197Y-57177855D01*
X226415192Y-57177857D01*
X226242270Y-57254848D01*
X226242265Y-57254851D01*
X226089129Y-57366111D01*
X225962466Y-57506785D01*
X225867821Y-57670715D01*
X225867818Y-57670722D01*
X225816771Y-57827830D01*
X225809326Y-57850744D01*
X225789540Y-58039000D01*
X220790499Y-58039000D01*
X220790499Y-57934128D01*
X220784091Y-57874517D01*
X220775224Y-57850744D01*
X220733797Y-57739671D01*
X220733793Y-57739664D01*
X220647547Y-57624455D01*
X220647544Y-57624452D01*
X220532335Y-57538206D01*
X220532328Y-57538202D01*
X220397482Y-57487908D01*
X220397483Y-57487908D01*
X220337883Y-57481501D01*
X220337881Y-57481500D01*
X220337873Y-57481500D01*
X220337864Y-57481500D01*
X217842129Y-57481500D01*
X217842123Y-57481501D01*
X217782516Y-57487908D01*
X217647671Y-57538202D01*
X217647664Y-57538206D01*
X217532455Y-57624452D01*
X217532452Y-57624455D01*
X217446206Y-57739664D01*
X217446202Y-57739671D01*
X217395908Y-57874517D01*
X217389501Y-57934116D01*
X217389501Y-57934123D01*
X217389500Y-57934135D01*
X217389500Y-58458509D01*
X217369815Y-58525548D01*
X217317011Y-58571303D01*
X217247853Y-58581247D01*
X217184297Y-58552222D01*
X217150072Y-58503811D01*
X217125941Y-58442328D01*
X217125942Y-58442328D01*
X216998545Y-58221672D01*
X216956545Y-58169006D01*
X216152772Y-58972779D01*
X216114099Y-58879412D01*
X216017925Y-58754075D01*
X215892588Y-58657901D01*
X215799219Y-58619226D01*
X216603185Y-57815260D01*
X216442384Y-57705628D01*
X216442376Y-57705623D01*
X216212823Y-57595078D01*
X216212825Y-57595078D01*
X215969347Y-57519975D01*
X215969341Y-57519973D01*
X215717404Y-57482000D01*
X215462595Y-57482000D01*
X215210658Y-57519973D01*
X215210652Y-57519975D01*
X214967175Y-57595078D01*
X214737622Y-57705625D01*
X214737609Y-57705632D01*
X214576813Y-57815259D01*
X215380780Y-58619226D01*
X215287412Y-58657901D01*
X215162075Y-58754075D01*
X215065901Y-58879411D01*
X215027226Y-58972780D01*
X214223452Y-58169006D01*
X214181457Y-58221667D01*
X214054058Y-58442328D01*
X213960973Y-58679505D01*
X213959600Y-58683956D01*
X213958432Y-58683595D01*
X213927026Y-58739726D01*
X213865360Y-58772575D01*
X213795724Y-58766871D01*
X213740226Y-58724423D01*
X213721581Y-58683587D01*
X213720878Y-58683804D01*
X213719509Y-58679369D01*
X213719508Y-58679363D01*
X213626393Y-58442112D01*
X213498959Y-58221388D01*
X213340050Y-58022123D01*
X213153217Y-57848768D01*
X212942634Y-57705195D01*
X212942630Y-57705193D01*
X212942627Y-57705191D01*
X212942626Y-57705190D01*
X212713006Y-57594612D01*
X212713008Y-57594612D01*
X212469466Y-57519489D01*
X212469462Y-57519488D01*
X212469458Y-57519487D01*
X212348231Y-57501214D01*
X212217440Y-57481500D01*
X212217435Y-57481500D01*
X211962565Y-57481500D01*
X211962559Y-57481500D01*
X211805609Y-57505157D01*
X211710542Y-57519487D01*
X211710539Y-57519488D01*
X211710533Y-57519489D01*
X211466992Y-57594612D01*
X211237373Y-57705190D01*
X211237372Y-57705191D01*
X211026782Y-57848768D01*
X210839952Y-58022121D01*
X210839950Y-58022123D01*
X210681041Y-58221388D01*
X210553608Y-58442109D01*
X210460492Y-58679362D01*
X210459122Y-58683804D01*
X210457677Y-58683358D01*
X210426780Y-58738593D01*
X210365117Y-58771449D01*
X210295480Y-58765752D01*
X210239978Y-58723311D01*
X210221805Y-58683517D01*
X210220878Y-58683804D01*
X210219509Y-58679369D01*
X210219508Y-58679363D01*
X210126393Y-58442112D01*
X209998959Y-58221388D01*
X209840050Y-58022123D01*
X209653217Y-57848768D01*
X209442634Y-57705195D01*
X209442630Y-57705193D01*
X209442627Y-57705191D01*
X209442626Y-57705190D01*
X209213006Y-57594612D01*
X209213008Y-57594612D01*
X208969466Y-57519489D01*
X208969462Y-57519488D01*
X208969458Y-57519487D01*
X208848231Y-57501214D01*
X208717440Y-57481500D01*
X208717435Y-57481500D01*
X208462565Y-57481500D01*
X208462559Y-57481500D01*
X208305609Y-57505157D01*
X208210542Y-57519487D01*
X208210539Y-57519488D01*
X208210533Y-57519489D01*
X207966992Y-57594612D01*
X207737373Y-57705190D01*
X207737372Y-57705191D01*
X207526782Y-57848768D01*
X207339952Y-58022121D01*
X207339950Y-58022123D01*
X207181041Y-58221388D01*
X207053608Y-58442109D01*
X206960492Y-58679362D01*
X206960490Y-58679369D01*
X206903777Y-58927845D01*
X206884732Y-59181995D01*
X206884732Y-59182004D01*
X195580500Y-59182004D01*
X195580500Y-48263479D01*
X195580695Y-48256528D01*
X195580773Y-48255123D01*
X195586989Y-48144450D01*
X195597200Y-47975642D01*
X195598719Y-47962413D01*
X195621169Y-47830282D01*
X195621388Y-47829044D01*
X195648009Y-47683780D01*
X195650812Y-47671855D01*
X195689040Y-47539161D01*
X195689757Y-47536772D01*
X195732427Y-47399839D01*
X195736231Y-47389330D01*
X195789714Y-47260214D01*
X195791109Y-47256984D01*
X195849307Y-47127673D01*
X195853821Y-47118650D01*
X195921820Y-46995615D01*
X195924172Y-46991549D01*
X195997051Y-46870991D01*
X196002027Y-46863406D01*
X196083605Y-46748431D01*
X196087048Y-46743815D01*
X196173697Y-46633215D01*
X196178797Y-46627122D01*
X196272892Y-46521829D01*
X196277603Y-46516847D01*
X196376847Y-46417603D01*
X196381829Y-46412892D01*
X196487122Y-46318797D01*
X196493215Y-46313697D01*
X196603815Y-46227048D01*
X196608431Y-46223605D01*
X196723410Y-46142024D01*
X196730991Y-46137051D01*
X196851549Y-46064172D01*
X196855615Y-46061820D01*
X196978650Y-45993821D01*
X196987673Y-45989307D01*
X197116984Y-45931109D01*
X197120214Y-45929714D01*
X197249330Y-45876231D01*
X197259839Y-45872427D01*
X197396772Y-45829757D01*
X197399161Y-45829040D01*
X197531855Y-45790812D01*
X197543780Y-45788009D01*
X197689044Y-45761388D01*
X197690282Y-45761169D01*
X197822413Y-45738719D01*
X197835642Y-45737200D01*
X198004450Y-45726989D01*
X198116528Y-45720695D01*
X198123479Y-45720500D01*
X256536521Y-45720500D01*
X256543471Y-45720694D01*
G37*
G04 #@! TD.AperFunction*
M02*
