%TF.GenerationSoftware,KiCad,Pcbnew,7.0.10*%
%TF.CreationDate,2024-03-17T22:01:36+02:00*%
%TF.ProjectId,MasterShield,4d617374-6572-4536-9869-656c642e6b69,rev?*%
%TF.SameCoordinates,Original*%
%TF.FileFunction,Drillmap*%
%TF.FilePolarity,Positive*%
%FSLAX45Y45*%
G04 Gerber Fmt 4.5, Leading zero omitted, Abs format (unit mm)*
G04 Created by KiCad (PCBNEW 7.0.10) date 2024-03-17 22:01:36*
%MOMM*%
%LPD*%
G01*
G04 APERTURE LIST*
%ADD10C,0.100000*%
%ADD11C,0.200000*%
%ADD12C,0.120000*%
G04 APERTURE END LIST*
D10*
X19558000Y-13462000D02*
G75*
G03*
X19812000Y-13716000I254000J0D01*
G01*
X19812000Y-4572000D02*
G75*
G03*
X19558000Y-4826000I0J-254000D01*
G01*
X25654000Y-13716000D02*
X20066000Y-13716000D01*
X20066000Y-13716000D02*
X19812000Y-13716000D01*
X19558000Y-13462000D02*
X19558000Y-4826000D01*
X25654000Y-13716000D02*
G75*
G03*
X25908000Y-13462000I0J254000D01*
G01*
X19812000Y-4572000D02*
X25654000Y-4572000D01*
X25908000Y-4826000D02*
X25908000Y-13462000D01*
X25908000Y-4826000D02*
G75*
G03*
X25654000Y-4572000I-254000J0D01*
G01*
D11*
D10*
X20642900Y-6584000D02*
X20682900Y-6624000D01*
X20682900Y-6584000D02*
X20642900Y-6624000D01*
X20922300Y-6977700D02*
X20962300Y-7017700D01*
X20962300Y-6977700D02*
X20922300Y-7017700D01*
X21125500Y-8209600D02*
X21165500Y-8249600D01*
X21165500Y-8209600D02*
X21125500Y-8249600D01*
X21176300Y-7701600D02*
X21216300Y-7741600D01*
X21216300Y-7701600D02*
X21176300Y-7741600D01*
X21265200Y-6723700D02*
X21305200Y-6763700D01*
X21305200Y-6723700D02*
X21265200Y-6763700D01*
X21468400Y-7942900D02*
X21508400Y-7982900D01*
X21508400Y-7942900D02*
X21468400Y-7982900D01*
X21722400Y-8793800D02*
X21762400Y-8833800D01*
X21762400Y-8793800D02*
X21722400Y-8833800D01*
X21836700Y-6838000D02*
X21876700Y-6878000D01*
X21876700Y-6838000D02*
X21836700Y-6878000D01*
X21925600Y-8819200D02*
X21965600Y-8859200D01*
X21965600Y-8819200D02*
X21925600Y-8859200D01*
X21925600Y-11816400D02*
X21965600Y-11856400D01*
X21965600Y-11816400D02*
X21925600Y-11856400D01*
X21925600Y-12006900D02*
X21965600Y-12046900D01*
X21965600Y-12006900D02*
X21925600Y-12046900D01*
X21925600Y-12197400D02*
X21965600Y-12237400D01*
X21965600Y-12197400D02*
X21925600Y-12237400D01*
X21925600Y-12387900D02*
X21965600Y-12427900D01*
X21965600Y-12387900D02*
X21925600Y-12427900D01*
X21951000Y-7473000D02*
X21991000Y-7513000D01*
X21991000Y-7473000D02*
X21951000Y-7513000D01*
X21963700Y-11054400D02*
X22003700Y-11094400D01*
X22003700Y-11054400D02*
X21963700Y-11094400D01*
X21963700Y-11308400D02*
X22003700Y-11348400D01*
X22003700Y-11308400D02*
X21963700Y-11348400D01*
X22001800Y-7117400D02*
X22041800Y-7157400D01*
X22041800Y-7117400D02*
X22001800Y-7157400D01*
X22027200Y-7955600D02*
X22067200Y-7995600D01*
X22067200Y-7955600D02*
X22027200Y-7995600D01*
X22027200Y-8958900D02*
X22067200Y-8998900D01*
X22067200Y-8958900D02*
X22027200Y-8998900D01*
X22048241Y-10181686D02*
X22088241Y-10221686D01*
X22088241Y-10181686D02*
X22048241Y-10221686D01*
X22052600Y-10292400D02*
X22092600Y-10332400D01*
X22092600Y-10292400D02*
X22052600Y-10332400D01*
X22141500Y-11054400D02*
X22181500Y-11094400D01*
X22181500Y-11054400D02*
X22141500Y-11094400D01*
X22141500Y-11308400D02*
X22181500Y-11348400D01*
X22181500Y-11308400D02*
X22141500Y-11348400D01*
X22179600Y-11816400D02*
X22219600Y-11856400D01*
X22219600Y-11816400D02*
X22179600Y-11856400D01*
X22179600Y-12006900D02*
X22219600Y-12046900D01*
X22219600Y-12006900D02*
X22179600Y-12046900D01*
X22179600Y-12197400D02*
X22219600Y-12237400D01*
X22219600Y-12197400D02*
X22179600Y-12237400D01*
X22179600Y-12387900D02*
X22219600Y-12427900D01*
X22219600Y-12387900D02*
X22179600Y-12427900D01*
X22193740Y-8202500D02*
X22233740Y-8242500D01*
X22233740Y-8202500D02*
X22193740Y-8242500D01*
X22243100Y-8933500D02*
X22283100Y-8973500D01*
X22283100Y-8933500D02*
X22243100Y-8973500D01*
X22306600Y-11054400D02*
X22346600Y-11094400D01*
X22346600Y-11054400D02*
X22306600Y-11094400D01*
X22306600Y-11308400D02*
X22346600Y-11348400D01*
X22346600Y-11308400D02*
X22306600Y-11348400D01*
X22363598Y-8520902D02*
X22403598Y-8560902D01*
X22403598Y-8520902D02*
X22363598Y-8560902D01*
X22433600Y-11816400D02*
X22473600Y-11856400D01*
X22473600Y-11816400D02*
X22433600Y-11856400D01*
X22433600Y-12006900D02*
X22473600Y-12046900D01*
X22473600Y-12006900D02*
X22433600Y-12046900D01*
X22433600Y-12197400D02*
X22473600Y-12237400D01*
X22473600Y-12197400D02*
X22433600Y-12237400D01*
X22433600Y-12387900D02*
X22473600Y-12427900D01*
X22473600Y-12387900D02*
X22433600Y-12427900D01*
X22497100Y-6444300D02*
X22537100Y-6484300D01*
X22537100Y-6444300D02*
X22497100Y-6484300D01*
X22509800Y-7765100D02*
X22549800Y-7805100D01*
X22549800Y-7765100D02*
X22509800Y-7805100D01*
X22535200Y-8819200D02*
X22575200Y-8859200D01*
X22575200Y-8819200D02*
X22535200Y-8859200D01*
X22630450Y-8431850D02*
X22670450Y-8471850D01*
X22670450Y-8431850D02*
X22630450Y-8471850D01*
X22649500Y-5783900D02*
X22689500Y-5823900D01*
X22689500Y-5783900D02*
X22649500Y-5823900D01*
X22674900Y-7307900D02*
X22714900Y-7347900D01*
X22714900Y-7307900D02*
X22674900Y-7347900D01*
X22687600Y-8057200D02*
X22727600Y-8097200D01*
X22727600Y-8057200D02*
X22687600Y-8097200D01*
X22687600Y-10165400D02*
X22727600Y-10205400D01*
X22727600Y-10165400D02*
X22687600Y-10205400D01*
X22687600Y-10292400D02*
X22727600Y-10332400D01*
X22727600Y-10292400D02*
X22687600Y-10332400D01*
X22687600Y-11816400D02*
X22727600Y-11856400D01*
X22727600Y-11816400D02*
X22687600Y-11856400D01*
X22687600Y-12006900D02*
X22727600Y-12046900D01*
X22727600Y-12006900D02*
X22687600Y-12046900D01*
X22687600Y-12197400D02*
X22727600Y-12237400D01*
X22727600Y-12197400D02*
X22687600Y-12237400D01*
X22687600Y-12387900D02*
X22727600Y-12427900D01*
X22727600Y-12387900D02*
X22687600Y-12427900D01*
X22700300Y-6838000D02*
X22740300Y-6878000D01*
X22740300Y-6838000D02*
X22700300Y-6878000D01*
X22725700Y-7561900D02*
X22765700Y-7601900D01*
X22765700Y-7561900D02*
X22725700Y-7601900D01*
X22751100Y-10800400D02*
X22791100Y-10840400D01*
X22791100Y-10800400D02*
X22751100Y-10840400D01*
X22878100Y-7180900D02*
X22918100Y-7220900D01*
X22918100Y-7180900D02*
X22878100Y-7220900D01*
X22992400Y-7453800D02*
X23032400Y-7493800D01*
X23032400Y-7453800D02*
X22992400Y-7493800D01*
X23246400Y-7739700D02*
X23286400Y-7779700D01*
X23286400Y-7739700D02*
X23246400Y-7779700D01*
X23259100Y-11625900D02*
X23299100Y-11665900D01*
X23299100Y-11625900D02*
X23259100Y-11665900D01*
X23360700Y-7752400D02*
X23400700Y-7792400D01*
X23400700Y-7752400D02*
X23360700Y-7792400D01*
X23386100Y-11625900D02*
X23426100Y-11665900D01*
X23426100Y-11625900D02*
X23386100Y-11665900D01*
X23449600Y-10165400D02*
X23489600Y-10205400D01*
X23489600Y-10165400D02*
X23449600Y-10205400D01*
X23449600Y-10355900D02*
X23489600Y-10395900D01*
X23489600Y-10355900D02*
X23449600Y-10395900D01*
X23449600Y-11003600D02*
X23489600Y-11043600D01*
X23489600Y-11003600D02*
X23449600Y-11043600D01*
X23449600Y-11232200D02*
X23489600Y-11272200D01*
X23489600Y-11232200D02*
X23449600Y-11272200D01*
X23591840Y-8905560D02*
X23631840Y-8945560D01*
X23631840Y-8905560D02*
X23591840Y-8945560D01*
X23599460Y-8783640D02*
X23639460Y-8823640D01*
X23639460Y-8783640D02*
X23599460Y-8823640D01*
X23690900Y-6952300D02*
X23730900Y-6992300D01*
X23730900Y-6952300D02*
X23690900Y-6992300D01*
X23983000Y-8527100D02*
X24023000Y-8567100D01*
X24023000Y-8527100D02*
X23983000Y-8567100D01*
X23983000Y-8654100D02*
X24023000Y-8694100D01*
X24023000Y-8654100D02*
X23983000Y-8694100D01*
X23983000Y-9047800D02*
X24023000Y-9087800D01*
X24023000Y-9047800D02*
X23983000Y-9087800D01*
X23983000Y-9162100D02*
X24023000Y-9202100D01*
X24023000Y-9162100D02*
X23983000Y-9202100D01*
X23983000Y-9543100D02*
X24023000Y-9583100D01*
X24023000Y-9543100D02*
X23983000Y-9583100D01*
X23983000Y-9670100D02*
X24023000Y-9710100D01*
X24023000Y-9670100D02*
X23983000Y-9710100D01*
X24313200Y-7219000D02*
X24353200Y-7259000D01*
X24353200Y-7219000D02*
X24313200Y-7259000D01*
X24491000Y-8270247D02*
X24531000Y-8310247D01*
X24531000Y-8270247D02*
X24491000Y-8310247D01*
X24491000Y-8527100D02*
X24531000Y-8567100D01*
X24531000Y-8527100D02*
X24491000Y-8567100D01*
X24491000Y-9670100D02*
X24531000Y-9710100D01*
X24531000Y-9670100D02*
X24491000Y-9710100D01*
X24529100Y-9035100D02*
X24569100Y-9075100D01*
X24569100Y-9035100D02*
X24529100Y-9075100D01*
X24529100Y-9543100D02*
X24569100Y-9583100D01*
X24569100Y-9543100D02*
X24529100Y-9583100D01*
X24567200Y-6291900D02*
X24607200Y-6331900D01*
X24607200Y-6291900D02*
X24567200Y-6331900D01*
X24567200Y-6787200D02*
X24607200Y-6827200D01*
X24607200Y-6787200D02*
X24567200Y-6827200D01*
X24618000Y-8285800D02*
X24658000Y-8325800D01*
X24658000Y-8285800D02*
X24618000Y-8325800D01*
X24745000Y-8209600D02*
X24785000Y-8249600D01*
X24785000Y-8209600D02*
X24745000Y-8249600D01*
X20370000Y-6604000D02*
G75*
G03*
X20270000Y-6604000I-50000J0D01*
G01*
X20270000Y-6604000D02*
G75*
G03*
X20370000Y-6604000I50000J0D01*
G01*
X20370000Y-6858000D02*
G75*
G03*
X20270000Y-6858000I-50000J0D01*
G01*
X20270000Y-6858000D02*
G75*
G03*
X20370000Y-6858000I50000J0D01*
G01*
X20370000Y-7112000D02*
G75*
G03*
X20270000Y-7112000I-50000J0D01*
G01*
X20270000Y-7112000D02*
G75*
G03*
X20370000Y-7112000I50000J0D01*
G01*
X20370000Y-7366000D02*
G75*
G03*
X20270000Y-7366000I-50000J0D01*
G01*
X20270000Y-7366000D02*
G75*
G03*
X20370000Y-7366000I50000J0D01*
G01*
X20370000Y-7620000D02*
G75*
G03*
X20270000Y-7620000I-50000J0D01*
G01*
X20270000Y-7620000D02*
G75*
G03*
X20370000Y-7620000I50000J0D01*
G01*
X20370000Y-7874000D02*
G75*
G03*
X20270000Y-7874000I-50000J0D01*
G01*
X20270000Y-7874000D02*
G75*
G03*
X20370000Y-7874000I50000J0D01*
G01*
X20370000Y-8128000D02*
G75*
G03*
X20270000Y-8128000I-50000J0D01*
G01*
X20270000Y-8128000D02*
G75*
G03*
X20370000Y-8128000I50000J0D01*
G01*
X20370000Y-8382000D02*
G75*
G03*
X20270000Y-8382000I-50000J0D01*
G01*
X20270000Y-8382000D02*
G75*
G03*
X20370000Y-8382000I50000J0D01*
G01*
X20370000Y-8890000D02*
G75*
G03*
X20270000Y-8890000I-50000J0D01*
G01*
X20270000Y-8890000D02*
G75*
G03*
X20370000Y-8890000I50000J0D01*
G01*
X20370000Y-9144000D02*
G75*
G03*
X20270000Y-9144000I-50000J0D01*
G01*
X20270000Y-9144000D02*
G75*
G03*
X20370000Y-9144000I50000J0D01*
G01*
X20370000Y-9398000D02*
G75*
G03*
X20270000Y-9398000I-50000J0D01*
G01*
X20270000Y-9398000D02*
G75*
G03*
X20370000Y-9398000I50000J0D01*
G01*
X20370000Y-9652000D02*
G75*
G03*
X20270000Y-9652000I-50000J0D01*
G01*
X20270000Y-9652000D02*
G75*
G03*
X20370000Y-9652000I50000J0D01*
G01*
X20370000Y-9906000D02*
G75*
G03*
X20270000Y-9906000I-50000J0D01*
G01*
X20270000Y-9906000D02*
G75*
G03*
X20370000Y-9906000I50000J0D01*
G01*
X20370000Y-10160000D02*
G75*
G03*
X20270000Y-10160000I-50000J0D01*
G01*
X20270000Y-10160000D02*
G75*
G03*
X20370000Y-10160000I50000J0D01*
G01*
X25196000Y-5715000D02*
G75*
G03*
X25096000Y-5715000I-50000J0D01*
G01*
X25096000Y-5715000D02*
G75*
G03*
X25196000Y-5715000I50000J0D01*
G01*
X25196000Y-5969000D02*
G75*
G03*
X25096000Y-5969000I-50000J0D01*
G01*
X25096000Y-5969000D02*
G75*
G03*
X25196000Y-5969000I50000J0D01*
G01*
X25196000Y-6223000D02*
G75*
G03*
X25096000Y-6223000I-50000J0D01*
G01*
X25096000Y-6223000D02*
G75*
G03*
X25196000Y-6223000I50000J0D01*
G01*
X25196000Y-6477000D02*
G75*
G03*
X25096000Y-6477000I-50000J0D01*
G01*
X25096000Y-6477000D02*
G75*
G03*
X25196000Y-6477000I50000J0D01*
G01*
X25196000Y-6731000D02*
G75*
G03*
X25096000Y-6731000I-50000J0D01*
G01*
X25096000Y-6731000D02*
G75*
G03*
X25196000Y-6731000I50000J0D01*
G01*
X25196000Y-6985000D02*
G75*
G03*
X25096000Y-6985000I-50000J0D01*
G01*
X25096000Y-6985000D02*
G75*
G03*
X25196000Y-6985000I50000J0D01*
G01*
X25196000Y-7239000D02*
G75*
G03*
X25096000Y-7239000I-50000J0D01*
G01*
X25096000Y-7239000D02*
G75*
G03*
X25196000Y-7239000I50000J0D01*
G01*
X25196000Y-7493000D02*
G75*
G03*
X25096000Y-7493000I-50000J0D01*
G01*
X25096000Y-7493000D02*
G75*
G03*
X25196000Y-7493000I50000J0D01*
G01*
X25196000Y-7747000D02*
G75*
G03*
X25096000Y-7747000I-50000J0D01*
G01*
X25096000Y-7747000D02*
G75*
G03*
X25196000Y-7747000I50000J0D01*
G01*
X25196000Y-8001000D02*
G75*
G03*
X25096000Y-8001000I-50000J0D01*
G01*
X25096000Y-8001000D02*
G75*
G03*
X25196000Y-8001000I50000J0D01*
G01*
X25196000Y-8382000D02*
G75*
G03*
X25096000Y-8382000I-50000J0D01*
G01*
X25096000Y-8382000D02*
G75*
G03*
X25196000Y-8382000I50000J0D01*
G01*
X25196000Y-8636000D02*
G75*
G03*
X25096000Y-8636000I-50000J0D01*
G01*
X25096000Y-8636000D02*
G75*
G03*
X25196000Y-8636000I50000J0D01*
G01*
X25196000Y-8890000D02*
G75*
G03*
X25096000Y-8890000I-50000J0D01*
G01*
X25096000Y-8890000D02*
G75*
G03*
X25196000Y-8890000I50000J0D01*
G01*
X25196000Y-9144000D02*
G75*
G03*
X25096000Y-9144000I-50000J0D01*
G01*
X25096000Y-9144000D02*
G75*
G03*
X25196000Y-9144000I50000J0D01*
G01*
X25196000Y-9398000D02*
G75*
G03*
X25096000Y-9398000I-50000J0D01*
G01*
X25096000Y-9398000D02*
G75*
G03*
X25196000Y-9398000I50000J0D01*
G01*
X25196000Y-9652000D02*
G75*
G03*
X25096000Y-9652000I-50000J0D01*
G01*
X25096000Y-9652000D02*
G75*
G03*
X25196000Y-9652000I50000J0D01*
G01*
X25196000Y-9906000D02*
G75*
G03*
X25096000Y-9906000I-50000J0D01*
G01*
X25096000Y-9906000D02*
G75*
G03*
X25196000Y-9906000I50000J0D01*
G01*
X25196000Y-10160000D02*
G75*
G03*
X25096000Y-10160000I-50000J0D01*
G01*
X25096000Y-10160000D02*
G75*
G03*
X25196000Y-10160000I50000J0D01*
G01*
D12*
X20523200Y-10747700D02*
X20523200Y-10867700D01*
X20463200Y-10807700D02*
X20583200Y-10807700D01*
X20523200Y-11097700D02*
X20523200Y-11217700D01*
X20463200Y-11157700D02*
X20583200Y-11157700D01*
X20523200Y-11447700D02*
X20523200Y-11567700D01*
X20463200Y-11507700D02*
X20583200Y-11507700D01*
X20523200Y-11797700D02*
X20523200Y-11917700D01*
X20463200Y-11857700D02*
X20583200Y-11857700D01*
X20859000Y-5858200D02*
X20859000Y-5978200D01*
X20799000Y-5918200D02*
X20919000Y-5918200D01*
X21209000Y-5858200D02*
X21209000Y-5978200D01*
X21149000Y-5918200D02*
X21269000Y-5918200D01*
X21559000Y-5858200D02*
X21559000Y-5978200D01*
X21499000Y-5918200D02*
X21619000Y-5918200D01*
X21909000Y-5858200D02*
X21909000Y-5978200D01*
X21849000Y-5918200D02*
X21969000Y-5918200D01*
X23480800Y-5858200D02*
X23480800Y-5978200D01*
X23420800Y-5918200D02*
X23540800Y-5918200D01*
X23830800Y-5858200D02*
X23830800Y-5978200D01*
X23770800Y-5918200D02*
X23890800Y-5918200D01*
X24180800Y-5858200D02*
X24180800Y-5978200D01*
X24120800Y-5918200D02*
X24240800Y-5918200D01*
X24530800Y-5858200D02*
X24530800Y-5978200D01*
X24470800Y-5918200D02*
X24590800Y-5918200D01*
X24947880Y-10747700D02*
X24947880Y-10867700D01*
X24887880Y-10807700D02*
X25007880Y-10807700D01*
X24947880Y-11097700D02*
X24947880Y-11217700D01*
X24887880Y-11157700D02*
X25007880Y-11157700D01*
X24947880Y-11447700D02*
X24947880Y-11567700D01*
X24887880Y-11507700D02*
X25007880Y-11507700D01*
X24947880Y-11797700D02*
X24947880Y-11917700D01*
X24887880Y-11857700D02*
X25007880Y-11857700D01*
D11*
X19813777Y-14032484D02*
X19813777Y-13832484D01*
X19813777Y-13832484D02*
X19861396Y-13832484D01*
X19861396Y-13832484D02*
X19889967Y-13842008D01*
X19889967Y-13842008D02*
X19909015Y-13861055D01*
X19909015Y-13861055D02*
X19918539Y-13880103D01*
X19918539Y-13880103D02*
X19928063Y-13918198D01*
X19928063Y-13918198D02*
X19928063Y-13946769D01*
X19928063Y-13946769D02*
X19918539Y-13984865D01*
X19918539Y-13984865D02*
X19909015Y-14003912D01*
X19909015Y-14003912D02*
X19889967Y-14022960D01*
X19889967Y-14022960D02*
X19861396Y-14032484D01*
X19861396Y-14032484D02*
X19813777Y-14032484D01*
X20013777Y-14032484D02*
X20013777Y-13899150D01*
X20013777Y-13937246D02*
X20023301Y-13918198D01*
X20023301Y-13918198D02*
X20032824Y-13908674D01*
X20032824Y-13908674D02*
X20051872Y-13899150D01*
X20051872Y-13899150D02*
X20070920Y-13899150D01*
X20137586Y-14032484D02*
X20137586Y-13899150D01*
X20137586Y-13832484D02*
X20128063Y-13842008D01*
X20128063Y-13842008D02*
X20137586Y-13851531D01*
X20137586Y-13851531D02*
X20147110Y-13842008D01*
X20147110Y-13842008D02*
X20137586Y-13832484D01*
X20137586Y-13832484D02*
X20137586Y-13851531D01*
X20261396Y-14032484D02*
X20242348Y-14022960D01*
X20242348Y-14022960D02*
X20232824Y-14003912D01*
X20232824Y-14003912D02*
X20232824Y-13832484D01*
X20366158Y-14032484D02*
X20347110Y-14022960D01*
X20347110Y-14022960D02*
X20337586Y-14003912D01*
X20337586Y-14003912D02*
X20337586Y-13832484D01*
X20594729Y-14032484D02*
X20594729Y-13832484D01*
X20594729Y-13832484D02*
X20661396Y-13975341D01*
X20661396Y-13975341D02*
X20728063Y-13832484D01*
X20728063Y-13832484D02*
X20728063Y-14032484D01*
X20909015Y-14032484D02*
X20909015Y-13927722D01*
X20909015Y-13927722D02*
X20899491Y-13908674D01*
X20899491Y-13908674D02*
X20880444Y-13899150D01*
X20880444Y-13899150D02*
X20842348Y-13899150D01*
X20842348Y-13899150D02*
X20823301Y-13908674D01*
X20909015Y-14022960D02*
X20889967Y-14032484D01*
X20889967Y-14032484D02*
X20842348Y-14032484D01*
X20842348Y-14032484D02*
X20823301Y-14022960D01*
X20823301Y-14022960D02*
X20813777Y-14003912D01*
X20813777Y-14003912D02*
X20813777Y-13984865D01*
X20813777Y-13984865D02*
X20823301Y-13965817D01*
X20823301Y-13965817D02*
X20842348Y-13956293D01*
X20842348Y-13956293D02*
X20889967Y-13956293D01*
X20889967Y-13956293D02*
X20909015Y-13946769D01*
X21004253Y-13899150D02*
X21004253Y-14099150D01*
X21004253Y-13908674D02*
X21023301Y-13899150D01*
X21023301Y-13899150D02*
X21061396Y-13899150D01*
X21061396Y-13899150D02*
X21080444Y-13908674D01*
X21080444Y-13908674D02*
X21089967Y-13918198D01*
X21089967Y-13918198D02*
X21099491Y-13937246D01*
X21099491Y-13937246D02*
X21099491Y-13994388D01*
X21099491Y-13994388D02*
X21089967Y-14013436D01*
X21089967Y-14013436D02*
X21080444Y-14022960D01*
X21080444Y-14022960D02*
X21061396Y-14032484D01*
X21061396Y-14032484D02*
X21023301Y-14032484D01*
X21023301Y-14032484D02*
X21004253Y-14022960D01*
X21185205Y-14013436D02*
X21194729Y-14022960D01*
X21194729Y-14022960D02*
X21185205Y-14032484D01*
X21185205Y-14032484D02*
X21175682Y-14022960D01*
X21175682Y-14022960D02*
X21185205Y-14013436D01*
X21185205Y-14013436D02*
X21185205Y-14032484D01*
X21185205Y-13908674D02*
X21194729Y-13918198D01*
X21194729Y-13918198D02*
X21185205Y-13927722D01*
X21185205Y-13927722D02*
X21175682Y-13918198D01*
X21175682Y-13918198D02*
X21185205Y-13908674D01*
X21185205Y-13908674D02*
X21185205Y-13927722D01*
D10*
X19513000Y-14341000D02*
X19553000Y-14381000D01*
X19553000Y-14341000D02*
X19513000Y-14381000D01*
D11*
X19851872Y-14252484D02*
X19870920Y-14252484D01*
X19870920Y-14252484D02*
X19889967Y-14262008D01*
X19889967Y-14262008D02*
X19899491Y-14271531D01*
X19899491Y-14271531D02*
X19909015Y-14290579D01*
X19909015Y-14290579D02*
X19918539Y-14328674D01*
X19918539Y-14328674D02*
X19918539Y-14376293D01*
X19918539Y-14376293D02*
X19909015Y-14414388D01*
X19909015Y-14414388D02*
X19899491Y-14433436D01*
X19899491Y-14433436D02*
X19889967Y-14442960D01*
X19889967Y-14442960D02*
X19870920Y-14452484D01*
X19870920Y-14452484D02*
X19851872Y-14452484D01*
X19851872Y-14452484D02*
X19832824Y-14442960D01*
X19832824Y-14442960D02*
X19823301Y-14433436D01*
X19823301Y-14433436D02*
X19813777Y-14414388D01*
X19813777Y-14414388D02*
X19804253Y-14376293D01*
X19804253Y-14376293D02*
X19804253Y-14328674D01*
X19804253Y-14328674D02*
X19813777Y-14290579D01*
X19813777Y-14290579D02*
X19823301Y-14271531D01*
X19823301Y-14271531D02*
X19832824Y-14262008D01*
X19832824Y-14262008D02*
X19851872Y-14252484D01*
X20004253Y-14433436D02*
X20013777Y-14442960D01*
X20013777Y-14442960D02*
X20004253Y-14452484D01*
X20004253Y-14452484D02*
X19994729Y-14442960D01*
X19994729Y-14442960D02*
X20004253Y-14433436D01*
X20004253Y-14433436D02*
X20004253Y-14452484D01*
X20185205Y-14319150D02*
X20185205Y-14452484D01*
X20137586Y-14242960D02*
X20089967Y-14385817D01*
X20089967Y-14385817D02*
X20213777Y-14385817D01*
X20328063Y-14252484D02*
X20347110Y-14252484D01*
X20347110Y-14252484D02*
X20366158Y-14262008D01*
X20366158Y-14262008D02*
X20375682Y-14271531D01*
X20375682Y-14271531D02*
X20385205Y-14290579D01*
X20385205Y-14290579D02*
X20394729Y-14328674D01*
X20394729Y-14328674D02*
X20394729Y-14376293D01*
X20394729Y-14376293D02*
X20385205Y-14414388D01*
X20385205Y-14414388D02*
X20375682Y-14433436D01*
X20375682Y-14433436D02*
X20366158Y-14442960D01*
X20366158Y-14442960D02*
X20347110Y-14452484D01*
X20347110Y-14452484D02*
X20328063Y-14452484D01*
X20328063Y-14452484D02*
X20309015Y-14442960D01*
X20309015Y-14442960D02*
X20299491Y-14433436D01*
X20299491Y-14433436D02*
X20289967Y-14414388D01*
X20289967Y-14414388D02*
X20280444Y-14376293D01*
X20280444Y-14376293D02*
X20280444Y-14328674D01*
X20280444Y-14328674D02*
X20289967Y-14290579D01*
X20289967Y-14290579D02*
X20299491Y-14271531D01*
X20299491Y-14271531D02*
X20309015Y-14262008D01*
X20309015Y-14262008D02*
X20328063Y-14252484D01*
X20518539Y-14252484D02*
X20537586Y-14252484D01*
X20537586Y-14252484D02*
X20556634Y-14262008D01*
X20556634Y-14262008D02*
X20566158Y-14271531D01*
X20566158Y-14271531D02*
X20575682Y-14290579D01*
X20575682Y-14290579D02*
X20585205Y-14328674D01*
X20585205Y-14328674D02*
X20585205Y-14376293D01*
X20585205Y-14376293D02*
X20575682Y-14414388D01*
X20575682Y-14414388D02*
X20566158Y-14433436D01*
X20566158Y-14433436D02*
X20556634Y-14442960D01*
X20556634Y-14442960D02*
X20537586Y-14452484D01*
X20537586Y-14452484D02*
X20518539Y-14452484D01*
X20518539Y-14452484D02*
X20499491Y-14442960D01*
X20499491Y-14442960D02*
X20489967Y-14433436D01*
X20489967Y-14433436D02*
X20480444Y-14414388D01*
X20480444Y-14414388D02*
X20470920Y-14376293D01*
X20470920Y-14376293D02*
X20470920Y-14328674D01*
X20470920Y-14328674D02*
X20480444Y-14290579D01*
X20480444Y-14290579D02*
X20489967Y-14271531D01*
X20489967Y-14271531D02*
X20499491Y-14262008D01*
X20499491Y-14262008D02*
X20518539Y-14252484D01*
X20670920Y-14452484D02*
X20670920Y-14319150D01*
X20670920Y-14338198D02*
X20680444Y-14328674D01*
X20680444Y-14328674D02*
X20699491Y-14319150D01*
X20699491Y-14319150D02*
X20728063Y-14319150D01*
X20728063Y-14319150D02*
X20747110Y-14328674D01*
X20747110Y-14328674D02*
X20756634Y-14347722D01*
X20756634Y-14347722D02*
X20756634Y-14452484D01*
X20756634Y-14347722D02*
X20766158Y-14328674D01*
X20766158Y-14328674D02*
X20785205Y-14319150D01*
X20785205Y-14319150D02*
X20813777Y-14319150D01*
X20813777Y-14319150D02*
X20832825Y-14328674D01*
X20832825Y-14328674D02*
X20842348Y-14347722D01*
X20842348Y-14347722D02*
X20842348Y-14452484D01*
X20937586Y-14452484D02*
X20937586Y-14319150D01*
X20937586Y-14338198D02*
X20947110Y-14328674D01*
X20947110Y-14328674D02*
X20966158Y-14319150D01*
X20966158Y-14319150D02*
X20994729Y-14319150D01*
X20994729Y-14319150D02*
X21013777Y-14328674D01*
X21013777Y-14328674D02*
X21023301Y-14347722D01*
X21023301Y-14347722D02*
X21023301Y-14452484D01*
X21023301Y-14347722D02*
X21032825Y-14328674D01*
X21032825Y-14328674D02*
X21051872Y-14319150D01*
X21051872Y-14319150D02*
X21080444Y-14319150D01*
X21080444Y-14319150D02*
X21099491Y-14328674D01*
X21099491Y-14328674D02*
X21109015Y-14347722D01*
X21109015Y-14347722D02*
X21109015Y-14452484D01*
X21499491Y-14242960D02*
X21328063Y-14500103D01*
X21756634Y-14252484D02*
X21775682Y-14252484D01*
X21775682Y-14252484D02*
X21794729Y-14262008D01*
X21794729Y-14262008D02*
X21804253Y-14271531D01*
X21804253Y-14271531D02*
X21813777Y-14290579D01*
X21813777Y-14290579D02*
X21823301Y-14328674D01*
X21823301Y-14328674D02*
X21823301Y-14376293D01*
X21823301Y-14376293D02*
X21813777Y-14414388D01*
X21813777Y-14414388D02*
X21804253Y-14433436D01*
X21804253Y-14433436D02*
X21794729Y-14442960D01*
X21794729Y-14442960D02*
X21775682Y-14452484D01*
X21775682Y-14452484D02*
X21756634Y-14452484D01*
X21756634Y-14452484D02*
X21737587Y-14442960D01*
X21737587Y-14442960D02*
X21728063Y-14433436D01*
X21728063Y-14433436D02*
X21718539Y-14414388D01*
X21718539Y-14414388D02*
X21709015Y-14376293D01*
X21709015Y-14376293D02*
X21709015Y-14328674D01*
X21709015Y-14328674D02*
X21718539Y-14290579D01*
X21718539Y-14290579D02*
X21728063Y-14271531D01*
X21728063Y-14271531D02*
X21737587Y-14262008D01*
X21737587Y-14262008D02*
X21756634Y-14252484D01*
X21909015Y-14433436D02*
X21918539Y-14442960D01*
X21918539Y-14442960D02*
X21909015Y-14452484D01*
X21909015Y-14452484D02*
X21899491Y-14442960D01*
X21899491Y-14442960D02*
X21909015Y-14433436D01*
X21909015Y-14433436D02*
X21909015Y-14452484D01*
X22042348Y-14252484D02*
X22061396Y-14252484D01*
X22061396Y-14252484D02*
X22080444Y-14262008D01*
X22080444Y-14262008D02*
X22089968Y-14271531D01*
X22089968Y-14271531D02*
X22099491Y-14290579D01*
X22099491Y-14290579D02*
X22109015Y-14328674D01*
X22109015Y-14328674D02*
X22109015Y-14376293D01*
X22109015Y-14376293D02*
X22099491Y-14414388D01*
X22099491Y-14414388D02*
X22089968Y-14433436D01*
X22089968Y-14433436D02*
X22080444Y-14442960D01*
X22080444Y-14442960D02*
X22061396Y-14452484D01*
X22061396Y-14452484D02*
X22042348Y-14452484D01*
X22042348Y-14452484D02*
X22023301Y-14442960D01*
X22023301Y-14442960D02*
X22013777Y-14433436D01*
X22013777Y-14433436D02*
X22004253Y-14414388D01*
X22004253Y-14414388D02*
X21994729Y-14376293D01*
X21994729Y-14376293D02*
X21994729Y-14328674D01*
X21994729Y-14328674D02*
X22004253Y-14290579D01*
X22004253Y-14290579D02*
X22013777Y-14271531D01*
X22013777Y-14271531D02*
X22023301Y-14262008D01*
X22023301Y-14262008D02*
X22042348Y-14252484D01*
X22299491Y-14452484D02*
X22185206Y-14452484D01*
X22242348Y-14452484D02*
X22242348Y-14252484D01*
X22242348Y-14252484D02*
X22223301Y-14281055D01*
X22223301Y-14281055D02*
X22204253Y-14300103D01*
X22204253Y-14300103D02*
X22185206Y-14309627D01*
X22480444Y-14252484D02*
X22385206Y-14252484D01*
X22385206Y-14252484D02*
X22375682Y-14347722D01*
X22375682Y-14347722D02*
X22385206Y-14338198D01*
X22385206Y-14338198D02*
X22404253Y-14328674D01*
X22404253Y-14328674D02*
X22451872Y-14328674D01*
X22451872Y-14328674D02*
X22470920Y-14338198D01*
X22470920Y-14338198D02*
X22480444Y-14347722D01*
X22480444Y-14347722D02*
X22489967Y-14366769D01*
X22489967Y-14366769D02*
X22489967Y-14414388D01*
X22489967Y-14414388D02*
X22480444Y-14433436D01*
X22480444Y-14433436D02*
X22470920Y-14442960D01*
X22470920Y-14442960D02*
X22451872Y-14452484D01*
X22451872Y-14452484D02*
X22404253Y-14452484D01*
X22404253Y-14452484D02*
X22385206Y-14442960D01*
X22385206Y-14442960D02*
X22375682Y-14433436D01*
X22556634Y-14252484D02*
X22689967Y-14252484D01*
X22689967Y-14252484D02*
X22604253Y-14452484D01*
X22756634Y-14252484D02*
X22756634Y-14290579D01*
X22832825Y-14252484D02*
X22832825Y-14290579D01*
X23128063Y-14528674D02*
X23118539Y-14519150D01*
X23118539Y-14519150D02*
X23099491Y-14490579D01*
X23099491Y-14490579D02*
X23089968Y-14471531D01*
X23089968Y-14471531D02*
X23080444Y-14442960D01*
X23080444Y-14442960D02*
X23070920Y-14395341D01*
X23070920Y-14395341D02*
X23070920Y-14357246D01*
X23070920Y-14357246D02*
X23080444Y-14309627D01*
X23080444Y-14309627D02*
X23089968Y-14281055D01*
X23089968Y-14281055D02*
X23099491Y-14262008D01*
X23099491Y-14262008D02*
X23118539Y-14233436D01*
X23118539Y-14233436D02*
X23128063Y-14223912D01*
X23232825Y-14338198D02*
X23213777Y-14328674D01*
X23213777Y-14328674D02*
X23204253Y-14319150D01*
X23204253Y-14319150D02*
X23194729Y-14300103D01*
X23194729Y-14300103D02*
X23194729Y-14290579D01*
X23194729Y-14290579D02*
X23204253Y-14271531D01*
X23204253Y-14271531D02*
X23213777Y-14262008D01*
X23213777Y-14262008D02*
X23232825Y-14252484D01*
X23232825Y-14252484D02*
X23270920Y-14252484D01*
X23270920Y-14252484D02*
X23289968Y-14262008D01*
X23289968Y-14262008D02*
X23299491Y-14271531D01*
X23299491Y-14271531D02*
X23309015Y-14290579D01*
X23309015Y-14290579D02*
X23309015Y-14300103D01*
X23309015Y-14300103D02*
X23299491Y-14319150D01*
X23299491Y-14319150D02*
X23289968Y-14328674D01*
X23289968Y-14328674D02*
X23270920Y-14338198D01*
X23270920Y-14338198D02*
X23232825Y-14338198D01*
X23232825Y-14338198D02*
X23213777Y-14347722D01*
X23213777Y-14347722D02*
X23204253Y-14357246D01*
X23204253Y-14357246D02*
X23194729Y-14376293D01*
X23194729Y-14376293D02*
X23194729Y-14414388D01*
X23194729Y-14414388D02*
X23204253Y-14433436D01*
X23204253Y-14433436D02*
X23213777Y-14442960D01*
X23213777Y-14442960D02*
X23232825Y-14452484D01*
X23232825Y-14452484D02*
X23270920Y-14452484D01*
X23270920Y-14452484D02*
X23289968Y-14442960D01*
X23289968Y-14442960D02*
X23299491Y-14433436D01*
X23299491Y-14433436D02*
X23309015Y-14414388D01*
X23309015Y-14414388D02*
X23309015Y-14376293D01*
X23309015Y-14376293D02*
X23299491Y-14357246D01*
X23299491Y-14357246D02*
X23289968Y-14347722D01*
X23289968Y-14347722D02*
X23270920Y-14338198D01*
X23499491Y-14452484D02*
X23385206Y-14452484D01*
X23442348Y-14452484D02*
X23442348Y-14252484D01*
X23442348Y-14252484D02*
X23423301Y-14281055D01*
X23423301Y-14281055D02*
X23404253Y-14300103D01*
X23404253Y-14300103D02*
X23385206Y-14309627D01*
X23737587Y-14452484D02*
X23737587Y-14252484D01*
X23823301Y-14452484D02*
X23823301Y-14347722D01*
X23823301Y-14347722D02*
X23813777Y-14328674D01*
X23813777Y-14328674D02*
X23794730Y-14319150D01*
X23794730Y-14319150D02*
X23766158Y-14319150D01*
X23766158Y-14319150D02*
X23747110Y-14328674D01*
X23747110Y-14328674D02*
X23737587Y-14338198D01*
X23947110Y-14452484D02*
X23928063Y-14442960D01*
X23928063Y-14442960D02*
X23918539Y-14433436D01*
X23918539Y-14433436D02*
X23909015Y-14414388D01*
X23909015Y-14414388D02*
X23909015Y-14357246D01*
X23909015Y-14357246D02*
X23918539Y-14338198D01*
X23918539Y-14338198D02*
X23928063Y-14328674D01*
X23928063Y-14328674D02*
X23947110Y-14319150D01*
X23947110Y-14319150D02*
X23975682Y-14319150D01*
X23975682Y-14319150D02*
X23994730Y-14328674D01*
X23994730Y-14328674D02*
X24004253Y-14338198D01*
X24004253Y-14338198D02*
X24013777Y-14357246D01*
X24013777Y-14357246D02*
X24013777Y-14414388D01*
X24013777Y-14414388D02*
X24004253Y-14433436D01*
X24004253Y-14433436D02*
X23994730Y-14442960D01*
X23994730Y-14442960D02*
X23975682Y-14452484D01*
X23975682Y-14452484D02*
X23947110Y-14452484D01*
X24128063Y-14452484D02*
X24109015Y-14442960D01*
X24109015Y-14442960D02*
X24099491Y-14423912D01*
X24099491Y-14423912D02*
X24099491Y-14252484D01*
X24280444Y-14442960D02*
X24261396Y-14452484D01*
X24261396Y-14452484D02*
X24223301Y-14452484D01*
X24223301Y-14452484D02*
X24204253Y-14442960D01*
X24204253Y-14442960D02*
X24194730Y-14423912D01*
X24194730Y-14423912D02*
X24194730Y-14347722D01*
X24194730Y-14347722D02*
X24204253Y-14328674D01*
X24204253Y-14328674D02*
X24223301Y-14319150D01*
X24223301Y-14319150D02*
X24261396Y-14319150D01*
X24261396Y-14319150D02*
X24280444Y-14328674D01*
X24280444Y-14328674D02*
X24289968Y-14347722D01*
X24289968Y-14347722D02*
X24289968Y-14366769D01*
X24289968Y-14366769D02*
X24194730Y-14385817D01*
X24366158Y-14442960D02*
X24385206Y-14452484D01*
X24385206Y-14452484D02*
X24423301Y-14452484D01*
X24423301Y-14452484D02*
X24442349Y-14442960D01*
X24442349Y-14442960D02*
X24451872Y-14423912D01*
X24451872Y-14423912D02*
X24451872Y-14414388D01*
X24451872Y-14414388D02*
X24442349Y-14395341D01*
X24442349Y-14395341D02*
X24423301Y-14385817D01*
X24423301Y-14385817D02*
X24394730Y-14385817D01*
X24394730Y-14385817D02*
X24375682Y-14376293D01*
X24375682Y-14376293D02*
X24366158Y-14357246D01*
X24366158Y-14357246D02*
X24366158Y-14347722D01*
X24366158Y-14347722D02*
X24375682Y-14328674D01*
X24375682Y-14328674D02*
X24394730Y-14319150D01*
X24394730Y-14319150D02*
X24423301Y-14319150D01*
X24423301Y-14319150D02*
X24442349Y-14328674D01*
X24518539Y-14528674D02*
X24528063Y-14519150D01*
X24528063Y-14519150D02*
X24547111Y-14490579D01*
X24547111Y-14490579D02*
X24556634Y-14471531D01*
X24556634Y-14471531D02*
X24566158Y-14442960D01*
X24566158Y-14442960D02*
X24575682Y-14395341D01*
X24575682Y-14395341D02*
X24575682Y-14357246D01*
X24575682Y-14357246D02*
X24566158Y-14309627D01*
X24566158Y-14309627D02*
X24556634Y-14281055D01*
X24556634Y-14281055D02*
X24547111Y-14262008D01*
X24547111Y-14262008D02*
X24528063Y-14233436D01*
X24528063Y-14233436D02*
X24518539Y-14223912D01*
D10*
X19553000Y-14625000D02*
G75*
G03*
X19453000Y-14625000I-50000J0D01*
G01*
X19453000Y-14625000D02*
G75*
G03*
X19553000Y-14625000I50000J0D01*
G01*
D11*
X19918539Y-14716484D02*
X19804253Y-14716484D01*
X19861396Y-14716484D02*
X19861396Y-14516484D01*
X19861396Y-14516484D02*
X19842348Y-14545055D01*
X19842348Y-14545055D02*
X19823301Y-14564103D01*
X19823301Y-14564103D02*
X19804253Y-14573627D01*
X20004253Y-14697436D02*
X20013777Y-14706960D01*
X20013777Y-14706960D02*
X20004253Y-14716484D01*
X20004253Y-14716484D02*
X19994729Y-14706960D01*
X19994729Y-14706960D02*
X20004253Y-14697436D01*
X20004253Y-14697436D02*
X20004253Y-14716484D01*
X20137586Y-14516484D02*
X20156634Y-14516484D01*
X20156634Y-14516484D02*
X20175682Y-14526008D01*
X20175682Y-14526008D02*
X20185205Y-14535531D01*
X20185205Y-14535531D02*
X20194729Y-14554579D01*
X20194729Y-14554579D02*
X20204253Y-14592674D01*
X20204253Y-14592674D02*
X20204253Y-14640293D01*
X20204253Y-14640293D02*
X20194729Y-14678388D01*
X20194729Y-14678388D02*
X20185205Y-14697436D01*
X20185205Y-14697436D02*
X20175682Y-14706960D01*
X20175682Y-14706960D02*
X20156634Y-14716484D01*
X20156634Y-14716484D02*
X20137586Y-14716484D01*
X20137586Y-14716484D02*
X20118539Y-14706960D01*
X20118539Y-14706960D02*
X20109015Y-14697436D01*
X20109015Y-14697436D02*
X20099491Y-14678388D01*
X20099491Y-14678388D02*
X20089967Y-14640293D01*
X20089967Y-14640293D02*
X20089967Y-14592674D01*
X20089967Y-14592674D02*
X20099491Y-14554579D01*
X20099491Y-14554579D02*
X20109015Y-14535531D01*
X20109015Y-14535531D02*
X20118539Y-14526008D01*
X20118539Y-14526008D02*
X20137586Y-14516484D01*
X20328063Y-14516484D02*
X20347110Y-14516484D01*
X20347110Y-14516484D02*
X20366158Y-14526008D01*
X20366158Y-14526008D02*
X20375682Y-14535531D01*
X20375682Y-14535531D02*
X20385205Y-14554579D01*
X20385205Y-14554579D02*
X20394729Y-14592674D01*
X20394729Y-14592674D02*
X20394729Y-14640293D01*
X20394729Y-14640293D02*
X20385205Y-14678388D01*
X20385205Y-14678388D02*
X20375682Y-14697436D01*
X20375682Y-14697436D02*
X20366158Y-14706960D01*
X20366158Y-14706960D02*
X20347110Y-14716484D01*
X20347110Y-14716484D02*
X20328063Y-14716484D01*
X20328063Y-14716484D02*
X20309015Y-14706960D01*
X20309015Y-14706960D02*
X20299491Y-14697436D01*
X20299491Y-14697436D02*
X20289967Y-14678388D01*
X20289967Y-14678388D02*
X20280444Y-14640293D01*
X20280444Y-14640293D02*
X20280444Y-14592674D01*
X20280444Y-14592674D02*
X20289967Y-14554579D01*
X20289967Y-14554579D02*
X20299491Y-14535531D01*
X20299491Y-14535531D02*
X20309015Y-14526008D01*
X20309015Y-14526008D02*
X20328063Y-14516484D01*
X20518539Y-14516484D02*
X20537586Y-14516484D01*
X20537586Y-14516484D02*
X20556634Y-14526008D01*
X20556634Y-14526008D02*
X20566158Y-14535531D01*
X20566158Y-14535531D02*
X20575682Y-14554579D01*
X20575682Y-14554579D02*
X20585205Y-14592674D01*
X20585205Y-14592674D02*
X20585205Y-14640293D01*
X20585205Y-14640293D02*
X20575682Y-14678388D01*
X20575682Y-14678388D02*
X20566158Y-14697436D01*
X20566158Y-14697436D02*
X20556634Y-14706960D01*
X20556634Y-14706960D02*
X20537586Y-14716484D01*
X20537586Y-14716484D02*
X20518539Y-14716484D01*
X20518539Y-14716484D02*
X20499491Y-14706960D01*
X20499491Y-14706960D02*
X20489967Y-14697436D01*
X20489967Y-14697436D02*
X20480444Y-14678388D01*
X20480444Y-14678388D02*
X20470920Y-14640293D01*
X20470920Y-14640293D02*
X20470920Y-14592674D01*
X20470920Y-14592674D02*
X20480444Y-14554579D01*
X20480444Y-14554579D02*
X20489967Y-14535531D01*
X20489967Y-14535531D02*
X20499491Y-14526008D01*
X20499491Y-14526008D02*
X20518539Y-14516484D01*
X20670920Y-14716484D02*
X20670920Y-14583150D01*
X20670920Y-14602198D02*
X20680444Y-14592674D01*
X20680444Y-14592674D02*
X20699491Y-14583150D01*
X20699491Y-14583150D02*
X20728063Y-14583150D01*
X20728063Y-14583150D02*
X20747110Y-14592674D01*
X20747110Y-14592674D02*
X20756634Y-14611722D01*
X20756634Y-14611722D02*
X20756634Y-14716484D01*
X20756634Y-14611722D02*
X20766158Y-14592674D01*
X20766158Y-14592674D02*
X20785205Y-14583150D01*
X20785205Y-14583150D02*
X20813777Y-14583150D01*
X20813777Y-14583150D02*
X20832825Y-14592674D01*
X20832825Y-14592674D02*
X20842348Y-14611722D01*
X20842348Y-14611722D02*
X20842348Y-14716484D01*
X20937586Y-14716484D02*
X20937586Y-14583150D01*
X20937586Y-14602198D02*
X20947110Y-14592674D01*
X20947110Y-14592674D02*
X20966158Y-14583150D01*
X20966158Y-14583150D02*
X20994729Y-14583150D01*
X20994729Y-14583150D02*
X21013777Y-14592674D01*
X21013777Y-14592674D02*
X21023301Y-14611722D01*
X21023301Y-14611722D02*
X21023301Y-14716484D01*
X21023301Y-14611722D02*
X21032825Y-14592674D01*
X21032825Y-14592674D02*
X21051872Y-14583150D01*
X21051872Y-14583150D02*
X21080444Y-14583150D01*
X21080444Y-14583150D02*
X21099491Y-14592674D01*
X21099491Y-14592674D02*
X21109015Y-14611722D01*
X21109015Y-14611722D02*
X21109015Y-14716484D01*
X21499491Y-14506960D02*
X21328063Y-14764103D01*
X21756634Y-14516484D02*
X21775682Y-14516484D01*
X21775682Y-14516484D02*
X21794729Y-14526008D01*
X21794729Y-14526008D02*
X21804253Y-14535531D01*
X21804253Y-14535531D02*
X21813777Y-14554579D01*
X21813777Y-14554579D02*
X21823301Y-14592674D01*
X21823301Y-14592674D02*
X21823301Y-14640293D01*
X21823301Y-14640293D02*
X21813777Y-14678388D01*
X21813777Y-14678388D02*
X21804253Y-14697436D01*
X21804253Y-14697436D02*
X21794729Y-14706960D01*
X21794729Y-14706960D02*
X21775682Y-14716484D01*
X21775682Y-14716484D02*
X21756634Y-14716484D01*
X21756634Y-14716484D02*
X21737587Y-14706960D01*
X21737587Y-14706960D02*
X21728063Y-14697436D01*
X21728063Y-14697436D02*
X21718539Y-14678388D01*
X21718539Y-14678388D02*
X21709015Y-14640293D01*
X21709015Y-14640293D02*
X21709015Y-14592674D01*
X21709015Y-14592674D02*
X21718539Y-14554579D01*
X21718539Y-14554579D02*
X21728063Y-14535531D01*
X21728063Y-14535531D02*
X21737587Y-14526008D01*
X21737587Y-14526008D02*
X21756634Y-14516484D01*
X21909015Y-14697436D02*
X21918539Y-14706960D01*
X21918539Y-14706960D02*
X21909015Y-14716484D01*
X21909015Y-14716484D02*
X21899491Y-14706960D01*
X21899491Y-14706960D02*
X21909015Y-14697436D01*
X21909015Y-14697436D02*
X21909015Y-14716484D01*
X22042348Y-14516484D02*
X22061396Y-14516484D01*
X22061396Y-14516484D02*
X22080444Y-14526008D01*
X22080444Y-14526008D02*
X22089968Y-14535531D01*
X22089968Y-14535531D02*
X22099491Y-14554579D01*
X22099491Y-14554579D02*
X22109015Y-14592674D01*
X22109015Y-14592674D02*
X22109015Y-14640293D01*
X22109015Y-14640293D02*
X22099491Y-14678388D01*
X22099491Y-14678388D02*
X22089968Y-14697436D01*
X22089968Y-14697436D02*
X22080444Y-14706960D01*
X22080444Y-14706960D02*
X22061396Y-14716484D01*
X22061396Y-14716484D02*
X22042348Y-14716484D01*
X22042348Y-14716484D02*
X22023301Y-14706960D01*
X22023301Y-14706960D02*
X22013777Y-14697436D01*
X22013777Y-14697436D02*
X22004253Y-14678388D01*
X22004253Y-14678388D02*
X21994729Y-14640293D01*
X21994729Y-14640293D02*
X21994729Y-14592674D01*
X21994729Y-14592674D02*
X22004253Y-14554579D01*
X22004253Y-14554579D02*
X22013777Y-14535531D01*
X22013777Y-14535531D02*
X22023301Y-14526008D01*
X22023301Y-14526008D02*
X22042348Y-14516484D01*
X22175682Y-14516484D02*
X22299491Y-14516484D01*
X22299491Y-14516484D02*
X22232825Y-14592674D01*
X22232825Y-14592674D02*
X22261396Y-14592674D01*
X22261396Y-14592674D02*
X22280444Y-14602198D01*
X22280444Y-14602198D02*
X22289968Y-14611722D01*
X22289968Y-14611722D02*
X22299491Y-14630769D01*
X22299491Y-14630769D02*
X22299491Y-14678388D01*
X22299491Y-14678388D02*
X22289968Y-14697436D01*
X22289968Y-14697436D02*
X22280444Y-14706960D01*
X22280444Y-14706960D02*
X22261396Y-14716484D01*
X22261396Y-14716484D02*
X22204253Y-14716484D01*
X22204253Y-14716484D02*
X22185206Y-14706960D01*
X22185206Y-14706960D02*
X22175682Y-14697436D01*
X22394729Y-14716484D02*
X22432825Y-14716484D01*
X22432825Y-14716484D02*
X22451872Y-14706960D01*
X22451872Y-14706960D02*
X22461396Y-14697436D01*
X22461396Y-14697436D02*
X22480444Y-14668865D01*
X22480444Y-14668865D02*
X22489967Y-14630769D01*
X22489967Y-14630769D02*
X22489967Y-14554579D01*
X22489967Y-14554579D02*
X22480444Y-14535531D01*
X22480444Y-14535531D02*
X22470920Y-14526008D01*
X22470920Y-14526008D02*
X22451872Y-14516484D01*
X22451872Y-14516484D02*
X22413777Y-14516484D01*
X22413777Y-14516484D02*
X22394729Y-14526008D01*
X22394729Y-14526008D02*
X22385206Y-14535531D01*
X22385206Y-14535531D02*
X22375682Y-14554579D01*
X22375682Y-14554579D02*
X22375682Y-14602198D01*
X22375682Y-14602198D02*
X22385206Y-14621246D01*
X22385206Y-14621246D02*
X22394729Y-14630769D01*
X22394729Y-14630769D02*
X22413777Y-14640293D01*
X22413777Y-14640293D02*
X22451872Y-14640293D01*
X22451872Y-14640293D02*
X22470920Y-14630769D01*
X22470920Y-14630769D02*
X22480444Y-14621246D01*
X22480444Y-14621246D02*
X22489967Y-14602198D01*
X22661396Y-14583150D02*
X22661396Y-14716484D01*
X22613777Y-14506960D02*
X22566158Y-14649817D01*
X22566158Y-14649817D02*
X22689967Y-14649817D01*
X22756634Y-14516484D02*
X22756634Y-14554579D01*
X22832825Y-14516484D02*
X22832825Y-14554579D01*
X23128063Y-14792674D02*
X23118539Y-14783150D01*
X23118539Y-14783150D02*
X23099491Y-14754579D01*
X23099491Y-14754579D02*
X23089968Y-14735531D01*
X23089968Y-14735531D02*
X23080444Y-14706960D01*
X23080444Y-14706960D02*
X23070920Y-14659341D01*
X23070920Y-14659341D02*
X23070920Y-14621246D01*
X23070920Y-14621246D02*
X23080444Y-14573627D01*
X23080444Y-14573627D02*
X23089968Y-14545055D01*
X23089968Y-14545055D02*
X23099491Y-14526008D01*
X23099491Y-14526008D02*
X23118539Y-14497436D01*
X23118539Y-14497436D02*
X23128063Y-14487912D01*
X23185206Y-14516484D02*
X23309015Y-14516484D01*
X23309015Y-14516484D02*
X23242348Y-14592674D01*
X23242348Y-14592674D02*
X23270920Y-14592674D01*
X23270920Y-14592674D02*
X23289968Y-14602198D01*
X23289968Y-14602198D02*
X23299491Y-14611722D01*
X23299491Y-14611722D02*
X23309015Y-14630769D01*
X23309015Y-14630769D02*
X23309015Y-14678388D01*
X23309015Y-14678388D02*
X23299491Y-14697436D01*
X23299491Y-14697436D02*
X23289968Y-14706960D01*
X23289968Y-14706960D02*
X23270920Y-14716484D01*
X23270920Y-14716484D02*
X23213777Y-14716484D01*
X23213777Y-14716484D02*
X23194729Y-14706960D01*
X23194729Y-14706960D02*
X23185206Y-14697436D01*
X23385206Y-14535531D02*
X23394729Y-14526008D01*
X23394729Y-14526008D02*
X23413777Y-14516484D01*
X23413777Y-14516484D02*
X23461396Y-14516484D01*
X23461396Y-14516484D02*
X23480444Y-14526008D01*
X23480444Y-14526008D02*
X23489968Y-14535531D01*
X23489968Y-14535531D02*
X23499491Y-14554579D01*
X23499491Y-14554579D02*
X23499491Y-14573627D01*
X23499491Y-14573627D02*
X23489968Y-14602198D01*
X23489968Y-14602198D02*
X23375682Y-14716484D01*
X23375682Y-14716484D02*
X23499491Y-14716484D01*
X23737587Y-14716484D02*
X23737587Y-14516484D01*
X23823301Y-14716484D02*
X23823301Y-14611722D01*
X23823301Y-14611722D02*
X23813777Y-14592674D01*
X23813777Y-14592674D02*
X23794730Y-14583150D01*
X23794730Y-14583150D02*
X23766158Y-14583150D01*
X23766158Y-14583150D02*
X23747110Y-14592674D01*
X23747110Y-14592674D02*
X23737587Y-14602198D01*
X23947110Y-14716484D02*
X23928063Y-14706960D01*
X23928063Y-14706960D02*
X23918539Y-14697436D01*
X23918539Y-14697436D02*
X23909015Y-14678388D01*
X23909015Y-14678388D02*
X23909015Y-14621246D01*
X23909015Y-14621246D02*
X23918539Y-14602198D01*
X23918539Y-14602198D02*
X23928063Y-14592674D01*
X23928063Y-14592674D02*
X23947110Y-14583150D01*
X23947110Y-14583150D02*
X23975682Y-14583150D01*
X23975682Y-14583150D02*
X23994730Y-14592674D01*
X23994730Y-14592674D02*
X24004253Y-14602198D01*
X24004253Y-14602198D02*
X24013777Y-14621246D01*
X24013777Y-14621246D02*
X24013777Y-14678388D01*
X24013777Y-14678388D02*
X24004253Y-14697436D01*
X24004253Y-14697436D02*
X23994730Y-14706960D01*
X23994730Y-14706960D02*
X23975682Y-14716484D01*
X23975682Y-14716484D02*
X23947110Y-14716484D01*
X24128063Y-14716484D02*
X24109015Y-14706960D01*
X24109015Y-14706960D02*
X24099491Y-14687912D01*
X24099491Y-14687912D02*
X24099491Y-14516484D01*
X24280444Y-14706960D02*
X24261396Y-14716484D01*
X24261396Y-14716484D02*
X24223301Y-14716484D01*
X24223301Y-14716484D02*
X24204253Y-14706960D01*
X24204253Y-14706960D02*
X24194730Y-14687912D01*
X24194730Y-14687912D02*
X24194730Y-14611722D01*
X24194730Y-14611722D02*
X24204253Y-14592674D01*
X24204253Y-14592674D02*
X24223301Y-14583150D01*
X24223301Y-14583150D02*
X24261396Y-14583150D01*
X24261396Y-14583150D02*
X24280444Y-14592674D01*
X24280444Y-14592674D02*
X24289968Y-14611722D01*
X24289968Y-14611722D02*
X24289968Y-14630769D01*
X24289968Y-14630769D02*
X24194730Y-14649817D01*
X24366158Y-14706960D02*
X24385206Y-14716484D01*
X24385206Y-14716484D02*
X24423301Y-14716484D01*
X24423301Y-14716484D02*
X24442349Y-14706960D01*
X24442349Y-14706960D02*
X24451872Y-14687912D01*
X24451872Y-14687912D02*
X24451872Y-14678388D01*
X24451872Y-14678388D02*
X24442349Y-14659341D01*
X24442349Y-14659341D02*
X24423301Y-14649817D01*
X24423301Y-14649817D02*
X24394730Y-14649817D01*
X24394730Y-14649817D02*
X24375682Y-14640293D01*
X24375682Y-14640293D02*
X24366158Y-14621246D01*
X24366158Y-14621246D02*
X24366158Y-14611722D01*
X24366158Y-14611722D02*
X24375682Y-14592674D01*
X24375682Y-14592674D02*
X24394730Y-14583150D01*
X24394730Y-14583150D02*
X24423301Y-14583150D01*
X24423301Y-14583150D02*
X24442349Y-14592674D01*
X24518539Y-14792674D02*
X24528063Y-14783150D01*
X24528063Y-14783150D02*
X24547111Y-14754579D01*
X24547111Y-14754579D02*
X24556634Y-14735531D01*
X24556634Y-14735531D02*
X24566158Y-14706960D01*
X24566158Y-14706960D02*
X24575682Y-14659341D01*
X24575682Y-14659341D02*
X24575682Y-14621246D01*
X24575682Y-14621246D02*
X24566158Y-14573627D01*
X24566158Y-14573627D02*
X24556634Y-14545055D01*
X24556634Y-14545055D02*
X24547111Y-14526008D01*
X24547111Y-14526008D02*
X24528063Y-14497436D01*
X24528063Y-14497436D02*
X24518539Y-14487912D01*
D12*
X19493000Y-14829000D02*
X19493000Y-14949000D01*
X19433000Y-14889000D02*
X19553000Y-14889000D01*
D11*
X19918539Y-14980484D02*
X19804253Y-14980484D01*
X19861396Y-14980484D02*
X19861396Y-14780484D01*
X19861396Y-14780484D02*
X19842348Y-14809055D01*
X19842348Y-14809055D02*
X19823301Y-14828103D01*
X19823301Y-14828103D02*
X19804253Y-14837627D01*
X20004253Y-14961436D02*
X20013777Y-14970960D01*
X20013777Y-14970960D02*
X20004253Y-14980484D01*
X20004253Y-14980484D02*
X19994729Y-14970960D01*
X19994729Y-14970960D02*
X20004253Y-14961436D01*
X20004253Y-14961436D02*
X20004253Y-14980484D01*
X20089967Y-14799531D02*
X20099491Y-14790008D01*
X20099491Y-14790008D02*
X20118539Y-14780484D01*
X20118539Y-14780484D02*
X20166158Y-14780484D01*
X20166158Y-14780484D02*
X20185205Y-14790008D01*
X20185205Y-14790008D02*
X20194729Y-14799531D01*
X20194729Y-14799531D02*
X20204253Y-14818579D01*
X20204253Y-14818579D02*
X20204253Y-14837627D01*
X20204253Y-14837627D02*
X20194729Y-14866198D01*
X20194729Y-14866198D02*
X20080444Y-14980484D01*
X20080444Y-14980484D02*
X20204253Y-14980484D01*
X20328063Y-14780484D02*
X20347110Y-14780484D01*
X20347110Y-14780484D02*
X20366158Y-14790008D01*
X20366158Y-14790008D02*
X20375682Y-14799531D01*
X20375682Y-14799531D02*
X20385205Y-14818579D01*
X20385205Y-14818579D02*
X20394729Y-14856674D01*
X20394729Y-14856674D02*
X20394729Y-14904293D01*
X20394729Y-14904293D02*
X20385205Y-14942388D01*
X20385205Y-14942388D02*
X20375682Y-14961436D01*
X20375682Y-14961436D02*
X20366158Y-14970960D01*
X20366158Y-14970960D02*
X20347110Y-14980484D01*
X20347110Y-14980484D02*
X20328063Y-14980484D01*
X20328063Y-14980484D02*
X20309015Y-14970960D01*
X20309015Y-14970960D02*
X20299491Y-14961436D01*
X20299491Y-14961436D02*
X20289967Y-14942388D01*
X20289967Y-14942388D02*
X20280444Y-14904293D01*
X20280444Y-14904293D02*
X20280444Y-14856674D01*
X20280444Y-14856674D02*
X20289967Y-14818579D01*
X20289967Y-14818579D02*
X20299491Y-14799531D01*
X20299491Y-14799531D02*
X20309015Y-14790008D01*
X20309015Y-14790008D02*
X20328063Y-14780484D01*
X20518539Y-14780484D02*
X20537586Y-14780484D01*
X20537586Y-14780484D02*
X20556634Y-14790008D01*
X20556634Y-14790008D02*
X20566158Y-14799531D01*
X20566158Y-14799531D02*
X20575682Y-14818579D01*
X20575682Y-14818579D02*
X20585205Y-14856674D01*
X20585205Y-14856674D02*
X20585205Y-14904293D01*
X20585205Y-14904293D02*
X20575682Y-14942388D01*
X20575682Y-14942388D02*
X20566158Y-14961436D01*
X20566158Y-14961436D02*
X20556634Y-14970960D01*
X20556634Y-14970960D02*
X20537586Y-14980484D01*
X20537586Y-14980484D02*
X20518539Y-14980484D01*
X20518539Y-14980484D02*
X20499491Y-14970960D01*
X20499491Y-14970960D02*
X20489967Y-14961436D01*
X20489967Y-14961436D02*
X20480444Y-14942388D01*
X20480444Y-14942388D02*
X20470920Y-14904293D01*
X20470920Y-14904293D02*
X20470920Y-14856674D01*
X20470920Y-14856674D02*
X20480444Y-14818579D01*
X20480444Y-14818579D02*
X20489967Y-14799531D01*
X20489967Y-14799531D02*
X20499491Y-14790008D01*
X20499491Y-14790008D02*
X20518539Y-14780484D01*
X20670920Y-14980484D02*
X20670920Y-14847150D01*
X20670920Y-14866198D02*
X20680444Y-14856674D01*
X20680444Y-14856674D02*
X20699491Y-14847150D01*
X20699491Y-14847150D02*
X20728063Y-14847150D01*
X20728063Y-14847150D02*
X20747110Y-14856674D01*
X20747110Y-14856674D02*
X20756634Y-14875722D01*
X20756634Y-14875722D02*
X20756634Y-14980484D01*
X20756634Y-14875722D02*
X20766158Y-14856674D01*
X20766158Y-14856674D02*
X20785205Y-14847150D01*
X20785205Y-14847150D02*
X20813777Y-14847150D01*
X20813777Y-14847150D02*
X20832825Y-14856674D01*
X20832825Y-14856674D02*
X20842348Y-14875722D01*
X20842348Y-14875722D02*
X20842348Y-14980484D01*
X20937586Y-14980484D02*
X20937586Y-14847150D01*
X20937586Y-14866198D02*
X20947110Y-14856674D01*
X20947110Y-14856674D02*
X20966158Y-14847150D01*
X20966158Y-14847150D02*
X20994729Y-14847150D01*
X20994729Y-14847150D02*
X21013777Y-14856674D01*
X21013777Y-14856674D02*
X21023301Y-14875722D01*
X21023301Y-14875722D02*
X21023301Y-14980484D01*
X21023301Y-14875722D02*
X21032825Y-14856674D01*
X21032825Y-14856674D02*
X21051872Y-14847150D01*
X21051872Y-14847150D02*
X21080444Y-14847150D01*
X21080444Y-14847150D02*
X21099491Y-14856674D01*
X21099491Y-14856674D02*
X21109015Y-14875722D01*
X21109015Y-14875722D02*
X21109015Y-14980484D01*
X21499491Y-14770960D02*
X21328063Y-15028103D01*
X21756634Y-14780484D02*
X21775682Y-14780484D01*
X21775682Y-14780484D02*
X21794729Y-14790008D01*
X21794729Y-14790008D02*
X21804253Y-14799531D01*
X21804253Y-14799531D02*
X21813777Y-14818579D01*
X21813777Y-14818579D02*
X21823301Y-14856674D01*
X21823301Y-14856674D02*
X21823301Y-14904293D01*
X21823301Y-14904293D02*
X21813777Y-14942388D01*
X21813777Y-14942388D02*
X21804253Y-14961436D01*
X21804253Y-14961436D02*
X21794729Y-14970960D01*
X21794729Y-14970960D02*
X21775682Y-14980484D01*
X21775682Y-14980484D02*
X21756634Y-14980484D01*
X21756634Y-14980484D02*
X21737587Y-14970960D01*
X21737587Y-14970960D02*
X21728063Y-14961436D01*
X21728063Y-14961436D02*
X21718539Y-14942388D01*
X21718539Y-14942388D02*
X21709015Y-14904293D01*
X21709015Y-14904293D02*
X21709015Y-14856674D01*
X21709015Y-14856674D02*
X21718539Y-14818579D01*
X21718539Y-14818579D02*
X21728063Y-14799531D01*
X21728063Y-14799531D02*
X21737587Y-14790008D01*
X21737587Y-14790008D02*
X21756634Y-14780484D01*
X21909015Y-14961436D02*
X21918539Y-14970960D01*
X21918539Y-14970960D02*
X21909015Y-14980484D01*
X21909015Y-14980484D02*
X21899491Y-14970960D01*
X21899491Y-14970960D02*
X21909015Y-14961436D01*
X21909015Y-14961436D02*
X21909015Y-14980484D01*
X22042348Y-14780484D02*
X22061396Y-14780484D01*
X22061396Y-14780484D02*
X22080444Y-14790008D01*
X22080444Y-14790008D02*
X22089968Y-14799531D01*
X22089968Y-14799531D02*
X22099491Y-14818579D01*
X22099491Y-14818579D02*
X22109015Y-14856674D01*
X22109015Y-14856674D02*
X22109015Y-14904293D01*
X22109015Y-14904293D02*
X22099491Y-14942388D01*
X22099491Y-14942388D02*
X22089968Y-14961436D01*
X22089968Y-14961436D02*
X22080444Y-14970960D01*
X22080444Y-14970960D02*
X22061396Y-14980484D01*
X22061396Y-14980484D02*
X22042348Y-14980484D01*
X22042348Y-14980484D02*
X22023301Y-14970960D01*
X22023301Y-14970960D02*
X22013777Y-14961436D01*
X22013777Y-14961436D02*
X22004253Y-14942388D01*
X22004253Y-14942388D02*
X21994729Y-14904293D01*
X21994729Y-14904293D02*
X21994729Y-14856674D01*
X21994729Y-14856674D02*
X22004253Y-14818579D01*
X22004253Y-14818579D02*
X22013777Y-14799531D01*
X22013777Y-14799531D02*
X22023301Y-14790008D01*
X22023301Y-14790008D02*
X22042348Y-14780484D01*
X22280444Y-14847150D02*
X22280444Y-14980484D01*
X22232825Y-14770960D02*
X22185206Y-14913817D01*
X22185206Y-14913817D02*
X22309015Y-14913817D01*
X22366158Y-14780484D02*
X22499491Y-14780484D01*
X22499491Y-14780484D02*
X22413777Y-14980484D01*
X22566158Y-14799531D02*
X22575682Y-14790008D01*
X22575682Y-14790008D02*
X22594729Y-14780484D01*
X22594729Y-14780484D02*
X22642348Y-14780484D01*
X22642348Y-14780484D02*
X22661396Y-14790008D01*
X22661396Y-14790008D02*
X22670920Y-14799531D01*
X22670920Y-14799531D02*
X22680444Y-14818579D01*
X22680444Y-14818579D02*
X22680444Y-14837627D01*
X22680444Y-14837627D02*
X22670920Y-14866198D01*
X22670920Y-14866198D02*
X22556634Y-14980484D01*
X22556634Y-14980484D02*
X22680444Y-14980484D01*
X22756634Y-14780484D02*
X22756634Y-14818579D01*
X22832825Y-14780484D02*
X22832825Y-14818579D01*
X23128063Y-15056674D02*
X23118539Y-15047150D01*
X23118539Y-15047150D02*
X23099491Y-15018579D01*
X23099491Y-15018579D02*
X23089968Y-14999531D01*
X23089968Y-14999531D02*
X23080444Y-14970960D01*
X23080444Y-14970960D02*
X23070920Y-14923341D01*
X23070920Y-14923341D02*
X23070920Y-14885246D01*
X23070920Y-14885246D02*
X23080444Y-14837627D01*
X23080444Y-14837627D02*
X23089968Y-14809055D01*
X23089968Y-14809055D02*
X23099491Y-14790008D01*
X23099491Y-14790008D02*
X23118539Y-14761436D01*
X23118539Y-14761436D02*
X23128063Y-14751912D01*
X23309015Y-14980484D02*
X23194729Y-14980484D01*
X23251872Y-14980484D02*
X23251872Y-14780484D01*
X23251872Y-14780484D02*
X23232825Y-14809055D01*
X23232825Y-14809055D02*
X23213777Y-14828103D01*
X23213777Y-14828103D02*
X23194729Y-14837627D01*
X23480444Y-14780484D02*
X23442348Y-14780484D01*
X23442348Y-14780484D02*
X23423301Y-14790008D01*
X23423301Y-14790008D02*
X23413777Y-14799531D01*
X23413777Y-14799531D02*
X23394729Y-14828103D01*
X23394729Y-14828103D02*
X23385206Y-14866198D01*
X23385206Y-14866198D02*
X23385206Y-14942388D01*
X23385206Y-14942388D02*
X23394729Y-14961436D01*
X23394729Y-14961436D02*
X23404253Y-14970960D01*
X23404253Y-14970960D02*
X23423301Y-14980484D01*
X23423301Y-14980484D02*
X23461396Y-14980484D01*
X23461396Y-14980484D02*
X23480444Y-14970960D01*
X23480444Y-14970960D02*
X23489968Y-14961436D01*
X23489968Y-14961436D02*
X23499491Y-14942388D01*
X23499491Y-14942388D02*
X23499491Y-14894769D01*
X23499491Y-14894769D02*
X23489968Y-14875722D01*
X23489968Y-14875722D02*
X23480444Y-14866198D01*
X23480444Y-14866198D02*
X23461396Y-14856674D01*
X23461396Y-14856674D02*
X23423301Y-14856674D01*
X23423301Y-14856674D02*
X23404253Y-14866198D01*
X23404253Y-14866198D02*
X23394729Y-14875722D01*
X23394729Y-14875722D02*
X23385206Y-14894769D01*
X23737587Y-14980484D02*
X23737587Y-14780484D01*
X23823301Y-14980484D02*
X23823301Y-14875722D01*
X23823301Y-14875722D02*
X23813777Y-14856674D01*
X23813777Y-14856674D02*
X23794730Y-14847150D01*
X23794730Y-14847150D02*
X23766158Y-14847150D01*
X23766158Y-14847150D02*
X23747110Y-14856674D01*
X23747110Y-14856674D02*
X23737587Y-14866198D01*
X23947110Y-14980484D02*
X23928063Y-14970960D01*
X23928063Y-14970960D02*
X23918539Y-14961436D01*
X23918539Y-14961436D02*
X23909015Y-14942388D01*
X23909015Y-14942388D02*
X23909015Y-14885246D01*
X23909015Y-14885246D02*
X23918539Y-14866198D01*
X23918539Y-14866198D02*
X23928063Y-14856674D01*
X23928063Y-14856674D02*
X23947110Y-14847150D01*
X23947110Y-14847150D02*
X23975682Y-14847150D01*
X23975682Y-14847150D02*
X23994730Y-14856674D01*
X23994730Y-14856674D02*
X24004253Y-14866198D01*
X24004253Y-14866198D02*
X24013777Y-14885246D01*
X24013777Y-14885246D02*
X24013777Y-14942388D01*
X24013777Y-14942388D02*
X24004253Y-14961436D01*
X24004253Y-14961436D02*
X23994730Y-14970960D01*
X23994730Y-14970960D02*
X23975682Y-14980484D01*
X23975682Y-14980484D02*
X23947110Y-14980484D01*
X24128063Y-14980484D02*
X24109015Y-14970960D01*
X24109015Y-14970960D02*
X24099491Y-14951912D01*
X24099491Y-14951912D02*
X24099491Y-14780484D01*
X24280444Y-14970960D02*
X24261396Y-14980484D01*
X24261396Y-14980484D02*
X24223301Y-14980484D01*
X24223301Y-14980484D02*
X24204253Y-14970960D01*
X24204253Y-14970960D02*
X24194730Y-14951912D01*
X24194730Y-14951912D02*
X24194730Y-14875722D01*
X24194730Y-14875722D02*
X24204253Y-14856674D01*
X24204253Y-14856674D02*
X24223301Y-14847150D01*
X24223301Y-14847150D02*
X24261396Y-14847150D01*
X24261396Y-14847150D02*
X24280444Y-14856674D01*
X24280444Y-14856674D02*
X24289968Y-14875722D01*
X24289968Y-14875722D02*
X24289968Y-14894769D01*
X24289968Y-14894769D02*
X24194730Y-14913817D01*
X24366158Y-14970960D02*
X24385206Y-14980484D01*
X24385206Y-14980484D02*
X24423301Y-14980484D01*
X24423301Y-14980484D02*
X24442349Y-14970960D01*
X24442349Y-14970960D02*
X24451872Y-14951912D01*
X24451872Y-14951912D02*
X24451872Y-14942388D01*
X24451872Y-14942388D02*
X24442349Y-14923341D01*
X24442349Y-14923341D02*
X24423301Y-14913817D01*
X24423301Y-14913817D02*
X24394730Y-14913817D01*
X24394730Y-14913817D02*
X24375682Y-14904293D01*
X24375682Y-14904293D02*
X24366158Y-14885246D01*
X24366158Y-14885246D02*
X24366158Y-14875722D01*
X24366158Y-14875722D02*
X24375682Y-14856674D01*
X24375682Y-14856674D02*
X24394730Y-14847150D01*
X24394730Y-14847150D02*
X24423301Y-14847150D01*
X24423301Y-14847150D02*
X24442349Y-14856674D01*
X24518539Y-15056674D02*
X24528063Y-15047150D01*
X24528063Y-15047150D02*
X24547111Y-15018579D01*
X24547111Y-15018579D02*
X24556634Y-14999531D01*
X24556634Y-14999531D02*
X24566158Y-14970960D01*
X24566158Y-14970960D02*
X24575682Y-14923341D01*
X24575682Y-14923341D02*
X24575682Y-14885246D01*
X24575682Y-14885246D02*
X24566158Y-14837627D01*
X24566158Y-14837627D02*
X24556634Y-14809055D01*
X24556634Y-14809055D02*
X24547111Y-14790008D01*
X24547111Y-14790008D02*
X24528063Y-14761436D01*
X24528063Y-14761436D02*
X24518539Y-14751912D01*
M02*
