G04 #@! TF.GenerationSoftware,KiCad,Pcbnew,7.0.10*
G04 #@! TF.CreationDate,2024-03-17T21:58:49+02:00*
G04 #@! TF.ProjectId,MasterShield,4d617374-6572-4536-9869-656c642e6b69,rev?*
G04 #@! TF.SameCoordinates,Original*
G04 #@! TF.FileFunction,Legend,Top*
G04 #@! TF.FilePolarity,Positive*
%FSLAX46Y46*%
G04 Gerber Fmt 4.6, Leading zero omitted, Abs format (unit mm)*
G04 Created by KiCad (PCBNEW 7.0.10) date 2024-03-17 21:58:49*
%MOMM*%
%LPD*%
G01*
G04 APERTURE LIST*
G04 Aperture macros list*
%AMRoundRect*
0 Rectangle with rounded corners*
0 $1 Rounding radius*
0 $2 $3 $4 $5 $6 $7 $8 $9 X,Y pos of 4 corners*
0 Add a 4 corners polygon primitive as box body*
4,1,4,$2,$3,$4,$5,$6,$7,$8,$9,$2,$3,0*
0 Add four circle primitives for the rounded corners*
1,1,$1+$1,$2,$3*
1,1,$1+$1,$4,$5*
1,1,$1+$1,$6,$7*
1,1,$1+$1,$8,$9*
0 Add four rect primitives between the rounded corners*
20,1,$1+$1,$2,$3,$4,$5,0*
20,1,$1+$1,$4,$5,$6,$7,0*
20,1,$1+$1,$6,$7,$8,$9,0*
20,1,$1+$1,$8,$9,$2,$3,0*%
G04 Aperture macros list end*
%ADD10C,0.300000*%
%ADD11C,0.150000*%
%ADD12C,0.125000*%
%ADD13C,0.120000*%
%ADD14RoundRect,0.250000X0.262500X0.450000X-0.262500X0.450000X-0.262500X-0.450000X0.262500X-0.450000X0*%
%ADD15RoundRect,0.250000X-0.875000X-1.025000X0.875000X-1.025000X0.875000X1.025000X-0.875000X1.025000X0*%
%ADD16RoundRect,0.250000X0.450000X-0.262500X0.450000X0.262500X-0.450000X0.262500X-0.450000X-0.262500X0*%
%ADD17RoundRect,0.250000X-0.262500X-0.450000X0.262500X-0.450000X0.262500X0.450000X-0.262500X0.450000X0*%
%ADD18RoundRect,0.250000X0.250000X-0.250000X0.250000X0.250000X-0.250000X0.250000X-0.250000X-0.250000X0*%
%ADD19R,2.400000X2.400000*%
%ADD20C,2.400000*%
%ADD21C,2.000000*%
%ADD22RoundRect,0.250000X-0.450000X0.262500X-0.450000X-0.262500X0.450000X-0.262500X0.450000X0.262500X0*%
%ADD23RoundRect,0.250000X-0.250000X-0.250000X0.250000X-0.250000X0.250000X0.250000X-0.250000X0.250000X0*%
%ADD24RoundRect,0.150000X0.150000X-0.675000X0.150000X0.675000X-0.150000X0.675000X-0.150000X-0.675000X0*%
%ADD25R,0.400000X0.650000*%
%ADD26RoundRect,0.250000X-0.475000X0.250000X-0.475000X-0.250000X0.475000X-0.250000X0.475000X0.250000X0*%
%ADD27RoundRect,0.243750X0.456250X-0.243750X0.456250X0.243750X-0.456250X0.243750X-0.456250X-0.243750X0*%
%ADD28RoundRect,0.150000X-0.150000X0.587500X-0.150000X-0.587500X0.150000X-0.587500X0.150000X0.587500X0*%
%ADD29RoundRect,0.150000X-0.512500X-0.150000X0.512500X-0.150000X0.512500X0.150000X-0.512500X0.150000X0*%
%ADD30RoundRect,0.250000X0.250000X0.475000X-0.250000X0.475000X-0.250000X-0.475000X0.250000X-0.475000X0*%
%ADD31R,1.950000X0.550000*%
%ADD32RoundRect,0.250000X-0.300000X2.050000X-0.300000X-2.050000X0.300000X-2.050000X0.300000X2.050000X0*%
%ADD33RoundRect,0.250002X-5.149998X4.449998X-5.149998X-4.449998X5.149998X-4.449998X5.149998X4.449998X0*%
%ADD34RoundRect,0.250000X1.000000X-1.950000X1.000000X1.950000X-1.000000X1.950000X-1.000000X-1.950000X0*%
%ADD35RoundRect,0.150000X0.587500X0.150000X-0.587500X0.150000X-0.587500X-0.150000X0.587500X-0.150000X0*%
%ADD36RoundRect,0.243750X-0.456250X0.243750X-0.456250X-0.243750X0.456250X-0.243750X0.456250X0.243750X0*%
%ADD37RoundRect,0.150000X0.150000X-0.825000X0.150000X0.825000X-0.150000X0.825000X-0.150000X-0.825000X0*%
%ADD38RoundRect,0.235000X1.465000X-0.940000X1.465000X0.940000X-1.465000X0.940000X-1.465000X-0.940000X0*%
%ADD39RoundRect,0.125000X-0.537500X-0.125000X0.537500X-0.125000X0.537500X0.125000X-0.537500X0.125000X0*%
%ADD40R,1.700000X1.700000*%
%ADD41O,1.700000X1.700000*%
G04 APERTURE END LIST*
D10*
X200617461Y-118990400D02*
X199474604Y-118990400D01*
X200046032Y-119561828D02*
X200046032Y-118418971D01*
X241050224Y-54186800D02*
X242193082Y-54186800D01*
X200168800Y-110965757D02*
X200168800Y-112108615D01*
X200617461Y-115340094D02*
X199474604Y-115340094D01*
X200046032Y-115911522D02*
X200046032Y-114768665D01*
X245342889Y-54220400D02*
X244200032Y-54220400D01*
X244771460Y-54791828D02*
X244771460Y-53648971D01*
X234581289Y-53929914D02*
X234367003Y-54001342D01*
X234367003Y-54001342D02*
X234295574Y-54072771D01*
X234295574Y-54072771D02*
X234224146Y-54215628D01*
X234224146Y-54215628D02*
X234224146Y-54429914D01*
X234224146Y-54429914D02*
X234295574Y-54572771D01*
X234295574Y-54572771D02*
X234367003Y-54644200D01*
X234367003Y-54644200D02*
X234509860Y-54715628D01*
X234509860Y-54715628D02*
X235081289Y-54715628D01*
X235081289Y-54715628D02*
X235081289Y-53215628D01*
X235081289Y-53215628D02*
X234581289Y-53215628D01*
X234581289Y-53215628D02*
X234438432Y-53287057D01*
X234438432Y-53287057D02*
X234367003Y-53358485D01*
X234367003Y-53358485D02*
X234295574Y-53501342D01*
X234295574Y-53501342D02*
X234295574Y-53644200D01*
X234295574Y-53644200D02*
X234367003Y-53787057D01*
X234367003Y-53787057D02*
X234438432Y-53858485D01*
X234438432Y-53858485D02*
X234581289Y-53929914D01*
X234581289Y-53929914D02*
X235081289Y-53929914D01*
D11*
X252749160Y-113217666D02*
X256558684Y-113217666D01*
D10*
X254774828Y-118131110D02*
X254774828Y-119273968D01*
X255223489Y-115078800D02*
X254080632Y-115078800D01*
X254652060Y-115650228D02*
X254652060Y-114507371D01*
X215015224Y-54085200D02*
X216158082Y-54085200D01*
X211811082Y-53510542D02*
X212525368Y-53510542D01*
X211668225Y-53081971D02*
X212168225Y-54581971D01*
X212168225Y-54581971D02*
X212668225Y-53081971D01*
D12*
X217958895Y-53234190D02*
X217863657Y-53234190D01*
X217863657Y-53234190D02*
X217816038Y-53210380D01*
X217816038Y-53210380D02*
X217768419Y-53162761D01*
X217768419Y-53162761D02*
X217744609Y-53067523D01*
X217744609Y-53067523D02*
X217744609Y-52900857D01*
X217744609Y-52900857D02*
X217768419Y-52805619D01*
X217768419Y-52805619D02*
X217816038Y-52758000D01*
X217816038Y-52758000D02*
X217863657Y-52734190D01*
X217863657Y-52734190D02*
X217958895Y-52734190D01*
X217958895Y-52734190D02*
X218006514Y-52758000D01*
X218006514Y-52758000D02*
X218054133Y-52805619D01*
X218054133Y-52805619D02*
X218077942Y-52900857D01*
X218077942Y-52900857D02*
X218077942Y-53067523D01*
X218077942Y-53067523D02*
X218054133Y-53162761D01*
X218054133Y-53162761D02*
X218006514Y-53210380D01*
X218006514Y-53210380D02*
X217958895Y-53234190D01*
X217530323Y-53234190D02*
X217530323Y-52829428D01*
X217530323Y-52829428D02*
X217506513Y-52781809D01*
X217506513Y-52781809D02*
X217482704Y-52758000D01*
X217482704Y-52758000D02*
X217435085Y-52734190D01*
X217435085Y-52734190D02*
X217339847Y-52734190D01*
X217339847Y-52734190D02*
X217292228Y-52758000D01*
X217292228Y-52758000D02*
X217268418Y-52781809D01*
X217268418Y-52781809D02*
X217244609Y-52829428D01*
X217244609Y-52829428D02*
X217244609Y-53234190D01*
X217077941Y-53234190D02*
X216792227Y-53234190D01*
X216935084Y-52734190D02*
X216935084Y-53234190D01*
X216673180Y-53234190D02*
X216363656Y-53234190D01*
X216363656Y-53234190D02*
X216530323Y-53043714D01*
X216530323Y-53043714D02*
X216458894Y-53043714D01*
X216458894Y-53043714D02*
X216411275Y-53019904D01*
X216411275Y-53019904D02*
X216387466Y-52996095D01*
X216387466Y-52996095D02*
X216363656Y-52948476D01*
X216363656Y-52948476D02*
X216363656Y-52829428D01*
X216363656Y-52829428D02*
X216387466Y-52781809D01*
X216387466Y-52781809D02*
X216411275Y-52758000D01*
X216411275Y-52758000D02*
X216458894Y-52734190D01*
X216458894Y-52734190D02*
X216601751Y-52734190D01*
X216601751Y-52734190D02*
X216649370Y-52758000D01*
X216649370Y-52758000D02*
X216673180Y-52781809D01*
X255807609Y-110339095D02*
X255807609Y-110243857D01*
X255807609Y-110243857D02*
X255831419Y-110196238D01*
X255831419Y-110196238D02*
X255879038Y-110148619D01*
X255879038Y-110148619D02*
X255974276Y-110124809D01*
X255974276Y-110124809D02*
X256140942Y-110124809D01*
X256140942Y-110124809D02*
X256236180Y-110148619D01*
X256236180Y-110148619D02*
X256283800Y-110196238D01*
X256283800Y-110196238D02*
X256307609Y-110243857D01*
X256307609Y-110243857D02*
X256307609Y-110339095D01*
X256307609Y-110339095D02*
X256283800Y-110386714D01*
X256283800Y-110386714D02*
X256236180Y-110434333D01*
X256236180Y-110434333D02*
X256140942Y-110458142D01*
X256140942Y-110458142D02*
X255974276Y-110458142D01*
X255974276Y-110458142D02*
X255879038Y-110434333D01*
X255879038Y-110434333D02*
X255831419Y-110386714D01*
X255831419Y-110386714D02*
X255807609Y-110339095D01*
X255807609Y-109910523D02*
X256212371Y-109910523D01*
X256212371Y-109910523D02*
X256259990Y-109886713D01*
X256259990Y-109886713D02*
X256283800Y-109862904D01*
X256283800Y-109862904D02*
X256307609Y-109815285D01*
X256307609Y-109815285D02*
X256307609Y-109720047D01*
X256307609Y-109720047D02*
X256283800Y-109672428D01*
X256283800Y-109672428D02*
X256259990Y-109648618D01*
X256259990Y-109648618D02*
X256212371Y-109624809D01*
X256212371Y-109624809D02*
X255807609Y-109624809D01*
X255807609Y-109458141D02*
X255807609Y-109172427D01*
X256307609Y-109315284D02*
X255807609Y-109315284D01*
X255855228Y-109029570D02*
X255831419Y-109005761D01*
X255831419Y-109005761D02*
X255807609Y-108958142D01*
X255807609Y-108958142D02*
X255807609Y-108839094D01*
X255807609Y-108839094D02*
X255831419Y-108791475D01*
X255831419Y-108791475D02*
X255855228Y-108767666D01*
X255855228Y-108767666D02*
X255902847Y-108743856D01*
X255902847Y-108743856D02*
X255950466Y-108743856D01*
X255950466Y-108743856D02*
X256021895Y-108767666D01*
X256021895Y-108767666D02*
X256307609Y-109053380D01*
X256307609Y-109053380D02*
X256307609Y-108743856D01*
X243892295Y-53437390D02*
X243797057Y-53437390D01*
X243797057Y-53437390D02*
X243749438Y-53413580D01*
X243749438Y-53413580D02*
X243701819Y-53365961D01*
X243701819Y-53365961D02*
X243678009Y-53270723D01*
X243678009Y-53270723D02*
X243678009Y-53104057D01*
X243678009Y-53104057D02*
X243701819Y-53008819D01*
X243701819Y-53008819D02*
X243749438Y-52961200D01*
X243749438Y-52961200D02*
X243797057Y-52937390D01*
X243797057Y-52937390D02*
X243892295Y-52937390D01*
X243892295Y-52937390D02*
X243939914Y-52961200D01*
X243939914Y-52961200D02*
X243987533Y-53008819D01*
X243987533Y-53008819D02*
X244011342Y-53104057D01*
X244011342Y-53104057D02*
X244011342Y-53270723D01*
X244011342Y-53270723D02*
X243987533Y-53365961D01*
X243987533Y-53365961D02*
X243939914Y-53413580D01*
X243939914Y-53413580D02*
X243892295Y-53437390D01*
X243463723Y-53437390D02*
X243463723Y-53032628D01*
X243463723Y-53032628D02*
X243439913Y-52985009D01*
X243439913Y-52985009D02*
X243416104Y-52961200D01*
X243416104Y-52961200D02*
X243368485Y-52937390D01*
X243368485Y-52937390D02*
X243273247Y-52937390D01*
X243273247Y-52937390D02*
X243225628Y-52961200D01*
X243225628Y-52961200D02*
X243201818Y-52985009D01*
X243201818Y-52985009D02*
X243178009Y-53032628D01*
X243178009Y-53032628D02*
X243178009Y-53437390D01*
X243011341Y-53437390D02*
X242725627Y-53437390D01*
X242868484Y-52937390D02*
X242868484Y-53437390D01*
X242344675Y-53270723D02*
X242344675Y-52937390D01*
X242463723Y-53461200D02*
X242582770Y-53104057D01*
X242582770Y-53104057D02*
X242273247Y-53104057D01*
D10*
X200168800Y-107666310D02*
X200168800Y-108809168D01*
X208368489Y-53904514D02*
X208154203Y-53975942D01*
X208154203Y-53975942D02*
X208082774Y-54047371D01*
X208082774Y-54047371D02*
X208011346Y-54190228D01*
X208011346Y-54190228D02*
X208011346Y-54404514D01*
X208011346Y-54404514D02*
X208082774Y-54547371D01*
X208082774Y-54547371D02*
X208154203Y-54618800D01*
X208154203Y-54618800D02*
X208297060Y-54690228D01*
X208297060Y-54690228D02*
X208868489Y-54690228D01*
X208868489Y-54690228D02*
X208868489Y-53190228D01*
X208868489Y-53190228D02*
X208368489Y-53190228D01*
X208368489Y-53190228D02*
X208225632Y-53261657D01*
X208225632Y-53261657D02*
X208154203Y-53333085D01*
X208154203Y-53333085D02*
X208082774Y-53475942D01*
X208082774Y-53475942D02*
X208082774Y-53618800D01*
X208082774Y-53618800D02*
X208154203Y-53761657D01*
X208154203Y-53761657D02*
X208225632Y-53833085D01*
X208225632Y-53833085D02*
X208368489Y-53904514D01*
X208368489Y-53904514D02*
X208868489Y-53904514D01*
X255223489Y-111268800D02*
X254080632Y-111268800D01*
X254652060Y-111840228D02*
X254652060Y-110697371D01*
X219307889Y-54118800D02*
X218165032Y-54118800D01*
X218736460Y-54690228D02*
X218736460Y-53547371D01*
X254774828Y-107405016D02*
X254774828Y-108547874D01*
D11*
X198164560Y-113420866D02*
X201974084Y-113420866D01*
D12*
X255680609Y-117679695D02*
X255680609Y-117584457D01*
X255680609Y-117584457D02*
X255704419Y-117536838D01*
X255704419Y-117536838D02*
X255752038Y-117489219D01*
X255752038Y-117489219D02*
X255847276Y-117465409D01*
X255847276Y-117465409D02*
X256013942Y-117465409D01*
X256013942Y-117465409D02*
X256109180Y-117489219D01*
X256109180Y-117489219D02*
X256156800Y-117536838D01*
X256156800Y-117536838D02*
X256180609Y-117584457D01*
X256180609Y-117584457D02*
X256180609Y-117679695D01*
X256180609Y-117679695D02*
X256156800Y-117727314D01*
X256156800Y-117727314D02*
X256109180Y-117774933D01*
X256109180Y-117774933D02*
X256013942Y-117798742D01*
X256013942Y-117798742D02*
X255847276Y-117798742D01*
X255847276Y-117798742D02*
X255752038Y-117774933D01*
X255752038Y-117774933D02*
X255704419Y-117727314D01*
X255704419Y-117727314D02*
X255680609Y-117679695D01*
X255680609Y-117251123D02*
X256085371Y-117251123D01*
X256085371Y-117251123D02*
X256132990Y-117227313D01*
X256132990Y-117227313D02*
X256156800Y-117203504D01*
X256156800Y-117203504D02*
X256180609Y-117155885D01*
X256180609Y-117155885D02*
X256180609Y-117060647D01*
X256180609Y-117060647D02*
X256156800Y-117013028D01*
X256156800Y-117013028D02*
X256132990Y-116989218D01*
X256132990Y-116989218D02*
X256085371Y-116965409D01*
X256085371Y-116965409D02*
X255680609Y-116965409D01*
X255680609Y-116798741D02*
X255680609Y-116513027D01*
X256180609Y-116655884D02*
X255680609Y-116655884D01*
X256180609Y-116084456D02*
X256180609Y-116370170D01*
X256180609Y-116227313D02*
X255680609Y-116227313D01*
X255680609Y-116227313D02*
X255752038Y-116274932D01*
X255752038Y-116274932D02*
X255799657Y-116322551D01*
X255799657Y-116322551D02*
X255823466Y-116370170D01*
D10*
X237846082Y-53612142D02*
X238560368Y-53612142D01*
X237703225Y-53183571D02*
X238203225Y-54683571D01*
X238203225Y-54683571D02*
X238703225Y-53183571D01*
D11*
X206904142Y-66747819D02*
X206570809Y-66271628D01*
X206332714Y-66747819D02*
X206332714Y-65747819D01*
X206332714Y-65747819D02*
X206713666Y-65747819D01*
X206713666Y-65747819D02*
X206808904Y-65795438D01*
X206808904Y-65795438D02*
X206856523Y-65843057D01*
X206856523Y-65843057D02*
X206904142Y-65938295D01*
X206904142Y-65938295D02*
X206904142Y-66081152D01*
X206904142Y-66081152D02*
X206856523Y-66176390D01*
X206856523Y-66176390D02*
X206808904Y-66224009D01*
X206808904Y-66224009D02*
X206713666Y-66271628D01*
X206713666Y-66271628D02*
X206332714Y-66271628D01*
X207285095Y-65843057D02*
X207332714Y-65795438D01*
X207332714Y-65795438D02*
X207427952Y-65747819D01*
X207427952Y-65747819D02*
X207666047Y-65747819D01*
X207666047Y-65747819D02*
X207761285Y-65795438D01*
X207761285Y-65795438D02*
X207808904Y-65843057D01*
X207808904Y-65843057D02*
X207856523Y-65938295D01*
X207856523Y-65938295D02*
X207856523Y-66033533D01*
X207856523Y-66033533D02*
X207808904Y-66176390D01*
X207808904Y-66176390D02*
X207237476Y-66747819D01*
X207237476Y-66747819D02*
X207856523Y-66747819D01*
X208808904Y-66747819D02*
X208237476Y-66747819D01*
X208523190Y-66747819D02*
X208523190Y-65747819D01*
X208523190Y-65747819D02*
X208427952Y-65890676D01*
X208427952Y-65890676D02*
X208332714Y-65985914D01*
X208332714Y-65985914D02*
X208237476Y-66033533D01*
X223996642Y-98116819D02*
X223663309Y-97640628D01*
X223425214Y-98116819D02*
X223425214Y-97116819D01*
X223425214Y-97116819D02*
X223806166Y-97116819D01*
X223806166Y-97116819D02*
X223901404Y-97164438D01*
X223901404Y-97164438D02*
X223949023Y-97212057D01*
X223949023Y-97212057D02*
X223996642Y-97307295D01*
X223996642Y-97307295D02*
X223996642Y-97450152D01*
X223996642Y-97450152D02*
X223949023Y-97545390D01*
X223949023Y-97545390D02*
X223901404Y-97593009D01*
X223901404Y-97593009D02*
X223806166Y-97640628D01*
X223806166Y-97640628D02*
X223425214Y-97640628D01*
X224949023Y-98116819D02*
X224377595Y-98116819D01*
X224663309Y-98116819D02*
X224663309Y-97116819D01*
X224663309Y-97116819D02*
X224568071Y-97259676D01*
X224568071Y-97259676D02*
X224472833Y-97354914D01*
X224472833Y-97354914D02*
X224377595Y-97402533D01*
X225520452Y-97545390D02*
X225425214Y-97497771D01*
X225425214Y-97497771D02*
X225377595Y-97450152D01*
X225377595Y-97450152D02*
X225329976Y-97354914D01*
X225329976Y-97354914D02*
X225329976Y-97307295D01*
X225329976Y-97307295D02*
X225377595Y-97212057D01*
X225377595Y-97212057D02*
X225425214Y-97164438D01*
X225425214Y-97164438D02*
X225520452Y-97116819D01*
X225520452Y-97116819D02*
X225710928Y-97116819D01*
X225710928Y-97116819D02*
X225806166Y-97164438D01*
X225806166Y-97164438D02*
X225853785Y-97212057D01*
X225853785Y-97212057D02*
X225901404Y-97307295D01*
X225901404Y-97307295D02*
X225901404Y-97354914D01*
X225901404Y-97354914D02*
X225853785Y-97450152D01*
X225853785Y-97450152D02*
X225806166Y-97497771D01*
X225806166Y-97497771D02*
X225710928Y-97545390D01*
X225710928Y-97545390D02*
X225520452Y-97545390D01*
X225520452Y-97545390D02*
X225425214Y-97593009D01*
X225425214Y-97593009D02*
X225377595Y-97640628D01*
X225377595Y-97640628D02*
X225329976Y-97735866D01*
X225329976Y-97735866D02*
X225329976Y-97926342D01*
X225329976Y-97926342D02*
X225377595Y-98021580D01*
X225377595Y-98021580D02*
X225425214Y-98069200D01*
X225425214Y-98069200D02*
X225520452Y-98116819D01*
X225520452Y-98116819D02*
X225710928Y-98116819D01*
X225710928Y-98116819D02*
X225806166Y-98069200D01*
X225806166Y-98069200D02*
X225853785Y-98021580D01*
X225853785Y-98021580D02*
X225901404Y-97926342D01*
X225901404Y-97926342D02*
X225901404Y-97735866D01*
X225901404Y-97735866D02*
X225853785Y-97640628D01*
X225853785Y-97640628D02*
X225806166Y-97593009D01*
X225806166Y-97593009D02*
X225710928Y-97545390D01*
X218901180Y-102503266D02*
X218948800Y-102550885D01*
X218948800Y-102550885D02*
X218996419Y-102693742D01*
X218996419Y-102693742D02*
X218996419Y-102788980D01*
X218996419Y-102788980D02*
X218948800Y-102931837D01*
X218948800Y-102931837D02*
X218853561Y-103027075D01*
X218853561Y-103027075D02*
X218758323Y-103074694D01*
X218758323Y-103074694D02*
X218567847Y-103122313D01*
X218567847Y-103122313D02*
X218424990Y-103122313D01*
X218424990Y-103122313D02*
X218234514Y-103074694D01*
X218234514Y-103074694D02*
X218139276Y-103027075D01*
X218139276Y-103027075D02*
X218044038Y-102931837D01*
X218044038Y-102931837D02*
X217996419Y-102788980D01*
X217996419Y-102788980D02*
X217996419Y-102693742D01*
X217996419Y-102693742D02*
X218044038Y-102550885D01*
X218044038Y-102550885D02*
X218091657Y-102503266D01*
X217996419Y-101598504D02*
X217996419Y-102074694D01*
X217996419Y-102074694D02*
X218472609Y-102122313D01*
X218472609Y-102122313D02*
X218424990Y-102074694D01*
X218424990Y-102074694D02*
X218377371Y-101979456D01*
X218377371Y-101979456D02*
X218377371Y-101741361D01*
X218377371Y-101741361D02*
X218424990Y-101646123D01*
X218424990Y-101646123D02*
X218472609Y-101598504D01*
X218472609Y-101598504D02*
X218567847Y-101550885D01*
X218567847Y-101550885D02*
X218805942Y-101550885D01*
X218805942Y-101550885D02*
X218901180Y-101598504D01*
X218901180Y-101598504D02*
X218948800Y-101646123D01*
X218948800Y-101646123D02*
X218996419Y-101741361D01*
X218996419Y-101741361D02*
X218996419Y-101979456D01*
X218996419Y-101979456D02*
X218948800Y-102074694D01*
X218948800Y-102074694D02*
X218901180Y-102122313D01*
X244676819Y-71000857D02*
X244200628Y-71334190D01*
X244676819Y-71572285D02*
X243676819Y-71572285D01*
X243676819Y-71572285D02*
X243676819Y-71191333D01*
X243676819Y-71191333D02*
X243724438Y-71096095D01*
X243724438Y-71096095D02*
X243772057Y-71048476D01*
X243772057Y-71048476D02*
X243867295Y-71000857D01*
X243867295Y-71000857D02*
X244010152Y-71000857D01*
X244010152Y-71000857D02*
X244105390Y-71048476D01*
X244105390Y-71048476D02*
X244153009Y-71096095D01*
X244153009Y-71096095D02*
X244200628Y-71191333D01*
X244200628Y-71191333D02*
X244200628Y-71572285D01*
X244676819Y-70048476D02*
X244676819Y-70619904D01*
X244676819Y-70334190D02*
X243676819Y-70334190D01*
X243676819Y-70334190D02*
X243819676Y-70429428D01*
X243819676Y-70429428D02*
X243914914Y-70524666D01*
X243914914Y-70524666D02*
X243962533Y-70619904D01*
X244010152Y-69191333D02*
X244676819Y-69191333D01*
X243629200Y-69429428D02*
X244343485Y-69667523D01*
X244343485Y-69667523D02*
X244343485Y-69048476D01*
X206449819Y-103108357D02*
X205973628Y-103441690D01*
X206449819Y-103679785D02*
X205449819Y-103679785D01*
X205449819Y-103679785D02*
X205449819Y-103298833D01*
X205449819Y-103298833D02*
X205497438Y-103203595D01*
X205497438Y-103203595D02*
X205545057Y-103155976D01*
X205545057Y-103155976D02*
X205640295Y-103108357D01*
X205640295Y-103108357D02*
X205783152Y-103108357D01*
X205783152Y-103108357D02*
X205878390Y-103155976D01*
X205878390Y-103155976D02*
X205926009Y-103203595D01*
X205926009Y-103203595D02*
X205973628Y-103298833D01*
X205973628Y-103298833D02*
X205973628Y-103679785D01*
X206449819Y-102155976D02*
X206449819Y-102727404D01*
X206449819Y-102441690D02*
X205449819Y-102441690D01*
X205449819Y-102441690D02*
X205592676Y-102536928D01*
X205592676Y-102536928D02*
X205687914Y-102632166D01*
X205687914Y-102632166D02*
X205735533Y-102727404D01*
X205449819Y-101822642D02*
X205449819Y-101203595D01*
X205449819Y-101203595D02*
X205830771Y-101536928D01*
X205830771Y-101536928D02*
X205830771Y-101394071D01*
X205830771Y-101394071D02*
X205878390Y-101298833D01*
X205878390Y-101298833D02*
X205926009Y-101251214D01*
X205926009Y-101251214D02*
X206021247Y-101203595D01*
X206021247Y-101203595D02*
X206259342Y-101203595D01*
X206259342Y-101203595D02*
X206354580Y-101251214D01*
X206354580Y-101251214D02*
X206402200Y-101298833D01*
X206402200Y-101298833D02*
X206449819Y-101394071D01*
X206449819Y-101394071D02*
X206449819Y-101679785D01*
X206449819Y-101679785D02*
X206402200Y-101775023D01*
X206402200Y-101775023D02*
X206354580Y-101822642D01*
X227530819Y-87637857D02*
X227054628Y-87971190D01*
X227530819Y-88209285D02*
X226530819Y-88209285D01*
X226530819Y-88209285D02*
X226530819Y-87828333D01*
X226530819Y-87828333D02*
X226578438Y-87733095D01*
X226578438Y-87733095D02*
X226626057Y-87685476D01*
X226626057Y-87685476D02*
X226721295Y-87637857D01*
X226721295Y-87637857D02*
X226864152Y-87637857D01*
X226864152Y-87637857D02*
X226959390Y-87685476D01*
X226959390Y-87685476D02*
X227007009Y-87733095D01*
X227007009Y-87733095D02*
X227054628Y-87828333D01*
X227054628Y-87828333D02*
X227054628Y-88209285D01*
X226626057Y-87256904D02*
X226578438Y-87209285D01*
X226578438Y-87209285D02*
X226530819Y-87114047D01*
X226530819Y-87114047D02*
X226530819Y-86875952D01*
X226530819Y-86875952D02*
X226578438Y-86780714D01*
X226578438Y-86780714D02*
X226626057Y-86733095D01*
X226626057Y-86733095D02*
X226721295Y-86685476D01*
X226721295Y-86685476D02*
X226816533Y-86685476D01*
X226816533Y-86685476D02*
X226959390Y-86733095D01*
X226959390Y-86733095D02*
X227530819Y-87304523D01*
X227530819Y-87304523D02*
X227530819Y-86685476D01*
X226864152Y-85828333D02*
X227530819Y-85828333D01*
X226483200Y-86066428D02*
X227197485Y-86304523D01*
X227197485Y-86304523D02*
X227197485Y-85685476D01*
X210407642Y-74369819D02*
X210074309Y-73893628D01*
X209836214Y-74369819D02*
X209836214Y-73369819D01*
X209836214Y-73369819D02*
X210217166Y-73369819D01*
X210217166Y-73369819D02*
X210312404Y-73417438D01*
X210312404Y-73417438D02*
X210360023Y-73465057D01*
X210360023Y-73465057D02*
X210407642Y-73560295D01*
X210407642Y-73560295D02*
X210407642Y-73703152D01*
X210407642Y-73703152D02*
X210360023Y-73798390D01*
X210360023Y-73798390D02*
X210312404Y-73846009D01*
X210312404Y-73846009D02*
X210217166Y-73893628D01*
X210217166Y-73893628D02*
X209836214Y-73893628D01*
X211360023Y-74369819D02*
X210788595Y-74369819D01*
X211074309Y-74369819D02*
X211074309Y-73369819D01*
X211074309Y-73369819D02*
X210979071Y-73512676D01*
X210979071Y-73512676D02*
X210883833Y-73607914D01*
X210883833Y-73607914D02*
X210788595Y-73655533D01*
X211693357Y-73369819D02*
X212360023Y-73369819D01*
X212360023Y-73369819D02*
X211931452Y-74369819D01*
D12*
X206564752Y-77618609D02*
X206564752Y-77118609D01*
X206564752Y-77118609D02*
X206683800Y-77118609D01*
X206683800Y-77118609D02*
X206755228Y-77142419D01*
X206755228Y-77142419D02*
X206802847Y-77190038D01*
X206802847Y-77190038D02*
X206826657Y-77237657D01*
X206826657Y-77237657D02*
X206850466Y-77332895D01*
X206850466Y-77332895D02*
X206850466Y-77404323D01*
X206850466Y-77404323D02*
X206826657Y-77499561D01*
X206826657Y-77499561D02*
X206802847Y-77547180D01*
X206802847Y-77547180D02*
X206755228Y-77594800D01*
X206755228Y-77594800D02*
X206683800Y-77618609D01*
X206683800Y-77618609D02*
X206564752Y-77618609D01*
X207279038Y-77285276D02*
X207279038Y-77618609D01*
X207159990Y-77094800D02*
X207040943Y-77451942D01*
X207040943Y-77451942D02*
X207350466Y-77451942D01*
D11*
X230698675Y-65698666D02*
X230222484Y-66031999D01*
X230698675Y-66270094D02*
X229698675Y-66270094D01*
X229698675Y-66270094D02*
X229698675Y-65889142D01*
X229698675Y-65889142D02*
X229746294Y-65793904D01*
X229746294Y-65793904D02*
X229793913Y-65746285D01*
X229793913Y-65746285D02*
X229889151Y-65698666D01*
X229889151Y-65698666D02*
X230032008Y-65698666D01*
X230032008Y-65698666D02*
X230127246Y-65746285D01*
X230127246Y-65746285D02*
X230174865Y-65793904D01*
X230174865Y-65793904D02*
X230222484Y-65889142D01*
X230222484Y-65889142D02*
X230222484Y-66270094D01*
X229698675Y-64793904D02*
X229698675Y-65270094D01*
X229698675Y-65270094D02*
X230174865Y-65317713D01*
X230174865Y-65317713D02*
X230127246Y-65270094D01*
X230127246Y-65270094D02*
X230079627Y-65174856D01*
X230079627Y-65174856D02*
X230079627Y-64936761D01*
X230079627Y-64936761D02*
X230127246Y-64841523D01*
X230127246Y-64841523D02*
X230174865Y-64793904D01*
X230174865Y-64793904D02*
X230270103Y-64746285D01*
X230270103Y-64746285D02*
X230508198Y-64746285D01*
X230508198Y-64746285D02*
X230603436Y-64793904D01*
X230603436Y-64793904D02*
X230651056Y-64841523D01*
X230651056Y-64841523D02*
X230698675Y-64936761D01*
X230698675Y-64936761D02*
X230698675Y-65174856D01*
X230698675Y-65174856D02*
X230651056Y-65270094D01*
X230651056Y-65270094D02*
X230603436Y-65317713D01*
X210972856Y-66506164D02*
X210722856Y-66149021D01*
X210544285Y-66506164D02*
X210544285Y-65756164D01*
X210544285Y-65756164D02*
X210829999Y-65756164D01*
X210829999Y-65756164D02*
X210901428Y-65791878D01*
X210901428Y-65791878D02*
X210937142Y-65827592D01*
X210937142Y-65827592D02*
X210972856Y-65899021D01*
X210972856Y-65899021D02*
X210972856Y-66006164D01*
X210972856Y-66006164D02*
X210937142Y-66077592D01*
X210937142Y-66077592D02*
X210901428Y-66113307D01*
X210901428Y-66113307D02*
X210829999Y-66149021D01*
X210829999Y-66149021D02*
X210544285Y-66149021D01*
X211258571Y-65827592D02*
X211294285Y-65791878D01*
X211294285Y-65791878D02*
X211365714Y-65756164D01*
X211365714Y-65756164D02*
X211544285Y-65756164D01*
X211544285Y-65756164D02*
X211615714Y-65791878D01*
X211615714Y-65791878D02*
X211651428Y-65827592D01*
X211651428Y-65827592D02*
X211687142Y-65899021D01*
X211687142Y-65899021D02*
X211687142Y-65970450D01*
X211687142Y-65970450D02*
X211651428Y-66077592D01*
X211651428Y-66077592D02*
X211222856Y-66506164D01*
X211222856Y-66506164D02*
X211687142Y-66506164D01*
X212151428Y-65756164D02*
X212222857Y-65756164D01*
X212222857Y-65756164D02*
X212294285Y-65791878D01*
X212294285Y-65791878D02*
X212330000Y-65827592D01*
X212330000Y-65827592D02*
X212365714Y-65899021D01*
X212365714Y-65899021D02*
X212401428Y-66041878D01*
X212401428Y-66041878D02*
X212401428Y-66220450D01*
X212401428Y-66220450D02*
X212365714Y-66363307D01*
X212365714Y-66363307D02*
X212330000Y-66434735D01*
X212330000Y-66434735D02*
X212294285Y-66470450D01*
X212294285Y-66470450D02*
X212222857Y-66506164D01*
X212222857Y-66506164D02*
X212151428Y-66506164D01*
X212151428Y-66506164D02*
X212080000Y-66470450D01*
X212080000Y-66470450D02*
X212044285Y-66434735D01*
X212044285Y-66434735D02*
X212008571Y-66363307D01*
X212008571Y-66363307D02*
X211972857Y-66220450D01*
X211972857Y-66220450D02*
X211972857Y-66041878D01*
X211972857Y-66041878D02*
X212008571Y-65899021D01*
X212008571Y-65899021D02*
X212044285Y-65827592D01*
X212044285Y-65827592D02*
X212080000Y-65791878D01*
X212080000Y-65791878D02*
X212151428Y-65756164D01*
X239696666Y-55715819D02*
X239696666Y-56430104D01*
X239696666Y-56430104D02*
X239649047Y-56572961D01*
X239649047Y-56572961D02*
X239553809Y-56668200D01*
X239553809Y-56668200D02*
X239410952Y-56715819D01*
X239410952Y-56715819D02*
X239315714Y-56715819D01*
X240649047Y-55715819D02*
X240172857Y-55715819D01*
X240172857Y-55715819D02*
X240125238Y-56192009D01*
X240125238Y-56192009D02*
X240172857Y-56144390D01*
X240172857Y-56144390D02*
X240268095Y-56096771D01*
X240268095Y-56096771D02*
X240506190Y-56096771D01*
X240506190Y-56096771D02*
X240601428Y-56144390D01*
X240601428Y-56144390D02*
X240649047Y-56192009D01*
X240649047Y-56192009D02*
X240696666Y-56287247D01*
X240696666Y-56287247D02*
X240696666Y-56525342D01*
X240696666Y-56525342D02*
X240649047Y-56620580D01*
X240649047Y-56620580D02*
X240601428Y-56668200D01*
X240601428Y-56668200D02*
X240506190Y-56715819D01*
X240506190Y-56715819D02*
X240268095Y-56715819D01*
X240268095Y-56715819D02*
X240172857Y-56668200D01*
X240172857Y-56668200D02*
X240125238Y-56620580D01*
X207607819Y-94987904D02*
X207607819Y-94416476D01*
X208607819Y-94702190D02*
X207607819Y-94702190D01*
X208607819Y-94083142D02*
X207607819Y-94083142D01*
X207607819Y-94083142D02*
X207607819Y-93702190D01*
X207607819Y-93702190D02*
X207655438Y-93606952D01*
X207655438Y-93606952D02*
X207703057Y-93559333D01*
X207703057Y-93559333D02*
X207798295Y-93511714D01*
X207798295Y-93511714D02*
X207941152Y-93511714D01*
X207941152Y-93511714D02*
X208036390Y-93559333D01*
X208036390Y-93559333D02*
X208084009Y-93606952D01*
X208084009Y-93606952D02*
X208131628Y-93702190D01*
X208131628Y-93702190D02*
X208131628Y-94083142D01*
X207607819Y-93178380D02*
X207607819Y-92511714D01*
X207607819Y-92511714D02*
X208607819Y-92940285D01*
X238542533Y-78407419D02*
X238209200Y-77931228D01*
X237971105Y-78407419D02*
X237971105Y-77407419D01*
X237971105Y-77407419D02*
X238352057Y-77407419D01*
X238352057Y-77407419D02*
X238447295Y-77455038D01*
X238447295Y-77455038D02*
X238494914Y-77502657D01*
X238494914Y-77502657D02*
X238542533Y-77597895D01*
X238542533Y-77597895D02*
X238542533Y-77740752D01*
X238542533Y-77740752D02*
X238494914Y-77835990D01*
X238494914Y-77835990D02*
X238447295Y-77883609D01*
X238447295Y-77883609D02*
X238352057Y-77931228D01*
X238352057Y-77931228D02*
X237971105Y-77931228D01*
X238923486Y-77502657D02*
X238971105Y-77455038D01*
X238971105Y-77455038D02*
X239066343Y-77407419D01*
X239066343Y-77407419D02*
X239304438Y-77407419D01*
X239304438Y-77407419D02*
X239399676Y-77455038D01*
X239399676Y-77455038D02*
X239447295Y-77502657D01*
X239447295Y-77502657D02*
X239494914Y-77597895D01*
X239494914Y-77597895D02*
X239494914Y-77693133D01*
X239494914Y-77693133D02*
X239447295Y-77835990D01*
X239447295Y-77835990D02*
X238875867Y-78407419D01*
X238875867Y-78407419D02*
X239494914Y-78407419D01*
X219622905Y-74037819D02*
X220194333Y-74037819D01*
X219908619Y-75037819D02*
X219908619Y-74037819D01*
X220527667Y-75037819D02*
X220527667Y-74037819D01*
X220527667Y-74037819D02*
X220908619Y-74037819D01*
X220908619Y-74037819D02*
X221003857Y-74085438D01*
X221003857Y-74085438D02*
X221051476Y-74133057D01*
X221051476Y-74133057D02*
X221099095Y-74228295D01*
X221099095Y-74228295D02*
X221099095Y-74371152D01*
X221099095Y-74371152D02*
X221051476Y-74466390D01*
X221051476Y-74466390D02*
X221003857Y-74514009D01*
X221003857Y-74514009D02*
X220908619Y-74561628D01*
X220908619Y-74561628D02*
X220527667Y-74561628D01*
X222051476Y-75037819D02*
X221480048Y-75037819D01*
X221765762Y-75037819D02*
X221765762Y-74037819D01*
X221765762Y-74037819D02*
X221670524Y-74180676D01*
X221670524Y-74180676D02*
X221575286Y-74275914D01*
X221575286Y-74275914D02*
X221480048Y-74323533D01*
X222670524Y-74037819D02*
X222765762Y-74037819D01*
X222765762Y-74037819D02*
X222861000Y-74085438D01*
X222861000Y-74085438D02*
X222908619Y-74133057D01*
X222908619Y-74133057D02*
X222956238Y-74228295D01*
X222956238Y-74228295D02*
X223003857Y-74418771D01*
X223003857Y-74418771D02*
X223003857Y-74656866D01*
X223003857Y-74656866D02*
X222956238Y-74847342D01*
X222956238Y-74847342D02*
X222908619Y-74942580D01*
X222908619Y-74942580D02*
X222861000Y-74990200D01*
X222861000Y-74990200D02*
X222765762Y-75037819D01*
X222765762Y-75037819D02*
X222670524Y-75037819D01*
X222670524Y-75037819D02*
X222575286Y-74990200D01*
X222575286Y-74990200D02*
X222527667Y-74942580D01*
X222527667Y-74942580D02*
X222480048Y-74847342D01*
X222480048Y-74847342D02*
X222432429Y-74656866D01*
X222432429Y-74656866D02*
X222432429Y-74418771D01*
X222432429Y-74418771D02*
X222480048Y-74228295D01*
X222480048Y-74228295D02*
X222527667Y-74133057D01*
X222527667Y-74133057D02*
X222575286Y-74085438D01*
X222575286Y-74085438D02*
X222670524Y-74037819D01*
X216735819Y-65698666D02*
X216259628Y-66031999D01*
X216735819Y-66270094D02*
X215735819Y-66270094D01*
X215735819Y-66270094D02*
X215735819Y-65889142D01*
X215735819Y-65889142D02*
X215783438Y-65793904D01*
X215783438Y-65793904D02*
X215831057Y-65746285D01*
X215831057Y-65746285D02*
X215926295Y-65698666D01*
X215926295Y-65698666D02*
X216069152Y-65698666D01*
X216069152Y-65698666D02*
X216164390Y-65746285D01*
X216164390Y-65746285D02*
X216212009Y-65793904D01*
X216212009Y-65793904D02*
X216259628Y-65889142D01*
X216259628Y-65889142D02*
X216259628Y-66270094D01*
X216069152Y-64841523D02*
X216735819Y-64841523D01*
X215688200Y-65079618D02*
X216402485Y-65317713D01*
X216402485Y-65317713D02*
X216402485Y-64698666D01*
X218916642Y-90244819D02*
X218583309Y-89768628D01*
X218345214Y-90244819D02*
X218345214Y-89244819D01*
X218345214Y-89244819D02*
X218726166Y-89244819D01*
X218726166Y-89244819D02*
X218821404Y-89292438D01*
X218821404Y-89292438D02*
X218869023Y-89340057D01*
X218869023Y-89340057D02*
X218916642Y-89435295D01*
X218916642Y-89435295D02*
X218916642Y-89578152D01*
X218916642Y-89578152D02*
X218869023Y-89673390D01*
X218869023Y-89673390D02*
X218821404Y-89721009D01*
X218821404Y-89721009D02*
X218726166Y-89768628D01*
X218726166Y-89768628D02*
X218345214Y-89768628D01*
X219297595Y-89340057D02*
X219345214Y-89292438D01*
X219345214Y-89292438D02*
X219440452Y-89244819D01*
X219440452Y-89244819D02*
X219678547Y-89244819D01*
X219678547Y-89244819D02*
X219773785Y-89292438D01*
X219773785Y-89292438D02*
X219821404Y-89340057D01*
X219821404Y-89340057D02*
X219869023Y-89435295D01*
X219869023Y-89435295D02*
X219869023Y-89530533D01*
X219869023Y-89530533D02*
X219821404Y-89673390D01*
X219821404Y-89673390D02*
X219249976Y-90244819D01*
X219249976Y-90244819D02*
X219869023Y-90244819D01*
X220249976Y-89340057D02*
X220297595Y-89292438D01*
X220297595Y-89292438D02*
X220392833Y-89244819D01*
X220392833Y-89244819D02*
X220630928Y-89244819D01*
X220630928Y-89244819D02*
X220726166Y-89292438D01*
X220726166Y-89292438D02*
X220773785Y-89340057D01*
X220773785Y-89340057D02*
X220821404Y-89435295D01*
X220821404Y-89435295D02*
X220821404Y-89530533D01*
X220821404Y-89530533D02*
X220773785Y-89673390D01*
X220773785Y-89673390D02*
X220202357Y-90244819D01*
X220202357Y-90244819D02*
X220821404Y-90244819D01*
X210054819Y-100544094D02*
X210054819Y-99972666D01*
X211054819Y-100258380D02*
X210054819Y-100258380D01*
X211054819Y-99639332D02*
X210054819Y-99639332D01*
X210054819Y-99639332D02*
X210054819Y-99258380D01*
X210054819Y-99258380D02*
X210102438Y-99163142D01*
X210102438Y-99163142D02*
X210150057Y-99115523D01*
X210150057Y-99115523D02*
X210245295Y-99067904D01*
X210245295Y-99067904D02*
X210388152Y-99067904D01*
X210388152Y-99067904D02*
X210483390Y-99115523D01*
X210483390Y-99115523D02*
X210531009Y-99163142D01*
X210531009Y-99163142D02*
X210578628Y-99258380D01*
X210578628Y-99258380D02*
X210578628Y-99639332D01*
X211054819Y-98115523D02*
X211054819Y-98686951D01*
X211054819Y-98401237D02*
X210054819Y-98401237D01*
X210054819Y-98401237D02*
X210197676Y-98496475D01*
X210197676Y-98496475D02*
X210292914Y-98591713D01*
X210292914Y-98591713D02*
X210340533Y-98686951D01*
X210054819Y-97782189D02*
X210054819Y-97115523D01*
X210054819Y-97115523D02*
X211054819Y-97544094D01*
X227607905Y-107388819D02*
X227607905Y-106388819D01*
X227607905Y-106388819D02*
X227846000Y-106388819D01*
X227846000Y-106388819D02*
X227988857Y-106436438D01*
X227988857Y-106436438D02*
X228084095Y-106531676D01*
X228084095Y-106531676D02*
X228131714Y-106626914D01*
X228131714Y-106626914D02*
X228179333Y-106817390D01*
X228179333Y-106817390D02*
X228179333Y-106960247D01*
X228179333Y-106960247D02*
X228131714Y-107150723D01*
X228131714Y-107150723D02*
X228084095Y-107245961D01*
X228084095Y-107245961D02*
X227988857Y-107341200D01*
X227988857Y-107341200D02*
X227846000Y-107388819D01*
X227846000Y-107388819D02*
X227607905Y-107388819D01*
X228512667Y-106388819D02*
X229131714Y-106388819D01*
X229131714Y-106388819D02*
X228798381Y-106769771D01*
X228798381Y-106769771D02*
X228941238Y-106769771D01*
X228941238Y-106769771D02*
X229036476Y-106817390D01*
X229036476Y-106817390D02*
X229084095Y-106865009D01*
X229084095Y-106865009D02*
X229131714Y-106960247D01*
X229131714Y-106960247D02*
X229131714Y-107198342D01*
X229131714Y-107198342D02*
X229084095Y-107293580D01*
X229084095Y-107293580D02*
X229036476Y-107341200D01*
X229036476Y-107341200D02*
X228941238Y-107388819D01*
X228941238Y-107388819D02*
X228655524Y-107388819D01*
X228655524Y-107388819D02*
X228560286Y-107341200D01*
X228560286Y-107341200D02*
X228512667Y-107293580D01*
X228261057Y-91874238D02*
X228213438Y-91969476D01*
X228213438Y-91969476D02*
X228118200Y-92064714D01*
X228118200Y-92064714D02*
X227975342Y-92207571D01*
X227975342Y-92207571D02*
X227927723Y-92302809D01*
X227927723Y-92302809D02*
X227927723Y-92398047D01*
X228165819Y-92350428D02*
X228118200Y-92445666D01*
X228118200Y-92445666D02*
X228022961Y-92540904D01*
X228022961Y-92540904D02*
X227832485Y-92588523D01*
X227832485Y-92588523D02*
X227499152Y-92588523D01*
X227499152Y-92588523D02*
X227308676Y-92540904D01*
X227308676Y-92540904D02*
X227213438Y-92445666D01*
X227213438Y-92445666D02*
X227165819Y-92350428D01*
X227165819Y-92350428D02*
X227165819Y-92159952D01*
X227165819Y-92159952D02*
X227213438Y-92064714D01*
X227213438Y-92064714D02*
X227308676Y-91969476D01*
X227308676Y-91969476D02*
X227499152Y-91921857D01*
X227499152Y-91921857D02*
X227832485Y-91921857D01*
X227832485Y-91921857D02*
X228022961Y-91969476D01*
X228022961Y-91969476D02*
X228118200Y-92064714D01*
X228118200Y-92064714D02*
X228165819Y-92159952D01*
X228165819Y-92159952D02*
X228165819Y-92350428D01*
X227261057Y-91540904D02*
X227213438Y-91493285D01*
X227213438Y-91493285D02*
X227165819Y-91398047D01*
X227165819Y-91398047D02*
X227165819Y-91159952D01*
X227165819Y-91159952D02*
X227213438Y-91064714D01*
X227213438Y-91064714D02*
X227261057Y-91017095D01*
X227261057Y-91017095D02*
X227356295Y-90969476D01*
X227356295Y-90969476D02*
X227451533Y-90969476D01*
X227451533Y-90969476D02*
X227594390Y-91017095D01*
X227594390Y-91017095D02*
X228165819Y-91588523D01*
X228165819Y-91588523D02*
X228165819Y-90969476D01*
X241611819Y-70992904D02*
X242421342Y-70992904D01*
X242421342Y-70992904D02*
X242516580Y-70945285D01*
X242516580Y-70945285D02*
X242564200Y-70897666D01*
X242564200Y-70897666D02*
X242611819Y-70802428D01*
X242611819Y-70802428D02*
X242611819Y-70611952D01*
X242611819Y-70611952D02*
X242564200Y-70516714D01*
X242564200Y-70516714D02*
X242516580Y-70469095D01*
X242516580Y-70469095D02*
X242421342Y-70421476D01*
X242421342Y-70421476D02*
X241611819Y-70421476D01*
X241611819Y-70040523D02*
X241611819Y-69421476D01*
X241611819Y-69421476D02*
X241992771Y-69754809D01*
X241992771Y-69754809D02*
X241992771Y-69611952D01*
X241992771Y-69611952D02*
X242040390Y-69516714D01*
X242040390Y-69516714D02*
X242088009Y-69469095D01*
X242088009Y-69469095D02*
X242183247Y-69421476D01*
X242183247Y-69421476D02*
X242421342Y-69421476D01*
X242421342Y-69421476D02*
X242516580Y-69469095D01*
X242516580Y-69469095D02*
X242564200Y-69516714D01*
X242564200Y-69516714D02*
X242611819Y-69611952D01*
X242611819Y-69611952D02*
X242611819Y-69897666D01*
X242611819Y-69897666D02*
X242564200Y-69992904D01*
X242564200Y-69992904D02*
X242516580Y-70040523D01*
X211971095Y-82097819D02*
X212542523Y-82097819D01*
X212256809Y-83097819D02*
X212256809Y-82097819D01*
X212875857Y-83097819D02*
X212875857Y-82097819D01*
X212875857Y-82097819D02*
X213256809Y-82097819D01*
X213256809Y-82097819D02*
X213352047Y-82145438D01*
X213352047Y-82145438D02*
X213399666Y-82193057D01*
X213399666Y-82193057D02*
X213447285Y-82288295D01*
X213447285Y-82288295D02*
X213447285Y-82431152D01*
X213447285Y-82431152D02*
X213399666Y-82526390D01*
X213399666Y-82526390D02*
X213352047Y-82574009D01*
X213352047Y-82574009D02*
X213256809Y-82621628D01*
X213256809Y-82621628D02*
X212875857Y-82621628D01*
X213828238Y-82193057D02*
X213875857Y-82145438D01*
X213875857Y-82145438D02*
X213971095Y-82097819D01*
X213971095Y-82097819D02*
X214209190Y-82097819D01*
X214209190Y-82097819D02*
X214304428Y-82145438D01*
X214304428Y-82145438D02*
X214352047Y-82193057D01*
X214352047Y-82193057D02*
X214399666Y-82288295D01*
X214399666Y-82288295D02*
X214399666Y-82383533D01*
X214399666Y-82383533D02*
X214352047Y-82526390D01*
X214352047Y-82526390D02*
X213780619Y-83097819D01*
X213780619Y-83097819D02*
X214399666Y-83097819D01*
X214971333Y-77321580D02*
X214923714Y-77369200D01*
X214923714Y-77369200D02*
X214780857Y-77416819D01*
X214780857Y-77416819D02*
X214685619Y-77416819D01*
X214685619Y-77416819D02*
X214542762Y-77369200D01*
X214542762Y-77369200D02*
X214447524Y-77273961D01*
X214447524Y-77273961D02*
X214399905Y-77178723D01*
X214399905Y-77178723D02*
X214352286Y-76988247D01*
X214352286Y-76988247D02*
X214352286Y-76845390D01*
X214352286Y-76845390D02*
X214399905Y-76654914D01*
X214399905Y-76654914D02*
X214447524Y-76559676D01*
X214447524Y-76559676D02*
X214542762Y-76464438D01*
X214542762Y-76464438D02*
X214685619Y-76416819D01*
X214685619Y-76416819D02*
X214780857Y-76416819D01*
X214780857Y-76416819D02*
X214923714Y-76464438D01*
X214923714Y-76464438D02*
X214971333Y-76512057D01*
X215304667Y-76416819D02*
X215923714Y-76416819D01*
X215923714Y-76416819D02*
X215590381Y-76797771D01*
X215590381Y-76797771D02*
X215733238Y-76797771D01*
X215733238Y-76797771D02*
X215828476Y-76845390D01*
X215828476Y-76845390D02*
X215876095Y-76893009D01*
X215876095Y-76893009D02*
X215923714Y-76988247D01*
X215923714Y-76988247D02*
X215923714Y-77226342D01*
X215923714Y-77226342D02*
X215876095Y-77321580D01*
X215876095Y-77321580D02*
X215828476Y-77369200D01*
X215828476Y-77369200D02*
X215733238Y-77416819D01*
X215733238Y-77416819D02*
X215447524Y-77416819D01*
X215447524Y-77416819D02*
X215352286Y-77369200D01*
X215352286Y-77369200D02*
X215304667Y-77321580D01*
X236459733Y-67663219D02*
X236126400Y-67187028D01*
X235888305Y-67663219D02*
X235888305Y-66663219D01*
X235888305Y-66663219D02*
X236269257Y-66663219D01*
X236269257Y-66663219D02*
X236364495Y-66710838D01*
X236364495Y-66710838D02*
X236412114Y-66758457D01*
X236412114Y-66758457D02*
X236459733Y-66853695D01*
X236459733Y-66853695D02*
X236459733Y-66996552D01*
X236459733Y-66996552D02*
X236412114Y-67091790D01*
X236412114Y-67091790D02*
X236364495Y-67139409D01*
X236364495Y-67139409D02*
X236269257Y-67187028D01*
X236269257Y-67187028D02*
X235888305Y-67187028D01*
X237316876Y-66663219D02*
X237126400Y-66663219D01*
X237126400Y-66663219D02*
X237031162Y-66710838D01*
X237031162Y-66710838D02*
X236983543Y-66758457D01*
X236983543Y-66758457D02*
X236888305Y-66901314D01*
X236888305Y-66901314D02*
X236840686Y-67091790D01*
X236840686Y-67091790D02*
X236840686Y-67472742D01*
X236840686Y-67472742D02*
X236888305Y-67567980D01*
X236888305Y-67567980D02*
X236935924Y-67615600D01*
X236935924Y-67615600D02*
X237031162Y-67663219D01*
X237031162Y-67663219D02*
X237221638Y-67663219D01*
X237221638Y-67663219D02*
X237316876Y-67615600D01*
X237316876Y-67615600D02*
X237364495Y-67567980D01*
X237364495Y-67567980D02*
X237412114Y-67472742D01*
X237412114Y-67472742D02*
X237412114Y-67234647D01*
X237412114Y-67234647D02*
X237364495Y-67139409D01*
X237364495Y-67139409D02*
X237316876Y-67091790D01*
X237316876Y-67091790D02*
X237221638Y-67044171D01*
X237221638Y-67044171D02*
X237031162Y-67044171D01*
X237031162Y-67044171D02*
X236935924Y-67091790D01*
X236935924Y-67091790D02*
X236888305Y-67139409D01*
X236888305Y-67139409D02*
X236840686Y-67234647D01*
X223996642Y-93544819D02*
X223663309Y-93068628D01*
X223425214Y-93544819D02*
X223425214Y-92544819D01*
X223425214Y-92544819D02*
X223806166Y-92544819D01*
X223806166Y-92544819D02*
X223901404Y-92592438D01*
X223901404Y-92592438D02*
X223949023Y-92640057D01*
X223949023Y-92640057D02*
X223996642Y-92735295D01*
X223996642Y-92735295D02*
X223996642Y-92878152D01*
X223996642Y-92878152D02*
X223949023Y-92973390D01*
X223949023Y-92973390D02*
X223901404Y-93021009D01*
X223901404Y-93021009D02*
X223806166Y-93068628D01*
X223806166Y-93068628D02*
X223425214Y-93068628D01*
X224377595Y-92640057D02*
X224425214Y-92592438D01*
X224425214Y-92592438D02*
X224520452Y-92544819D01*
X224520452Y-92544819D02*
X224758547Y-92544819D01*
X224758547Y-92544819D02*
X224853785Y-92592438D01*
X224853785Y-92592438D02*
X224901404Y-92640057D01*
X224901404Y-92640057D02*
X224949023Y-92735295D01*
X224949023Y-92735295D02*
X224949023Y-92830533D01*
X224949023Y-92830533D02*
X224901404Y-92973390D01*
X224901404Y-92973390D02*
X224329976Y-93544819D01*
X224329976Y-93544819D02*
X224949023Y-93544819D01*
X225282357Y-92544819D02*
X225901404Y-92544819D01*
X225901404Y-92544819D02*
X225568071Y-92925771D01*
X225568071Y-92925771D02*
X225710928Y-92925771D01*
X225710928Y-92925771D02*
X225806166Y-92973390D01*
X225806166Y-92973390D02*
X225853785Y-93021009D01*
X225853785Y-93021009D02*
X225901404Y-93116247D01*
X225901404Y-93116247D02*
X225901404Y-93354342D01*
X225901404Y-93354342D02*
X225853785Y-93449580D01*
X225853785Y-93449580D02*
X225806166Y-93497200D01*
X225806166Y-93497200D02*
X225710928Y-93544819D01*
X225710928Y-93544819D02*
X225425214Y-93544819D01*
X225425214Y-93544819D02*
X225329976Y-93497200D01*
X225329976Y-93497200D02*
X225282357Y-93449580D01*
X216736819Y-71225666D02*
X216260628Y-71558999D01*
X216736819Y-71797094D02*
X215736819Y-71797094D01*
X215736819Y-71797094D02*
X215736819Y-71416142D01*
X215736819Y-71416142D02*
X215784438Y-71320904D01*
X215784438Y-71320904D02*
X215832057Y-71273285D01*
X215832057Y-71273285D02*
X215927295Y-71225666D01*
X215927295Y-71225666D02*
X216070152Y-71225666D01*
X216070152Y-71225666D02*
X216165390Y-71273285D01*
X216165390Y-71273285D02*
X216213009Y-71320904D01*
X216213009Y-71320904D02*
X216260628Y-71416142D01*
X216260628Y-71416142D02*
X216260628Y-71797094D01*
X216736819Y-70273285D02*
X216736819Y-70844713D01*
X216736819Y-70558999D02*
X215736819Y-70558999D01*
X215736819Y-70558999D02*
X215879676Y-70654237D01*
X215879676Y-70654237D02*
X215974914Y-70749475D01*
X215974914Y-70749475D02*
X216022533Y-70844713D01*
X207145095Y-84036819D02*
X207716523Y-84036819D01*
X207430809Y-85036819D02*
X207430809Y-84036819D01*
X208049857Y-85036819D02*
X208049857Y-84036819D01*
X208049857Y-84036819D02*
X208430809Y-84036819D01*
X208430809Y-84036819D02*
X208526047Y-84084438D01*
X208526047Y-84084438D02*
X208573666Y-84132057D01*
X208573666Y-84132057D02*
X208621285Y-84227295D01*
X208621285Y-84227295D02*
X208621285Y-84370152D01*
X208621285Y-84370152D02*
X208573666Y-84465390D01*
X208573666Y-84465390D02*
X208526047Y-84513009D01*
X208526047Y-84513009D02*
X208430809Y-84560628D01*
X208430809Y-84560628D02*
X208049857Y-84560628D01*
X209097476Y-85036819D02*
X209287952Y-85036819D01*
X209287952Y-85036819D02*
X209383190Y-84989200D01*
X209383190Y-84989200D02*
X209430809Y-84941580D01*
X209430809Y-84941580D02*
X209526047Y-84798723D01*
X209526047Y-84798723D02*
X209573666Y-84608247D01*
X209573666Y-84608247D02*
X209573666Y-84227295D01*
X209573666Y-84227295D02*
X209526047Y-84132057D01*
X209526047Y-84132057D02*
X209478428Y-84084438D01*
X209478428Y-84084438D02*
X209383190Y-84036819D01*
X209383190Y-84036819D02*
X209192714Y-84036819D01*
X209192714Y-84036819D02*
X209097476Y-84084438D01*
X209097476Y-84084438D02*
X209049857Y-84132057D01*
X209049857Y-84132057D02*
X209002238Y-84227295D01*
X209002238Y-84227295D02*
X209002238Y-84465390D01*
X209002238Y-84465390D02*
X209049857Y-84560628D01*
X209049857Y-84560628D02*
X209097476Y-84608247D01*
X209097476Y-84608247D02*
X209192714Y-84655866D01*
X209192714Y-84655866D02*
X209383190Y-84655866D01*
X209383190Y-84655866D02*
X209478428Y-84608247D01*
X209478428Y-84608247D02*
X209526047Y-84560628D01*
X209526047Y-84560628D02*
X209573666Y-84465390D01*
X227150819Y-59617594D02*
X226150819Y-59617594D01*
X226150819Y-59617594D02*
X226150819Y-59379499D01*
X226150819Y-59379499D02*
X226198438Y-59236642D01*
X226198438Y-59236642D02*
X226293676Y-59141404D01*
X226293676Y-59141404D02*
X226388914Y-59093785D01*
X226388914Y-59093785D02*
X226579390Y-59046166D01*
X226579390Y-59046166D02*
X226722247Y-59046166D01*
X226722247Y-59046166D02*
X226912723Y-59093785D01*
X226912723Y-59093785D02*
X227007961Y-59141404D01*
X227007961Y-59141404D02*
X227103200Y-59236642D01*
X227103200Y-59236642D02*
X227150819Y-59379499D01*
X227150819Y-59379499D02*
X227150819Y-59617594D01*
X227150819Y-58093785D02*
X227150819Y-58665213D01*
X227150819Y-58379499D02*
X226150819Y-58379499D01*
X226150819Y-58379499D02*
X226293676Y-58474737D01*
X226293676Y-58474737D02*
X226388914Y-58569975D01*
X226388914Y-58569975D02*
X226436533Y-58665213D01*
X215828819Y-96638904D02*
X215828819Y-96067476D01*
X216828819Y-96353190D02*
X215828819Y-96353190D01*
X216828819Y-95734142D02*
X215828819Y-95734142D01*
X215828819Y-95734142D02*
X215828819Y-95353190D01*
X215828819Y-95353190D02*
X215876438Y-95257952D01*
X215876438Y-95257952D02*
X215924057Y-95210333D01*
X215924057Y-95210333D02*
X216019295Y-95162714D01*
X216019295Y-95162714D02*
X216162152Y-95162714D01*
X216162152Y-95162714D02*
X216257390Y-95210333D01*
X216257390Y-95210333D02*
X216305009Y-95257952D01*
X216305009Y-95257952D02*
X216352628Y-95353190D01*
X216352628Y-95353190D02*
X216352628Y-95734142D01*
X215828819Y-94305571D02*
X215828819Y-94496047D01*
X215828819Y-94496047D02*
X215876438Y-94591285D01*
X215876438Y-94591285D02*
X215924057Y-94638904D01*
X215924057Y-94638904D02*
X216066914Y-94734142D01*
X216066914Y-94734142D02*
X216257390Y-94781761D01*
X216257390Y-94781761D02*
X216638342Y-94781761D01*
X216638342Y-94781761D02*
X216733580Y-94734142D01*
X216733580Y-94734142D02*
X216781200Y-94686523D01*
X216781200Y-94686523D02*
X216828819Y-94591285D01*
X216828819Y-94591285D02*
X216828819Y-94400809D01*
X216828819Y-94400809D02*
X216781200Y-94305571D01*
X216781200Y-94305571D02*
X216733580Y-94257952D01*
X216733580Y-94257952D02*
X216638342Y-94210333D01*
X216638342Y-94210333D02*
X216400247Y-94210333D01*
X216400247Y-94210333D02*
X216305009Y-94257952D01*
X216305009Y-94257952D02*
X216257390Y-94305571D01*
X216257390Y-94305571D02*
X216209771Y-94400809D01*
X216209771Y-94400809D02*
X216209771Y-94591285D01*
X216209771Y-94591285D02*
X216257390Y-94686523D01*
X216257390Y-94686523D02*
X216305009Y-94734142D01*
X216305009Y-94734142D02*
X216400247Y-94781761D01*
X224683485Y-71701857D02*
X224207294Y-72035190D01*
X224683485Y-72273285D02*
X223683485Y-72273285D01*
X223683485Y-72273285D02*
X223683485Y-71892333D01*
X223683485Y-71892333D02*
X223731104Y-71797095D01*
X223731104Y-71797095D02*
X223778723Y-71749476D01*
X223778723Y-71749476D02*
X223873961Y-71701857D01*
X223873961Y-71701857D02*
X224016818Y-71701857D01*
X224016818Y-71701857D02*
X224112056Y-71749476D01*
X224112056Y-71749476D02*
X224159675Y-71797095D01*
X224159675Y-71797095D02*
X224207294Y-71892333D01*
X224207294Y-71892333D02*
X224207294Y-72273285D01*
X224683485Y-70749476D02*
X224683485Y-71320904D01*
X224683485Y-71035190D02*
X223683485Y-71035190D01*
X223683485Y-71035190D02*
X223826342Y-71130428D01*
X223826342Y-71130428D02*
X223921580Y-71225666D01*
X223921580Y-71225666D02*
X223969199Y-71320904D01*
X223683485Y-70130428D02*
X223683485Y-70035190D01*
X223683485Y-70035190D02*
X223731104Y-69939952D01*
X223731104Y-69939952D02*
X223778723Y-69892333D01*
X223778723Y-69892333D02*
X223873961Y-69844714D01*
X223873961Y-69844714D02*
X224064437Y-69797095D01*
X224064437Y-69797095D02*
X224302532Y-69797095D01*
X224302532Y-69797095D02*
X224493008Y-69844714D01*
X224493008Y-69844714D02*
X224588246Y-69892333D01*
X224588246Y-69892333D02*
X224635866Y-69939952D01*
X224635866Y-69939952D02*
X224683485Y-70035190D01*
X224683485Y-70035190D02*
X224683485Y-70130428D01*
X224683485Y-70130428D02*
X224635866Y-70225666D01*
X224635866Y-70225666D02*
X224588246Y-70273285D01*
X224588246Y-70273285D02*
X224493008Y-70320904D01*
X224493008Y-70320904D02*
X224302532Y-70368523D01*
X224302532Y-70368523D02*
X224064437Y-70368523D01*
X224064437Y-70368523D02*
X223873961Y-70320904D01*
X223873961Y-70320904D02*
X223778723Y-70273285D01*
X223778723Y-70273285D02*
X223731104Y-70225666D01*
X223731104Y-70225666D02*
X223683485Y-70130428D01*
X232822761Y-83608057D02*
X232727523Y-83560438D01*
X232727523Y-83560438D02*
X232632285Y-83465200D01*
X232632285Y-83465200D02*
X232489428Y-83322342D01*
X232489428Y-83322342D02*
X232394190Y-83274723D01*
X232394190Y-83274723D02*
X232298952Y-83274723D01*
X232346571Y-83512819D02*
X232251333Y-83465200D01*
X232251333Y-83465200D02*
X232156095Y-83369961D01*
X232156095Y-83369961D02*
X232108476Y-83179485D01*
X232108476Y-83179485D02*
X232108476Y-82846152D01*
X232108476Y-82846152D02*
X232156095Y-82655676D01*
X232156095Y-82655676D02*
X232251333Y-82560438D01*
X232251333Y-82560438D02*
X232346571Y-82512819D01*
X232346571Y-82512819D02*
X232537047Y-82512819D01*
X232537047Y-82512819D02*
X232632285Y-82560438D01*
X232632285Y-82560438D02*
X232727523Y-82655676D01*
X232727523Y-82655676D02*
X232775142Y-82846152D01*
X232775142Y-82846152D02*
X232775142Y-83179485D01*
X232775142Y-83179485D02*
X232727523Y-83369961D01*
X232727523Y-83369961D02*
X232632285Y-83465200D01*
X232632285Y-83465200D02*
X232537047Y-83512819D01*
X232537047Y-83512819D02*
X232346571Y-83512819D01*
X233727523Y-83512819D02*
X233156095Y-83512819D01*
X233441809Y-83512819D02*
X233441809Y-82512819D01*
X233441809Y-82512819D02*
X233346571Y-82655676D01*
X233346571Y-82655676D02*
X233251333Y-82750914D01*
X233251333Y-82750914D02*
X233156095Y-82798533D01*
X213509266Y-55792019D02*
X213509266Y-56506304D01*
X213509266Y-56506304D02*
X213461647Y-56649161D01*
X213461647Y-56649161D02*
X213366409Y-56744400D01*
X213366409Y-56744400D02*
X213223552Y-56792019D01*
X213223552Y-56792019D02*
X213128314Y-56792019D01*
X214128314Y-56220590D02*
X214033076Y-56172971D01*
X214033076Y-56172971D02*
X213985457Y-56125352D01*
X213985457Y-56125352D02*
X213937838Y-56030114D01*
X213937838Y-56030114D02*
X213937838Y-55982495D01*
X213937838Y-55982495D02*
X213985457Y-55887257D01*
X213985457Y-55887257D02*
X214033076Y-55839638D01*
X214033076Y-55839638D02*
X214128314Y-55792019D01*
X214128314Y-55792019D02*
X214318790Y-55792019D01*
X214318790Y-55792019D02*
X214414028Y-55839638D01*
X214414028Y-55839638D02*
X214461647Y-55887257D01*
X214461647Y-55887257D02*
X214509266Y-55982495D01*
X214509266Y-55982495D02*
X214509266Y-56030114D01*
X214509266Y-56030114D02*
X214461647Y-56125352D01*
X214461647Y-56125352D02*
X214414028Y-56172971D01*
X214414028Y-56172971D02*
X214318790Y-56220590D01*
X214318790Y-56220590D02*
X214128314Y-56220590D01*
X214128314Y-56220590D02*
X214033076Y-56268209D01*
X214033076Y-56268209D02*
X213985457Y-56315828D01*
X213985457Y-56315828D02*
X213937838Y-56411066D01*
X213937838Y-56411066D02*
X213937838Y-56601542D01*
X213937838Y-56601542D02*
X213985457Y-56696780D01*
X213985457Y-56696780D02*
X214033076Y-56744400D01*
X214033076Y-56744400D02*
X214128314Y-56792019D01*
X214128314Y-56792019D02*
X214318790Y-56792019D01*
X214318790Y-56792019D02*
X214414028Y-56744400D01*
X214414028Y-56744400D02*
X214461647Y-56696780D01*
X214461647Y-56696780D02*
X214509266Y-56601542D01*
X214509266Y-56601542D02*
X214509266Y-56411066D01*
X214509266Y-56411066D02*
X214461647Y-56315828D01*
X214461647Y-56315828D02*
X214414028Y-56268209D01*
X214414028Y-56268209D02*
X214318790Y-56220590D01*
X213888964Y-70446828D02*
X214496107Y-70446828D01*
X214496107Y-70446828D02*
X214567535Y-70411114D01*
X214567535Y-70411114D02*
X214603250Y-70375400D01*
X214603250Y-70375400D02*
X214638964Y-70303971D01*
X214638964Y-70303971D02*
X214638964Y-70161114D01*
X214638964Y-70161114D02*
X214603250Y-70089685D01*
X214603250Y-70089685D02*
X214567535Y-70053971D01*
X214567535Y-70053971D02*
X214496107Y-70018257D01*
X214496107Y-70018257D02*
X213888964Y-70018257D01*
X214138964Y-69339686D02*
X214638964Y-69339686D01*
X213853250Y-69518257D02*
X214388964Y-69696828D01*
X214388964Y-69696828D02*
X214388964Y-69232543D01*
X209146819Y-113660333D02*
X209861104Y-113660333D01*
X209861104Y-113660333D02*
X210003961Y-113707952D01*
X210003961Y-113707952D02*
X210099200Y-113803190D01*
X210099200Y-113803190D02*
X210146819Y-113946047D01*
X210146819Y-113946047D02*
X210146819Y-114041285D01*
X209146819Y-113279380D02*
X209146819Y-112612714D01*
X209146819Y-112612714D02*
X210146819Y-113041285D01*
X239736333Y-76305580D02*
X239688714Y-76353200D01*
X239688714Y-76353200D02*
X239545857Y-76400819D01*
X239545857Y-76400819D02*
X239450619Y-76400819D01*
X239450619Y-76400819D02*
X239307762Y-76353200D01*
X239307762Y-76353200D02*
X239212524Y-76257961D01*
X239212524Y-76257961D02*
X239164905Y-76162723D01*
X239164905Y-76162723D02*
X239117286Y-75972247D01*
X239117286Y-75972247D02*
X239117286Y-75829390D01*
X239117286Y-75829390D02*
X239164905Y-75638914D01*
X239164905Y-75638914D02*
X239212524Y-75543676D01*
X239212524Y-75543676D02*
X239307762Y-75448438D01*
X239307762Y-75448438D02*
X239450619Y-75400819D01*
X239450619Y-75400819D02*
X239545857Y-75400819D01*
X239545857Y-75400819D02*
X239688714Y-75448438D01*
X239688714Y-75448438D02*
X239736333Y-75496057D01*
X240688714Y-76400819D02*
X240117286Y-76400819D01*
X240403000Y-76400819D02*
X240403000Y-75400819D01*
X240403000Y-75400819D02*
X240307762Y-75543676D01*
X240307762Y-75543676D02*
X240212524Y-75638914D01*
X240212524Y-75638914D02*
X240117286Y-75686533D01*
X221416271Y-65675166D02*
X220940080Y-66008499D01*
X221416271Y-66246594D02*
X220416271Y-66246594D01*
X220416271Y-66246594D02*
X220416271Y-65865642D01*
X220416271Y-65865642D02*
X220463890Y-65770404D01*
X220463890Y-65770404D02*
X220511509Y-65722785D01*
X220511509Y-65722785D02*
X220606747Y-65675166D01*
X220606747Y-65675166D02*
X220749604Y-65675166D01*
X220749604Y-65675166D02*
X220844842Y-65722785D01*
X220844842Y-65722785D02*
X220892461Y-65770404D01*
X220892461Y-65770404D02*
X220940080Y-65865642D01*
X220940080Y-65865642D02*
X220940080Y-66246594D01*
X221416271Y-65198975D02*
X221416271Y-65008499D01*
X221416271Y-65008499D02*
X221368652Y-64913261D01*
X221368652Y-64913261D02*
X221321032Y-64865642D01*
X221321032Y-64865642D02*
X221178175Y-64770404D01*
X221178175Y-64770404D02*
X220987699Y-64722785D01*
X220987699Y-64722785D02*
X220606747Y-64722785D01*
X220606747Y-64722785D02*
X220511509Y-64770404D01*
X220511509Y-64770404D02*
X220463890Y-64818023D01*
X220463890Y-64818023D02*
X220416271Y-64913261D01*
X220416271Y-64913261D02*
X220416271Y-65103737D01*
X220416271Y-65103737D02*
X220463890Y-65198975D01*
X220463890Y-65198975D02*
X220511509Y-65246594D01*
X220511509Y-65246594D02*
X220606747Y-65294213D01*
X220606747Y-65294213D02*
X220844842Y-65294213D01*
X220844842Y-65294213D02*
X220940080Y-65246594D01*
X220940080Y-65246594D02*
X220987699Y-65198975D01*
X220987699Y-65198975D02*
X221035318Y-65103737D01*
X221035318Y-65103737D02*
X221035318Y-64913261D01*
X221035318Y-64913261D02*
X220987699Y-64818023D01*
X220987699Y-64818023D02*
X220940080Y-64770404D01*
X220940080Y-64770404D02*
X220844842Y-64722785D01*
X243025819Y-81264357D02*
X242549628Y-81597690D01*
X243025819Y-81835785D02*
X242025819Y-81835785D01*
X242025819Y-81835785D02*
X242025819Y-81454833D01*
X242025819Y-81454833D02*
X242073438Y-81359595D01*
X242073438Y-81359595D02*
X242121057Y-81311976D01*
X242121057Y-81311976D02*
X242216295Y-81264357D01*
X242216295Y-81264357D02*
X242359152Y-81264357D01*
X242359152Y-81264357D02*
X242454390Y-81311976D01*
X242454390Y-81311976D02*
X242502009Y-81359595D01*
X242502009Y-81359595D02*
X242549628Y-81454833D01*
X242549628Y-81454833D02*
X242549628Y-81835785D01*
X243025819Y-80311976D02*
X243025819Y-80883404D01*
X243025819Y-80597690D02*
X242025819Y-80597690D01*
X242025819Y-80597690D02*
X242168676Y-80692928D01*
X242168676Y-80692928D02*
X242263914Y-80788166D01*
X242263914Y-80788166D02*
X242311533Y-80883404D01*
X242025819Y-79454833D02*
X242025819Y-79645309D01*
X242025819Y-79645309D02*
X242073438Y-79740547D01*
X242073438Y-79740547D02*
X242121057Y-79788166D01*
X242121057Y-79788166D02*
X242263914Y-79883404D01*
X242263914Y-79883404D02*
X242454390Y-79931023D01*
X242454390Y-79931023D02*
X242835342Y-79931023D01*
X242835342Y-79931023D02*
X242930580Y-79883404D01*
X242930580Y-79883404D02*
X242978200Y-79835785D01*
X242978200Y-79835785D02*
X243025819Y-79740547D01*
X243025819Y-79740547D02*
X243025819Y-79550071D01*
X243025819Y-79550071D02*
X242978200Y-79454833D01*
X242978200Y-79454833D02*
X242930580Y-79407214D01*
X242930580Y-79407214D02*
X242835342Y-79359595D01*
X242835342Y-79359595D02*
X242597247Y-79359595D01*
X242597247Y-79359595D02*
X242502009Y-79407214D01*
X242502009Y-79407214D02*
X242454390Y-79454833D01*
X242454390Y-79454833D02*
X242406771Y-79550071D01*
X242406771Y-79550071D02*
X242406771Y-79740547D01*
X242406771Y-79740547D02*
X242454390Y-79835785D01*
X242454390Y-79835785D02*
X242502009Y-79883404D01*
X242502009Y-79883404D02*
X242597247Y-79931023D01*
X223721819Y-59617594D02*
X222721819Y-59617594D01*
X222721819Y-59617594D02*
X222721819Y-59379499D01*
X222721819Y-59379499D02*
X222769438Y-59236642D01*
X222769438Y-59236642D02*
X222864676Y-59141404D01*
X222864676Y-59141404D02*
X222959914Y-59093785D01*
X222959914Y-59093785D02*
X223150390Y-59046166D01*
X223150390Y-59046166D02*
X223293247Y-59046166D01*
X223293247Y-59046166D02*
X223483723Y-59093785D01*
X223483723Y-59093785D02*
X223578961Y-59141404D01*
X223578961Y-59141404D02*
X223674200Y-59236642D01*
X223674200Y-59236642D02*
X223721819Y-59379499D01*
X223721819Y-59379499D02*
X223721819Y-59617594D01*
X222817057Y-58665213D02*
X222769438Y-58617594D01*
X222769438Y-58617594D02*
X222721819Y-58522356D01*
X222721819Y-58522356D02*
X222721819Y-58284261D01*
X222721819Y-58284261D02*
X222769438Y-58189023D01*
X222769438Y-58189023D02*
X222817057Y-58141404D01*
X222817057Y-58141404D02*
X222912295Y-58093785D01*
X222912295Y-58093785D02*
X223007533Y-58093785D01*
X223007533Y-58093785D02*
X223150390Y-58141404D01*
X223150390Y-58141404D02*
X223721819Y-58712832D01*
X223721819Y-58712832D02*
X223721819Y-58093785D01*
X212987095Y-89531819D02*
X213558523Y-89531819D01*
X213272809Y-90531819D02*
X213272809Y-89531819D01*
X213891857Y-90531819D02*
X213891857Y-89531819D01*
X213891857Y-89531819D02*
X214272809Y-89531819D01*
X214272809Y-89531819D02*
X214368047Y-89579438D01*
X214368047Y-89579438D02*
X214415666Y-89627057D01*
X214415666Y-89627057D02*
X214463285Y-89722295D01*
X214463285Y-89722295D02*
X214463285Y-89865152D01*
X214463285Y-89865152D02*
X214415666Y-89960390D01*
X214415666Y-89960390D02*
X214368047Y-90008009D01*
X214368047Y-90008009D02*
X214272809Y-90055628D01*
X214272809Y-90055628D02*
X213891857Y-90055628D01*
X215368047Y-89531819D02*
X214891857Y-89531819D01*
X214891857Y-89531819D02*
X214844238Y-90008009D01*
X214844238Y-90008009D02*
X214891857Y-89960390D01*
X214891857Y-89960390D02*
X214987095Y-89912771D01*
X214987095Y-89912771D02*
X215225190Y-89912771D01*
X215225190Y-89912771D02*
X215320428Y-89960390D01*
X215320428Y-89960390D02*
X215368047Y-90008009D01*
X215368047Y-90008009D02*
X215415666Y-90103247D01*
X215415666Y-90103247D02*
X215415666Y-90341342D01*
X215415666Y-90341342D02*
X215368047Y-90436580D01*
X215368047Y-90436580D02*
X215320428Y-90484200D01*
X215320428Y-90484200D02*
X215225190Y-90531819D01*
X215225190Y-90531819D02*
X214987095Y-90531819D01*
X214987095Y-90531819D02*
X214891857Y-90484200D01*
X214891857Y-90484200D02*
X214844238Y-90436580D01*
X237236095Y-98006819D02*
X237236095Y-98816342D01*
X237236095Y-98816342D02*
X237283714Y-98911580D01*
X237283714Y-98911580D02*
X237331333Y-98959200D01*
X237331333Y-98959200D02*
X237426571Y-99006819D01*
X237426571Y-99006819D02*
X237617047Y-99006819D01*
X237617047Y-99006819D02*
X237712285Y-98959200D01*
X237712285Y-98959200D02*
X237759904Y-98911580D01*
X237759904Y-98911580D02*
X237807523Y-98816342D01*
X237807523Y-98816342D02*
X237807523Y-98006819D01*
X238236095Y-98102057D02*
X238283714Y-98054438D01*
X238283714Y-98054438D02*
X238378952Y-98006819D01*
X238378952Y-98006819D02*
X238617047Y-98006819D01*
X238617047Y-98006819D02*
X238712285Y-98054438D01*
X238712285Y-98054438D02*
X238759904Y-98102057D01*
X238759904Y-98102057D02*
X238807523Y-98197295D01*
X238807523Y-98197295D02*
X238807523Y-98292533D01*
X238807523Y-98292533D02*
X238759904Y-98435390D01*
X238759904Y-98435390D02*
X238188476Y-99006819D01*
X238188476Y-99006819D02*
X238807523Y-99006819D01*
X218916642Y-85671819D02*
X218583309Y-85195628D01*
X218345214Y-85671819D02*
X218345214Y-84671819D01*
X218345214Y-84671819D02*
X218726166Y-84671819D01*
X218726166Y-84671819D02*
X218821404Y-84719438D01*
X218821404Y-84719438D02*
X218869023Y-84767057D01*
X218869023Y-84767057D02*
X218916642Y-84862295D01*
X218916642Y-84862295D02*
X218916642Y-85005152D01*
X218916642Y-85005152D02*
X218869023Y-85100390D01*
X218869023Y-85100390D02*
X218821404Y-85148009D01*
X218821404Y-85148009D02*
X218726166Y-85195628D01*
X218726166Y-85195628D02*
X218345214Y-85195628D01*
X219297595Y-84767057D02*
X219345214Y-84719438D01*
X219345214Y-84719438D02*
X219440452Y-84671819D01*
X219440452Y-84671819D02*
X219678547Y-84671819D01*
X219678547Y-84671819D02*
X219773785Y-84719438D01*
X219773785Y-84719438D02*
X219821404Y-84767057D01*
X219821404Y-84767057D02*
X219869023Y-84862295D01*
X219869023Y-84862295D02*
X219869023Y-84957533D01*
X219869023Y-84957533D02*
X219821404Y-85100390D01*
X219821404Y-85100390D02*
X219249976Y-85671819D01*
X219249976Y-85671819D02*
X219869023Y-85671819D01*
X220726166Y-84671819D02*
X220535690Y-84671819D01*
X220535690Y-84671819D02*
X220440452Y-84719438D01*
X220440452Y-84719438D02*
X220392833Y-84767057D01*
X220392833Y-84767057D02*
X220297595Y-84909914D01*
X220297595Y-84909914D02*
X220249976Y-85100390D01*
X220249976Y-85100390D02*
X220249976Y-85481342D01*
X220249976Y-85481342D02*
X220297595Y-85576580D01*
X220297595Y-85576580D02*
X220345214Y-85624200D01*
X220345214Y-85624200D02*
X220440452Y-85671819D01*
X220440452Y-85671819D02*
X220630928Y-85671819D01*
X220630928Y-85671819D02*
X220726166Y-85624200D01*
X220726166Y-85624200D02*
X220773785Y-85576580D01*
X220773785Y-85576580D02*
X220821404Y-85481342D01*
X220821404Y-85481342D02*
X220821404Y-85243247D01*
X220821404Y-85243247D02*
X220773785Y-85148009D01*
X220773785Y-85148009D02*
X220726166Y-85100390D01*
X220726166Y-85100390D02*
X220630928Y-85052771D01*
X220630928Y-85052771D02*
X220440452Y-85052771D01*
X220440452Y-85052771D02*
X220345214Y-85100390D01*
X220345214Y-85100390D02*
X220297595Y-85148009D01*
X220297595Y-85148009D02*
X220249976Y-85243247D01*
X245436819Y-75803357D02*
X244960628Y-76136690D01*
X245436819Y-76374785D02*
X244436819Y-76374785D01*
X244436819Y-76374785D02*
X244436819Y-75993833D01*
X244436819Y-75993833D02*
X244484438Y-75898595D01*
X244484438Y-75898595D02*
X244532057Y-75850976D01*
X244532057Y-75850976D02*
X244627295Y-75803357D01*
X244627295Y-75803357D02*
X244770152Y-75803357D01*
X244770152Y-75803357D02*
X244865390Y-75850976D01*
X244865390Y-75850976D02*
X244913009Y-75898595D01*
X244913009Y-75898595D02*
X244960628Y-75993833D01*
X244960628Y-75993833D02*
X244960628Y-76374785D01*
X245436819Y-74850976D02*
X245436819Y-75422404D01*
X245436819Y-75136690D02*
X244436819Y-75136690D01*
X244436819Y-75136690D02*
X244579676Y-75231928D01*
X244579676Y-75231928D02*
X244674914Y-75327166D01*
X244674914Y-75327166D02*
X244722533Y-75422404D01*
X244436819Y-73946214D02*
X244436819Y-74422404D01*
X244436819Y-74422404D02*
X244913009Y-74470023D01*
X244913009Y-74470023D02*
X244865390Y-74422404D01*
X244865390Y-74422404D02*
X244817771Y-74327166D01*
X244817771Y-74327166D02*
X244817771Y-74089071D01*
X244817771Y-74089071D02*
X244865390Y-73993833D01*
X244865390Y-73993833D02*
X244913009Y-73946214D01*
X244913009Y-73946214D02*
X245008247Y-73898595D01*
X245008247Y-73898595D02*
X245246342Y-73898595D01*
X245246342Y-73898595D02*
X245341580Y-73946214D01*
X245341580Y-73946214D02*
X245389200Y-73993833D01*
X245389200Y-73993833D02*
X245436819Y-74089071D01*
X245436819Y-74089071D02*
X245436819Y-74327166D01*
X245436819Y-74327166D02*
X245389200Y-74422404D01*
X245389200Y-74422404D02*
X245341580Y-74470023D01*
X208542095Y-82097819D02*
X209113523Y-82097819D01*
X208827809Y-83097819D02*
X208827809Y-82097819D01*
X209446857Y-83097819D02*
X209446857Y-82097819D01*
X209446857Y-82097819D02*
X209827809Y-82097819D01*
X209827809Y-82097819D02*
X209923047Y-82145438D01*
X209923047Y-82145438D02*
X209970666Y-82193057D01*
X209970666Y-82193057D02*
X210018285Y-82288295D01*
X210018285Y-82288295D02*
X210018285Y-82431152D01*
X210018285Y-82431152D02*
X209970666Y-82526390D01*
X209970666Y-82526390D02*
X209923047Y-82574009D01*
X209923047Y-82574009D02*
X209827809Y-82621628D01*
X209827809Y-82621628D02*
X209446857Y-82621628D01*
X210875428Y-82431152D02*
X210875428Y-83097819D01*
X210637333Y-82050200D02*
X210399238Y-82764485D01*
X210399238Y-82764485D02*
X211018285Y-82764485D01*
X215400095Y-82097819D02*
X215971523Y-82097819D01*
X215685809Y-83097819D02*
X215685809Y-82097819D01*
X216304857Y-83097819D02*
X216304857Y-82097819D01*
X216304857Y-82097819D02*
X216685809Y-82097819D01*
X216685809Y-82097819D02*
X216781047Y-82145438D01*
X216781047Y-82145438D02*
X216828666Y-82193057D01*
X216828666Y-82193057D02*
X216876285Y-82288295D01*
X216876285Y-82288295D02*
X216876285Y-82431152D01*
X216876285Y-82431152D02*
X216828666Y-82526390D01*
X216828666Y-82526390D02*
X216781047Y-82574009D01*
X216781047Y-82574009D02*
X216685809Y-82621628D01*
X216685809Y-82621628D02*
X216304857Y-82621628D01*
X217209619Y-82097819D02*
X217828666Y-82097819D01*
X217828666Y-82097819D02*
X217495333Y-82478771D01*
X217495333Y-82478771D02*
X217638190Y-82478771D01*
X217638190Y-82478771D02*
X217733428Y-82526390D01*
X217733428Y-82526390D02*
X217781047Y-82574009D01*
X217781047Y-82574009D02*
X217828666Y-82669247D01*
X217828666Y-82669247D02*
X217828666Y-82907342D01*
X217828666Y-82907342D02*
X217781047Y-83002580D01*
X217781047Y-83002580D02*
X217733428Y-83050200D01*
X217733428Y-83050200D02*
X217638190Y-83097819D01*
X217638190Y-83097819D02*
X217352476Y-83097819D01*
X217352476Y-83097819D02*
X217257238Y-83050200D01*
X217257238Y-83050200D02*
X217209619Y-83002580D01*
X216370819Y-121865904D02*
X217180342Y-121865904D01*
X217180342Y-121865904D02*
X217275580Y-121818285D01*
X217275580Y-121818285D02*
X217323200Y-121770666D01*
X217323200Y-121770666D02*
X217370819Y-121675428D01*
X217370819Y-121675428D02*
X217370819Y-121484952D01*
X217370819Y-121484952D02*
X217323200Y-121389714D01*
X217323200Y-121389714D02*
X217275580Y-121342095D01*
X217275580Y-121342095D02*
X217180342Y-121294476D01*
X217180342Y-121294476D02*
X216370819Y-121294476D01*
X216370819Y-120342095D02*
X216370819Y-120818285D01*
X216370819Y-120818285D02*
X216847009Y-120865904D01*
X216847009Y-120865904D02*
X216799390Y-120818285D01*
X216799390Y-120818285D02*
X216751771Y-120723047D01*
X216751771Y-120723047D02*
X216751771Y-120484952D01*
X216751771Y-120484952D02*
X216799390Y-120389714D01*
X216799390Y-120389714D02*
X216847009Y-120342095D01*
X216847009Y-120342095D02*
X216942247Y-120294476D01*
X216942247Y-120294476D02*
X217180342Y-120294476D01*
X217180342Y-120294476D02*
X217275580Y-120342095D01*
X217275580Y-120342095D02*
X217323200Y-120389714D01*
X217323200Y-120389714D02*
X217370819Y-120484952D01*
X217370819Y-120484952D02*
X217370819Y-120723047D01*
X217370819Y-120723047D02*
X217323200Y-120818285D01*
X217323200Y-120818285D02*
X217275580Y-120865904D01*
X216670095Y-77271819D02*
X217241523Y-77271819D01*
X216955809Y-78271819D02*
X216955809Y-77271819D01*
X217574857Y-78271819D02*
X217574857Y-77271819D01*
X217574857Y-77271819D02*
X217955809Y-77271819D01*
X217955809Y-77271819D02*
X218051047Y-77319438D01*
X218051047Y-77319438D02*
X218098666Y-77367057D01*
X218098666Y-77367057D02*
X218146285Y-77462295D01*
X218146285Y-77462295D02*
X218146285Y-77605152D01*
X218146285Y-77605152D02*
X218098666Y-77700390D01*
X218098666Y-77700390D02*
X218051047Y-77748009D01*
X218051047Y-77748009D02*
X217955809Y-77795628D01*
X217955809Y-77795628D02*
X217574857Y-77795628D01*
X219098666Y-78271819D02*
X218527238Y-78271819D01*
X218812952Y-78271819D02*
X218812952Y-77271819D01*
X218812952Y-77271819D02*
X218717714Y-77414676D01*
X218717714Y-77414676D02*
X218622476Y-77509914D01*
X218622476Y-77509914D02*
X218527238Y-77557533D01*
X244473619Y-113660333D02*
X245187904Y-113660333D01*
X245187904Y-113660333D02*
X245330761Y-113707952D01*
X245330761Y-113707952D02*
X245426000Y-113803190D01*
X245426000Y-113803190D02*
X245473619Y-113946047D01*
X245473619Y-113946047D02*
X245473619Y-114041285D01*
X244473619Y-112755571D02*
X244473619Y-112946047D01*
X244473619Y-112946047D02*
X244521238Y-113041285D01*
X244521238Y-113041285D02*
X244568857Y-113088904D01*
X244568857Y-113088904D02*
X244711714Y-113184142D01*
X244711714Y-113184142D02*
X244902190Y-113231761D01*
X244902190Y-113231761D02*
X245283142Y-113231761D01*
X245283142Y-113231761D02*
X245378380Y-113184142D01*
X245378380Y-113184142D02*
X245426000Y-113136523D01*
X245426000Y-113136523D02*
X245473619Y-113041285D01*
X245473619Y-113041285D02*
X245473619Y-112850809D01*
X245473619Y-112850809D02*
X245426000Y-112755571D01*
X245426000Y-112755571D02*
X245378380Y-112707952D01*
X245378380Y-112707952D02*
X245283142Y-112660333D01*
X245283142Y-112660333D02*
X245045047Y-112660333D01*
X245045047Y-112660333D02*
X244949809Y-112707952D01*
X244949809Y-112707952D02*
X244902190Y-112755571D01*
X244902190Y-112755571D02*
X244854571Y-112850809D01*
X244854571Y-112850809D02*
X244854571Y-113041285D01*
X244854571Y-113041285D02*
X244902190Y-113136523D01*
X244902190Y-113136523D02*
X244949809Y-113184142D01*
X244949809Y-113184142D02*
X245045047Y-113231761D01*
X240154619Y-66054266D02*
X239678428Y-66387599D01*
X240154619Y-66625694D02*
X239154619Y-66625694D01*
X239154619Y-66625694D02*
X239154619Y-66244742D01*
X239154619Y-66244742D02*
X239202238Y-66149504D01*
X239202238Y-66149504D02*
X239249857Y-66101885D01*
X239249857Y-66101885D02*
X239345095Y-66054266D01*
X239345095Y-66054266D02*
X239487952Y-66054266D01*
X239487952Y-66054266D02*
X239583190Y-66101885D01*
X239583190Y-66101885D02*
X239630809Y-66149504D01*
X239630809Y-66149504D02*
X239678428Y-66244742D01*
X239678428Y-66244742D02*
X239678428Y-66625694D01*
X239154619Y-65720932D02*
X239154619Y-65054266D01*
X239154619Y-65054266D02*
X240154619Y-65482837D01*
X244694319Y-65698666D02*
X244218128Y-66031999D01*
X244694319Y-66270094D02*
X243694319Y-66270094D01*
X243694319Y-66270094D02*
X243694319Y-65889142D01*
X243694319Y-65889142D02*
X243741938Y-65793904D01*
X243741938Y-65793904D02*
X243789557Y-65746285D01*
X243789557Y-65746285D02*
X243884795Y-65698666D01*
X243884795Y-65698666D02*
X244027652Y-65698666D01*
X244027652Y-65698666D02*
X244122890Y-65746285D01*
X244122890Y-65746285D02*
X244170509Y-65793904D01*
X244170509Y-65793904D02*
X244218128Y-65889142D01*
X244218128Y-65889142D02*
X244218128Y-66270094D01*
X244122890Y-65127237D02*
X244075271Y-65222475D01*
X244075271Y-65222475D02*
X244027652Y-65270094D01*
X244027652Y-65270094D02*
X243932414Y-65317713D01*
X243932414Y-65317713D02*
X243884795Y-65317713D01*
X243884795Y-65317713D02*
X243789557Y-65270094D01*
X243789557Y-65270094D02*
X243741938Y-65222475D01*
X243741938Y-65222475D02*
X243694319Y-65127237D01*
X243694319Y-65127237D02*
X243694319Y-64936761D01*
X243694319Y-64936761D02*
X243741938Y-64841523D01*
X243741938Y-64841523D02*
X243789557Y-64793904D01*
X243789557Y-64793904D02*
X243884795Y-64746285D01*
X243884795Y-64746285D02*
X243932414Y-64746285D01*
X243932414Y-64746285D02*
X244027652Y-64793904D01*
X244027652Y-64793904D02*
X244075271Y-64841523D01*
X244075271Y-64841523D02*
X244122890Y-64936761D01*
X244122890Y-64936761D02*
X244122890Y-65127237D01*
X244122890Y-65127237D02*
X244170509Y-65222475D01*
X244170509Y-65222475D02*
X244218128Y-65270094D01*
X244218128Y-65270094D02*
X244313366Y-65317713D01*
X244313366Y-65317713D02*
X244503842Y-65317713D01*
X244503842Y-65317713D02*
X244599080Y-65270094D01*
X244599080Y-65270094D02*
X244646700Y-65222475D01*
X244646700Y-65222475D02*
X244694319Y-65127237D01*
X244694319Y-65127237D02*
X244694319Y-64936761D01*
X244694319Y-64936761D02*
X244646700Y-64841523D01*
X244646700Y-64841523D02*
X244599080Y-64793904D01*
X244599080Y-64793904D02*
X244503842Y-64746285D01*
X244503842Y-64746285D02*
X244313366Y-64746285D01*
X244313366Y-64746285D02*
X244218128Y-64793904D01*
X244218128Y-64793904D02*
X244170509Y-64841523D01*
X244170509Y-64841523D02*
X244122890Y-64936761D01*
X229242580Y-71225666D02*
X229290200Y-71273285D01*
X229290200Y-71273285D02*
X229337819Y-71416142D01*
X229337819Y-71416142D02*
X229337819Y-71511380D01*
X229337819Y-71511380D02*
X229290200Y-71654237D01*
X229290200Y-71654237D02*
X229194961Y-71749475D01*
X229194961Y-71749475D02*
X229099723Y-71797094D01*
X229099723Y-71797094D02*
X228909247Y-71844713D01*
X228909247Y-71844713D02*
X228766390Y-71844713D01*
X228766390Y-71844713D02*
X228575914Y-71797094D01*
X228575914Y-71797094D02*
X228480676Y-71749475D01*
X228480676Y-71749475D02*
X228385438Y-71654237D01*
X228385438Y-71654237D02*
X228337819Y-71511380D01*
X228337819Y-71511380D02*
X228337819Y-71416142D01*
X228337819Y-71416142D02*
X228385438Y-71273285D01*
X228385438Y-71273285D02*
X228433057Y-71225666D01*
X228433057Y-70844713D02*
X228385438Y-70797094D01*
X228385438Y-70797094D02*
X228337819Y-70701856D01*
X228337819Y-70701856D02*
X228337819Y-70463761D01*
X228337819Y-70463761D02*
X228385438Y-70368523D01*
X228385438Y-70368523D02*
X228433057Y-70320904D01*
X228433057Y-70320904D02*
X228528295Y-70273285D01*
X228528295Y-70273285D02*
X228623533Y-70273285D01*
X228623533Y-70273285D02*
X228766390Y-70320904D01*
X228766390Y-70320904D02*
X229337819Y-70892332D01*
X229337819Y-70892332D02*
X229337819Y-70273285D01*
D12*
X206488552Y-72259209D02*
X206488552Y-71759209D01*
X206488552Y-71759209D02*
X206607600Y-71759209D01*
X206607600Y-71759209D02*
X206679028Y-71783019D01*
X206679028Y-71783019D02*
X206726647Y-71830638D01*
X206726647Y-71830638D02*
X206750457Y-71878257D01*
X206750457Y-71878257D02*
X206774266Y-71973495D01*
X206774266Y-71973495D02*
X206774266Y-72044923D01*
X206774266Y-72044923D02*
X206750457Y-72140161D01*
X206750457Y-72140161D02*
X206726647Y-72187780D01*
X206726647Y-72187780D02*
X206679028Y-72235400D01*
X206679028Y-72235400D02*
X206607600Y-72259209D01*
X206607600Y-72259209D02*
X206488552Y-72259209D01*
X207226647Y-71759209D02*
X206988552Y-71759209D01*
X206988552Y-71759209D02*
X206964743Y-71997304D01*
X206964743Y-71997304D02*
X206988552Y-71973495D01*
X206988552Y-71973495D02*
X207036171Y-71949685D01*
X207036171Y-71949685D02*
X207155219Y-71949685D01*
X207155219Y-71949685D02*
X207202838Y-71973495D01*
X207202838Y-71973495D02*
X207226647Y-71997304D01*
X207226647Y-71997304D02*
X207250457Y-72044923D01*
X207250457Y-72044923D02*
X207250457Y-72163971D01*
X207250457Y-72163971D02*
X207226647Y-72211590D01*
X207226647Y-72211590D02*
X207202838Y-72235400D01*
X207202838Y-72235400D02*
X207155219Y-72259209D01*
X207155219Y-72259209D02*
X207036171Y-72259209D01*
X207036171Y-72259209D02*
X206988552Y-72235400D01*
X206988552Y-72235400D02*
X206964743Y-72211590D01*
D11*
X241405580Y-111545666D02*
X241453200Y-111593285D01*
X241453200Y-111593285D02*
X241500819Y-111736142D01*
X241500819Y-111736142D02*
X241500819Y-111831380D01*
X241500819Y-111831380D02*
X241453200Y-111974237D01*
X241453200Y-111974237D02*
X241357961Y-112069475D01*
X241357961Y-112069475D02*
X241262723Y-112117094D01*
X241262723Y-112117094D02*
X241072247Y-112164713D01*
X241072247Y-112164713D02*
X240929390Y-112164713D01*
X240929390Y-112164713D02*
X240738914Y-112117094D01*
X240738914Y-112117094D02*
X240643676Y-112069475D01*
X240643676Y-112069475D02*
X240548438Y-111974237D01*
X240548438Y-111974237D02*
X240500819Y-111831380D01*
X240500819Y-111831380D02*
X240500819Y-111736142D01*
X240500819Y-111736142D02*
X240548438Y-111593285D01*
X240548438Y-111593285D02*
X240596057Y-111545666D01*
X240834152Y-110688523D02*
X241500819Y-110688523D01*
X240453200Y-110926618D02*
X241167485Y-111164713D01*
X241167485Y-111164713D02*
X241167485Y-110545666D01*
X215296761Y-85767057D02*
X215201523Y-85719438D01*
X215201523Y-85719438D02*
X215106285Y-85624200D01*
X215106285Y-85624200D02*
X214963428Y-85481342D01*
X214963428Y-85481342D02*
X214868190Y-85433723D01*
X214868190Y-85433723D02*
X214772952Y-85433723D01*
X214820571Y-85671819D02*
X214725333Y-85624200D01*
X214725333Y-85624200D02*
X214630095Y-85528961D01*
X214630095Y-85528961D02*
X214582476Y-85338485D01*
X214582476Y-85338485D02*
X214582476Y-85005152D01*
X214582476Y-85005152D02*
X214630095Y-84814676D01*
X214630095Y-84814676D02*
X214725333Y-84719438D01*
X214725333Y-84719438D02*
X214820571Y-84671819D01*
X214820571Y-84671819D02*
X215011047Y-84671819D01*
X215011047Y-84671819D02*
X215106285Y-84719438D01*
X215106285Y-84719438D02*
X215201523Y-84814676D01*
X215201523Y-84814676D02*
X215249142Y-85005152D01*
X215249142Y-85005152D02*
X215249142Y-85338485D01*
X215249142Y-85338485D02*
X215201523Y-85528961D01*
X215201523Y-85528961D02*
X215106285Y-85624200D01*
X215106285Y-85624200D02*
X215011047Y-85671819D01*
X215011047Y-85671819D02*
X214820571Y-85671819D01*
X215582476Y-84671819D02*
X216201523Y-84671819D01*
X216201523Y-84671819D02*
X215868190Y-85052771D01*
X215868190Y-85052771D02*
X216011047Y-85052771D01*
X216011047Y-85052771D02*
X216106285Y-85100390D01*
X216106285Y-85100390D02*
X216153904Y-85148009D01*
X216153904Y-85148009D02*
X216201523Y-85243247D01*
X216201523Y-85243247D02*
X216201523Y-85481342D01*
X216201523Y-85481342D02*
X216153904Y-85576580D01*
X216153904Y-85576580D02*
X216106285Y-85624200D01*
X216106285Y-85624200D02*
X216011047Y-85671819D01*
X216011047Y-85671819D02*
X215725333Y-85671819D01*
X215725333Y-85671819D02*
X215630095Y-85624200D01*
X215630095Y-85624200D02*
X215582476Y-85576580D01*
X236406764Y-82371743D02*
X236049621Y-82621743D01*
X236406764Y-82800314D02*
X235656764Y-82800314D01*
X235656764Y-82800314D02*
X235656764Y-82514600D01*
X235656764Y-82514600D02*
X235692478Y-82443171D01*
X235692478Y-82443171D02*
X235728192Y-82407457D01*
X235728192Y-82407457D02*
X235799621Y-82371743D01*
X235799621Y-82371743D02*
X235906764Y-82371743D01*
X235906764Y-82371743D02*
X235978192Y-82407457D01*
X235978192Y-82407457D02*
X236013907Y-82443171D01*
X236013907Y-82443171D02*
X236049621Y-82514600D01*
X236049621Y-82514600D02*
X236049621Y-82800314D01*
X236406764Y-81657457D02*
X236406764Y-82086028D01*
X236406764Y-81871743D02*
X235656764Y-81871743D01*
X235656764Y-81871743D02*
X235763907Y-81943171D01*
X235763907Y-81943171D02*
X235835335Y-82014600D01*
X235835335Y-82014600D02*
X235871050Y-82086028D01*
X236406764Y-80943171D02*
X236406764Y-81371742D01*
X236406764Y-81157457D02*
X235656764Y-81157457D01*
X235656764Y-81157457D02*
X235763907Y-81228885D01*
X235763907Y-81228885D02*
X235835335Y-81300314D01*
X235835335Y-81300314D02*
X235871050Y-81371742D01*
X206449819Y-99044357D02*
X205973628Y-99377690D01*
X206449819Y-99615785D02*
X205449819Y-99615785D01*
X205449819Y-99615785D02*
X205449819Y-99234833D01*
X205449819Y-99234833D02*
X205497438Y-99139595D01*
X205497438Y-99139595D02*
X205545057Y-99091976D01*
X205545057Y-99091976D02*
X205640295Y-99044357D01*
X205640295Y-99044357D02*
X205783152Y-99044357D01*
X205783152Y-99044357D02*
X205878390Y-99091976D01*
X205878390Y-99091976D02*
X205926009Y-99139595D01*
X205926009Y-99139595D02*
X205973628Y-99234833D01*
X205973628Y-99234833D02*
X205973628Y-99615785D01*
X206449819Y-98091976D02*
X206449819Y-98663404D01*
X206449819Y-98377690D02*
X205449819Y-98377690D01*
X205449819Y-98377690D02*
X205592676Y-98472928D01*
X205592676Y-98472928D02*
X205687914Y-98568166D01*
X205687914Y-98568166D02*
X205735533Y-98663404D01*
X205545057Y-97711023D02*
X205497438Y-97663404D01*
X205497438Y-97663404D02*
X205449819Y-97568166D01*
X205449819Y-97568166D02*
X205449819Y-97330071D01*
X205449819Y-97330071D02*
X205497438Y-97234833D01*
X205497438Y-97234833D02*
X205545057Y-97187214D01*
X205545057Y-97187214D02*
X205640295Y-97139595D01*
X205640295Y-97139595D02*
X205735533Y-97139595D01*
X205735533Y-97139595D02*
X205878390Y-97187214D01*
X205878390Y-97187214D02*
X206449819Y-97758642D01*
X206449819Y-97758642D02*
X206449819Y-97139595D01*
X230831819Y-84860594D02*
X229831819Y-84860594D01*
X229831819Y-84860594D02*
X229831819Y-84622499D01*
X229831819Y-84622499D02*
X229879438Y-84479642D01*
X229879438Y-84479642D02*
X229974676Y-84384404D01*
X229974676Y-84384404D02*
X230069914Y-84336785D01*
X230069914Y-84336785D02*
X230260390Y-84289166D01*
X230260390Y-84289166D02*
X230403247Y-84289166D01*
X230403247Y-84289166D02*
X230593723Y-84336785D01*
X230593723Y-84336785D02*
X230688961Y-84384404D01*
X230688961Y-84384404D02*
X230784200Y-84479642D01*
X230784200Y-84479642D02*
X230831819Y-84622499D01*
X230831819Y-84622499D02*
X230831819Y-84860594D01*
X229831819Y-83432023D02*
X229831819Y-83622499D01*
X229831819Y-83622499D02*
X229879438Y-83717737D01*
X229879438Y-83717737D02*
X229927057Y-83765356D01*
X229927057Y-83765356D02*
X230069914Y-83860594D01*
X230069914Y-83860594D02*
X230260390Y-83908213D01*
X230260390Y-83908213D02*
X230641342Y-83908213D01*
X230641342Y-83908213D02*
X230736580Y-83860594D01*
X230736580Y-83860594D02*
X230784200Y-83812975D01*
X230784200Y-83812975D02*
X230831819Y-83717737D01*
X230831819Y-83717737D02*
X230831819Y-83527261D01*
X230831819Y-83527261D02*
X230784200Y-83432023D01*
X230784200Y-83432023D02*
X230736580Y-83384404D01*
X230736580Y-83384404D02*
X230641342Y-83336785D01*
X230641342Y-83336785D02*
X230403247Y-83336785D01*
X230403247Y-83336785D02*
X230308009Y-83384404D01*
X230308009Y-83384404D02*
X230260390Y-83432023D01*
X230260390Y-83432023D02*
X230212771Y-83527261D01*
X230212771Y-83527261D02*
X230212771Y-83717737D01*
X230212771Y-83717737D02*
X230260390Y-83812975D01*
X230260390Y-83812975D02*
X230308009Y-83860594D01*
X230308009Y-83860594D02*
X230403247Y-83908213D01*
D12*
X227063562Y-82292209D02*
X227063562Y-81792209D01*
X227063562Y-81792209D02*
X227254038Y-81792209D01*
X227254038Y-81792209D02*
X227301657Y-81816019D01*
X227301657Y-81816019D02*
X227325467Y-81839828D01*
X227325467Y-81839828D02*
X227349276Y-81887447D01*
X227349276Y-81887447D02*
X227349276Y-81958876D01*
X227349276Y-81958876D02*
X227325467Y-82006495D01*
X227325467Y-82006495D02*
X227301657Y-82030304D01*
X227301657Y-82030304D02*
X227254038Y-82054114D01*
X227254038Y-82054114D02*
X227063562Y-82054114D01*
X227658800Y-81792209D02*
X227754038Y-81792209D01*
X227754038Y-81792209D02*
X227801657Y-81816019D01*
X227801657Y-81816019D02*
X227849276Y-81863638D01*
X227849276Y-81863638D02*
X227873086Y-81958876D01*
X227873086Y-81958876D02*
X227873086Y-82125542D01*
X227873086Y-82125542D02*
X227849276Y-82220780D01*
X227849276Y-82220780D02*
X227801657Y-82268400D01*
X227801657Y-82268400D02*
X227754038Y-82292209D01*
X227754038Y-82292209D02*
X227658800Y-82292209D01*
X227658800Y-82292209D02*
X227611181Y-82268400D01*
X227611181Y-82268400D02*
X227563562Y-82220780D01*
X227563562Y-82220780D02*
X227539753Y-82125542D01*
X227539753Y-82125542D02*
X227539753Y-81958876D01*
X227539753Y-81958876D02*
X227563562Y-81863638D01*
X227563562Y-81863638D02*
X227611181Y-81816019D01*
X227611181Y-81816019D02*
X227658800Y-81792209D01*
X228039753Y-81792209D02*
X228158801Y-82292209D01*
X228158801Y-82292209D02*
X228254039Y-81935066D01*
X228254039Y-81935066D02*
X228349277Y-82292209D01*
X228349277Y-82292209D02*
X228468325Y-81792209D01*
X228658801Y-82030304D02*
X228825468Y-82030304D01*
X228896896Y-82292209D02*
X228658801Y-82292209D01*
X228658801Y-82292209D02*
X228658801Y-81792209D01*
X228658801Y-81792209D02*
X228896896Y-81792209D01*
X229396896Y-82292209D02*
X229230230Y-82054114D01*
X229111182Y-82292209D02*
X229111182Y-81792209D01*
X229111182Y-81792209D02*
X229301658Y-81792209D01*
X229301658Y-81792209D02*
X229349277Y-81816019D01*
X229349277Y-81816019D02*
X229373087Y-81839828D01*
X229373087Y-81839828D02*
X229396896Y-81887447D01*
X229396896Y-81887447D02*
X229396896Y-81958876D01*
X229396896Y-81958876D02*
X229373087Y-82006495D01*
X229373087Y-82006495D02*
X229349277Y-82030304D01*
X229349277Y-82030304D02*
X229301658Y-82054114D01*
X229301658Y-82054114D02*
X229111182Y-82054114D01*
X230158801Y-82030304D02*
X229992134Y-82030304D01*
X229992134Y-82292209D02*
X229992134Y-81792209D01*
X229992134Y-81792209D02*
X230230229Y-81792209D01*
X230396896Y-82149352D02*
X230634991Y-82149352D01*
X230349277Y-82292209D02*
X230515943Y-81792209D01*
X230515943Y-81792209D02*
X230682610Y-82292209D01*
X230849276Y-82292209D02*
X230849276Y-81792209D01*
X231325466Y-82292209D02*
X231087371Y-82292209D01*
X231087371Y-82292209D02*
X231087371Y-81792209D01*
D11*
X218916642Y-98116819D02*
X218583309Y-97640628D01*
X218345214Y-98116819D02*
X218345214Y-97116819D01*
X218345214Y-97116819D02*
X218726166Y-97116819D01*
X218726166Y-97116819D02*
X218821404Y-97164438D01*
X218821404Y-97164438D02*
X218869023Y-97212057D01*
X218869023Y-97212057D02*
X218916642Y-97307295D01*
X218916642Y-97307295D02*
X218916642Y-97450152D01*
X218916642Y-97450152D02*
X218869023Y-97545390D01*
X218869023Y-97545390D02*
X218821404Y-97593009D01*
X218821404Y-97593009D02*
X218726166Y-97640628D01*
X218726166Y-97640628D02*
X218345214Y-97640628D01*
X219869023Y-98116819D02*
X219297595Y-98116819D01*
X219583309Y-98116819D02*
X219583309Y-97116819D01*
X219583309Y-97116819D02*
X219488071Y-97259676D01*
X219488071Y-97259676D02*
X219392833Y-97354914D01*
X219392833Y-97354914D02*
X219297595Y-97402533D01*
X220345214Y-98116819D02*
X220535690Y-98116819D01*
X220535690Y-98116819D02*
X220630928Y-98069200D01*
X220630928Y-98069200D02*
X220678547Y-98021580D01*
X220678547Y-98021580D02*
X220773785Y-97878723D01*
X220773785Y-97878723D02*
X220821404Y-97688247D01*
X220821404Y-97688247D02*
X220821404Y-97307295D01*
X220821404Y-97307295D02*
X220773785Y-97212057D01*
X220773785Y-97212057D02*
X220726166Y-97164438D01*
X220726166Y-97164438D02*
X220630928Y-97116819D01*
X220630928Y-97116819D02*
X220440452Y-97116819D01*
X220440452Y-97116819D02*
X220345214Y-97164438D01*
X220345214Y-97164438D02*
X220297595Y-97212057D01*
X220297595Y-97212057D02*
X220249976Y-97307295D01*
X220249976Y-97307295D02*
X220249976Y-97545390D01*
X220249976Y-97545390D02*
X220297595Y-97640628D01*
X220297595Y-97640628D02*
X220345214Y-97688247D01*
X220345214Y-97688247D02*
X220440452Y-97735866D01*
X220440452Y-97735866D02*
X220630928Y-97735866D01*
X220630928Y-97735866D02*
X220726166Y-97688247D01*
X220726166Y-97688247D02*
X220773785Y-97640628D01*
X220773785Y-97640628D02*
X220821404Y-97545390D01*
X229607819Y-73024904D02*
X230417342Y-73024904D01*
X230417342Y-73024904D02*
X230512580Y-72977285D01*
X230512580Y-72977285D02*
X230560200Y-72929666D01*
X230560200Y-72929666D02*
X230607819Y-72834428D01*
X230607819Y-72834428D02*
X230607819Y-72643952D01*
X230607819Y-72643952D02*
X230560200Y-72548714D01*
X230560200Y-72548714D02*
X230512580Y-72501095D01*
X230512580Y-72501095D02*
X230417342Y-72453476D01*
X230417342Y-72453476D02*
X229607819Y-72453476D01*
X230607819Y-71453476D02*
X230607819Y-72024904D01*
X230607819Y-71739190D02*
X229607819Y-71739190D01*
X229607819Y-71739190D02*
X229750676Y-71834428D01*
X229750676Y-71834428D02*
X229845914Y-71929666D01*
X229845914Y-71929666D02*
X229893533Y-72024904D01*
X225879819Y-66740066D02*
X225403628Y-67073399D01*
X225879819Y-67311494D02*
X224879819Y-67311494D01*
X224879819Y-67311494D02*
X224879819Y-66930542D01*
X224879819Y-66930542D02*
X224927438Y-66835304D01*
X224927438Y-66835304D02*
X224975057Y-66787685D01*
X224975057Y-66787685D02*
X225070295Y-66740066D01*
X225070295Y-66740066D02*
X225213152Y-66740066D01*
X225213152Y-66740066D02*
X225308390Y-66787685D01*
X225308390Y-66787685D02*
X225356009Y-66835304D01*
X225356009Y-66835304D02*
X225403628Y-66930542D01*
X225403628Y-66930542D02*
X225403628Y-67311494D01*
X224879819Y-66406732D02*
X224879819Y-65787685D01*
X224879819Y-65787685D02*
X225260771Y-66121018D01*
X225260771Y-66121018D02*
X225260771Y-65978161D01*
X225260771Y-65978161D02*
X225308390Y-65882923D01*
X225308390Y-65882923D02*
X225356009Y-65835304D01*
X225356009Y-65835304D02*
X225451247Y-65787685D01*
X225451247Y-65787685D02*
X225689342Y-65787685D01*
X225689342Y-65787685D02*
X225784580Y-65835304D01*
X225784580Y-65835304D02*
X225832200Y-65882923D01*
X225832200Y-65882923D02*
X225879819Y-65978161D01*
X225879819Y-65978161D02*
X225879819Y-66263875D01*
X225879819Y-66263875D02*
X225832200Y-66359113D01*
X225832200Y-66359113D02*
X225784580Y-66406732D01*
X238960819Y-122975666D02*
X238960819Y-123451856D01*
X238960819Y-123451856D02*
X237960819Y-123451856D01*
X238960819Y-122118523D02*
X238960819Y-122689951D01*
X238960819Y-122404237D02*
X237960819Y-122404237D01*
X237960819Y-122404237D02*
X238103676Y-122499475D01*
X238103676Y-122499475D02*
X238198914Y-122594713D01*
X238198914Y-122594713D02*
X238246533Y-122689951D01*
X223996642Y-85672819D02*
X223663309Y-85196628D01*
X223425214Y-85672819D02*
X223425214Y-84672819D01*
X223425214Y-84672819D02*
X223806166Y-84672819D01*
X223806166Y-84672819D02*
X223901404Y-84720438D01*
X223901404Y-84720438D02*
X223949023Y-84768057D01*
X223949023Y-84768057D02*
X223996642Y-84863295D01*
X223996642Y-84863295D02*
X223996642Y-85006152D01*
X223996642Y-85006152D02*
X223949023Y-85101390D01*
X223949023Y-85101390D02*
X223901404Y-85149009D01*
X223901404Y-85149009D02*
X223806166Y-85196628D01*
X223806166Y-85196628D02*
X223425214Y-85196628D01*
X224377595Y-84768057D02*
X224425214Y-84720438D01*
X224425214Y-84720438D02*
X224520452Y-84672819D01*
X224520452Y-84672819D02*
X224758547Y-84672819D01*
X224758547Y-84672819D02*
X224853785Y-84720438D01*
X224853785Y-84720438D02*
X224901404Y-84768057D01*
X224901404Y-84768057D02*
X224949023Y-84863295D01*
X224949023Y-84863295D02*
X224949023Y-84958533D01*
X224949023Y-84958533D02*
X224901404Y-85101390D01*
X224901404Y-85101390D02*
X224329976Y-85672819D01*
X224329976Y-85672819D02*
X224949023Y-85672819D01*
X225853785Y-84672819D02*
X225377595Y-84672819D01*
X225377595Y-84672819D02*
X225329976Y-85149009D01*
X225329976Y-85149009D02*
X225377595Y-85101390D01*
X225377595Y-85101390D02*
X225472833Y-85053771D01*
X225472833Y-85053771D02*
X225710928Y-85053771D01*
X225710928Y-85053771D02*
X225806166Y-85101390D01*
X225806166Y-85101390D02*
X225853785Y-85149009D01*
X225853785Y-85149009D02*
X225901404Y-85244247D01*
X225901404Y-85244247D02*
X225901404Y-85482342D01*
X225901404Y-85482342D02*
X225853785Y-85577580D01*
X225853785Y-85577580D02*
X225806166Y-85625200D01*
X225806166Y-85625200D02*
X225710928Y-85672819D01*
X225710928Y-85672819D02*
X225472833Y-85672819D01*
X225472833Y-85672819D02*
X225377595Y-85625200D01*
X225377595Y-85625200D02*
X225329976Y-85577580D01*
X224028095Y-79604819D02*
X224028095Y-80414342D01*
X224028095Y-80414342D02*
X224075714Y-80509580D01*
X224075714Y-80509580D02*
X224123333Y-80557200D01*
X224123333Y-80557200D02*
X224218571Y-80604819D01*
X224218571Y-80604819D02*
X224409047Y-80604819D01*
X224409047Y-80604819D02*
X224504285Y-80557200D01*
X224504285Y-80557200D02*
X224551904Y-80509580D01*
X224551904Y-80509580D02*
X224599523Y-80414342D01*
X224599523Y-80414342D02*
X224599523Y-79604819D01*
X225504285Y-79604819D02*
X225313809Y-79604819D01*
X225313809Y-79604819D02*
X225218571Y-79652438D01*
X225218571Y-79652438D02*
X225170952Y-79700057D01*
X225170952Y-79700057D02*
X225075714Y-79842914D01*
X225075714Y-79842914D02*
X225028095Y-80033390D01*
X225028095Y-80033390D02*
X225028095Y-80414342D01*
X225028095Y-80414342D02*
X225075714Y-80509580D01*
X225075714Y-80509580D02*
X225123333Y-80557200D01*
X225123333Y-80557200D02*
X225218571Y-80604819D01*
X225218571Y-80604819D02*
X225409047Y-80604819D01*
X225409047Y-80604819D02*
X225504285Y-80557200D01*
X225504285Y-80557200D02*
X225551904Y-80509580D01*
X225551904Y-80509580D02*
X225599523Y-80414342D01*
X225599523Y-80414342D02*
X225599523Y-80176247D01*
X225599523Y-80176247D02*
X225551904Y-80081009D01*
X225551904Y-80081009D02*
X225504285Y-80033390D01*
X225504285Y-80033390D02*
X225409047Y-79985771D01*
X225409047Y-79985771D02*
X225218571Y-79985771D01*
X225218571Y-79985771D02*
X225123333Y-80033390D01*
X225123333Y-80033390D02*
X225075714Y-80081009D01*
X225075714Y-80081009D02*
X225028095Y-80176247D01*
D12*
X232566448Y-84306809D02*
X232852162Y-84306809D01*
X232709305Y-84806809D02*
X232709305Y-84306809D01*
X233018828Y-84806809D02*
X233018828Y-84306809D01*
X233018828Y-84306809D02*
X233209304Y-84306809D01*
X233209304Y-84306809D02*
X233256923Y-84330619D01*
X233256923Y-84330619D02*
X233280733Y-84354428D01*
X233280733Y-84354428D02*
X233304542Y-84402047D01*
X233304542Y-84402047D02*
X233304542Y-84473476D01*
X233304542Y-84473476D02*
X233280733Y-84521095D01*
X233280733Y-84521095D02*
X233256923Y-84544904D01*
X233256923Y-84544904D02*
X233209304Y-84568714D01*
X233209304Y-84568714D02*
X233018828Y-84568714D01*
X233590257Y-84521095D02*
X233542638Y-84497285D01*
X233542638Y-84497285D02*
X233518828Y-84473476D01*
X233518828Y-84473476D02*
X233495019Y-84425857D01*
X233495019Y-84425857D02*
X233495019Y-84402047D01*
X233495019Y-84402047D02*
X233518828Y-84354428D01*
X233518828Y-84354428D02*
X233542638Y-84330619D01*
X233542638Y-84330619D02*
X233590257Y-84306809D01*
X233590257Y-84306809D02*
X233685495Y-84306809D01*
X233685495Y-84306809D02*
X233733114Y-84330619D01*
X233733114Y-84330619D02*
X233756923Y-84354428D01*
X233756923Y-84354428D02*
X233780733Y-84402047D01*
X233780733Y-84402047D02*
X233780733Y-84425857D01*
X233780733Y-84425857D02*
X233756923Y-84473476D01*
X233756923Y-84473476D02*
X233733114Y-84497285D01*
X233733114Y-84497285D02*
X233685495Y-84521095D01*
X233685495Y-84521095D02*
X233590257Y-84521095D01*
X233590257Y-84521095D02*
X233542638Y-84544904D01*
X233542638Y-84544904D02*
X233518828Y-84568714D01*
X233518828Y-84568714D02*
X233495019Y-84616333D01*
X233495019Y-84616333D02*
X233495019Y-84711571D01*
X233495019Y-84711571D02*
X233518828Y-84759190D01*
X233518828Y-84759190D02*
X233542638Y-84783000D01*
X233542638Y-84783000D02*
X233590257Y-84806809D01*
X233590257Y-84806809D02*
X233685495Y-84806809D01*
X233685495Y-84806809D02*
X233733114Y-84783000D01*
X233733114Y-84783000D02*
X233756923Y-84759190D01*
X233756923Y-84759190D02*
X233780733Y-84711571D01*
X233780733Y-84711571D02*
X233780733Y-84616333D01*
X233780733Y-84616333D02*
X233756923Y-84568714D01*
X233756923Y-84568714D02*
X233733114Y-84544904D01*
X233733114Y-84544904D02*
X233685495Y-84521095D01*
D13*
X207774064Y-65378000D02*
X207319936Y-65378000D01*
X207774064Y-63908000D02*
X207319936Y-63908000D01*
X224866564Y-96747000D02*
X224412436Y-96747000D01*
X224866564Y-95277000D02*
X224412436Y-95277000D01*
X219316000Y-100229000D02*
X219316000Y-104749000D01*
X219316000Y-104749000D02*
X227551000Y-104749000D01*
X227551000Y-100229000D02*
X219316000Y-100229000D01*
X245137000Y-70585064D02*
X245137000Y-70130936D01*
X246607000Y-70585064D02*
X246607000Y-70130936D01*
X206910000Y-102692564D02*
X206910000Y-102238436D01*
X208380000Y-102692564D02*
X208380000Y-102238436D01*
X229612564Y-87730000D02*
X229158436Y-87730000D01*
X229612564Y-86260000D02*
X229158436Y-86260000D01*
X210823436Y-74830000D02*
X211277564Y-74830000D01*
X210823436Y-76300000D02*
X211277564Y-76300000D01*
X206038500Y-76539000D02*
X207738500Y-76539000D01*
X206038500Y-76539000D02*
X206038500Y-73279000D01*
X207738500Y-76539000D02*
X207738500Y-73279000D01*
X231158856Y-65759064D02*
X231158856Y-65304936D01*
X232628856Y-65759064D02*
X232628856Y-65304936D01*
X211868436Y-63908000D02*
X212322564Y-63908000D01*
X211868436Y-65378000D02*
X212322564Y-65378000D01*
X247708000Y-57022000D02*
X247708000Y-55282000D01*
X247708000Y-55282000D02*
X246208000Y-55282000D01*
X247468000Y-62642000D02*
X247468000Y-55522000D01*
X247468000Y-62642000D02*
X232648000Y-62642000D01*
X247468000Y-57082000D02*
X232648000Y-57082000D01*
X247468000Y-55522000D02*
X232648000Y-55522000D01*
X232648000Y-62642000D02*
X232648000Y-55522000D01*
X246740000Y-59790000D02*
G75*
G03*
X246740109Y-58574258I-1432000J608000D01*
G01*
X244700000Y-60614000D02*
G75*
G03*
X245915742Y-60614109I608000J1432000D01*
G01*
X245916000Y-57750001D02*
G75*
G03*
X245280989Y-57626508I-607998J-1431987D01*
G01*
X245308000Y-57627001D02*
G75*
G03*
X244700413Y-57750616I0J-1554999D01*
G01*
X243876000Y-58574000D02*
G75*
G03*
X243875891Y-59789742I1432003J-607999D01*
G01*
X243363000Y-59182000D02*
G75*
G03*
X240253000Y-59182000I-1555000J0D01*
G01*
X240253000Y-59182000D02*
G75*
G03*
X243363000Y-59182000I1555000J0D01*
G01*
X239863000Y-59182000D02*
G75*
G03*
X236753000Y-59182000I-1555000J0D01*
G01*
X236753000Y-59182000D02*
G75*
G03*
X239863000Y-59182000I1555000J0D01*
G01*
X236363000Y-59182000D02*
G75*
G03*
X233253000Y-59182000I-1555000J0D01*
G01*
X233253000Y-59182000D02*
G75*
G03*
X236363000Y-59182000I1555000J0D01*
G01*
X211385000Y-93726000D02*
G75*
G03*
X208985000Y-93726000I-1200000J0D01*
G01*
X208985000Y-93726000D02*
G75*
G03*
X211385000Y-93726000I1200000J0D01*
G01*
X238606064Y-80237000D02*
X238151936Y-80237000D01*
X238606064Y-78767000D02*
X238151936Y-78767000D01*
X222561000Y-76581000D02*
G75*
G03*
X220161000Y-76581000I-1200000J0D01*
G01*
X220161000Y-76581000D02*
G75*
G03*
X222561000Y-76581000I1200000J0D01*
G01*
X218667000Y-65281436D02*
X218667000Y-65735564D01*
X217197000Y-65281436D02*
X217197000Y-65735564D01*
X219332436Y-90705000D02*
X219786564Y-90705000D01*
X219332436Y-92175000D02*
X219786564Y-92175000D01*
X213798000Y-98806000D02*
G75*
G03*
X211398000Y-98806000I-1200000J0D01*
G01*
X211398000Y-98806000D02*
G75*
G03*
X213798000Y-98806000I1200000J0D01*
G01*
X223161000Y-106084000D02*
X223161000Y-107784000D01*
X223161000Y-106084000D02*
X226421000Y-106084000D01*
X223161000Y-107784000D02*
X226421000Y-107784000D01*
X228707000Y-91906000D02*
X228707000Y-95356000D01*
X228707000Y-91906000D02*
X228707000Y-89956000D01*
X233827000Y-91906000D02*
X233827000Y-93856000D01*
X233827000Y-91906000D02*
X233827000Y-89956000D01*
X238997000Y-69531000D02*
X238997000Y-70931000D01*
X241317000Y-70931000D02*
X241317000Y-69031000D01*
X214433000Y-80645000D02*
G75*
G03*
X212033000Y-80645000I-1200000J0D01*
G01*
X212033000Y-80645000D02*
G75*
G03*
X214433000Y-80645000I1200000J0D01*
G01*
X215873000Y-74348748D02*
X215873000Y-74871252D01*
X214403000Y-74348748D02*
X214403000Y-74871252D01*
X236332006Y-64797000D02*
X236786134Y-64797000D01*
X236332006Y-66267000D02*
X236786134Y-66267000D01*
X224866564Y-92175000D02*
X224412436Y-92175000D01*
X224866564Y-90705000D02*
X224412436Y-90705000D01*
X217197000Y-71286064D02*
X217197000Y-70831936D01*
X218667000Y-71286064D02*
X218667000Y-70831936D01*
X209734000Y-86868000D02*
G75*
G03*
X207334000Y-86868000I-1200000J0D01*
G01*
X207334000Y-86868000D02*
G75*
G03*
X209734000Y-86868000I1200000J0D01*
G01*
X227386000Y-60564500D02*
X229306000Y-60564500D01*
X229306000Y-60564500D02*
X229306000Y-57879500D01*
X227386000Y-57879500D02*
X227386000Y-60564500D01*
X215576000Y-95377000D02*
G75*
G03*
X213176000Y-95377000I-1200000J0D01*
G01*
X213176000Y-95377000D02*
G75*
G03*
X215576000Y-95377000I1200000J0D01*
G01*
X223313666Y-70831936D02*
X223313666Y-71286064D01*
X221843666Y-70831936D02*
X221843666Y-71286064D01*
X234478000Y-80469500D02*
X234478000Y-78794500D01*
X234478000Y-80469500D02*
X234478000Y-81119500D01*
X231358000Y-80469500D02*
X231358000Y-79819500D01*
X231358000Y-80469500D02*
X231358000Y-81119500D01*
X221490000Y-57022000D02*
X221490000Y-55282000D01*
X221490000Y-55282000D02*
X219990000Y-55282000D01*
X221250000Y-62642000D02*
X221250000Y-55522000D01*
X221250000Y-62642000D02*
X206430000Y-62642000D01*
X221250000Y-57082000D02*
X206430000Y-57082000D01*
X221250000Y-55522000D02*
X206430000Y-55522000D01*
X206430000Y-62642000D02*
X206430000Y-55522000D01*
X220522000Y-59790000D02*
G75*
G03*
X220522109Y-58574258I-1432000J608000D01*
G01*
X218482000Y-60614000D02*
G75*
G03*
X219697742Y-60614109I608000J1432000D01*
G01*
X219698000Y-57750001D02*
G75*
G03*
X219062989Y-57626508I-607998J-1431987D01*
G01*
X219090000Y-57627001D02*
G75*
G03*
X218482413Y-57750616I0J-1554999D01*
G01*
X217658000Y-58574000D02*
G75*
G03*
X217657891Y-59789742I1432003J-607999D01*
G01*
X217145000Y-59182000D02*
G75*
G03*
X214035000Y-59182000I-1555000J0D01*
G01*
X214035000Y-59182000D02*
G75*
G03*
X217145000Y-59182000I1555000J0D01*
G01*
X213645000Y-59182000D02*
G75*
G03*
X210535000Y-59182000I-1555000J0D01*
G01*
X210535000Y-59182000D02*
G75*
G03*
X213645000Y-59182000I1555000J0D01*
G01*
X210145000Y-59182000D02*
G75*
G03*
X207035000Y-59182000I-1555000J0D01*
G01*
X207035000Y-59182000D02*
G75*
G03*
X210145000Y-59182000I1555000J0D01*
G01*
X211709000Y-68290000D02*
X209909000Y-68290000D01*
X211709000Y-68290000D02*
X212509000Y-68290000D01*
X211709000Y-71410000D02*
X210909000Y-71410000D01*
X211709000Y-71410000D02*
X212509000Y-71410000D01*
X203072000Y-105677000D02*
X201332000Y-105677000D01*
X201332000Y-105677000D02*
X201332000Y-107177000D01*
X208692000Y-105917000D02*
X201572000Y-105917000D01*
X208692000Y-105917000D02*
X208692000Y-120737000D01*
X203132000Y-105917000D02*
X203132000Y-120737000D01*
X201572000Y-105917000D02*
X201572000Y-120737000D01*
X208692000Y-120737000D02*
X201572000Y-120737000D01*
X205840000Y-106645000D02*
G75*
G03*
X204624258Y-106644891I-608000J-1432000D01*
G01*
X206664000Y-108685000D02*
G75*
G03*
X206664109Y-107469258I-1432000J608000D01*
G01*
X203800001Y-107469000D02*
G75*
G03*
X203676508Y-108104011I1431987J-607998D01*
G01*
X203677001Y-108077000D02*
G75*
G03*
X203800616Y-108684587I1554999J0D01*
G01*
X204624000Y-109509000D02*
G75*
G03*
X205839742Y-109509109I607999J1432003D01*
G01*
X206787000Y-111577000D02*
G75*
G03*
X203677000Y-111577000I-1555000J0D01*
G01*
X203677000Y-111577000D02*
G75*
G03*
X206787000Y-111577000I1555000J0D01*
G01*
X206787000Y-115077000D02*
G75*
G03*
X203677000Y-115077000I-1555000J0D01*
G01*
X203677000Y-115077000D02*
G75*
G03*
X206787000Y-115077000I1555000J0D01*
G01*
X206787000Y-118577000D02*
G75*
G03*
X203677000Y-118577000I-1555000J0D01*
G01*
X203677000Y-118577000D02*
G75*
G03*
X206787000Y-118577000I1555000J0D01*
G01*
X240103252Y-75030000D02*
X239580748Y-75030000D01*
X240103252Y-73560000D02*
X239580748Y-73560000D01*
X223313666Y-65281436D02*
X223313666Y-65735564D01*
X221843666Y-65281436D02*
X221843666Y-65735564D01*
X243486000Y-80848564D02*
X243486000Y-80394436D01*
X244956000Y-80848564D02*
X244956000Y-80394436D01*
X223957000Y-60564500D02*
X225877000Y-60564500D01*
X225877000Y-60564500D02*
X225877000Y-57879500D01*
X223957000Y-57879500D02*
X223957000Y-60564500D01*
X215449000Y-92075000D02*
G75*
G03*
X213049000Y-92075000I-1200000J0D01*
G01*
X213049000Y-92075000D02*
G75*
G03*
X215449000Y-92075000I1200000J0D01*
G01*
X248143000Y-97386000D02*
X246343000Y-97386000D01*
X246343000Y-97686000D02*
X238543000Y-97686000D01*
X246343000Y-97386000D02*
X246343000Y-97686000D01*
X246343000Y-84986000D02*
X246343000Y-84686000D01*
X238543000Y-97386000D02*
X238543000Y-97686000D01*
X238543000Y-84986000D02*
X238543000Y-84686000D01*
X238543000Y-84686000D02*
X246343000Y-84686000D01*
X219786564Y-87603000D02*
X219332436Y-87603000D01*
X219786564Y-86133000D02*
X219332436Y-86133000D01*
X244067000Y-74933436D02*
X244067000Y-75387564D01*
X242597000Y-74933436D02*
X242597000Y-75387564D01*
X211004000Y-80645000D02*
G75*
G03*
X208604000Y-80645000I-1200000J0D01*
G01*
X208604000Y-80645000D02*
G75*
G03*
X211004000Y-80645000I1200000J0D01*
G01*
X217862000Y-80645000D02*
G75*
G03*
X215462000Y-80645000I-1200000J0D01*
G01*
X215462000Y-80645000D02*
G75*
G03*
X217862000Y-80645000I1200000J0D01*
G01*
X228466000Y-114779000D02*
X227516000Y-114779000D01*
X227516000Y-114779000D02*
X227516000Y-109654000D01*
X219016000Y-114779000D02*
X219016000Y-113679000D01*
X218066000Y-114779000D02*
X219016000Y-114779000D01*
X228466000Y-116279000D02*
X228466000Y-114779000D01*
X218066000Y-116279000D02*
X218066000Y-114779000D01*
X219132000Y-75819000D02*
G75*
G03*
X216732000Y-75819000I-1200000J0D01*
G01*
X216732000Y-75819000D02*
G75*
G03*
X219132000Y-75819000I1200000J0D01*
G01*
X251638800Y-120977000D02*
X253378800Y-120977000D01*
X253378800Y-120977000D02*
X253378800Y-119477000D01*
X246018800Y-120737000D02*
X253138800Y-120737000D01*
X246018800Y-120737000D02*
X246018800Y-105917000D01*
X251578800Y-120737000D02*
X251578800Y-105917000D01*
X253138800Y-120737000D02*
X253138800Y-105917000D01*
X246018800Y-105917000D02*
X253138800Y-105917000D01*
X248870800Y-120009000D02*
G75*
G03*
X250086542Y-120009109I608000J1432000D01*
G01*
X248046800Y-117969000D02*
G75*
G03*
X248046691Y-119184742I1432000J-608000D01*
G01*
X250910799Y-119185000D02*
G75*
G03*
X251034292Y-118549989I-1431987J607998D01*
G01*
X251033799Y-118577000D02*
G75*
G03*
X250910184Y-117969413I-1554999J0D01*
G01*
X250086800Y-117145000D02*
G75*
G03*
X248871058Y-117144891I-607999J-1432003D01*
G01*
X251033800Y-115077000D02*
G75*
G03*
X247923800Y-115077000I-1555000J0D01*
G01*
X247923800Y-115077000D02*
G75*
G03*
X251033800Y-115077000I1555000J0D01*
G01*
X251033800Y-111577000D02*
G75*
G03*
X247923800Y-111577000I-1555000J0D01*
G01*
X247923800Y-111577000D02*
G75*
G03*
X251033800Y-111577000I1555000J0D01*
G01*
X251033800Y-108077000D02*
G75*
G03*
X247923800Y-108077000I-1555000J0D01*
G01*
X247923800Y-108077000D02*
G75*
G03*
X251033800Y-108077000I1555000J0D01*
G01*
X242009600Y-65383036D02*
X242009600Y-65837164D01*
X240539600Y-65383036D02*
X240539600Y-65837164D01*
X245154500Y-65759064D02*
X245154500Y-65304936D01*
X246624500Y-65759064D02*
X246624500Y-65304936D01*
X227938000Y-70797748D02*
X227938000Y-71320252D01*
X226468000Y-70797748D02*
X226468000Y-71320252D01*
X206038500Y-71479000D02*
X207738500Y-71479000D01*
X206038500Y-71479000D02*
X206038500Y-68219000D01*
X207738500Y-71479000D02*
X207738500Y-68219000D01*
X231936000Y-114029000D02*
X231936000Y-112779000D01*
X231311000Y-113404000D02*
X232561000Y-113404000D01*
X230400437Y-112539000D02*
X233186000Y-112539000D01*
X230400437Y-112539000D02*
X229336000Y-111474563D01*
X238991563Y-112539000D02*
X236206000Y-112539000D01*
X238991563Y-112539000D02*
X240056000Y-111474563D01*
X229336000Y-111474563D02*
X229336000Y-101819000D01*
X240056000Y-111474563D02*
X240056000Y-101819000D01*
X229336000Y-101819000D02*
X233186000Y-101819000D01*
X240056000Y-101819000D02*
X236206000Y-101819000D01*
X215059500Y-89190000D02*
X216734500Y-89190000D01*
X215059500Y-89190000D02*
X214409500Y-89190000D01*
X215059500Y-86070000D02*
X215709500Y-86070000D01*
X215059500Y-86070000D02*
X214409500Y-86070000D01*
X238582564Y-82650000D02*
X238128436Y-82650000D01*
X238582564Y-81180000D02*
X238128436Y-81180000D01*
X206910000Y-98628564D02*
X206910000Y-98174436D01*
X208380000Y-98628564D02*
X208380000Y-98174436D01*
X229687000Y-82437500D02*
X227767000Y-82437500D01*
X227767000Y-82437500D02*
X227767000Y-85122500D01*
X229687000Y-85122500D02*
X229687000Y-82437500D01*
X219786564Y-96747000D02*
X219332436Y-96747000D01*
X219786564Y-95277000D02*
X219332436Y-95277000D01*
X230993000Y-72263000D02*
X230993000Y-75713000D01*
X230993000Y-72263000D02*
X230993000Y-70313000D01*
X236113000Y-72263000D02*
X236113000Y-74213000D01*
X236113000Y-72263000D02*
X236113000Y-70313000D01*
X227963642Y-65304936D02*
X227963642Y-65759064D01*
X226493642Y-65304936D02*
X226493642Y-65759064D01*
X230026000Y-123184000D02*
X231526000Y-123184000D01*
X236826000Y-123184000D02*
X235326000Y-123184000D01*
X236826000Y-123184000D02*
X236826000Y-115784000D01*
X230026000Y-115784000D02*
X230026000Y-123184000D01*
X230026000Y-115784000D02*
X231526000Y-115784000D01*
X236826000Y-115784000D02*
X235326000Y-115784000D01*
X224412436Y-86133000D02*
X224866564Y-86133000D01*
X224412436Y-87603000D02*
X224866564Y-87603000D01*
X224790000Y-80990000D02*
X222990000Y-80990000D01*
X224790000Y-80990000D02*
X225590000Y-80990000D01*
X224790000Y-84110000D02*
X223990000Y-84110000D01*
X224790000Y-84110000D02*
X225590000Y-84110000D01*
X234372000Y-86487000D02*
G75*
G03*
X231972000Y-86487000I-1200000J0D01*
G01*
X231972000Y-86487000D02*
G75*
G03*
X234372000Y-86487000I1200000J0D01*
G01*
%LPC*%
D14*
X208459500Y-64643000D03*
X206634500Y-64643000D03*
X225552000Y-96012000D03*
X223727000Y-96012000D03*
D15*
X220701000Y-102489000D03*
X227101000Y-102489000D03*
D16*
X245872000Y-71270500D03*
X245872000Y-69445500D03*
X207645000Y-103378000D03*
X207645000Y-101553000D03*
D14*
X230298000Y-86995000D03*
X228473000Y-86995000D03*
D17*
X210138000Y-75565000D03*
X211963000Y-75565000D03*
D18*
X206888500Y-75779000D03*
X206888500Y-73279000D03*
D16*
X231893856Y-66444500D03*
X231893856Y-64619500D03*
D17*
X211183000Y-64643000D03*
X213008000Y-64643000D03*
D19*
X245308000Y-59182000D03*
D20*
X241808000Y-59182000D03*
X238308000Y-59182000D03*
X234808000Y-59182000D03*
D21*
X210185000Y-93726000D03*
D14*
X239291500Y-79502000D03*
X237466500Y-79502000D03*
D21*
X221361000Y-76581000D03*
D22*
X217932000Y-64596000D03*
X217932000Y-66421000D03*
D17*
X218647000Y-91440000D03*
X220472000Y-91440000D03*
D21*
X212598000Y-98806000D03*
D23*
X223921000Y-106934000D03*
X226421000Y-106934000D03*
D24*
X229362000Y-94531000D03*
X230632000Y-94531000D03*
X231902000Y-94531000D03*
X233172000Y-94531000D03*
X233172000Y-89281000D03*
X231902000Y-89281000D03*
X230632000Y-89281000D03*
X229362000Y-89281000D03*
D25*
X240807000Y-69281000D03*
X240157000Y-69281000D03*
X239507000Y-69281000D03*
X239507000Y-71181000D03*
X240807000Y-71181000D03*
D21*
X213233000Y-80645000D03*
D26*
X215138000Y-73660000D03*
X215138000Y-75560000D03*
D17*
X235646570Y-65532000D03*
X237471570Y-65532000D03*
D14*
X225552000Y-91440000D03*
X223727000Y-91440000D03*
D16*
X217932000Y-71971500D03*
X217932000Y-70146500D03*
D21*
X208534000Y-86868000D03*
D27*
X228346000Y-59817000D03*
X228346000Y-57942000D03*
D21*
X214376000Y-95377000D03*
D22*
X222578666Y-70146500D03*
X222578666Y-71971500D03*
D28*
X233868000Y-79532000D03*
X231968000Y-79532000D03*
X232918000Y-81407000D03*
D19*
X219090000Y-59182000D03*
D20*
X215590000Y-59182000D03*
X212090000Y-59182000D03*
X208590000Y-59182000D03*
D29*
X210571500Y-68900000D03*
X210571500Y-69850000D03*
X210571500Y-70800000D03*
X212846500Y-70800000D03*
X212846500Y-68900000D03*
D19*
X205232000Y-108077000D03*
D20*
X205232000Y-111577000D03*
X205232000Y-115077000D03*
X205232000Y-118577000D03*
D30*
X240792000Y-74295000D03*
X238892000Y-74295000D03*
D22*
X222578666Y-64596000D03*
X222578666Y-66421000D03*
D16*
X244221000Y-81534000D03*
X244221000Y-79709000D03*
D27*
X224917000Y-59817000D03*
X224917000Y-57942000D03*
D21*
X214249000Y-92075000D03*
D31*
X247193000Y-96901000D03*
X247193000Y-95631000D03*
X247193000Y-94361000D03*
X247193000Y-93091000D03*
X247193000Y-91821000D03*
X247193000Y-90551000D03*
X247193000Y-89281000D03*
X247193000Y-88011000D03*
X247193000Y-86741000D03*
X247193000Y-85471000D03*
X237693000Y-85471000D03*
X237693000Y-86741000D03*
X237693000Y-88011000D03*
X237693000Y-89281000D03*
X237693000Y-90551000D03*
X237693000Y-91821000D03*
X237693000Y-93091000D03*
X237693000Y-94361000D03*
X237693000Y-95631000D03*
X237693000Y-96901000D03*
D14*
X220472000Y-86868000D03*
X218647000Y-86868000D03*
D22*
X243332000Y-74248000D03*
X243332000Y-76073000D03*
D21*
X209804000Y-80645000D03*
X216662000Y-80645000D03*
D32*
X226666000Y-111954000D03*
X224966000Y-111954000D03*
X223266000Y-111954000D03*
D33*
X223266000Y-121104000D03*
D32*
X221566000Y-111954000D03*
X219866000Y-111954000D03*
D21*
X217932000Y-75819000D03*
D19*
X249478800Y-118577000D03*
D20*
X249478800Y-115077000D03*
X249478800Y-111577000D03*
X249478800Y-108077000D03*
D22*
X241274600Y-64697600D03*
X241274600Y-66522600D03*
D16*
X245889500Y-66444500D03*
X245889500Y-64619500D03*
D26*
X227203000Y-70109000D03*
X227203000Y-72009000D03*
D18*
X206888500Y-70719000D03*
X206888500Y-68219000D03*
D34*
X234696000Y-111379000D03*
X234696000Y-102979000D03*
D35*
X215997000Y-88580000D03*
X215997000Y-86680000D03*
X214122000Y-87630000D03*
D14*
X239268000Y-81915000D03*
X237443000Y-81915000D03*
D16*
X207645000Y-99314000D03*
X207645000Y-97489000D03*
D36*
X228727000Y-83185000D03*
X228727000Y-85060000D03*
D14*
X220472000Y-96012000D03*
X218647000Y-96012000D03*
D37*
X231648000Y-74738000D03*
X232918000Y-74738000D03*
X234188000Y-74738000D03*
X235458000Y-74738000D03*
X235458000Y-69788000D03*
X234188000Y-69788000D03*
X232918000Y-69788000D03*
X231648000Y-69788000D03*
D22*
X227228642Y-64619500D03*
X227228642Y-66444500D03*
D38*
X233426000Y-122509000D03*
X233426000Y-116459000D03*
D17*
X223727000Y-86868000D03*
X225552000Y-86868000D03*
D39*
X223652500Y-81575000D03*
X223652500Y-82225000D03*
X223652500Y-82875000D03*
X223652500Y-83525000D03*
X225927500Y-83525000D03*
X225927500Y-82875000D03*
X225927500Y-82225000D03*
X225927500Y-81575000D03*
D21*
X233172000Y-86487000D03*
D40*
X251460000Y-101600000D03*
D41*
X251460000Y-99060000D03*
X251460000Y-96520000D03*
X251460000Y-93980000D03*
X251460000Y-91440000D03*
X251460000Y-88900000D03*
X251460000Y-86360000D03*
X251460000Y-83820000D03*
D40*
X251460000Y-80010000D03*
D41*
X251460000Y-77470000D03*
X251460000Y-74930000D03*
X251460000Y-72390000D03*
X251460000Y-69850000D03*
X251460000Y-67310000D03*
X251460000Y-64770000D03*
X251460000Y-62230000D03*
X251460000Y-59690000D03*
X251460000Y-57150000D03*
D40*
X203200000Y-88900000D03*
D41*
X203200000Y-91440000D03*
X203200000Y-93980000D03*
X203200000Y-96520000D03*
X203200000Y-99060000D03*
X203200000Y-101600000D03*
D40*
X203200000Y-66040000D03*
D41*
X203200000Y-68580000D03*
X203200000Y-71120000D03*
X203200000Y-73660000D03*
X203200000Y-76200000D03*
X203200000Y-78740000D03*
X203200000Y-81280000D03*
X203200000Y-83820000D03*
%LPD*%
M02*
