G04 #@! TF.GenerationSoftware,KiCad,Pcbnew,7.0.10*
G04 #@! TF.CreationDate,2024-03-17T21:58:49+02:00*
G04 #@! TF.ProjectId,MasterShield,4d617374-6572-4536-9869-656c642e6b69,rev?*
G04 #@! TF.SameCoordinates,Original*
G04 #@! TF.FileFunction,Legend,Bot*
G04 #@! TF.FilePolarity,Positive*
%FSLAX46Y46*%
G04 Gerber Fmt 4.6, Leading zero omitted, Abs format (unit mm)*
G04 Created by KiCad (PCBNEW 7.0.10) date 2024-03-17 21:58:49*
%MOMM*%
%LPD*%
G01*
G04 APERTURE LIST*
%ADD10C,0.150000*%
%ADD11C,0.120000*%
%ADD12R,2.400000X2.400000*%
%ADD13C,2.400000*%
%ADD14R,1.700000X1.700000*%
%ADD15O,1.700000X1.700000*%
G04 APERTURE END LIST*
D10*
X251793333Y-103384819D02*
X251793333Y-104099104D01*
X251793333Y-104099104D02*
X251840952Y-104241961D01*
X251840952Y-104241961D02*
X251936190Y-104337200D01*
X251936190Y-104337200D02*
X252079047Y-104384819D01*
X252079047Y-104384819D02*
X252174285Y-104384819D01*
X250793333Y-104384819D02*
X251364761Y-104384819D01*
X251079047Y-104384819D02*
X251079047Y-103384819D01*
X251079047Y-103384819D02*
X251174285Y-103527676D01*
X251174285Y-103527676D02*
X251269523Y-103622914D01*
X251269523Y-103622914D02*
X251364761Y-103670533D01*
X251793333Y-81794819D02*
X251793333Y-82509104D01*
X251793333Y-82509104D02*
X251840952Y-82651961D01*
X251840952Y-82651961D02*
X251936190Y-82747200D01*
X251936190Y-82747200D02*
X252079047Y-82794819D01*
X252079047Y-82794819D02*
X252174285Y-82794819D01*
X251364761Y-81890057D02*
X251317142Y-81842438D01*
X251317142Y-81842438D02*
X251221904Y-81794819D01*
X251221904Y-81794819D02*
X250983809Y-81794819D01*
X250983809Y-81794819D02*
X250888571Y-81842438D01*
X250888571Y-81842438D02*
X250840952Y-81890057D01*
X250840952Y-81890057D02*
X250793333Y-81985295D01*
X250793333Y-81985295D02*
X250793333Y-82080533D01*
X250793333Y-82080533D02*
X250840952Y-82223390D01*
X250840952Y-82223390D02*
X251412380Y-82794819D01*
X251412380Y-82794819D02*
X250793333Y-82794819D01*
X203533333Y-86024819D02*
X203533333Y-86739104D01*
X203533333Y-86739104D02*
X203580952Y-86881961D01*
X203580952Y-86881961D02*
X203676190Y-86977200D01*
X203676190Y-86977200D02*
X203819047Y-87024819D01*
X203819047Y-87024819D02*
X203914285Y-87024819D01*
X203152380Y-86024819D02*
X202533333Y-86024819D01*
X202533333Y-86024819D02*
X202866666Y-86405771D01*
X202866666Y-86405771D02*
X202723809Y-86405771D01*
X202723809Y-86405771D02*
X202628571Y-86453390D01*
X202628571Y-86453390D02*
X202580952Y-86501009D01*
X202580952Y-86501009D02*
X202533333Y-86596247D01*
X202533333Y-86596247D02*
X202533333Y-86834342D01*
X202533333Y-86834342D02*
X202580952Y-86929580D01*
X202580952Y-86929580D02*
X202628571Y-86977200D01*
X202628571Y-86977200D02*
X202723809Y-87024819D01*
X202723809Y-87024819D02*
X203009523Y-87024819D01*
X203009523Y-87024819D02*
X203104761Y-86977200D01*
X203104761Y-86977200D02*
X203152380Y-86929580D01*
X203533333Y-63164819D02*
X203533333Y-63879104D01*
X203533333Y-63879104D02*
X203580952Y-64021961D01*
X203580952Y-64021961D02*
X203676190Y-64117200D01*
X203676190Y-64117200D02*
X203819047Y-64164819D01*
X203819047Y-64164819D02*
X203914285Y-64164819D01*
X202628571Y-63498152D02*
X202628571Y-64164819D01*
X202866666Y-63117200D02*
X203104761Y-63831485D01*
X203104761Y-63831485D02*
X202485714Y-63831485D01*
D11*
X250130000Y-82490000D02*
X252790000Y-82490000D01*
X250130000Y-100330000D02*
X250130000Y-82490000D01*
X250130000Y-100330000D02*
X252790000Y-100330000D01*
X250130000Y-101600000D02*
X250130000Y-102930000D01*
X250130000Y-102930000D02*
X251460000Y-102930000D01*
X252790000Y-100330000D02*
X252790000Y-82490000D01*
X250130000Y-55820000D02*
X252790000Y-55820000D01*
X250130000Y-78740000D02*
X250130000Y-55820000D01*
X250130000Y-78740000D02*
X252790000Y-78740000D01*
X250130000Y-80010000D02*
X250130000Y-81340000D01*
X250130000Y-81340000D02*
X251460000Y-81340000D01*
X252790000Y-78740000D02*
X252790000Y-55820000D01*
X204530000Y-102930000D02*
X201870000Y-102930000D01*
X204530000Y-90170000D02*
X204530000Y-102930000D01*
X204530000Y-90170000D02*
X201870000Y-90170000D01*
X204530000Y-88900000D02*
X204530000Y-87570000D01*
X204530000Y-87570000D02*
X203200000Y-87570000D01*
X201870000Y-90170000D02*
X201870000Y-102930000D01*
X204530000Y-85150000D02*
X201870000Y-85150000D01*
X204530000Y-67310000D02*
X204530000Y-85150000D01*
X204530000Y-67310000D02*
X201870000Y-67310000D01*
X204530000Y-66040000D02*
X204530000Y-64710000D01*
X204530000Y-64710000D02*
X203200000Y-64710000D01*
X201870000Y-67310000D02*
X201870000Y-85150000D01*
%LPC*%
D12*
X245308000Y-59182000D03*
D13*
X241808000Y-59182000D03*
X238308000Y-59182000D03*
X234808000Y-59182000D03*
D12*
X219090000Y-59182000D03*
D13*
X215590000Y-59182000D03*
X212090000Y-59182000D03*
X208590000Y-59182000D03*
D12*
X205232000Y-108077000D03*
D13*
X205232000Y-111577000D03*
X205232000Y-115077000D03*
X205232000Y-118577000D03*
D12*
X249478800Y-118577000D03*
D13*
X249478800Y-115077000D03*
X249478800Y-111577000D03*
X249478800Y-108077000D03*
D14*
X251460000Y-101600000D03*
D15*
X251460000Y-99060000D03*
X251460000Y-96520000D03*
X251460000Y-93980000D03*
X251460000Y-91440000D03*
X251460000Y-88900000D03*
X251460000Y-86360000D03*
X251460000Y-83820000D03*
D14*
X251460000Y-80010000D03*
D15*
X251460000Y-77470000D03*
X251460000Y-74930000D03*
X251460000Y-72390000D03*
X251460000Y-69850000D03*
X251460000Y-67310000D03*
X251460000Y-64770000D03*
X251460000Y-62230000D03*
X251460000Y-59690000D03*
X251460000Y-57150000D03*
D14*
X203200000Y-88900000D03*
D15*
X203200000Y-91440000D03*
X203200000Y-93980000D03*
X203200000Y-96520000D03*
X203200000Y-99060000D03*
X203200000Y-101600000D03*
D14*
X203200000Y-66040000D03*
D15*
X203200000Y-68580000D03*
X203200000Y-71120000D03*
X203200000Y-73660000D03*
X203200000Y-76200000D03*
X203200000Y-78740000D03*
X203200000Y-81280000D03*
X203200000Y-83820000D03*
%LPD*%
M02*
