M48
; DRILL file {KiCad 7.0.10} date Sun Mar 17 22:00:36 2024
; FORMAT={-:-/ absolute / metric / decimal}
; #@! TF.CreationDate,2024-03-17T22:00:36+02:00
; #@! TF.GenerationSoftware,Kicad,Pcbnew,7.0.10
; #@! TF.FileFunction,Plated,1,4,PTH
FMAT,2
METRIC
; #@! TA.AperFunction,Plated,PTH,ViaDrill
T1C0.400
; #@! TA.AperFunction,Plated,PTH,ComponentDrill
T2C1.000
; #@! TA.AperFunction,Plated,PTH,ComponentDrill
T3C1.200
%
G90
G05
T1
X206.629Y-66.04
X209.423Y-69.977
X211.455Y-82.296
X211.963Y-77.216
X212.852Y-67.437
X214.884Y-79.629
X217.424Y-88.138
X218.567Y-68.58
X219.456Y-88.392
X219.456Y-118.364
X219.456Y-120.269
X219.456Y-122.174
X219.456Y-124.079
X219.71Y-74.93
X219.837Y-110.744
X219.837Y-113.284
X220.218Y-71.374
X220.472Y-79.756
X220.472Y-89.789
X220.682Y-102.017
X220.726Y-103.124
X221.615Y-110.744
X221.615Y-113.284
X221.996Y-118.364
X221.996Y-120.269
X221.996Y-122.174
X221.996Y-124.079
X222.137Y-82.225
X222.631Y-89.535
X223.266Y-110.744
X223.266Y-113.284
X223.836Y-85.409
X224.536Y-118.364
X224.536Y-120.269
X224.536Y-122.174
X224.536Y-124.079
X225.171Y-64.643
X225.298Y-77.851
X225.552Y-88.392
X226.504Y-84.519
X226.695Y-58.039
X226.949Y-73.279
X227.076Y-80.772
X227.076Y-101.854
X227.076Y-103.124
X227.076Y-118.364
X227.076Y-120.269
X227.076Y-122.174
X227.076Y-124.079
X227.203Y-68.58
X227.457Y-75.819
X227.711Y-108.204
X228.981Y-72.009
X230.124Y-74.738
X232.664Y-77.597
X232.791Y-116.459
X233.807Y-77.724
X234.061Y-116.459
X234.696Y-101.854
X234.696Y-103.759
X234.696Y-110.236
X234.696Y-112.522
X236.118Y-89.256
X236.195Y-88.036
X237.109Y-69.723
X240.03Y-85.471
X240.03Y-86.741
X240.03Y-90.678
X240.03Y-91.821
X240.03Y-95.631
X240.03Y-96.901
X243.332Y-72.39
X245.11Y-82.902
X245.11Y-85.471
X245.11Y-96.901
X245.491Y-90.551
X245.491Y-95.631
X245.872Y-63.119
X245.872Y-68.072
X246.38Y-83.058
X247.65Y-82.296
T2
X203.2Y-66.04
X203.2Y-68.58
X203.2Y-71.12
X203.2Y-73.66
X203.2Y-76.2
X203.2Y-78.74
X203.2Y-81.28
X203.2Y-83.82
X203.2Y-88.9
X203.2Y-91.44
X203.2Y-93.98
X203.2Y-96.52
X203.2Y-99.06
X203.2Y-101.6
X251.46Y-57.15
X251.46Y-59.69
X251.46Y-62.23
X251.46Y-64.77
X251.46Y-67.31
X251.46Y-69.85
X251.46Y-72.39
X251.46Y-74.93
X251.46Y-77.47
X251.46Y-80.01
X251.46Y-83.82
X251.46Y-86.36
X251.46Y-88.9
X251.46Y-91.44
X251.46Y-93.98
X251.46Y-96.52
X251.46Y-99.06
X251.46Y-101.6
T3
X205.232Y-108.077
X205.232Y-111.577
X205.232Y-115.077
X205.232Y-118.577
X208.59Y-59.182
X212.09Y-59.182
X215.59Y-59.182
X219.09Y-59.182
X234.808Y-59.182
X238.308Y-59.182
X241.808Y-59.182
X245.308Y-59.182
X249.479Y-108.077
X249.479Y-111.577
X249.479Y-115.077
X249.479Y-118.577
M30
