G04 #@! TF.GenerationSoftware,KiCad,Pcbnew,7.0.10*
G04 #@! TF.CreationDate,2024-03-17T21:58:49+02:00*
G04 #@! TF.ProjectId,MasterShield,4d617374-6572-4536-9869-656c642e6b69,rev?*
G04 #@! TF.SameCoordinates,Original*
G04 #@! TF.FileFunction,Paste,Top*
G04 #@! TF.FilePolarity,Positive*
%FSLAX46Y46*%
G04 Gerber Fmt 4.6, Leading zero omitted, Abs format (unit mm)*
G04 Created by KiCad (PCBNEW 7.0.10) date 2024-03-17 21:58:49*
%MOMM*%
%LPD*%
G01*
G04 APERTURE LIST*
G04 Aperture macros list*
%AMRoundRect*
0 Rectangle with rounded corners*
0 $1 Rounding radius*
0 $2 $3 $4 $5 $6 $7 $8 $9 X,Y pos of 4 corners*
0 Add a 4 corners polygon primitive as box body*
4,1,4,$2,$3,$4,$5,$6,$7,$8,$9,$2,$3,0*
0 Add four circle primitives for the rounded corners*
1,1,$1+$1,$2,$3*
1,1,$1+$1,$4,$5*
1,1,$1+$1,$6,$7*
1,1,$1+$1,$8,$9*
0 Add four rect primitives between the rounded corners*
20,1,$1+$1,$2,$3,$4,$5,0*
20,1,$1+$1,$4,$5,$6,$7,0*
20,1,$1+$1,$6,$7,$8,$9,0*
20,1,$1+$1,$8,$9,$2,$3,0*%
G04 Aperture macros list end*
%ADD10RoundRect,0.250000X0.262500X0.450000X-0.262500X0.450000X-0.262500X-0.450000X0.262500X-0.450000X0*%
%ADD11RoundRect,0.250000X-0.875000X-1.025000X0.875000X-1.025000X0.875000X1.025000X-0.875000X1.025000X0*%
%ADD12RoundRect,0.250000X0.450000X-0.262500X0.450000X0.262500X-0.450000X0.262500X-0.450000X-0.262500X0*%
%ADD13RoundRect,0.250000X-0.262500X-0.450000X0.262500X-0.450000X0.262500X0.450000X-0.262500X0.450000X0*%
%ADD14RoundRect,0.250000X0.250000X-0.250000X0.250000X0.250000X-0.250000X0.250000X-0.250000X-0.250000X0*%
%ADD15RoundRect,0.250000X-0.450000X0.262500X-0.450000X-0.262500X0.450000X-0.262500X0.450000X0.262500X0*%
%ADD16RoundRect,0.250000X-0.250000X-0.250000X0.250000X-0.250000X0.250000X0.250000X-0.250000X0.250000X0*%
%ADD17RoundRect,0.150000X0.150000X-0.675000X0.150000X0.675000X-0.150000X0.675000X-0.150000X-0.675000X0*%
%ADD18R,0.400000X0.650000*%
%ADD19RoundRect,0.250000X-0.475000X0.250000X-0.475000X-0.250000X0.475000X-0.250000X0.475000X0.250000X0*%
%ADD20RoundRect,0.243750X0.456250X-0.243750X0.456250X0.243750X-0.456250X0.243750X-0.456250X-0.243750X0*%
%ADD21RoundRect,0.150000X-0.150000X0.587500X-0.150000X-0.587500X0.150000X-0.587500X0.150000X0.587500X0*%
%ADD22RoundRect,0.150000X-0.512500X-0.150000X0.512500X-0.150000X0.512500X0.150000X-0.512500X0.150000X0*%
%ADD23RoundRect,0.250000X0.250000X0.475000X-0.250000X0.475000X-0.250000X-0.475000X0.250000X-0.475000X0*%
%ADD24R,1.950000X0.550000*%
%ADD25RoundRect,0.250000X-0.300000X2.050000X-0.300000X-2.050000X0.300000X-2.050000X0.300000X2.050000X0*%
%ADD26RoundRect,0.250000X-2.375000X2.025000X-2.375000X-2.025000X2.375000X-2.025000X2.375000X2.025000X0*%
%ADD27RoundRect,0.250000X1.000000X-1.950000X1.000000X1.950000X-1.000000X1.950000X-1.000000X-1.950000X0*%
%ADD28RoundRect,0.150000X0.587500X0.150000X-0.587500X0.150000X-0.587500X-0.150000X0.587500X-0.150000X0*%
%ADD29RoundRect,0.243750X-0.456250X0.243750X-0.456250X-0.243750X0.456250X-0.243750X0.456250X0.243750X0*%
%ADD30RoundRect,0.150000X0.150000X-0.825000X0.150000X0.825000X-0.150000X0.825000X-0.150000X-0.825000X0*%
%ADD31RoundRect,0.235000X1.465000X-0.940000X1.465000X0.940000X-1.465000X0.940000X-1.465000X-0.940000X0*%
%ADD32RoundRect,0.125000X-0.537500X-0.125000X0.537500X-0.125000X0.537500X0.125000X-0.537500X0.125000X0*%
G04 APERTURE END LIST*
D10*
X208459500Y-64643000D03*
X206634500Y-64643000D03*
X225552000Y-96012000D03*
X223727000Y-96012000D03*
D11*
X220701000Y-102489000D03*
X227101000Y-102489000D03*
D12*
X245872000Y-71270500D03*
X245872000Y-69445500D03*
X207645000Y-103378000D03*
X207645000Y-101553000D03*
D10*
X230298000Y-86995000D03*
X228473000Y-86995000D03*
D13*
X210138000Y-75565000D03*
X211963000Y-75565000D03*
D14*
X206888500Y-75779000D03*
X206888500Y-73279000D03*
D12*
X231893856Y-66444500D03*
X231893856Y-64619500D03*
D13*
X211183000Y-64643000D03*
X213008000Y-64643000D03*
D10*
X239291500Y-79502000D03*
X237466500Y-79502000D03*
D15*
X217932000Y-64596000D03*
X217932000Y-66421000D03*
D13*
X218647000Y-91440000D03*
X220472000Y-91440000D03*
D16*
X223921000Y-106934000D03*
X226421000Y-106934000D03*
D17*
X229362000Y-94531000D03*
X230632000Y-94531000D03*
X231902000Y-94531000D03*
X233172000Y-94531000D03*
X233172000Y-89281000D03*
X231902000Y-89281000D03*
X230632000Y-89281000D03*
X229362000Y-89281000D03*
D18*
X240807000Y-69281000D03*
X240157000Y-69281000D03*
X239507000Y-69281000D03*
X239507000Y-71181000D03*
X240807000Y-71181000D03*
D19*
X215138000Y-73660000D03*
X215138000Y-75560000D03*
D13*
X235646570Y-65532000D03*
X237471570Y-65532000D03*
D10*
X225552000Y-91440000D03*
X223727000Y-91440000D03*
D12*
X217932000Y-71971500D03*
X217932000Y-70146500D03*
D20*
X228346000Y-59817000D03*
X228346000Y-57942000D03*
D15*
X222578666Y-70146500D03*
X222578666Y-71971500D03*
D21*
X233868000Y-79532000D03*
X231968000Y-79532000D03*
X232918000Y-81407000D03*
D22*
X210571500Y-68900000D03*
X210571500Y-69850000D03*
X210571500Y-70800000D03*
X212846500Y-70800000D03*
X212846500Y-68900000D03*
D23*
X240792000Y-74295000D03*
X238892000Y-74295000D03*
D15*
X222578666Y-64596000D03*
X222578666Y-66421000D03*
D12*
X244221000Y-81534000D03*
X244221000Y-79709000D03*
D20*
X224917000Y-59817000D03*
X224917000Y-57942000D03*
D24*
X247193000Y-96901000D03*
X247193000Y-95631000D03*
X247193000Y-94361000D03*
X247193000Y-93091000D03*
X247193000Y-91821000D03*
X247193000Y-90551000D03*
X247193000Y-89281000D03*
X247193000Y-88011000D03*
X247193000Y-86741000D03*
X247193000Y-85471000D03*
X237693000Y-85471000D03*
X237693000Y-86741000D03*
X237693000Y-88011000D03*
X237693000Y-89281000D03*
X237693000Y-90551000D03*
X237693000Y-91821000D03*
X237693000Y-93091000D03*
X237693000Y-94361000D03*
X237693000Y-95631000D03*
X237693000Y-96901000D03*
D10*
X220472000Y-86868000D03*
X218647000Y-86868000D03*
D15*
X243332000Y-74248000D03*
X243332000Y-76073000D03*
D25*
X226666000Y-111954000D03*
X224966000Y-111954000D03*
X223266000Y-111954000D03*
D26*
X226041000Y-118679000D03*
X220491000Y-118679000D03*
X226041000Y-123529000D03*
X220491000Y-123529000D03*
D25*
X221566000Y-111954000D03*
X219866000Y-111954000D03*
D15*
X241274600Y-64697600D03*
X241274600Y-66522600D03*
D12*
X245889500Y-66444500D03*
X245889500Y-64619500D03*
D19*
X227203000Y-70109000D03*
X227203000Y-72009000D03*
D14*
X206888500Y-70719000D03*
X206888500Y-68219000D03*
D27*
X234696000Y-111379000D03*
X234696000Y-102979000D03*
D28*
X215997000Y-88580000D03*
X215997000Y-86680000D03*
X214122000Y-87630000D03*
D10*
X239268000Y-81915000D03*
X237443000Y-81915000D03*
D12*
X207645000Y-99314000D03*
X207645000Y-97489000D03*
D29*
X228727000Y-83185000D03*
X228727000Y-85060000D03*
D10*
X220472000Y-96012000D03*
X218647000Y-96012000D03*
D30*
X231648000Y-74738000D03*
X232918000Y-74738000D03*
X234188000Y-74738000D03*
X235458000Y-74738000D03*
X235458000Y-69788000D03*
X234188000Y-69788000D03*
X232918000Y-69788000D03*
X231648000Y-69788000D03*
D15*
X227228642Y-64619500D03*
X227228642Y-66444500D03*
D31*
X233426000Y-122509000D03*
X233426000Y-116459000D03*
D13*
X223727000Y-86868000D03*
X225552000Y-86868000D03*
D32*
X223652500Y-81575000D03*
X223652500Y-82225000D03*
X223652500Y-82875000D03*
X223652500Y-83525000D03*
X225927500Y-83525000D03*
X225927500Y-82875000D03*
X225927500Y-82225000D03*
X225927500Y-81575000D03*
M02*
